<?xml version="1.0" encoding="utf-8"?>
<!-- Generator: Adobe Illustrator 23.0.1, SVG Export Plug-In . SVG Version: 6.00 Build 0)  -->
<svg version="1.1" id="Layer_1" xmlns="http://www.w3.org/2000/svg" xmlns:xlink="http://www.w3.org/1999/xlink" x="0px" y="0px"
	 viewBox="0 0 1000 331" style="enable-background:new 0 0 1000 331;" xml:space="preserve">
<style type="text/css">
	.st0{fill:url(#SVGID_1_);}
	.st1{fill:#FFFFFF;}
</style>
<linearGradient id="SVGID_1_" gradientUnits="userSpaceOnUse" x1="17.1897" y1="231.0625" x2="836.2967" y2="123.2251">
	<stop  offset="0" style="stop-color:#000833"/>
	<stop  offset="1" style="stop-color:#000833"/>
</linearGradient>
<rect class="st0" width="1000" height="335"/>
<rect x="952" y="287" transform="matrix(0.7071 -0.7071 0.7071 0.7071 56.0122 805.2228)" class="st1" width="96" height="96"/>
<g>
	<rect x="968.9" y="306.1" transform="matrix(0.7071 -0.7071 0.7071 0.7071 68.724 781.7299)" width="18.2" height="3.6"/>
	<path d="M979.3,293.7c-0.9,0.9-4.2,4.2-5.2,5.2l2.6,2.6c1-1,4.2-4.2,5.2-5.2c2.1-2.1,5.6-2.1,7.7,0c2.1,2.1,2.1,5.6,0,7.7
		c-1,1-4.2,4.2-5.2,5.2l2.6,2.6c0.9-0.9,4.2-4.2,5.2-5.2c3.6-3.6,3.6-9.3,0-12.9C988.6,290.1,982.8,290.1,979.3,293.7L979.3,293.7z
		 M976.7,322.1c0.9-0.9,4.2-4.2,5.2-5.2l-2.6-2.6c-1,1-4.2,4.2-5.2,5.2c-2.1,2.1-5.6,2.1-7.7,0c-2.1-2.1-2.1-5.6,0-7.7
		c1-1,4.2-4.2,5.2-5.2L969,304c-0.9,0.9-4.2,4.2-5.2,5.2c-3.6,3.6-3.6,9.3,0,12.9C967.4,325.6,973.2,325.6,976.7,322.1L976.7,322.1z
		"/>
</g>
<g>
	<g>
		<path class="st1" d="M314.3,299.3c0-0.1,0-0.1,0-0.2l4.8-23.6c0.1-0.3,0.2-0.5,0.5-0.7c0.3-0.2,0.5-0.3,0.9-0.3h4.6
			c0.2,0,0.4,0,0.6,0.1c0.2,0.1,0.4,0.2,0.5,0.3s0.2,0.3,0.3,0.5l4.8,23.6c0,0,0,0.1,0,0.2c0,0.2-0.1,0.4-0.3,0.6s-0.4,0.2-0.7,0.2
			h-3.1c-0.6,0-0.9-0.3-0.9-0.8l-1.1-5.9h-4.7l-1.1,5.9c-0.1,0.3-0.2,0.5-0.3,0.6s-0.4,0.2-0.7,0.2h-3.1c-0.3,0-0.5-0.1-0.7-0.2
			C314.4,299.7,314.3,299.5,314.3,299.3z M324.5,289l-1.6-9.2c0-0.1,0-0.1-0.1-0.1c0,0-0.1,0-0.1,0c0,0-0.1,0-0.1,0
			c0,0-0.1,0.1-0.1,0.1L321,289H324.5z"/>
		<path class="st1" d="M333.4,299v-23.3c0-0.2,0.1-0.4,0.2-0.6c0.1-0.2,0.2-0.3,0.4-0.4c0.2-0.1,0.3-0.2,0.5-0.2h7.3
			c0.8,0,1.6,0.1,2.3,0.4c0.7,0.3,1.4,0.7,2,1.2c0.6,0.5,1.1,1.1,1.5,1.8c0.6,1.1,0.9,2.2,0.9,3.4l0,11.7c0,0.8-0.1,1.6-0.4,2.4
			s-0.6,1.5-1.1,2.1c-0.5,0.6-1.1,1.2-1.7,1.6c-1,0.7-2.1,1-3.4,1h-4.1c0,0,0,0-0.1,0c0,0-0.1,0-0.1,0h-3.4c-0.2,0-0.3,0-0.5-0.1
			c-0.2-0.1-0.3-0.2-0.4-0.4C333.4,299.4,333.4,299.2,333.4,299z M340.9,295.7c0.5,0,1-0.1,1.5-0.4c0.5-0.3,0.8-0.7,1.1-1.1
			c0.3-0.5,0.4-1,0.4-1.5v-11.1c0-0.5-0.1-0.9-0.4-1.4c-0.2-0.4-0.6-0.8-1-1c-0.4-0.2-0.9-0.4-1.4-0.4h-3.1c-0.1,0-0.3,0.1-0.4,0.2
			c-0.1,0.1-0.2,0.2-0.2,0.4v16.1c0,0.1,0,0.2,0.1,0.2c0.1,0.1,0.1,0.1,0.2,0.1H340.9z"/>
		<path class="st1" d="M351.7,299v-23.3c0-0.2,0.1-0.4,0.2-0.6c0.1-0.2,0.2-0.3,0.4-0.4c0.2-0.1,0.3-0.2,0.5-0.2h7.3
			c0.8,0,1.6,0.1,2.3,0.4c0.7,0.3,1.4,0.7,2,1.2c0.6,0.5,1.1,1.1,1.5,1.8c0.6,1.1,0.9,2.2,0.9,3.4l0,11.7c0,0.8-0.1,1.6-0.4,2.4
			s-0.6,1.5-1.1,2.1c-0.5,0.6-1.1,1.2-1.7,1.6c-1,0.7-2.1,1-3.4,1h-4.1c0,0,0,0-0.1,0c0,0-0.1,0-0.1,0h-3.4c-0.2,0-0.3,0-0.5-0.1
			c-0.2-0.1-0.3-0.2-0.4-0.4C351.7,299.4,351.7,299.2,351.7,299z M359.2,295.7c0.5,0,1-0.1,1.5-0.4c0.5-0.3,0.8-0.7,1.1-1.1
			c0.3-0.5,0.4-1,0.4-1.5v-11.1c0-0.5-0.1-0.9-0.4-1.4c-0.2-0.4-0.6-0.8-1-1c-0.4-0.2-0.9-0.4-1.4-0.4h-3.1c-0.1,0-0.3,0.1-0.4,0.2
			c-0.1,0.1-0.2,0.2-0.2,0.4v16.1c0,0.1,0,0.2,0.1,0.2c0.1,0.1,0.1,0.1,0.2,0.1H359.2z"/>
		<path class="st1" d="M370.6,299.1v-23.6c0-0.3,0.1-0.5,0.3-0.7c0.2-0.2,0.4-0.3,0.7-0.3h2.7c0.2,0,0.3,0,0.4,0.1
			c0.1,0.1,0.3,0.2,0.3,0.4c0.1,0.2,0.1,0.3,0.1,0.5v23.6c0,0.2,0,0.3-0.1,0.5s-0.2,0.3-0.3,0.4c-0.1,0.1-0.3,0.1-0.4,0.1h-2.7
			c-0.3,0-0.5-0.1-0.7-0.3C370.7,299.6,370.6,299.4,370.6,299.1z"/>
		<path class="st1" d="M381.9,299v-20.4h-3c-0.3,0-0.6-0.1-0.8-0.2c-0.2-0.2-0.3-0.4-0.3-0.6v-2.4c0-0.3,0.1-0.5,0.3-0.6
			c0.2-0.2,0.5-0.2,0.8-0.2h10.7c0.2,0,0.4,0,0.5,0.1c0.2,0.1,0.3,0.2,0.4,0.3c0.1,0.1,0.1,0.3,0.1,0.4v2.4c0,0.2,0,0.3-0.1,0.4
			c-0.1,0.1-0.2,0.2-0.4,0.3c-0.2,0.1-0.3,0.1-0.5,0.1h-3.1V299c0,0.3-0.1,0.5-0.3,0.7c-0.2,0.2-0.4,0.3-0.7,0.3h-2.7
			c-0.2,0-0.3,0-0.5-0.1s-0.3-0.2-0.4-0.4C382,299.4,381.9,299.2,381.9,299z"/>
		<path class="st1" d="M393.4,299.1v-23.6c0-0.3,0.1-0.5,0.3-0.7c0.2-0.2,0.4-0.3,0.7-0.3h2.7c0.2,0,0.3,0,0.4,0.1
			c0.1,0.1,0.3,0.2,0.3,0.4c0.1,0.2,0.1,0.3,0.1,0.5v23.6c0,0.2,0,0.3-0.1,0.5s-0.2,0.3-0.3,0.4c-0.1,0.1-0.3,0.1-0.4,0.1h-2.7
			c-0.3,0-0.5-0.1-0.7-0.3C393.5,299.6,393.4,299.4,393.4,299.1z"/>
		<path class="st1" d="M402.9,296.7c-0.6-1.1-0.9-2.3-0.9-3.6v-12c0-0.9,0.1-1.7,0.4-2.4c0.3-0.8,0.7-1.5,1.2-2.1
			c0.5-0.6,1.1-1.1,1.9-1.6c1-0.6,2.2-0.9,3.5-0.9h1.2c0.8,0,1.6,0.1,2.4,0.4c0.8,0.3,1.5,0.7,2.1,1.2c0.6,0.5,1.1,1.1,1.6,1.8
			c0.6,1,0.9,2.2,0.9,3.5l0,12c0,0.8-0.1,1.6-0.4,2.4s-0.7,1.5-1.2,2.1c-0.5,0.6-1.1,1.2-1.9,1.6c-1.1,0.7-2.2,1-3.5,1H409
			c-0.8,0-1.6-0.1-2.4-0.4c-0.8-0.3-1.5-0.7-2.1-1.2C403.8,298.1,403.3,297.4,402.9,296.7z M409.6,296c0.5,0,1-0.1,1.4-0.4
			c0.4-0.3,0.8-0.6,1-1.1c0.3-0.5,0.4-1,0.4-1.5V281c0-0.5-0.1-1-0.4-1.4c-0.3-0.4-0.6-0.8-1-1c-0.4-0.2-0.9-0.4-1.5-0.4h-0.1
			c-0.5,0-1,0.1-1.5,0.4c-0.4,0.2-0.8,0.6-1.1,1c-0.3,0.4-0.4,0.9-0.4,1.4V293c0,0.5,0.1,1,0.4,1.5c0.3,0.5,0.6,0.8,1.1,1.1
			c0.4,0.3,0.9,0.4,1.5,0.4H409.6z"/>
		<path class="st1" d="M420.3,299v-23.6c0-0.2,0-0.3,0.1-0.5c0.1-0.2,0.2-0.3,0.4-0.4c0.2-0.1,0.3-0.1,0.5-0.1h4.3
			c0.2,0,0.4,0,0.6,0.1s0.4,0.2,0.5,0.3c0.1,0.1,0.2,0.3,0.3,0.4l5.3,15.8l-0.4-15.8c0-0.3,0.1-0.5,0.3-0.7c0.2-0.2,0.4-0.3,0.7-0.3
			h2.8c0.2,0,0.3,0,0.4,0.1s0.3,0.2,0.4,0.3s0.1,0.2,0.1,0.3v23.6c0,0.4-0.1,0.7-0.3,0.9c-0.2,0.2-0.4,0.3-0.7,0.3h-3.8
			c-0.3,0-0.5-0.1-0.8-0.3s-0.4-0.4-0.5-0.6l-5.9-16.2L425,299c0,0.3-0.1,0.5-0.3,0.7c-0.2,0.2-0.4,0.3-0.7,0.3h-2.7
			c-0.2,0-0.3,0-0.5-0.1s-0.3-0.2-0.4-0.4C420.4,299.4,420.3,299.2,420.3,299z"/>
		<path class="st1" d="M438.3,299.3c0-0.1,0-0.1,0-0.2l4.8-23.6c0.1-0.3,0.2-0.5,0.5-0.7c0.3-0.2,0.5-0.3,0.9-0.3h4.6
			c0.2,0,0.4,0,0.6,0.1c0.2,0.1,0.4,0.2,0.5,0.3s0.2,0.3,0.3,0.5l4.8,23.6c0,0,0,0.1,0,0.2c0,0.2-0.1,0.4-0.3,0.6s-0.4,0.2-0.7,0.2
			h-3.1c-0.6,0-0.9-0.3-0.9-0.8l-1.1-5.9h-4.7l-1.1,5.9c-0.1,0.3-0.2,0.5-0.3,0.6s-0.4,0.2-0.7,0.2h-3.1c-0.3,0-0.5-0.1-0.7-0.2
			C438.4,299.7,438.3,299.5,438.3,299.3z M448.5,289l-1.6-9.2c0-0.1,0-0.1-0.1-0.1c0,0-0.1,0-0.1,0c0,0-0.1,0-0.1,0
			c0,0-0.1,0.1-0.1,0.1L445,289H448.5z"/>
		<path class="st1" d="M457.2,299.2v-23.9c0-0.2,0-0.3,0.1-0.5c0.1-0.1,0.2-0.3,0.3-0.3s0.3-0.1,0.4-0.1h2.7c0.2,0,0.3,0,0.4,0.1
			s0.3,0.2,0.3,0.3c0.1,0.1,0.1,0.3,0.1,0.5v20.3h5.5c0.3,0,0.5,0.1,0.6,0.2c0.2,0.2,0.2,0.4,0.2,0.6v2.7c0,0.2-0.1,0.5-0.2,0.6
			s-0.4,0.3-0.6,0.3h-9.1c-0.2,0-0.3,0-0.4-0.1c-0.1-0.1-0.2-0.2-0.3-0.3C457.3,299.5,457.2,299.3,457.2,299.2z"/>
		<path class="st1" d="M476.5,298.3c-0.6-0.7-1.1-1.4-1.4-2.3c-0.3-0.9-0.5-1.8-0.5-2.7v0c0-0.2,0.1-0.4,0.2-0.6
			c0.1-0.2,0.3-0.3,0.4-0.5c0.2-0.1,0.4-0.2,0.6-0.2h2.6c0,0,0,0,0.1,0c0,0,0.1,0,0.1,0h0.1c0.2,0.1,0.4,0.2,0.5,0.4
			c0.1,0.2,0.2,0.4,0.2,0.6v0.4c0,0.4,0.1,0.7,0.2,1.1c0.2,0.3,0.4,0.6,0.6,0.9s0.6,0.4,0.9,0.5c0.3,0.1,0.5,0.1,0.8,0.1h0.1
			c0.1,0,0.2,0,0.2,0c0.1,0,0.1,0,0.1,0h0c0.4,0,0.8-0.2,1.2-0.4c0.4-0.2,0.6-0.5,0.9-0.9c0.2-0.4,0.3-0.8,0.3-1.2l0.1-1.8
			c0-0.6-0.2-1.2-0.4-1.6s-0.6-0.8-1.1-1c-0.6-0.3-1.5-0.5-2.7-0.5l-0.7-0.1c-1.4-0.1-2.5-0.5-3.2-1.2s-1.2-1.5-1.4-2.5
			c-0.2-0.9-0.3-2-0.3-3.1l0-1.3l0-0.5c0.1-0.8,0.2-1.4,0.3-1.9c0.1-0.4,0.3-0.8,0.4-1.2c0.2-0.3,0.5-0.7,0.8-1
			c0.6-0.6,1.3-1,2.1-1.3c0.8-0.3,1.7-0.4,2.6-0.4h1.1c0.9,0,1.7,0.2,2.4,0.5c0.8,0.3,1.5,0.8,2.1,1.4c0.6,0.6,1.1,1.3,1.4,2.1
			c0.3,0.8,0.5,1.7,0.5,2.6v0c0,0.2,0,0.4-0.1,0.6c-0.1,0.2-0.2,0.3-0.4,0.4c-0.2,0.1-0.3,0.1-0.5,0.1h-2.5c-0.3,0-0.5-0.1-0.7-0.3
			c-0.2-0.2-0.3-0.4-0.3-0.7v-0.3c0-0.4-0.1-0.7-0.2-1c-0.2-0.3-0.4-0.6-0.6-0.8c-0.3-0.2-0.6-0.4-0.9-0.5c-0.2-0.1-0.5-0.1-0.7-0.1
			h-0.3c0,0-0.1,0-0.2,0c-0.4,0-0.8,0.2-1.2,0.4c-0.3,0.2-0.6,0.5-0.8,0.8s-0.3,0.7-0.3,1.1v2.1c0,0.5,0.2,0.9,0.5,1.1
			c0.3,0.3,0.7,0.5,1.2,0.6s1.2,0.2,2.1,0.2c2.2,0.2,3.8,0.8,4.8,2c1.1,1.2,1.6,2.9,1.6,5.1c0,0.6,0,1.3-0.1,1.8
			c-0.1,0.6-0.2,1.2-0.4,1.8c-0.2,0.6-0.5,1.3-0.9,1.8c-0.6,0.9-1.4,1.7-2.4,2.2c-1,0.5-2,0.8-3.1,0.8h-1.1c-0.9,0-1.7-0.2-2.5-0.5
			C477.9,299.5,477.2,299,476.5,298.3z"/>
		<path class="st1" d="M492.3,299.2v-23.7c0-0.2,0-0.3,0.1-0.5c0.1-0.1,0.2-0.3,0.3-0.4c0.1-0.1,0.3-0.1,0.5-0.1h2.7
			c0.2,0,0.3,0,0.4,0.1c0.1,0.1,0.2,0.2,0.3,0.4c0.1,0.1,0.1,0.3,0.1,0.5v6.7l4.5-7c0.2-0.2,0.3-0.4,0.5-0.5s0.4-0.2,0.6-0.2l2.7,0
			c0.2,0,0.4,0.1,0.6,0.2c0.2,0.1,0.3,0.3,0.4,0.4c0.1,0.2,0.2,0.3,0.2,0.5c0,0.2,0,0.4-0.1,0.5l-6.4,9.8l8.1,12.4
			c0.1,0.3,0.2,0.5,0.2,0.7c0,0.2,0,0.4-0.1,0.6c-0.1,0.2-0.2,0.3-0.4,0.4c-0.2,0.1-0.4,0.1-0.6,0.1h-3.1c-0.2,0-0.4-0.1-0.6-0.2
			s-0.3-0.3-0.5-0.5l-6.1-9.6v9.4c0,0.1,0,0.3-0.1,0.4c-0.1,0.1-0.2,0.2-0.3,0.3s-0.3,0.1-0.4,0.1h-2.7c-0.2,0-0.3,0-0.5-0.1
			c-0.1-0.1-0.3-0.2-0.3-0.3C492.4,299.5,492.3,299.4,492.3,299.2z"/>
		<path class="st1" d="M510.9,299.1v-23.6c0-0.3,0.1-0.5,0.3-0.7c0.2-0.2,0.4-0.3,0.7-0.3h2.7c0.2,0,0.3,0,0.4,0.1
			c0.1,0.1,0.3,0.2,0.3,0.4c0.1,0.2,0.1,0.3,0.1,0.5v23.6c0,0.2,0,0.3-0.1,0.5c-0.1,0.2-0.2,0.3-0.3,0.4c-0.1,0.1-0.3,0.1-0.4,0.1
			h-2.7c-0.3,0-0.5-0.1-0.7-0.3C511,299.6,510.9,299.4,510.9,299.1z"/>
		<path class="st1" d="M519.5,299.2v-23.9c0-0.2,0-0.3,0.1-0.5c0.1-0.1,0.2-0.3,0.3-0.3c0.1-0.1,0.3-0.1,0.4-0.1h2.7
			c0.2,0,0.3,0,0.4,0.1c0.1,0.1,0.3,0.2,0.3,0.3c0.1,0.1,0.1,0.3,0.1,0.5v20.3h5.5c0.3,0,0.5,0.1,0.6,0.2c0.2,0.2,0.2,0.4,0.2,0.6
			v2.7c0,0.2-0.1,0.5-0.2,0.6c-0.2,0.2-0.4,0.3-0.6,0.3h-9.1c-0.2,0-0.3,0-0.4-0.1c-0.1-0.1-0.2-0.2-0.3-0.3
			C519.5,299.5,519.5,299.3,519.5,299.2z"/>
		<path class="st1" d="M532.3,299.2v-23.9c0-0.2,0-0.3,0.1-0.5c0.1-0.1,0.2-0.3,0.3-0.3c0.1-0.1,0.3-0.1,0.4-0.1h2.7
			c0.2,0,0.3,0,0.4,0.1c0.1,0.1,0.3,0.2,0.3,0.3c0.1,0.1,0.1,0.3,0.1,0.5v20.3h5.5c0.3,0,0.5,0.1,0.6,0.2c0.2,0.2,0.2,0.4,0.2,0.6
			v2.7c0,0.2-0.1,0.5-0.2,0.6c-0.2,0.2-0.4,0.3-0.6,0.3h-9.1c-0.2,0-0.3,0-0.4-0.1c-0.1-0.1-0.2-0.2-0.3-0.3
			C532.4,299.5,532.3,299.3,532.3,299.2z"/>
		<path class="st1" d="M550.9,299.2v-23.6c0-0.2,0-0.3,0.1-0.5c0.1-0.2,0.2-0.3,0.4-0.4c0.2-0.1,0.3-0.1,0.5-0.1h7.2
			c1.1,0,2.1,0.2,2.9,0.7s1.5,1,2,1.8s0.7,1.6,0.7,2.6v4.5c0,0.6-0.1,1.2-0.3,1.7s-0.5,1-0.9,1.5c-0.4,0.4-0.9,0.8-1.4,1.1l0,0.1
			l3.6,10.7c0,0,0,0.1,0,0.3c0,0.2-0.1,0.3-0.2,0.4c-0.1,0.1-0.3,0.2-0.5,0.2h-3.2c-0.2,0-0.3,0-0.5-0.1c-0.2-0.1-0.3-0.2-0.4-0.3
			c-0.1-0.1-0.2-0.3-0.3-0.4l-3-9.1c-0.3-0.2-0.6-0.3-0.9-0.3c-0.4,0-0.7,0.1-1,0.4v8.9c0,0.2-0.1,0.4-0.3,0.6
			c-0.2,0.2-0.4,0.2-0.7,0.2h-2.9c-0.3,0-0.5-0.1-0.7-0.2C551,299.6,550.9,299.4,550.9,299.2z M558,285.4c0.4,0,0.7-0.1,1-0.3
			c0.3-0.2,0.6-0.4,0.7-0.7c0.2-0.3,0.3-0.6,0.3-1v-3.3c0-0.4-0.1-0.7-0.3-1c-0.2-0.3-0.4-0.5-0.7-0.7c-0.3-0.2-0.7-0.3-1-0.3h-2
			c-0.1,0-0.2,0.1-0.3,0.2s-0.1,0.2-0.1,0.4v6.1c0,0.2,0.1,0.3,0.2,0.4c0.1,0.1,0.3,0.2,0.4,0.2H558z"/>
		<path class="st1" d="M568.8,299v-23.6c0-0.3,0.1-0.5,0.3-0.7s0.4-0.3,0.7-0.3h10.8c0.3,0,0.5,0.1,0.7,0.3c0.2,0.2,0.3,0.4,0.3,0.7
			v2.5c0,0.2,0,0.3-0.1,0.5c-0.1,0.2-0.2,0.3-0.4,0.4c-0.2,0.1-0.3,0.1-0.5,0.1h-7.4v5.6h5.6c0.3,0,0.5,0.1,0.7,0.3
			c0.2,0.2,0.3,0.4,0.3,0.7v2.6c0,0.3-0.1,0.5-0.3,0.7c-0.2,0.2-0.4,0.3-0.7,0.3h-5.6v6.6h7.4c0.3,0,0.5,0.1,0.7,0.3
			c0.2,0.2,0.3,0.4,0.3,0.7v2.5c0,0.2,0,0.3-0.1,0.5c-0.1,0.2-0.2,0.3-0.4,0.4c-0.2,0.1-0.3,0.1-0.5,0.1h-10.8
			c-0.3,0-0.5-0.1-0.7-0.3C568.9,299.5,568.8,299.2,568.8,299z"/>
		<path class="st1" d="M597.2,304.7l-9-5.3l-1.1-0.7l-0.3-0.2c-0.8-0.7-1.5-1.5-2-2.5c-0.5-1-0.7-2-0.7-3.2v-12
			c0-0.8,0.1-1.6,0.4-2.4c0.3-0.8,0.7-1.5,1.2-2.1c0.5-0.6,1.1-1.1,1.8-1.6c0.5-0.3,1.1-0.5,1.6-0.7c0.6-0.2,1.2-0.2,1.8-0.2h1.2
			c0.8,0,1.6,0.1,2.4,0.4c0.8,0.3,1.4,0.7,2.1,1.2c0.6,0.5,1.1,1.1,1.6,1.8c0.6,1.1,0.9,2.2,0.9,3.5v12c0,0.8-0.1,1.7-0.4,2.5
			c-0.3,0.8-0.7,1.5-1.2,2.1c-0.5,0.6-1.1,1.2-1.8,1.6l3.5,2.1c0.2,0.1,0.4,0.2,0.5,0.4c0.1,0.2,0.2,0.4,0.2,0.6c0,0,0,0.1,0,0.2
			s0,0.1,0,0.2l-1.2,2c-0.1,0.2-0.3,0.3-0.7,0.3C597.7,305,597.5,304.9,597.2,304.7z M591.7,295.8c0.5,0,1-0.1,1.4-0.4
			c0.4-0.3,0.8-0.6,1-1.1s0.4-1,0.4-1.5l0-11.9c0-0.5-0.1-1-0.4-1.4c-0.3-0.4-0.6-0.8-1-1c-0.4-0.3-0.9-0.4-1.4-0.4h-0.1
			c-0.5,0-1,0.1-1.5,0.4c-0.5,0.3-0.8,0.6-1.1,1s-0.4,0.9-0.4,1.4l0.1,11.9c0,0.5,0.1,1,0.4,1.5s0.6,0.8,1.1,1.1
			c0.4,0.3,0.9,0.4,1.4,0.4H591.7z"/>
		<path class="st1" d="M604.3,296.5c-0.7-1.1-1-2.3-1-3.6l0-16.8c0-0.4,0.1-0.8,0.2-1s0.3-0.4,0.5-0.5s0.5-0.1,0.9-0.1h1.3
			c0.4,0,0.6,0,0.7,0c0.1,0,0.2,0,0.3,0.1c0.1,0,0.2,0.1,0.3,0.2c0.1,0.1,0.2,0.2,0.3,0.5c0.1,0.2,0.1,0.5,0.1,0.9l0,16.6
			c0,0.5,0.1,1,0.4,1.5c0.3,0.5,0.6,0.8,1.1,1.1c0.4,0.3,0.9,0.4,1.4,0.4h0.6c0.5,0,1-0.1,1.4-0.4c0.4-0.3,0.8-0.6,1-1.1
			s0.4-1,0.4-1.5l0-16.6c0-0.4,0.1-0.8,0.2-1c0.1-0.2,0.3-0.4,0.5-0.5c0.2-0.1,0.5-0.1,0.9-0.1h1.4c0.4,0,0.8,0,1,0.1
			c0.2,0.1,0.4,0.3,0.5,0.5c0.1,0.2,0.2,0.6,0.2,1l0,16.8c0,0.9-0.1,1.7-0.4,2.4c-0.3,0.8-0.7,1.5-1.3,2.1c-0.5,0.6-1.2,1.2-1.9,1.6
			c-1.1,0.7-2.3,1-3.6,1h-1.3c-0.9,0-1.7-0.1-2.5-0.4c-0.8-0.3-1.5-0.7-2.1-1.2C605.2,297.9,604.7,297.3,604.3,296.5z"/>
		<path class="st1" d="M622.5,299.1v-23.6c0-0.3,0.1-0.5,0.3-0.7c0.2-0.2,0.4-0.3,0.7-0.3h2.7c0.2,0,0.3,0,0.4,0.1
			c0.1,0.1,0.3,0.2,0.3,0.4c0.1,0.2,0.1,0.3,0.1,0.5v23.6c0,0.2,0,0.3-0.1,0.5c-0.1,0.2-0.2,0.3-0.3,0.4c-0.1,0.1-0.3,0.1-0.4,0.1
			h-2.7c-0.3,0-0.5-0.1-0.7-0.3C622.6,299.6,622.5,299.4,622.5,299.1z"/>
		<path class="st1" d="M631.3,299.2v-23.6c0-0.2,0-0.3,0.1-0.5c0.1-0.2,0.2-0.3,0.4-0.4c0.2-0.1,0.3-0.1,0.5-0.1h7.2
			c1.1,0,2.1,0.2,2.9,0.7s1.5,1,2,1.8s0.7,1.6,0.7,2.6v4.5c0,0.6-0.1,1.2-0.3,1.7s-0.5,1-0.9,1.5c-0.4,0.4-0.9,0.8-1.4,1.1l0,0.1
			l3.6,10.7c0,0,0,0.1,0,0.3c0,0.2-0.1,0.3-0.2,0.4c-0.1,0.1-0.3,0.2-0.5,0.2h-3.2c-0.2,0-0.3,0-0.5-0.1c-0.2-0.1-0.3-0.2-0.4-0.3
			c-0.1-0.1-0.2-0.3-0.3-0.4l-3-9.1c-0.3-0.2-0.6-0.3-0.9-0.3c-0.4,0-0.7,0.1-1,0.4v8.9c0,0.2-0.1,0.4-0.3,0.6
			c-0.2,0.2-0.4,0.2-0.7,0.2h-2.9c-0.3,0-0.5-0.1-0.7-0.2C631.4,299.6,631.3,299.4,631.3,299.2z M638.4,285.4c0.4,0,0.7-0.1,1-0.3
			c0.3-0.2,0.6-0.4,0.7-0.7c0.2-0.3,0.3-0.6,0.3-1v-3.3c0-0.4-0.1-0.7-0.3-1c-0.2-0.3-0.4-0.5-0.7-0.7c-0.3-0.2-0.7-0.3-1-0.3h-2
			c-0.1,0-0.2,0.1-0.3,0.2s-0.1,0.2-0.1,0.4v6.1c0,0.2,0.1,0.3,0.2,0.4c0.1,0.1,0.3,0.2,0.4,0.2H638.4z"/>
		<path class="st1" d="M649.2,299v-23.6c0-0.3,0.1-0.5,0.3-0.7s0.4-0.3,0.7-0.3h10.8c0.3,0,0.5,0.1,0.7,0.3c0.2,0.2,0.3,0.4,0.3,0.7
			v2.5c0,0.2,0,0.3-0.1,0.5c-0.1,0.2-0.2,0.3-0.4,0.4c-0.2,0.1-0.3,0.1-0.5,0.1h-7.4v5.6h5.6c0.3,0,0.5,0.1,0.7,0.3
			c0.2,0.2,0.3,0.4,0.3,0.7v2.6c0,0.3-0.1,0.5-0.3,0.7c-0.2,0.2-0.4,0.3-0.7,0.3h-5.6v6.6h7.4c0.3,0,0.5,0.1,0.7,0.3
			c0.2,0.2,0.3,0.4,0.3,0.7v2.5c0,0.2,0,0.3-0.1,0.5c-0.1,0.2-0.2,0.3-0.4,0.4c-0.2,0.1-0.3,0.1-0.5,0.1h-10.8
			c-0.3,0-0.5-0.1-0.7-0.3C649.3,299.5,649.2,299.2,649.2,299z"/>
		<path class="st1" d="M665,299v-23.3c0-0.2,0.1-0.4,0.2-0.6c0.1-0.2,0.2-0.3,0.4-0.4c0.2-0.1,0.3-0.2,0.5-0.2h7.3
			c0.8,0,1.6,0.1,2.3,0.4s1.4,0.7,2,1.2c0.6,0.5,1.1,1.1,1.5,1.8c0.6,1.1,0.9,2.2,0.9,3.4l0,11.7c0,0.8-0.1,1.6-0.4,2.4
			s-0.6,1.5-1.1,2.1s-1.1,1.2-1.7,1.6c-1,0.7-2.1,1-3.4,1h-4.1c0,0,0,0-0.1,0s-0.1,0-0.1,0h-3.4c-0.2,0-0.3,0-0.5-0.1
			c-0.2-0.1-0.3-0.2-0.4-0.4C665,299.4,665,299.2,665,299z M672.5,295.7c0.5,0,1-0.1,1.5-0.4c0.5-0.3,0.8-0.7,1.1-1.1
			c0.3-0.5,0.4-1,0.4-1.5v-11.1c0-0.5-0.1-0.9-0.4-1.4c-0.2-0.4-0.6-0.8-1-1c-0.4-0.2-0.9-0.4-1.4-0.4h-3.1c-0.1,0-0.3,0.1-0.4,0.2
			s-0.2,0.2-0.2,0.4v16.1c0,0.1,0,0.2,0.1,0.2c0.1,0.1,0.1,0.1,0.2,0.1H672.5z"/>
	</g>
	<path id="icon" class="st1" d="M488.7,138.7v-11.4c0-4-2.5-7.7-6.2-9.3c-14.1-6-23.9-20-23.9-36.1c0-21.5,17.5-39.2,39.2-39.2
		s39.2,17.7,39.2,39.2C536.9,107.3,517.3,131.3,488.7,138.7 M497.7,24.4c-31.8,0-57.5,25.9-57.5,57.5s25.7,57.5,57.5,57.5
		s57.5-25.9,57.5-57.5S529.5,24.4,497.7,24.4"/>
	<g>
		<path class="st1" d="M279.3,214.8c0-0.1,0-0.2,0-0.3l8.5-41.5c0.1-0.5,0.4-0.9,0.8-1.2c0.4-0.3,0.9-0.5,1.5-0.5h8.1
			c0.4,0,0.7,0.1,1.1,0.2c0.3,0.1,0.6,0.3,0.9,0.6s0.4,0.5,0.4,0.9l8.4,41.5c0,0.1,0,0.2,0,0.3c0,0.4-0.1,0.7-0.4,1
			c-0.3,0.3-0.7,0.4-1.2,0.4h-5.4c-1,0-1.5-0.5-1.7-1.4l-1.9-10.4h-8.3l-1.9,10.4c-0.1,0.5-0.3,0.9-0.5,1.1
			c-0.2,0.2-0.6,0.3-1.2,0.3H281c-0.5,0-0.9-0.1-1.2-0.4S279.3,215.2,279.3,214.8z M297.2,196.8l-2.8-16.1c0-0.1-0.1-0.2-0.1-0.2
			c0-0.1-0.1-0.1-0.2-0.1s-0.2,0-0.2,0.1c0,0.1-0.1,0.1-0.1,0.2l-2.7,16.1H297.2z"/>
		<path class="st1" d="M312.6,214.6v-41.9c0-0.3,0.1-0.6,0.2-0.8c0.1-0.3,0.3-0.5,0.6-0.6c0.2-0.1,0.5-0.2,0.8-0.2h4.7
			c0.3,0,0.5,0.1,0.8,0.2c0.2,0.1,0.4,0.3,0.6,0.6c0.1,0.3,0.2,0.5,0.2,0.8v35.6h9.6c0.5,0,0.9,0.1,1.1,0.4s0.4,0.6,0.4,1.1v4.8
			c0,0.4-0.1,0.8-0.4,1.1c-0.3,0.3-0.7,0.4-1.1,0.4h-16c-0.3,0-0.5-0.1-0.8-0.2c-0.2-0.1-0.4-0.3-0.6-0.6
			C312.7,215.1,312.6,214.9,312.6,214.6z"/>
		<path class="st1" d="M335.5,214.3v-41.4c0-0.5,0.2-0.9,0.5-1.2s0.7-0.5,1.2-0.5h18.9c0.5,0,0.9,0.2,1.2,0.5
			c0.3,0.3,0.5,0.7,0.5,1.2v4.4c0,0.3-0.1,0.6-0.2,0.9s-0.4,0.5-0.6,0.6s-0.6,0.2-0.9,0.2h-12.9v9.8h9.8c0.5,0,0.9,0.1,1.2,0.4
			c0.3,0.3,0.4,0.7,0.4,1.2v4.5c0,0.5-0.1,0.9-0.4,1.2c-0.3,0.3-0.7,0.4-1.2,0.4h-9.8v11.7h12.9c0.5,0,0.9,0.2,1.2,0.5
			s0.5,0.7,0.5,1.2v4.4c0,0.3-0.1,0.6-0.2,0.9s-0.4,0.5-0.6,0.6c-0.3,0.2-0.6,0.2-0.9,0.2h-18.9c-0.5,0-0.9-0.2-1.2-0.5
			S335.5,214.7,335.5,214.3z"/>
		<path class="st1" d="M361.3,213.6c0-0.4,0.1-0.7,0.2-1l8.5-19.8l-7.6-17.9c-0.2-0.3-0.3-0.6-0.3-1.1c0-0.5,0.1-0.9,0.4-1.3
			s0.6-0.7,1.1-1c0.4-0.2,0.9-0.4,1.4-0.4h3.4c0.6,0,1.1,0.2,1.6,0.5c0.5,0.3,0.8,0.7,1,1.2l3.7,9.6l4.2-9.6c0.2-0.5,0.6-0.9,1-1.2
			c0.5-0.3,1-0.5,1.5-0.5h3.4c0.5,0,1,0.1,1.4,0.4c0.4,0.2,0.8,0.6,1.1,1c0.3,0.4,0.4,0.9,0.4,1.3c0,0.4-0.1,0.8-0.3,1.1l-7.8,17.9
			l8.5,19.8c0.2,0.3,0.3,0.6,0.3,1.1c0,0.5-0.1,0.9-0.4,1.3c-0.3,0.4-0.6,0.7-1,0.9c-0.4,0.2-0.9,0.3-1.5,0.3h-3.4
			c-0.5,0-1.1-0.1-1.5-0.4c-0.5-0.3-0.8-0.7-1-1.2l-4.7-11.5l-4.7,11.5c-0.2,0.5-0.6,0.9-1,1.2c-0.4,0.3-1,0.5-1.6,0.5h-3.3
			c-0.5,0-1-0.1-1.4-0.4c-0.4-0.2-0.8-0.6-1-1C361.4,214.5,361.3,214.1,361.3,213.6z"/>
		<path class="st1" d="M390.2,214.8c0-0.1,0-0.2,0-0.3l8.5-41.5c0.1-0.5,0.4-0.9,0.8-1.2c0.4-0.3,0.9-0.5,1.5-0.5h8.1
			c0.4,0,0.7,0.1,1.1,0.2c0.3,0.1,0.6,0.3,0.9,0.6s0.4,0.5,0.4,0.9l8.4,41.5c0,0.1,0,0.2,0,0.3c0,0.4-0.1,0.7-0.4,1
			c-0.3,0.3-0.7,0.4-1.2,0.4h-5.4c-1,0-1.5-0.5-1.7-1.4l-1.9-10.4h-8.3l-1.9,10.4c-0.1,0.5-0.3,0.9-0.5,1.1
			c-0.2,0.2-0.6,0.3-1.2,0.3h-5.4c-0.5,0-0.9-0.1-1.2-0.4S390.2,215.2,390.2,214.8z M408.1,196.8l-2.8-16.1c0-0.1-0.1-0.2-0.1-0.2
			c0-0.1-0.1-0.1-0.2-0.1s-0.2,0-0.2,0.1c0,0.1-0.1,0.1-0.1,0.2l-2.7,16.1H408.1z"/>
		<path class="st1" d="M422.4,219.9c0-0.2,0.1-0.4,0.3-0.6l1.4-2.5c0,0,0-0.1,0.1-0.1c0,0,0-0.1,0-0.2c0-0.1,0-0.2-0.1-0.3
			c-0.1-0.1-0.1-0.2-0.2-0.2c-0.4-0.2-0.8-0.4-1-0.8c-0.3-0.4-0.4-0.8-0.4-1.3v-4.8c0-0.4,0.1-0.8,0.3-1.2s0.5-0.6,0.8-0.8
			c0.3-0.2,0.7-0.3,1.1-0.3h4.9c0.4,0,0.8,0.1,1.2,0.3s0.6,0.5,0.8,0.8c0.2,0.4,0.3,0.7,0.3,1.2v4.8c0,0.6-0.2,1.2-0.6,1.7l-3.5,4.9
			c-0.1,0.1-0.2,0.2-0.4,0.2c-0.2,0-0.4,0.1-0.6,0.1h-3.5c-0.2,0-0.4-0.1-0.6-0.2C422.5,220.3,422.4,220.1,422.4,219.9z"/>
		<path class="st1" d="M446.5,214.5V173c0-0.5,0.2-1,0.5-1.3c0.3-0.3,0.8-0.5,1.4-0.5h12.7c1.5,0,2.8,0.2,3.9,0.5
			c1.1,0.3,1.9,0.8,2.6,1.3s1.3,1.2,1.8,2c0.5,0.8,0.9,1.9,1.3,3.1c0.3,1.2,0.5,2.6,0.5,4.1v5.7c0,1.1-0.2,2.1-0.6,3.1
			s-1,1.9-1.7,2.7s-1.6,1.4-2.7,2c-1.5,0.8-3.2,1.2-5,1.2h-4.6c-0.6,0-0.9,0-1.2-0.1v17.6c0,0.5-0.2,0.9-0.6,1.2s-0.8,0.4-1.4,0.4
			h-5c-0.6,0-1.1-0.1-1.4-0.4C446.6,215.3,446.5,214.9,446.5,214.5z M459.8,190c0.7,0,1.3-0.2,1.8-0.5c0.6-0.3,1-0.8,1.3-1.4
			c0.3-0.6,0.5-1.2,0.5-1.9v-5.1c0-0.7-0.2-1.3-0.5-1.9c-0.3-0.6-0.8-1-1.3-1.3c-0.6-0.3-1.2-0.5-1.9-0.5h-3.9
			c-0.3,0-0.5,0.1-0.7,0.3c-0.2,0.2-0.3,0.4-0.3,0.6v10.4c0,0.2,0.1,0.4,0.2,0.6c0.1,0.2,0.3,0.3,0.4,0.5c0.2,0.1,0.4,0.2,0.6,0.2
			H459.8z"/>
		<path class="st1" d="M475.9,214.6v-41.9c0-0.3,0.1-0.6,0.2-0.8c0.1-0.3,0.3-0.5,0.6-0.6c0.2-0.1,0.5-0.2,0.8-0.2h4.7
			c0.3,0,0.5,0.1,0.8,0.2c0.2,0.1,0.4,0.3,0.6,0.6c0.1,0.3,0.2,0.5,0.2,0.8v35.6h9.6c0.5,0,0.9,0.1,1.1,0.4s0.4,0.6,0.4,1.1v4.8
			c0,0.4-0.1,0.8-0.4,1.1c-0.3,0.3-0.7,0.4-1.1,0.4h-16c-0.3,0-0.5-0.1-0.8-0.2c-0.2-0.1-0.4-0.3-0.6-0.6
			C476,215.1,475.9,214.9,475.9,214.6z"/>
		<path class="st1" d="M496.2,214.8c0-0.1,0-0.2,0-0.3l8.5-41.5c0.1-0.5,0.4-0.9,0.8-1.2c0.4-0.3,0.9-0.5,1.5-0.5h8.1
			c0.4,0,0.7,0.1,1.1,0.2c0.3,0.1,0.6,0.3,0.9,0.6c0.2,0.3,0.4,0.5,0.4,0.9l8.4,41.5c0,0.1,0,0.2,0,0.3c0,0.4-0.2,0.7-0.4,1
			s-0.7,0.4-1.2,0.4h-5.4c-1,0-1.5-0.5-1.7-1.4l-1.9-10.4h-8.3l-1.9,10.4c-0.1,0.5-0.3,0.9-0.5,1.1c-0.2,0.2-0.6,0.3-1.2,0.3h-5.4
			c-0.5,0-0.9-0.1-1.2-0.4S496.2,215.2,496.2,214.8z M514.1,196.8l-2.8-16.1c0-0.1-0.1-0.2-0.1-0.2c0-0.1-0.1-0.1-0.2-0.1
			s-0.2,0-0.2,0.1c0,0.1-0.1,0.1-0.1,0.2l-2.7,16.1H514.1z"/>
		<path class="st1" d="M536.2,214.6v-18.3c-0.1-1-0.4-2-0.9-3.1l-7.4-19.4c-0.1-0.3-0.2-0.5-0.2-0.8c0-0.3,0.1-0.7,0.3-1
			c0.2-0.3,0.5-0.5,0.8-0.7c0.3-0.2,0.7-0.3,1.1-0.3h4c0.9,0,1.7,0.4,2.2,1.3l4.3,12.8c0.1,0.1,0.2,0.1,0.3,0.1c0,0,0.1,0,0.2-0.1
			l4.4-12.8c0.1-0.4,0.4-0.7,0.7-1s0.8-0.4,1.2-0.4h4c0.4,0,0.8,0.1,1.1,0.3c0.3,0.2,0.6,0.4,0.8,0.7c0.2,0.3,0.3,0.6,0.3,1
			c0,0.1,0,0.2-0.1,0.4s-0.1,0.3-0.1,0.4l-7.6,19.4c-0.4,1-0.6,2.1-0.8,3.1v18.3c0,0.3-0.1,0.6-0.3,0.9c-0.2,0.3-0.4,0.5-0.8,0.6
			c-0.3,0.2-0.7,0.2-1,0.2h-4.7c-0.3,0-0.7-0.1-1-0.2c-0.3-0.2-0.5-0.4-0.7-0.6C536.2,215.2,536.2,215,536.2,214.6z"/>
		<path class="st1" d="M566.9,214.7v-41.6c0-0.3,0.1-0.6,0.2-0.8c0.1-0.3,0.3-0.5,0.6-0.6c0.3-0.2,0.5-0.2,0.8-0.2h4.7
			c0.3,0,0.5,0.1,0.8,0.2c0.2,0.2,0.4,0.4,0.6,0.6s0.2,0.5,0.2,0.8v11.8l7.9-12.2c0.3-0.3,0.6-0.6,0.9-0.9c0.4-0.3,0.7-0.4,1-0.3
			l4.7-0.1c0.4,0,0.8,0.1,1.1,0.3c0.3,0.2,0.6,0.4,0.8,0.7c0.2,0.3,0.3,0.6,0.3,0.9c0,0.4-0.1,0.7-0.3,0.9l-11.2,17.2l14.2,21.7
			c0.2,0.5,0.3,0.9,0.3,1.2c0,0.4-0.1,0.7-0.2,1c-0.2,0.3-0.4,0.6-0.7,0.7c-0.3,0.2-0.7,0.3-1,0.2h-5.4c-0.4,0-0.7-0.1-1-0.3
			c-0.3-0.2-0.6-0.5-0.8-0.9l-10.7-16.8v16.5c0,0.3-0.1,0.5-0.2,0.7c-0.1,0.2-0.3,0.4-0.6,0.6c-0.2,0.1-0.5,0.2-0.8,0.2h-4.7
			c-0.3,0-0.6-0.1-0.8-0.2c-0.3-0.1-0.5-0.3-0.6-0.6C567,215.2,566.9,215,566.9,214.7z"/>
		<path class="st1" d="M598.6,214.3v-41.4c0-0.5,0.2-0.9,0.5-1.2s0.7-0.5,1.3-0.5h18.9c0.5,0,0.9,0.2,1.2,0.5
			c0.3,0.3,0.5,0.7,0.5,1.2v4.4c0,0.3-0.1,0.6-0.2,0.9c-0.2,0.3-0.4,0.5-0.6,0.6c-0.3,0.2-0.6,0.2-0.9,0.2h-12.9v9.8h9.8
			c0.5,0,0.9,0.1,1.2,0.4s0.4,0.7,0.4,1.2v4.5c0,0.5-0.1,0.9-0.4,1.2s-0.7,0.4-1.2,0.4h-9.8v11.7h12.9c0.5,0,0.9,0.2,1.2,0.5
			s0.5,0.7,0.5,1.2v4.4c0,0.3-0.1,0.6-0.2,0.9c-0.2,0.3-0.4,0.5-0.6,0.6c-0.3,0.2-0.6,0.2-0.9,0.2h-18.9c-0.5,0-0.9-0.2-1.2-0.5
			C598.7,215.2,598.6,214.7,598.6,214.3z"/>
		<path class="st1" d="M632.7,214.6v-18.3c-0.1-1-0.4-2-0.9-3.1l-7.4-19.4c-0.1-0.3-0.2-0.5-0.2-0.8c0-0.3,0.1-0.7,0.3-1
			c0.2-0.3,0.5-0.5,0.8-0.7c0.3-0.2,0.7-0.3,1.1-0.3h4c0.9,0,1.7,0.4,2.2,1.3l4.3,12.8c0.1,0.1,0.2,0.1,0.3,0.1c0,0,0.1,0,0.2-0.1
			l4.4-12.8c0.1-0.4,0.4-0.7,0.7-1s0.8-0.4,1.2-0.4h4c0.4,0,0.8,0.1,1.1,0.3c0.3,0.2,0.6,0.4,0.8,0.7c0.2,0.3,0.3,0.6,0.3,1
			c0,0.1,0,0.2-0.1,0.4s-0.1,0.3-0.1,0.4l-7.6,19.4c-0.4,1-0.6,2.1-0.8,3.1v18.3c0,0.3-0.1,0.6-0.3,0.9c-0.2,0.3-0.4,0.5-0.8,0.6
			c-0.3,0.2-0.7,0.2-1,0.2h-4.7c-0.3,0-0.7-0.1-1-0.2c-0.3-0.2-0.5-0.4-0.7-0.6C632.8,215.2,632.7,215,632.7,214.6z"/>
		<path class="st1" d="M653.8,214.3V173c0-0.4,0.2-0.8,0.5-1.1c0.3-0.3,0.7-0.4,1.2-0.4h18.5c0.3,0,0.6,0.1,0.9,0.2
			c0.3,0.1,0.5,0.3,0.6,0.6c0.2,0.2,0.2,0.5,0.2,0.8v4.5c0,0.3-0.1,0.6-0.2,0.8c-0.2,0.3-0.4,0.5-0.6,0.6c-0.3,0.2-0.6,0.2-0.9,0.2
			h-12.7v9.8h9.7c0.5,0,0.9,0.1,1.2,0.4s0.4,0.7,0.4,1.2v4.5c0,0.4-0.2,0.8-0.4,1.1s-0.7,0.4-1.2,0.4h-9.7v17.7
			c0,0.3-0.1,0.5-0.2,0.8c-0.2,0.2-0.4,0.4-0.6,0.6s-0.6,0.2-0.9,0.2h-4.1c-0.5,0-0.9-0.1-1.2-0.4
			C654,215.2,653.8,214.8,653.8,214.3z"/>
		<path class="st1" d="M680.8,214.4v-41.5c0-0.3,0.1-0.6,0.2-0.8c0.2-0.3,0.4-0.5,0.6-0.6c0.3-0.1,0.5-0.2,0.8-0.2h7.3
			c0.3,0,0.6,0.1,0.9,0.2s0.5,0.3,0.7,0.5c0.2,0.2,0.3,0.4,0.3,0.6l5.8,18.8l5.8-18.8c0.1-0.4,0.3-0.7,0.7-0.9
			c0.4-0.2,0.8-0.4,1.3-0.4h7.3c0.5,0,0.9,0.2,1.2,0.5c0.3,0.3,0.5,0.7,0.5,1.2v41.5c0,0.5-0.2,0.9-0.5,1.2
			c-0.3,0.3-0.7,0.5-1.2,0.5h-4.6c-0.5,0-0.9-0.2-1.2-0.5c-0.3-0.3-0.4-0.7-0.4-1.2v-26.6l-4.9,15.6c0,0.1-0.1,0.2-0.2,0.4
			c-0.1,0.1-0.3,0.3-0.5,0.5l-0.3,0.2c-0.4,0.2-0.7,0.3-1,0.3h-4.1c-0.3,0-0.6-0.1-1-0.3l-0.3-0.2c-0.3-0.2-0.5-0.5-0.6-0.8
			l-4.9-15.6v26.6c0,0.3-0.1,0.5-0.2,0.8c-0.2,0.3-0.3,0.5-0.6,0.6c-0.2,0.2-0.5,0.2-0.8,0.2h-4.6c-0.3,0-0.5-0.1-0.8-0.2
			c-0.3-0.2-0.5-0.4-0.6-0.6C680.8,214.9,680.8,214.7,680.8,214.4z"/>
	</g>
	<g>
		<path class="st1" d="M363,262.3v-32.8c0-0.3,0.1-0.5,0.2-0.7c0.1-0.2,0.3-0.4,0.5-0.5c0.2-0.1,0.5-0.2,0.7-0.2h6
			c0.3,0,0.5,0.1,0.8,0.2c0.3,0.1,0.5,0.3,0.7,0.5s0.3,0.4,0.4,0.6l7.3,22l-0.5-21.9c0-0.4,0.1-0.7,0.4-1c0.3-0.3,0.6-0.4,0.9-0.4
			h3.9c0.2,0,0.4,0.1,0.6,0.2c0.2,0.1,0.4,0.2,0.5,0.4c0.1,0.2,0.2,0.3,0.2,0.4v32.8c0,0.5-0.1,0.9-0.4,1.3
			c-0.2,0.3-0.6,0.5-0.9,0.5h-5.2c-0.4,0-0.7-0.1-1.1-0.4c-0.4-0.3-0.6-0.5-0.7-0.9l-8.2-22.5l0.5,22.4c0,0.4-0.1,0.7-0.4,1
			c-0.3,0.3-0.6,0.4-1,0.4h-3.8c-0.3,0-0.5-0.1-0.7-0.2c-0.2-0.1-0.4-0.3-0.5-0.5C363,262.8,363,262.5,363,262.3z"/>
		<path class="st1" d="M391,259.1c-0.9-1.5-1.3-3.2-1.3-5v-16.7c0-1.2,0.2-2.3,0.6-3.4c0.4-1.1,1-2,1.7-2.9c0.7-0.9,1.6-1.6,2.6-2.2
			c1.4-0.8,3.1-1.3,4.9-1.3h1.7c1.2,0,2.3,0.2,3.3,0.6c1.1,0.4,2,0.9,2.9,1.7c0.9,0.7,1.6,1.6,2.2,2.5c0.8,1.4,1.3,3.1,1.3,4.9
			l0.1,16.7c0,1.2-0.2,2.3-0.6,3.4c-0.4,1.1-1,2.1-1.7,3c-0.7,0.9-1.6,1.6-2.6,2.3c-1.5,0.9-3.1,1.4-4.8,1.4h-1.7
			c-1.2,0-2.3-0.2-3.3-0.6c-1.1-0.4-2-1-2.9-1.7C392.3,261,391.6,260.1,391,259.1z M400.2,258.1c0.7,0,1.4-0.2,2-0.6
			c0.6-0.4,1.1-0.9,1.4-1.5c0.4-0.6,0.5-1.3,0.5-2.1v-16.6c0-0.7-0.2-1.4-0.5-2c-0.4-0.6-0.8-1.1-1.4-1.4c-0.6-0.3-1.3-0.5-2-0.5
			H400c-0.7,0-1.4,0.2-2,0.5c-0.6,0.3-1.1,0.8-1.5,1.4c-0.4,0.6-0.5,1.3-0.5,2v16.6c0,0.7,0.2,1.4,0.5,2.1c0.4,0.6,0.9,1.1,1.5,1.5
			c0.6,0.4,1.3,0.6,2,0.6H400.2z"/>
		<path class="st1" d="M419.6,262.5l-6-32.9c0,0,0-0.1,0-0.2c0-0.3,0.1-0.5,0.3-0.7s0.5-0.3,0.8-0.3h3.6c0.4,0,0.7,0.1,1,0.4
			c0.3,0.3,0.5,0.5,0.6,0.9l3.3,20.3c0,0.1,0.1,0.1,0.1,0.2c0,0,0.1,0,0.2,0s0.1,0,0.2,0c0,0,0.1-0.1,0.1-0.2l2.7-20.2
			c0-0.2,0.2-0.5,0.3-0.7c0.2-0.2,0.4-0.4,0.6-0.5c0.2-0.1,0.4-0.2,0.7-0.2h4c0.2,0,0.4,0.1,0.7,0.2s0.4,0.3,0.6,0.5
			s0.3,0.4,0.3,0.6l3.4,20.7c0,0.1,0.1,0.2,0.2,0.2c0,0,0.1,0,0.1,0c0,0,0.1-0.1,0.1-0.1l2.8-20.6c0.1-0.4,0.3-0.7,0.6-1
			s0.6-0.4,1-0.4h3.6c0.2,0,0.4,0.1,0.6,0.2c0.2,0.1,0.4,0.2,0.5,0.4s0.2,0.3,0.1,0.4l-5.2,32.8c-0.1,0.5-0.3,0.9-0.6,1.2
			c-0.3,0.3-0.7,0.5-1.1,0.5h-5.1c-0.4,0-0.7-0.1-1-0.4c-0.3-0.3-0.5-0.5-0.6-0.9l-2.9-16.3l-2.5,15.9c-0.1,0.5-0.3,0.9-0.6,1.2
			c-0.3,0.3-0.7,0.5-1.1,0.5h-5c-0.3,0-0.5-0.1-0.7-0.2c-0.2-0.1-0.4-0.3-0.6-0.5C419.7,262.9,419.6,262.7,419.6,262.5z"/>
		<path class="st1" d="M458.9,259.1c-0.9-1.5-1.3-3.2-1.3-5v-16.7c0-1.2,0.2-2.3,0.6-3.4c0.4-1.1,1-2,1.7-2.9
			c0.7-0.9,1.6-1.6,2.6-2.2c1.4-0.8,3.1-1.3,4.9-1.3h1.7c1.2,0,2.3,0.2,3.3,0.6c1.1,0.4,2,0.9,2.9,1.7c0.9,0.7,1.6,1.6,2.2,2.5
			c0.8,1.4,1.3,3.1,1.3,4.9l0.1,16.7c0,1.2-0.2,2.3-0.6,3.4c-0.4,1.1-1,2.1-1.7,3c-0.7,0.9-1.6,1.6-2.6,2.3
			c-1.5,0.9-3.1,1.4-4.8,1.4h-1.7c-1.2,0-2.3-0.2-3.3-0.6c-1.1-0.4-2-1-2.9-1.7C460.3,261,459.5,260.1,458.9,259.1z M468.2,258.1
			c0.7,0,1.4-0.2,2-0.6c0.6-0.4,1.1-0.9,1.4-1.5c0.4-0.6,0.5-1.3,0.5-2.1v-16.6c0-0.7-0.2-1.4-0.5-2c-0.4-0.6-0.8-1.1-1.4-1.4
			c-0.6-0.3-1.3-0.5-2-0.5H468c-0.7,0-1.4,0.2-2,0.5c-0.6,0.3-1.1,0.8-1.5,1.4c-0.4,0.6-0.5,1.3-0.5,2v16.6c0,0.7,0.2,1.4,0.5,2.1
			c0.4,0.6,0.9,1.1,1.5,1.5c0.6,0.4,1.3,0.6,2,0.6H468.2z"/>
		<path class="st1" d="M483.1,262.3v-32.8c0-0.3,0.1-0.5,0.2-0.7c0.1-0.2,0.3-0.4,0.5-0.5c0.2-0.1,0.5-0.2,0.7-0.2h6
			c0.3,0,0.5,0.1,0.8,0.2c0.3,0.1,0.5,0.3,0.7,0.5s0.3,0.4,0.4,0.6l7.3,22l-0.5-21.9c0-0.4,0.1-0.7,0.4-1c0.3-0.3,0.6-0.4,0.9-0.4
			h3.9c0.2,0,0.4,0.1,0.6,0.2c0.2,0.1,0.4,0.2,0.5,0.4c0.1,0.2,0.2,0.3,0.2,0.4v32.8c0,0.5-0.1,0.9-0.4,1.3
			c-0.2,0.3-0.6,0.5-0.9,0.5h-5.2c-0.4,0-0.7-0.1-1.1-0.4c-0.4-0.3-0.6-0.5-0.7-0.9l-8.2-22.5l0.5,22.4c0,0.4-0.1,0.7-0.4,1
			c-0.3,0.3-0.6,0.4-1,0.4h-3.8c-0.3,0-0.5-0.1-0.7-0.2c-0.2-0.1-0.4-0.3-0.5-0.5C483.2,262.8,483.1,262.5,483.1,262.3z"/>
		<path class="st1" d="M515.7,262.7c0-0.1,0-0.2,0-0.2l6.7-32.8c0.1-0.4,0.3-0.7,0.6-0.9c0.4-0.2,0.7-0.4,1.2-0.4h6.4
			c0.3,0,0.6,0.1,0.8,0.2s0.5,0.3,0.7,0.5c0.2,0.2,0.3,0.4,0.4,0.7l6.6,32.8c0,0.1,0,0.1,0,0.2c0,0.3-0.1,0.6-0.4,0.8
			s-0.5,0.3-0.9,0.3h-4.3c-0.8,0-1.2-0.4-1.3-1.1l-1.5-8.3h-6.5l-1.5,8.3c-0.1,0.4-0.2,0.7-0.4,0.9c-0.2,0.2-0.5,0.3-0.9,0.3H517
			c-0.4,0-0.7-0.1-1-0.3C515.8,263.3,515.7,263,515.7,262.7z M529.8,248.5l-2.2-12.7c0-0.1-0.1-0.2-0.1-0.2c0,0-0.1-0.1-0.2-0.1
			c-0.1,0-0.1,0-0.2,0.1c0,0-0.1,0.1-0.1,0.2l-2.1,12.7H529.8z"/>
		<path class="st1" d="M542,262.5v-33.1c0-0.2,0.1-0.5,0.2-0.7c0.1-0.2,0.3-0.4,0.5-0.5c0.2-0.1,0.4-0.2,0.6-0.2h3.8
			c0.2,0,0.4,0.1,0.6,0.2c0.2,0.1,0.4,0.3,0.5,0.5c0.1,0.2,0.2,0.4,0.2,0.7v28.1h7.6c0.4,0,0.7,0.1,0.9,0.3c0.2,0.2,0.3,0.5,0.3,0.9
			v3.8c0,0.3-0.1,0.6-0.3,0.9s-0.5,0.3-0.9,0.3h-12.7c-0.2,0-0.4-0.1-0.6-0.2c-0.2-0.1-0.3-0.3-0.4-0.4S542,262.7,542,262.5z"/>
		<path class="st1" d="M560.1,262.2v-32.7c0-0.4,0.1-0.7,0.4-0.9c0.3-0.2,0.6-0.4,1-0.4h15c0.4,0,0.7,0.1,1,0.4
			c0.3,0.3,0.4,0.6,0.4,0.9v3.5c0,0.3-0.1,0.5-0.2,0.7c-0.1,0.2-0.3,0.4-0.5,0.5c-0.2,0.1-0.4,0.2-0.7,0.2h-10.2v7.8h7.8
			c0.4,0,0.7,0.1,0.9,0.3s0.3,0.5,0.3,0.9v3.5c0,0.4-0.1,0.7-0.3,0.9c-0.2,0.2-0.5,0.3-0.9,0.3h-7.8v9.2h10.2c0.4,0,0.7,0.1,1,0.4
			c0.3,0.3,0.4,0.6,0.4,0.9v3.5c0,0.3-0.1,0.5-0.2,0.7c-0.1,0.2-0.3,0.4-0.5,0.5c-0.2,0.1-0.4,0.2-0.7,0.2h-15c-0.4,0-0.7-0.1-1-0.4
			C560.2,263,560.1,262.6,560.1,262.2z"/>
		<path class="st1" d="M580.5,261.7c0-0.3,0.1-0.6,0.2-0.8l6.7-15.7l-6-14.1c-0.1-0.2-0.2-0.5-0.2-0.9c0-0.4,0.1-0.7,0.3-1.1
			c0.2-0.3,0.5-0.6,0.8-0.8c0.4-0.2,0.7-0.3,1.1-0.3h2.7c0.4,0,0.9,0.1,1.3,0.4c0.4,0.3,0.7,0.6,0.8,0.9l2.9,7.6l3.3-7.6
			c0.2-0.4,0.4-0.7,0.8-1c0.4-0.2,0.8-0.4,1.2-0.4h2.7c0.4,0,0.8,0.1,1.1,0.3c0.4,0.2,0.6,0.5,0.8,0.8c0.2,0.3,0.3,0.7,0.3,1.1
			c0,0.4-0.1,0.6-0.2,0.9l-6.2,14.1l6.7,15.7c0.1,0.2,0.2,0.5,0.2,0.9c0,0.4-0.1,0.7-0.3,1.1c-0.2,0.3-0.5,0.6-0.8,0.8
			c-0.3,0.2-0.7,0.3-1.2,0.3h-2.7c-0.4,0-0.8-0.1-1.2-0.4c-0.4-0.2-0.6-0.6-0.8-1l-3.8-9.1l-3.7,9.1c-0.2,0.4-0.4,0.7-0.8,1
			c-0.4,0.2-0.8,0.4-1.2,0.4h-2.6c-0.4,0-0.8-0.1-1.1-0.3c-0.3-0.2-0.6-0.5-0.8-0.8C580.6,262.5,580.5,262.1,580.5,261.7z"/>
		<path class="st1" d="M603.4,262.7c0-0.1,0-0.2,0-0.2l6.7-32.8c0.1-0.4,0.3-0.7,0.6-0.9c0.4-0.2,0.7-0.4,1.2-0.4h6.4
			c0.3,0,0.6,0.1,0.8,0.2s0.5,0.3,0.7,0.5c0.2,0.2,0.3,0.4,0.4,0.7l6.6,32.8c0,0.1,0,0.1,0,0.2c0,0.3-0.1,0.6-0.4,0.8
			s-0.5,0.3-0.9,0.3h-4.3c-0.8,0-1.2-0.4-1.3-1.1l-1.5-8.3h-6.5l-1.5,8.3c-0.1,0.4-0.2,0.7-0.4,0.9c-0.2,0.2-0.5,0.3-0.9,0.3h-4.3
			c-0.4,0-0.7-0.1-1-0.3C603.5,263.3,603.4,263,603.4,262.7z M617.5,248.5l-2.2-12.7c0-0.1-0.1-0.2-0.1-0.2c0,0-0.1-0.1-0.2-0.1
			c-0.1,0-0.1,0-0.2,0.1c0,0-0.1,0.1-0.1,0.2l-2.1,12.7H617.5z"/>
	</g>
	<g>
		<path class="st1" d="M263.3,168.6v-11.9c0-0.8,0.1-1.5,0.3-1.9s0.6-0.7,1-0.9c0.4-0.2,1-0.2,1.7-0.2h1.8c0.7,0,1.3,0.1,1.8,0.2
			c0.4,0.2,0.8,0.4,1,0.9s0.3,1.1,0.3,1.9v11.9c0,0.8-0.1,1.5-0.3,1.9s-0.6,0.7-1,0.9c-0.4,0.2-1,0.2-1.8,0.2h-1.8
			c-0.7,0-1.3-0.1-1.7-0.2c-0.4-0.2-0.8-0.4-1-0.9S263.3,169.4,263.3,168.6z M273.3,168.6v-11.9c0-0.9,0.1-1.5,0.3-1.9
			s0.6-0.7,1-0.9c0.4-0.2,1-0.2,1.8-0.2h1.7c0.6,0,1.1,0,1.4,0c0.3,0,0.5,0.1,0.8,0.2c0.2,0.1,0.4,0.3,0.6,0.6
			c0.2,0.5,0.4,1.3,0.4,2.2v11.9c0,0.9-0.1,1.5-0.3,1.9c-0.2,0.4-0.5,0.7-1,0.9c-0.4,0.2-1.1,0.2-1.8,0.2h-1.7
			C274.3,171.6,273.3,170.6,273.3,168.6z"/>
	</g>
	<g>
		<path class="st1" d="M718.8,167.1v-11.9c0-0.8,0.1-1.5,0.3-1.9s0.6-0.7,1-0.9s1-0.2,1.7-0.2h1.8c0.7,0,1.3,0.1,1.8,0.2
			c0.4,0.2,0.8,0.4,1,0.9s0.3,1.1,0.3,1.9v11.9c0,0.8-0.1,1.5-0.3,1.9s-0.6,0.7-1,0.9c-0.4,0.2-1,0.2-1.8,0.2h-1.8
			c-0.7,0-1.3-0.1-1.7-0.2c-0.4-0.2-0.8-0.4-1-0.9S718.8,168,718.8,167.1z M728.8,167.1v-11.9c0-0.9,0.1-1.5,0.3-1.9s0.6-0.7,1-0.9
			c0.4-0.2,1-0.2,1.8-0.2h1.7c0.6,0,1.1,0,1.4,0s0.5,0.1,0.8,0.2c0.2,0.1,0.4,0.3,0.6,0.6c0.2,0.5,0.4,1.3,0.4,2.2v11.9
			c0,0.9-0.1,1.5-0.3,1.9c-0.2,0.4-0.5,0.7-1,0.9c-0.4,0.2-1.1,0.2-1.8,0.2h-1.7C729.8,170.2,728.8,169.1,728.8,167.1z"/>
	</g>
</g>
</svg>
