<?xml version="1.0" encoding="utf-8"?>
<!-- Generator: Adobe Illustrator 23.0.1, SVG Export Plug-In . SVG Version: 6.00 Build 0)  -->
<svg version="1.1" id="Layer_1" xmlns="http://www.w3.org/2000/svg" xmlns:xlink="http://www.w3.org/1999/xlink" x="0px" y="0px"
	 viewBox="0 0 1000 331" style="enable-background:new 0 0 1000 331;" xml:space="preserve">
<style type="text/css">
	.st0{fill:url(#SVGID_1_);}
	.st1{fill:#FFFFFF;}
</style>
<linearGradient id="SVGID_1_" gradientUnits="userSpaceOnUse" x1="49.4104" y1="741.6721" x2="914.4115" y2="518.1755" gradientTransform="matrix(1 0 0 1 0 -460)">
	<stop  offset="0" style="stop-color:#642B73"/>
	<stop  offset="1" style="stop-color:#C6426E"/>
</linearGradient>
<rect class="st0" width="1000" height="330.5"/>
<rect x="952" y="283" transform="matrix(0.7071 -0.7071 0.7071 0.7071 58.846 804.0486)" class="st1" width="96" height="96"/>
<g>
	<rect x="968.9" y="306.1" transform="matrix(0.7071 -0.7071 0.7071 0.7071 68.7336 781.7355)" width="18.2" height="3.6"/>
	<path d="M979.3,293.7c-0.9,0.9-4.2,4.2-5.2,5.2l2.6,2.6c1-1,4.2-4.2,5.2-5.2c2.1-2.1,5.6-2.1,7.7,0c2.1,2.1,2.1,5.6,0,7.7
		c-1,1-4.2,4.2-5.2,5.2l2.6,2.6c0.9-0.9,4.2-4.2,5.2-5.2c3.6-3.6,3.6-9.3,0-12.9C988.6,290.1,982.8,290.1,979.3,293.7L979.3,293.7z
		 M976.7,322.1c0.9-0.9,4.2-4.2,5.2-5.2l-2.6-2.6c-1,1-4.2,4.2-5.2,5.2c-2.1,2.1-5.6,2.1-7.7,0c-2.1-2.1-2.1-5.6,0-7.7
		c1-1,4.2-4.2,5.2-5.2L969,304c-0.9,0.9-4.2,4.2-5.2,5.2c-3.6,3.6-3.6,9.3,0,12.9C967.4,325.6,973.2,325.6,976.7,322.1L976.7,322.1z
		"/>
</g>
<g>
	
		<image style="overflow:visible;opacity:0.75;" width="1083" height="390" xlink:href="2EC962F7.png"  transform="matrix(1 0 0 1 -34 -24)">
	</image>
	<g>
		<g>
			<path class="st1" d="M110.8,170.3v-47.9c0-0.4,0.1-0.8,0.3-1.2c0.2-0.4,0.5-0.7,0.8-0.9c0.3-0.2,0.7-0.3,1.1-0.3h15.1
				c1.7,0,3.3,0.3,4.8,0.8s2.9,1.3,4.2,2.4c1.2,1,2.3,2.2,3.1,3.6c1.2,2.2,1.8,4.5,1.8,7l0.1,24c0,1.7-0.3,3.3-0.8,4.9
				c-0.5,1.6-1.3,3-2.3,4.4c-1,1.3-2.2,2.4-3.6,3.3c-2.1,1.4-4.4,2-6.9,2h-8.4c0,0-0.1,0.1-0.1,0.1c-0.1,0-0.1,0-0.2,0h-7
				c-0.4,0-0.7-0.1-1-0.3c-0.3-0.2-0.6-0.5-0.7-0.8C110.9,171.1,110.8,170.7,110.8,170.3z M126.3,163.4c1.1,0,2.1-0.3,3.1-0.9
				c1-0.6,1.7-1.4,2.3-2.3c0.6-1,0.9-2,0.9-3.1v-22.9c0-1-0.3-1.9-0.8-2.8c-0.5-0.9-1.2-1.5-2.1-2.1c-0.9-0.5-1.8-0.8-2.8-0.8h-6.3
				c-0.3,0-0.6,0.1-0.8,0.3c-0.2,0.2-0.3,0.5-0.3,0.7v33.1c0,0.2,0.1,0.3,0.2,0.4s0.3,0.2,0.4,0.2H126.3z"/>
			<path class="st1" d="M150.1,165.5c-1.3-2.3-2-4.7-2-7.3v-24.7c0-1.7,0.3-3.4,0.9-5c0.6-1.6,1.4-3,2.5-4.3
				c1.1-1.3,2.4-2.3,3.8-3.2c2.1-1.3,4.5-1.9,7.2-1.9h2.5c1.7,0,3.4,0.3,4.9,0.9c1.6,0.6,3,1.4,4.3,2.4c1.3,1.1,2.4,2.3,3.2,3.8
				c1.3,2.1,1.9,4.6,1.9,7.3l0.1,24.8c0,1.7-0.3,3.4-0.9,5c-0.6,1.6-1.4,3.1-2.5,4.4c-1.1,1.3-2.4,2.4-3.8,3.3c-2.2,1.4-4.6,2-7.1,2
				h-2.5c-1.7,0-3.4-0.3-4.9-0.9c-1.6-0.6-3-1.4-4.3-2.5C152,168.3,150.9,167,150.1,165.5z M163.8,164c1,0,2-0.3,2.9-0.8
				s1.6-1.3,2.1-2.3s0.8-2,0.8-3v-24.5c0-1.1-0.3-2.1-0.8-2.9s-1.2-1.6-2.1-2.1c-0.9-0.5-1.9-0.8-3-0.8h-0.2c-1.1,0-2.1,0.3-3,0.8
				c-0.9,0.5-1.6,1.2-2.2,2.1s-0.8,1.9-0.8,2.9v24.5c0,1.1,0.3,2.1,0.8,3s1.3,1.7,2.2,2.3s1.9,0.8,3,0.8H163.8z"/>
			<path class="st1" d="M204.6,170.6v-21.4c-0.1-1.1-0.5-2.3-1-3.6l-8.7-22.7c-0.1-0.3-0.2-0.6-0.2-1c0-0.4,0.1-0.8,0.3-1.1
				c0.2-0.3,0.5-0.6,0.9-0.8s0.8-0.3,1.3-0.3h4.6c1.1,0,1.9,0.5,2.5,1.6l5,14.9c0.1,0.1,0.2,0.1,0.4,0.1c0.1,0,0.1,0,0.2-0.1
				l5.2-14.9c0.1-0.4,0.4-0.8,0.9-1.1c0.4-0.3,0.9-0.4,1.4-0.4h4.7c0.5,0,0.9,0.1,1.3,0.3c0.4,0.2,0.7,0.5,0.9,0.9
				c0.2,0.4,0.3,0.7,0.3,1.1c0,0.1,0,0.3-0.1,0.5c0,0.2-0.1,0.3-0.1,0.4l-8.9,22.7c-0.5,1.2-0.8,2.4-0.9,3.6v21.4
				c0,0.4-0.1,0.7-0.3,1c-0.2,0.3-0.5,0.6-0.9,0.7s-0.8,0.3-1.2,0.3h-5.5c-0.4,0-0.8-0.1-1.1-0.3s-0.6-0.4-0.9-0.7
				C204.7,171.3,204.6,170.9,204.6,170.6z"/>
			<path class="st1" d="M230.8,165.5c-1.3-2.3-2-4.7-2-7.3v-24.7c0-1.7,0.3-3.4,0.9-5c0.6-1.6,1.4-3,2.5-4.3
				c1.1-1.3,2.4-2.3,3.8-3.2c2.1-1.3,4.5-1.9,7.2-1.9h2.5c1.7,0,3.4,0.3,4.9,0.9c1.6,0.6,3,1.4,4.3,2.4c1.3,1.1,2.4,2.3,3.2,3.8
				c1.3,2.1,1.9,4.6,1.9,7.3l0.1,24.8c0,1.7-0.3,3.4-0.9,5c-0.6,1.6-1.4,3.1-2.5,4.4c-1.1,1.3-2.4,2.4-3.8,3.3c-2.2,1.4-4.6,2-7.1,2
				h-2.5c-1.7,0-3.4-0.3-4.9-0.9c-1.6-0.6-3-1.4-4.3-2.5C232.8,168.3,231.7,167,230.8,165.5z M244.6,164c1,0,2-0.3,2.9-0.8
				s1.6-1.3,2.1-2.3s0.8-2,0.8-3v-24.5c0-1.1-0.3-2.1-0.8-2.9s-1.2-1.6-2.1-2.1c-0.9-0.5-1.9-0.8-3-0.8h-0.2c-1.1,0-2.1,0.3-3,0.8
				c-0.9,0.5-1.6,1.2-2.2,2.1s-0.8,1.9-0.8,2.9v24.5c0,1.1,0.3,2.1,0.8,3s1.3,1.7,2.2,2.3s1.9,0.8,3,0.8H244.6z"/>
			<path class="st1" d="M268.7,165.1c-1.4-2.3-2-4.7-2-7.3l-0.1-34.6c0-0.9,0.1-1.6,0.4-2.1c0.3-0.5,0.6-0.8,1.1-1
				c0.5-0.2,1.1-0.3,1.9-0.3h2.7c0.8,0,1.3,0,1.5,0c0.3,0,0.5,0.1,0.6,0.1s0.3,0.2,0.5,0.4c0.3,0.2,0.5,0.5,0.6,1
				c0.1,0.5,0.2,1.1,0.2,1.8l0.1,34.2c0,1.1,0.3,2.1,0.8,3.1c0.5,0.9,1.3,1.7,2.2,2.3c0.9,0.6,1.9,0.8,3,0.8h1.2
				c1.1,0,2.1-0.3,3-0.8c0.9-0.6,1.6-1.3,2.2-2.2c0.5-0.9,0.8-2,0.8-3.1l0.1-34.2c0-0.9,0.1-1.5,0.4-2c0.2-0.5,0.6-0.8,1.1-1
				c0.5-0.2,1.1-0.3,1.8-0.3h2.9c0.9,0,1.5,0.1,2,0.3c0.5,0.2,0.8,0.5,1.1,1c0.2,0.5,0.3,1.2,0.3,2.1l-0.1,34.6c0,1.8-0.3,3.4-0.9,5
				c-0.6,1.6-1.5,3.1-2.6,4.4c-1.1,1.3-2.4,2.4-3.9,3.3c-2.3,1.4-4.7,2-7.4,2h-2.7c-1.8,0-3.5-0.3-5.1-0.9c-1.6-0.6-3.1-1.4-4.4-2.5
				C270.7,167.9,269.6,166.6,268.7,165.1z"/>
			<path class="st1" d="M316.3,170.3v-48.5c0-0.3,0.1-0.6,0.3-0.9c0.2-0.3,0.4-0.5,0.7-0.7c0.3-0.2,0.6-0.3,0.9-0.3h5.5
				c0.6,0,1,0.2,1.4,0.6c0.4,0.4,0.6,0.8,0.6,1.4v18.5l14.2-0.1v-18.5c0-0.3,0.1-0.6,0.3-0.9c0.2-0.3,0.5-0.5,0.8-0.7
				c0.3-0.2,0.7-0.3,1-0.3h5.4c0.4,0,0.7,0.1,1,0.3c0.3,0.2,0.6,0.4,0.8,0.7c0.2,0.3,0.3,0.6,0.3,0.9v48.5c0,0.4-0.1,0.7-0.3,1
				c-0.2,0.3-0.4,0.6-0.8,0.7c-0.3,0.2-0.7,0.3-1,0.3h-5.4c-0.4,0-0.7-0.1-1-0.3c-0.3-0.2-0.6-0.4-0.8-0.7s-0.3-0.7-0.3-1v-20.9
				l-14.2,0.1v20.8c0,0.4-0.1,0.7-0.3,1c-0.2,0.3-0.4,0.6-0.7,0.7c-0.3,0.2-0.7,0.3-1,0.3h-5.5c-0.3,0-0.6-0.1-0.9-0.3
				c-0.3-0.2-0.6-0.4-0.7-0.7C316.3,171,316.3,170.6,316.3,170.3z"/>
			<path class="st1" d="M353,170.8c0-0.2,0-0.3,0-0.3l9.9-48.6c0.1-0.6,0.4-1,1-1.4c0.5-0.4,1.1-0.6,1.7-0.6h9.5
				c0.4,0,0.8,0.1,1.2,0.3s0.7,0.4,1,0.7c0.3,0.3,0.5,0.6,0.5,1l9.8,48.6c0,0.1,0,0.2,0,0.4c0,0.5-0.2,0.9-0.5,1.1
				c-0.4,0.3-0.8,0.4-1.4,0.4h-6.4c-1.2,0-1.8-0.5-2-1.7l-2.3-12.2h-9.7l-2.3,12.2c-0.1,0.6-0.3,1-0.6,1.3c-0.3,0.3-0.7,0.4-1.4,0.4
				H355c-0.6,0-1-0.2-1.4-0.5S353,171.2,353,170.8z M373.9,149.7l-3.2-18.8c0-0.1-0.1-0.2-0.1-0.3c-0.1-0.1-0.1-0.1-0.2-0.1
				s-0.2,0-0.2,0.1c-0.1,0.1-0.1,0.2-0.1,0.3l-3.1,18.8H373.9z"/>
			<path class="st1" d="M399.1,170.3l-9.8-48.6c0-0.1,0-0.2,0-0.4c0-0.5,0.2-0.9,0.5-1.1c0.3-0.3,0.8-0.4,1.4-0.4h6.4
				c0.5,0,0.9,0.2,1.2,0.6c0.3,0.4,0.5,1.1,0.6,1.9l6.5,37.4c0,0.1,0.1,0.3,0.3,0.4s0.3,0.2,0.5,0.2c0.3,0,0.4-0.2,0.5-0.6l6.4-38.3
				c0.1-0.6,0.3-1,0.6-1.3c0.3-0.3,0.7-0.4,1.4-0.4h6.4c0.6,0,1,0.1,1.4,0.5c0.4,0.3,0.6,0.7,0.6,1.2c0,0.1,0,0.3,0,0.3l-9.9,48.6
				c-0.1,0.6-0.4,1-1,1.4c-0.5,0.4-1.1,0.6-1.7,0.6h-9.4c-0.4,0-0.8-0.1-1.2-0.3c-0.4-0.2-0.7-0.4-1-0.7
				C399.3,171,399.1,170.7,399.1,170.3z"/>
			<path class="st1" d="M428.5,170.1v-48.5c0-0.6,0.2-1,0.6-1.4s0.9-0.5,1.5-0.5h22.1c0.6,0,1.1,0.2,1.4,0.6
				c0.4,0.4,0.6,0.8,0.6,1.4v5.2c0,0.4-0.1,0.7-0.3,1c-0.2,0.3-0.4,0.6-0.7,0.7c-0.3,0.2-0.7,0.3-1,0.3h-15.1v11.5h11.5
				c0.6,0,1,0.2,1.4,0.5c0.3,0.3,0.5,0.8,0.5,1.4v5.3c0,0.6-0.2,1-0.5,1.4c-0.3,0.3-0.8,0.5-1.4,0.5h-11.5V163h15.1
				c0.6,0,1.1,0.2,1.4,0.6c0.4,0.4,0.6,0.8,0.6,1.4v5.2c0,0.4-0.1,0.7-0.3,1c-0.2,0.3-0.4,0.6-0.7,0.7c-0.3,0.2-0.7,0.3-1,0.3h-22.1
				c-0.6,0-1.1-0.2-1.5-0.6C428.6,171.2,428.5,170.7,428.5,170.1z"/>
			<path class="st1" d="M478.8,170.4l-8.8-48.8c0-0.1,0-0.2,0-0.3c0-0.4,0.2-0.8,0.5-1.1s0.8-0.5,1.3-0.5h5.4c0.5,0,1,0.2,1.5,0.6
				c0.4,0.4,0.7,0.8,0.8,1.3l5,30.1c0,0.1,0.1,0.2,0.1,0.2c0,0,0.1,0.1,0.2,0.1c0.1,0,0.2,0,0.2-0.1c0,0,0.1-0.1,0.1-0.2l4-29.9
				c0.1-0.4,0.2-0.7,0.5-1c0.2-0.3,0.5-0.6,0.9-0.7c0.3-0.2,0.7-0.3,1-0.3h5.9c0.3,0,0.6,0.1,1,0.3s0.6,0.4,0.9,0.7s0.4,0.6,0.5,0.9
				l5,30.7c0,0.2,0.1,0.3,0.3,0.3c0.1,0,0.1,0,0.2-0.1c0.1,0,0.1-0.1,0.1-0.2l4.1-30.5c0.1-0.6,0.4-1,0.8-1.4
				c0.4-0.4,0.9-0.6,1.5-0.6h5.4c0.3,0,0.6,0.1,0.9,0.2c0.3,0.2,0.5,0.4,0.7,0.6c0.2,0.2,0.2,0.5,0.2,0.7l-7.7,48.5
				c-0.1,0.8-0.4,1.4-0.8,1.8c-0.4,0.4-1,0.7-1.6,0.7h-7.5c-0.5,0-1-0.2-1.5-0.6c-0.4-0.4-0.7-0.8-0.8-1.3l-4.3-24.1l-3.7,23.5
				c-0.2,0.8-0.5,1.4-0.9,1.8c-0.5,0.4-1,0.7-1.6,0.7h-7.4c-0.4,0-0.7-0.1-1.1-0.3c-0.3-0.2-0.6-0.4-0.9-0.7
				C478.9,171,478.8,170.7,478.8,170.4z"/>
			<path class="st1" d="M524.2,170.3v-48.5c0-0.3,0.1-0.6,0.3-0.9c0.2-0.3,0.4-0.5,0.7-0.7c0.3-0.2,0.6-0.3,0.9-0.3h5.5
				c0.6,0,1,0.2,1.4,0.6c0.4,0.4,0.6,0.8,0.6,1.4v18.5l14.2-0.1v-18.5c0-0.3,0.1-0.6,0.3-0.9c0.2-0.3,0.5-0.5,0.8-0.7
				c0.3-0.2,0.7-0.3,1-0.3h5.4c0.4,0,0.7,0.1,1,0.3c0.3,0.2,0.6,0.4,0.8,0.7c0.2,0.3,0.3,0.6,0.3,0.9v48.5c0,0.4-0.1,0.7-0.3,1
				c-0.2,0.3-0.4,0.6-0.8,0.7c-0.3,0.2-0.7,0.3-1,0.3H550c-0.4,0-0.7-0.1-1-0.3c-0.3-0.2-0.6-0.4-0.8-0.7c-0.2-0.3-0.3-0.7-0.3-1
				v-20.9l-14.2,0.1v20.8c0,0.4-0.1,0.7-0.3,1s-0.4,0.6-0.7,0.7c-0.3,0.2-0.6,0.3-1,0.3h-5.5c-0.3,0-0.6-0.1-0.9-0.3
				c-0.3-0.2-0.5-0.4-0.7-0.7C524.3,171,524.2,170.6,524.2,170.3z"/>
			<path class="st1" d="M560.9,170.8c0-0.2,0-0.3,0-0.3l9.9-48.6c0.1-0.6,0.4-1,1-1.4c0.5-0.4,1.1-0.6,1.7-0.6h9.5
				c0.4,0,0.8,0.1,1.2,0.3c0.4,0.2,0.7,0.4,1,0.7c0.3,0.3,0.5,0.6,0.5,1l9.8,48.6c0,0.1,0,0.2,0,0.4c0,0.5-0.2,0.9-0.5,1.1
				c-0.4,0.3-0.8,0.4-1.4,0.4h-6.4c-1.1,0-1.8-0.5-1.9-1.7l-2.3-12.2h-9.7l-2.3,12.2c-0.1,0.6-0.3,1-0.6,1.3s-0.7,0.4-1.3,0.4h-6.4
				c-0.6,0-1-0.2-1.4-0.5S560.9,171.2,560.9,170.8z M581.9,149.7l-3.2-18.8c0-0.1-0.1-0.2-0.1-0.3c-0.1-0.1-0.1-0.1-0.2-0.1
				c-0.1,0-0.2,0-0.2,0.1c-0.1,0.1-0.1,0.2-0.1,0.3l-3.2,18.8H581.9z"/>
			<path class="st1" d="M605.4,170.3v-41.9h-6.1c-0.7,0-1.2-0.2-1.6-0.5c-0.4-0.3-0.6-0.8-0.6-1.3v-5c0-0.5,0.2-1,0.6-1.3
				c0.4-0.3,0.9-0.5,1.6-0.5h21.9c0.4,0,0.8,0.1,1.1,0.2s0.6,0.4,0.8,0.7c0.2,0.3,0.3,0.6,0.3,0.9v5c0,0.3-0.1,0.6-0.3,0.9
				c-0.2,0.3-0.5,0.5-0.8,0.7c-0.3,0.2-0.7,0.2-1.1,0.2h-6.4v41.9c0,0.6-0.2,1-0.6,1.4c-0.4,0.4-0.8,0.6-1.4,0.6h-5.5
				c-0.3,0-0.6-0.1-0.9-0.3c-0.3-0.2-0.5-0.4-0.7-0.7C605.5,171,605.4,170.6,605.4,170.3z"/>
			<path class="st1" d="M640.3,170.4v-48.5c0-0.6,0.2-1.1,0.6-1.4c0.4-0.4,0.8-0.6,1.4-0.6h5.5c0.3,0,0.6,0.1,0.9,0.3
				c0.3,0.2,0.5,0.4,0.7,0.7s0.3,0.6,0.3,1v48.5c0,0.4-0.1,0.7-0.3,1c-0.2,0.3-0.4,0.6-0.7,0.7s-0.6,0.3-0.9,0.3h-5.5
				c-0.6,0-1-0.2-1.4-0.6C640.5,171.5,640.3,171,640.3,170.4z"/>
			<path class="st1" d="M663.6,170.3v-41.9h-6.1c-0.7,0-1.2-0.2-1.6-0.5c-0.4-0.3-0.6-0.8-0.6-1.3v-5c0-0.5,0.2-1,0.6-1.3
				c0.4-0.3,0.9-0.5,1.6-0.5h21.9c0.4,0,0.8,0.1,1.1,0.2s0.6,0.4,0.8,0.7c0.2,0.3,0.3,0.6,0.3,0.9v5c0,0.3-0.1,0.6-0.3,0.9
				c-0.2,0.3-0.5,0.5-0.8,0.7c-0.3,0.2-0.7,0.2-1.1,0.2H673v41.9c0,0.6-0.2,1-0.6,1.4c-0.4,0.4-0.8,0.6-1.4,0.6h-5.5
				c-0.3,0-0.6-0.1-0.9-0.3c-0.3-0.2-0.5-0.4-0.7-0.7C663.7,171,663.6,170.6,663.6,170.3z"/>
			<path class="st1" d="M702.6,170.3v-41.9h-6.1c-0.7,0-1.2-0.2-1.6-0.5c-0.4-0.3-0.6-0.8-0.6-1.3v-5c0-0.5,0.2-1,0.6-1.3
				c0.4-0.3,0.9-0.5,1.6-0.5h21.9c0.4,0,0.8,0.1,1.1,0.2s0.6,0.4,0.8,0.7c0.2,0.3,0.3,0.6,0.3,0.9v5c0,0.3-0.1,0.6-0.3,0.9
				c-0.2,0.3-0.5,0.5-0.8,0.7c-0.3,0.2-0.7,0.2-1.1,0.2H712v41.9c0,0.6-0.2,1-0.6,1.4c-0.4,0.4-0.8,0.6-1.4,0.6h-5.5
				c-0.3,0-0.6-0.1-0.9-0.3c-0.3-0.2-0.5-0.4-0.7-0.7C702.7,171,702.6,170.6,702.6,170.3z"/>
			<path class="st1" d="M722.1,170.8c0-0.2,0-0.3,0-0.3l9.9-48.6c0.1-0.6,0.4-1,1-1.4c0.5-0.4,1.1-0.6,1.7-0.6h9.5
				c0.4,0,0.8,0.1,1.2,0.3c0.4,0.2,0.7,0.4,1,0.7c0.3,0.3,0.5,0.6,0.5,1l9.8,48.6c0,0.1,0,0.2,0,0.4c0,0.5-0.2,0.9-0.5,1.1
				c-0.4,0.3-0.8,0.4-1.4,0.4h-6.4c-1.1,0-1.8-0.5-1.9-1.7l-2.3-12.2h-9.7l-2.3,12.2c-0.1,0.6-0.3,1-0.6,1.3s-0.7,0.4-1.3,0.4h-6.4
				c-0.6,0-1-0.2-1.4-0.5S722.1,171.2,722.1,170.8z M743.1,149.7l-3.2-18.8c0-0.1-0.1-0.2-0.1-0.3c-0.1-0.1-0.1-0.1-0.2-0.1
				c-0.1,0-0.2,0-0.2,0.1c-0.1,0.1-0.1,0.2-0.1,0.3l-3.2,18.8H743.1z"/>
			<path class="st1" d="M761.4,170.6v-48.8c0-0.3,0.1-0.6,0.3-0.9c0.2-0.3,0.4-0.5,0.7-0.7s0.6-0.3,1-0.3h5.5c0.3,0,0.6,0.1,0.9,0.3
				s0.5,0.4,0.7,0.7c0.2,0.3,0.2,0.6,0.2,0.9v13.8l9.3-14.3c0.3-0.4,0.7-0.7,1.1-1c0.4-0.3,0.8-0.4,1.2-0.4l5.6-0.1
				c0.5,0,0.9,0.1,1.3,0.4s0.7,0.5,0.9,0.9c0.2,0.4,0.3,0.7,0.3,1.1c0,0.5-0.1,0.9-0.3,1.1l-13.1,20.1l16.6,25.4
				c0.3,0.6,0.4,1,0.4,1.3c0,0.4-0.1,0.8-0.3,1.2c-0.2,0.4-0.5,0.6-0.8,0.9c-0.4,0.2-0.8,0.3-1.2,0.3h-6.3c-0.4,0-0.8-0.1-1.2-0.4
				c-0.4-0.2-0.7-0.6-0.9-1.1l-12.5-19.7v19.3c0,0.3-0.1,0.6-0.2,0.9c-0.2,0.3-0.4,0.5-0.7,0.7s-0.6,0.3-0.9,0.3h-5.5
				c-0.4,0-0.7-0.1-1-0.3s-0.5-0.4-0.7-0.7C761.5,171.2,761.4,170.9,761.4,170.6z"/>
			<path class="st1" d="M798.4,170.1v-48.5c0-0.6,0.2-1,0.6-1.4s0.9-0.5,1.5-0.5h22.1c0.6,0,1.1,0.2,1.4,0.6
				c0.4,0.4,0.6,0.8,0.6,1.4v5.2c0,0.4-0.1,0.7-0.3,1c-0.2,0.3-0.4,0.6-0.7,0.7c-0.3,0.2-0.7,0.3-1,0.3h-15.1v11.5h11.5
				c0.6,0,1,0.2,1.4,0.5c0.3,0.3,0.5,0.8,0.5,1.4v5.3c0,0.6-0.2,1-0.5,1.4c-0.3,0.3-0.8,0.5-1.4,0.5h-11.5V163h15.1
				c0.6,0,1.1,0.2,1.4,0.6c0.4,0.4,0.6,0.8,0.6,1.4v5.2c0,0.4-0.1,0.7-0.3,1c-0.2,0.3-0.4,0.6-0.7,0.7c-0.3,0.2-0.7,0.3-1,0.3h-22.1
				c-0.6,0-1.1-0.2-1.5-0.6C798.6,171.2,798.4,170.7,798.4,170.1z"/>
			<path class="st1" d="M832.6,168.8c-1.3-1.4-2.2-2.9-2.9-4.7s-1-3.6-1-5.5v-0.1c0-0.5,0.1-0.9,0.3-1.3s0.5-0.7,0.9-0.9
				c0.4-0.2,0.8-0.3,1.2-0.3h5.3c0,0,0.1,0.1,0.1,0.1s0.1,0,0.2,0h0.1c0.5,0.2,0.8,0.5,1.1,0.9c0.3,0.4,0.5,0.8,0.5,1.3v0.8
				c0,0.8,0.2,1.5,0.5,2.2c0.3,0.7,0.7,1.3,1.3,1.7c0.6,0.5,1.2,0.8,1.9,1c0.5,0.2,1,0.2,1.6,0.2h0.2c0.2,0,0.3,0,0.4,0
				c0.1,0,0.2,0,0.2-0.1h0.1c0.9-0.1,1.7-0.3,2.5-0.8c0.7-0.5,1.3-1.1,1.8-1.8c0.4-0.8,0.6-1.6,0.6-2.5l0.2-3.8
				c0-1.3-0.3-2.4-0.8-3.3c-0.5-0.9-1.3-1.6-2.3-2c-1.2-0.7-3-1-5.5-1.1l-1.4-0.1c-2.9-0.2-5.1-1-6.6-2.5s-2.5-3.1-2.9-5.1
				c-0.5-1.9-0.7-4.1-0.7-6.4l0.1-2.6l0.1-1c0.3-1.7,0.5-2.9,0.7-3.8c0.2-0.9,0.5-1.7,0.9-2.4c0.4-0.7,1-1.4,1.7-2.1
				c1.2-1.2,2.6-2.1,4.3-2.7c1.7-0.6,3.5-0.9,5.4-0.8h2.3c1.8,0,3.4,0.3,5,1c1.6,0.7,3,1.6,4.3,2.9c1.2,1.2,2.2,2.7,2.8,4.4
				c0.7,1.7,1,3.5,1,5.3v0.1c0,0.4-0.1,0.8-0.3,1.1c-0.2,0.3-0.5,0.6-0.8,0.8c-0.3,0.2-0.7,0.3-1.1,0.3h-5.2c-0.6,0-1-0.3-1.4-0.7
				s-0.6-0.9-0.6-1.4v-0.5c0-0.7-0.2-1.4-0.5-2c-0.3-0.6-0.7-1.2-1.3-1.7c-0.6-0.5-1.2-0.8-1.9-1c-0.4-0.2-1-0.2-1.5-0.2h-0.6
				c0,0.1-0.2,0.1-0.4,0.1c-0.9,0.1-1.7,0.4-2.4,0.8c-0.7,0.4-1.2,1-1.6,1.7c-0.4,0.7-0.6,1.5-0.6,2.4v4.4c0.1,1,0.4,1.8,1,2.3
				c0.6,0.6,1.4,1,2.4,1.2c1.1,0.3,2.5,0.4,4.2,0.5c4.5,0.3,7.8,1.7,9.9,4.1c2.2,2.4,3.3,6,3.3,10.6c0,1.3-0.1,2.6-0.2,3.8
				c-0.1,1.2-0.4,2.5-0.8,3.8c-0.4,1.3-1,2.6-1.8,3.8c-1.3,1.9-3,3.4-4.9,4.5c-2,1.1-4.1,1.6-6.3,1.6h-2.3c-1.8,0-3.6-0.4-5.2-1.1
				C835.4,171.2,833.9,170.2,832.6,168.8z"/>
			<path class="st1" d="M870.4,155.9c0-0.2,0-0.4,0-0.7c0-0.2,0-0.5,0-0.7c0-0.9-0.1-1.6-0.1-1.9c0-1.7,0.3-3.2,0.8-4.4
				c0.5-1.2,1.5-2.3,2.8-3.3s3.2-1.9,5.6-2.8c1.1-0.7,1.9-1.4,2.3-2.2c0.4-0.8,0.6-1.6,0.7-2.5v-5c0-0.9-0.2-1.7-0.6-2.4
				c-0.4-0.7-0.9-1.3-1.6-1.8c-0.7-0.5-1.5-0.7-2.5-0.8c-0.2,0-0.3,0-0.4-0.1h-0.5c-0.5,0-1,0.1-1.5,0.2c-0.7,0.2-1.3,0.6-1.9,1.1
				c-0.5,0.5-1,1.1-1.3,1.7c-0.3,0.7-0.5,1.4-0.5,2.1v0.5c0,0.6-0.2,1-0.6,1.4c-0.4,0.4-0.9,0.6-1.4,0.7h-5.1
				c-0.4,0-0.8-0.1-1.1-0.3s-0.6-0.5-0.8-0.8c-0.2-0.3-0.3-0.7-0.3-1.1v-0.1c0-1.8,0.3-3.6,1-5.3c0.6-1.7,1.6-3.2,2.8-4.5
				c1.2-1.3,2.6-2.3,4.2-3c1.6-0.7,3.3-1,5.1-1h2.3c2,0,3.9,0.2,5.5,0.9c1.6,0.6,3,1.6,4.3,2.8c2,1.9,3.2,4.4,3.3,7.4
				c0.2,1.6,0.3,3.4,0.3,5.4c0,3.3-0.4,5.9-1.1,7.9c-0.8,2-1.7,3.3-2.9,4.1c-1.2,0.8-2.5,1.3-3.8,1.6c-0.6,0.1-1.1,0.3-1.4,0.4
				c-0.3,0.1-0.6,0.3-0.8,0.5c-0.2,0.2-0.4,0.6-0.5,1c-0.1,0.5-0.2,1.5-0.3,3.1c0,0.8,0,1.6-0.1,2.2c-0.1,0.6-0.2,1.2-0.5,1.6
				c-0.3,0.5-0.7,0.7-1.2,0.7l-5.3,0.1c-0.5,0-0.9-0.1-1.3-0.4c-0.4-0.2-0.7-0.6-0.9-1C870.6,156.9,870.4,156.4,870.4,155.9z
				 M870.6,169.7V164c0-0.5,0.1-1,0.4-1.4c0.2-0.4,0.6-0.7,1-1s0.8-0.3,1.3-0.3h5.6c0.5,0,0.9,0.1,1.3,0.3c0.4,0.2,0.7,0.6,0.9,1
				c0.2,0.4,0.3,0.9,0.3,1.4v5.6c0,0.5-0.1,1-0.4,1.4c-0.2,0.4-0.6,0.8-1,1c-0.4,0.2-0.8,0.4-1.3,0.4h-5.6c-0.5,0-0.9-0.1-1.3-0.4
				c-0.4-0.2-0.7-0.6-1-1S870.6,170.2,870.6,169.7z"/>
			<path class="st1" d="M110.4,203.3c-0.7-1.3-1.1-2.7-1.1-4.3v-14.5c0-1,0.2-2,0.5-2.9s0.8-1.7,1.4-2.5c0.6-0.7,1.3-1.4,2.1-1.9
				c1.2-0.7,2.5-1.1,4-1.1h1.4c1,0,1.9,0.2,2.8,0.5c0.9,0.3,1.7,0.8,2.4,1.4c0.7,0.6,1.3,1.3,1.8,2.2c0.7,1.3,1.1,2.7,1.1,4.2v0
				c0,0.2,0,0.4-0.1,0.7s-0.3,0.4-0.5,0.5c-0.2,0.1-0.4,0.2-0.6,0.2h-3c-0.2,0-0.4-0.1-0.6-0.2c-0.2-0.1-0.4-0.3-0.5-0.5
				s-0.2-0.4-0.2-0.7v-0.1c0-0.6-0.1-1.2-0.4-1.7c-0.3-0.5-0.7-0.9-1.2-1.2c-0.5-0.3-1.1-0.4-1.7-0.4h-0.2c-0.6,0-1.2,0.2-1.7,0.5
				c-0.5,0.3-0.9,0.7-1.2,1.2c-0.3,0.5-0.5,1.1-0.4,1.7v14.3c0,0.6,0.2,1.2,0.5,1.8c0.3,0.6,0.7,1,1.3,1.3s1.1,0.5,1.6,0.5h0.2
				c0.6,0,1.2-0.2,1.7-0.5c0.5-0.3,0.9-0.8,1.2-1.3c0.3-0.5,0.4-1.1,0.4-1.8c0-0.2,0.1-0.5,0.2-0.7c0.1-0.2,0.3-0.4,0.5-0.5
				s0.4-0.2,0.7-0.2h3c0.2,0,0.4,0.1,0.6,0.2s0.3,0.3,0.5,0.5s0.2,0.4,0.2,0.7v0.2c0,1-0.2,2-0.5,2.9c-0.3,0.9-0.8,1.8-1.4,2.5
				s-1.3,1.4-2.1,1.9c-1.3,0.8-2.6,1.2-4.1,1.2h-1.4c-1,0-1.9-0.2-2.8-0.5c-0.9-0.3-1.7-0.8-2.4-1.5
				C111.5,204.9,110.9,204.2,110.4,203.3z"/>
			<path class="st1" d="M130.3,206.2v-28.6c0-0.2,0.1-0.4,0.2-0.6s0.2-0.3,0.4-0.4c0.2-0.1,0.3-0.1,0.5-0.1h3.2c0.2,0,0.4,0,0.5,0.1
				c0.2,0.1,0.3,0.2,0.4,0.4s0.2,0.4,0.2,0.6v24.3h6.6c0.3,0,0.6,0.1,0.8,0.3c0.2,0.2,0.3,0.4,0.3,0.8v3.3c0,0.3-0.1,0.5-0.3,0.7
				s-0.4,0.3-0.8,0.3h-10.9c-0.2,0-0.4,0-0.5-0.1c-0.2-0.1-0.3-0.2-0.4-0.4S130.3,206.4,130.3,206.2z"/>
			<path class="st1" d="M146.6,206.2v-28.3c0-0.3,0.1-0.6,0.3-0.8s0.5-0.3,0.8-0.3h3.2c0.2,0,0.4,0.1,0.5,0.2
				c0.2,0.1,0.3,0.2,0.4,0.4c0.1,0.2,0.2,0.4,0.2,0.6v28.3c0,0.2-0.1,0.4-0.2,0.6c-0.1,0.2-0.2,0.3-0.4,0.4
				c-0.2,0.1-0.3,0.2-0.5,0.2h-3.2c-0.3,0-0.6-0.1-0.8-0.3S146.6,206.5,146.6,206.2z"/>
			<path class="st1" d="M158.2,203.3c-0.7-1.3-1.1-2.7-1.1-4.3v-14.5c0-1,0.2-2,0.5-2.9s0.8-1.7,1.4-2.5c0.6-0.7,1.3-1.4,2.1-1.9
				c1.2-0.7,2.5-1.1,4-1.1h1.4c1,0,1.9,0.2,2.8,0.5c0.9,0.3,1.7,0.8,2.4,1.4c0.7,0.6,1.3,1.3,1.8,2.2c0.7,1.3,1.1,2.7,1.1,4.2v0
				c0,0.2,0,0.4-0.1,0.7s-0.3,0.4-0.5,0.5c-0.2,0.1-0.4,0.2-0.6,0.2h-3c-0.2,0-0.4-0.1-0.6-0.2c-0.2-0.1-0.4-0.3-0.5-0.5
				s-0.2-0.4-0.2-0.7v-0.1c0-0.6-0.1-1.2-0.4-1.7c-0.3-0.5-0.7-0.9-1.2-1.2c-0.5-0.3-1.1-0.4-1.7-0.4h-0.2c-0.6,0-1.2,0.2-1.7,0.5
				c-0.5,0.3-0.9,0.7-1.2,1.2c-0.3,0.5-0.5,1.1-0.4,1.7v14.3c0,0.6,0.2,1.2,0.5,1.8c0.3,0.6,0.7,1,1.3,1.3s1.1,0.5,1.6,0.5h0.2
				c0.6,0,1.2-0.2,1.7-0.5c0.5-0.3,0.9-0.8,1.2-1.3c0.3-0.5,0.4-1.1,0.4-1.8c0-0.2,0.1-0.5,0.2-0.7c0.1-0.2,0.3-0.4,0.5-0.5
				s0.4-0.2,0.7-0.2h3c0.2,0,0.4,0.1,0.6,0.2s0.3,0.3,0.5,0.5s0.2,0.4,0.2,0.7v0.2c0,1-0.2,2-0.5,2.9c-0.3,0.9-0.8,1.8-1.4,2.5
				s-1.3,1.4-2.1,1.9c-1.3,0.8-2.6,1.2-4.1,1.2h-1.4c-1,0-1.9-0.2-2.8-0.5c-0.9-0.3-1.7-0.8-2.4-1.5
				C159.2,204.9,158.6,204.2,158.2,203.3z"/>
			<path class="st1" d="M178.2,206.3v-28.4c0-0.2,0-0.4,0.1-0.6c0.1-0.2,0.2-0.3,0.4-0.4c0.2-0.1,0.4-0.2,0.6-0.2h3.2
				c0.2,0,0.4,0.1,0.5,0.2c0.2,0.1,0.3,0.3,0.4,0.4c0.1,0.2,0.1,0.4,0.1,0.5v8l5.4-8.4c0.2-0.2,0.4-0.4,0.6-0.6s0.5-0.3,0.7-0.2
				l3.2,0c0.3,0,0.5,0.1,0.7,0.2s0.4,0.3,0.5,0.5c0.1,0.2,0.2,0.4,0.2,0.6c0,0.3-0.1,0.5-0.2,0.6l-7.7,11.7l9.7,14.8
				c0.1,0.3,0.2,0.6,0.2,0.8c0,0.3-0.1,0.5-0.2,0.7s-0.3,0.4-0.5,0.5c-0.2,0.1-0.4,0.2-0.7,0.2h-3.7c-0.2,0-0.5-0.1-0.7-0.2
				s-0.4-0.3-0.5-0.6l-7.3-11.5v11.2c0,0.2,0,0.3-0.1,0.5c-0.1,0.2-0.2,0.3-0.4,0.4c-0.2,0.1-0.3,0.2-0.5,0.2h-3.2
				c-0.2,0-0.4,0-0.6-0.1c-0.2-0.1-0.3-0.2-0.4-0.4C178.3,206.7,178.2,206.5,178.2,206.3z"/>
			<path class="st1" d="M209.4,206.1v-24.5h-3.5c-0.4,0-0.7-0.1-0.9-0.3c-0.2-0.2-0.4-0.4-0.4-0.8v-2.9c0-0.3,0.1-0.6,0.4-0.8
				c0.2-0.2,0.5-0.3,0.9-0.3h12.8c0.2,0,0.4,0,0.6,0.1c0.2,0.1,0.4,0.2,0.5,0.4s0.2,0.3,0.2,0.5v2.9c0,0.2-0.1,0.4-0.2,0.5
				s-0.3,0.3-0.5,0.4c-0.2,0.1-0.4,0.1-0.6,0.1H215v24.5c0,0.3-0.1,0.6-0.3,0.8c-0.2,0.2-0.5,0.3-0.8,0.3h-3.2
				c-0.2,0-0.4-0.1-0.5-0.2c-0.2-0.1-0.3-0.3-0.4-0.4C209.5,206.5,209.4,206.3,209.4,206.1z"/>
			<path class="st1" d="M222.6,206.1v-28.3c0-0.2,0.1-0.4,0.2-0.5s0.3-0.3,0.4-0.4c0.2-0.1,0.4-0.2,0.5-0.2h3.2
				c0.3,0,0.6,0.1,0.8,0.3c0.2,0.2,0.3,0.5,0.3,0.8v10.8l8.3,0v-10.8c0-0.2,0.1-0.4,0.2-0.5s0.3-0.3,0.5-0.4s0.4-0.2,0.6-0.2h3.2
				c0.2,0,0.4,0.1,0.6,0.2s0.3,0.3,0.5,0.4s0.2,0.4,0.2,0.5v28.3c0,0.2-0.1,0.4-0.2,0.6c-0.1,0.2-0.3,0.3-0.5,0.4
				c-0.2,0.1-0.4,0.2-0.6,0.2h-3.2c-0.2,0-0.4-0.1-0.6-0.2c-0.2-0.1-0.3-0.2-0.5-0.4c-0.1-0.2-0.2-0.4-0.2-0.6v-12.2l-8.3,0v12.1
				c0,0.2-0.1,0.4-0.2,0.6c-0.1,0.2-0.2,0.3-0.4,0.4c-0.2,0.1-0.4,0.2-0.6,0.2h-3.2c-0.2,0-0.4-0.1-0.5-0.2
				c-0.2-0.1-0.3-0.3-0.4-0.4C222.6,206.5,222.6,206.3,222.6,206.1z"/>
			<path class="st1" d="M246.4,206.2v-28.3c0-0.3,0.1-0.6,0.3-0.8s0.5-0.3,0.8-0.3h3.2c0.2,0,0.4,0.1,0.5,0.2
				c0.2,0.1,0.3,0.2,0.4,0.4c0.1,0.2,0.2,0.4,0.2,0.6v28.3c0,0.2-0.1,0.4-0.2,0.6c-0.1,0.2-0.2,0.3-0.4,0.4
				c-0.2,0.1-0.3,0.2-0.5,0.2h-3.2c-0.3,0-0.6-0.1-0.8-0.3S246.4,206.5,246.4,206.2z"/>
			<path class="st1" d="M257.9,205.3c-0.7-0.8-1.3-1.7-1.7-2.7s-0.6-2.1-0.6-3.2v0c0-0.3,0.1-0.5,0.2-0.7s0.3-0.4,0.5-0.5
				c0.2-0.1,0.4-0.2,0.7-0.2h3.1c0,0,0,0,0.1,0c0,0,0.1,0,0.1,0h0.1c0.3,0.1,0.5,0.3,0.7,0.5c0.2,0.2,0.3,0.5,0.3,0.7v0.4
				c0,0.4,0.1,0.9,0.3,1.3c0.2,0.4,0.4,0.7,0.8,1c0.3,0.3,0.7,0.5,1.1,0.6c0.3,0.1,0.6,0.1,0.9,0.1h0.1c0.1,0,0.2,0,0.3,0
				c0.1,0,0.1,0,0.1,0h0c0.5,0,1-0.2,1.4-0.5c0.4-0.3,0.8-0.6,1-1.1s0.4-0.9,0.4-1.4l0.1-2.2c0-0.8-0.2-1.4-0.5-1.9
				c-0.3-0.5-0.8-0.9-1.3-1.2c-0.7-0.4-1.8-0.6-3.2-0.7l-0.8-0.1c-1.7-0.1-3-0.6-3.8-1.5s-1.4-1.8-1.7-3c-0.3-1.1-0.4-2.4-0.4-3.7
				l0-1.5l0-0.6c0.2-1,0.3-1.7,0.4-2.2c0.1-0.5,0.3-1,0.5-1.4s0.6-0.8,1-1.2c0.7-0.7,1.5-1.2,2.5-1.6c1-0.3,2-0.5,3.2-0.5h1.4
				c1,0,2,0.2,2.9,0.6c0.9,0.4,1.8,1,2.5,1.7c0.7,0.7,1.3,1.6,1.7,2.6c0.4,1,0.6,2,0.6,3.1v0c0,0.2-0.1,0.5-0.2,0.7
				s-0.3,0.4-0.5,0.5c-0.2,0.1-0.4,0.2-0.6,0.2h-3c-0.3,0-0.6-0.2-0.8-0.4s-0.3-0.5-0.3-0.8v-0.3c0-0.4-0.1-0.8-0.3-1.2
				c-0.2-0.4-0.4-0.7-0.8-1c-0.3-0.3-0.7-0.5-1.1-0.6c-0.3-0.1-0.6-0.1-0.9-0.1h-0.4c0,0-0.1,0-0.2,0c-0.5,0.1-1,0.2-1.4,0.5
				c-0.4,0.3-0.7,0.6-1,1s-0.3,0.9-0.3,1.4v2.5c0.1,0.6,0.3,1,0.6,1.4c0.3,0.3,0.8,0.6,1.4,0.7c0.6,0.1,1.4,0.2,2.5,0.3
				c2.6,0.2,4.5,1,5.8,2.4c1.3,1.4,1.9,3.5,1.9,6.2c0,0.8,0,1.5-0.1,2.2c-0.1,0.7-0.2,1.4-0.5,2.2s-0.6,1.5-1.1,2.2
				c-0.8,1.1-1.7,2-2.9,2.6s-2.4,0.9-3.7,0.9h-1.4c-1.1,0-2.1-0.2-3-0.6S258.6,206.1,257.9,205.3z"/>
			<path class="st1" d="M289.9,205.9v-27.3c0-0.3,0.1-0.7,0.3-1c0.2-0.3,0.4-0.5,0.7-0.7s0.6-0.2,1-0.2h8.9c1.1,0.1,2,0.3,2.7,0.7
				c0.7,0.4,1.4,1.1,1.9,1.9c0.5,0.9,0.7,1.9,0.7,3.1l0,3.3c0,0.7-0.1,1.4-0.3,2.2c-0.2,0.8-0.5,1.5-1,2.1c-0.5,0.6-1.1,1.1-2,1.3
				c1.3,0.2,2.3,0.9,3,2c0.7,1.1,1.1,2.5,1.1,4.3l0,3c0,1.1-0.2,2.1-0.5,3c-0.3,0.8-0.8,1.5-1.3,2s-1.2,0.9-1.8,1.1
				c-0.9,0.4-1.6,0.5-2.2,0.5h-10.1c-0.2,0-0.5-0.1-0.7-0.2c-0.2-0.1-0.4-0.3-0.5-0.5S289.9,206.1,289.9,205.9z M298.5,189.2
				c0.4,0,0.8-0.1,1.2-0.4c0.4-0.3,0.6-0.6,0.8-1.1c0.2-0.5,0.3-1.1,0.3-1.7l0-2.1c0-1-0.2-1.8-0.7-2.4s-1.1-0.8-2-0.8h-2.4
				c-0.2,0-0.3,0.1-0.5,0.2c-0.1,0.2-0.2,0.3-0.2,0.5l0.1,7.4c0,0.3,0.2,0.4,0.5,0.4L298.5,189.2z M299.1,203.2
				c0.9-0.2,1.6-0.5,2-1.1c0.4-0.6,0.6-1.4,0.6-2.4l0-2.2c0-0.9-0.1-1.6-0.4-2.1s-0.6-0.9-1.1-1.1c-0.5-0.2-1.1-0.3-1.8-0.3h-2.6
				c-0.2,0-0.4,0.1-0.5,0.2c-0.1,0.2-0.2,0.4-0.2,0.6l0,7.9c0,0.2,0.1,0.3,0.2,0.4c0.1,0.1,0.3,0.1,0.5,0.1H299.1z"/>
			<path class="st1" d="M309.2,206.4c0-0.1,0-0.2,0-0.2l5.8-28.4c0.1-0.3,0.2-0.6,0.6-0.8c0.3-0.2,0.6-0.3,1-0.3h5.5
				c0.2,0,0.5,0,0.7,0.1s0.4,0.2,0.6,0.4c0.2,0.2,0.3,0.4,0.3,0.6l5.7,28.4c0,0,0,0.1,0,0.2c0,0.3-0.1,0.5-0.3,0.7s-0.5,0.3-0.8,0.3
				h-3.7c-0.7,0-1.1-0.3-1.1-1l-1.3-7.1h-5.6l-1.3,7.1c-0.1,0.3-0.2,0.6-0.4,0.7c-0.2,0.1-0.4,0.2-0.8,0.2h-3.7
				c-0.3,0-0.6-0.1-0.8-0.3S309.2,206.7,309.2,206.4z M321.4,194.1l-1.9-11c0-0.1-0.1-0.1-0.1-0.2c0,0-0.1-0.1-0.1-0.1
				s-0.1,0-0.1,0.1c0,0-0.1,0.1-0.1,0.2l-1.8,11H321.4z"/>
			<path class="st1" d="M332.1,206.1v-28.3c0-0.2,0.1-0.4,0.2-0.6c0.1-0.2,0.3-0.3,0.5-0.4c0.2-0.1,0.4-0.2,0.6-0.2h5.2
				c0.2,0,0.5,0.1,0.7,0.2c0.2,0.1,0.4,0.2,0.6,0.4c0.2,0.2,0.3,0.3,0.3,0.5l6.3,19l-0.4-18.9c0-0.3,0.1-0.6,0.3-0.8
				s0.5-0.3,0.8-0.3h3.3c0.2,0,0.4,0,0.5,0.1c0.2,0.1,0.3,0.2,0.4,0.4s0.2,0.3,0.2,0.4v28.3c0,0.5-0.1,0.8-0.3,1.1
				c-0.2,0.3-0.5,0.4-0.8,0.4H346c-0.3,0-0.6-0.1-0.9-0.3c-0.3-0.2-0.5-0.5-0.6-0.8l-7.1-19.4l0.4,19.3c0,0.3-0.1,0.6-0.3,0.8
				s-0.5,0.3-0.8,0.3h-3.2c-0.2,0-0.4-0.1-0.6-0.2s-0.3-0.2-0.5-0.4S332.1,206.3,332.1,206.1z"/>
			<path class="st1" d="M355.4,206.1v-28.3c0-0.2,0.1-0.4,0.2-0.6c0.1-0.2,0.3-0.3,0.5-0.4c0.2-0.1,0.4-0.2,0.6-0.2h5.2
				c0.2,0,0.5,0.1,0.7,0.2c0.2,0.1,0.4,0.2,0.6,0.4c0.2,0.2,0.3,0.3,0.3,0.5l6.3,19l-0.4-18.9c0-0.3,0.1-0.6,0.3-0.8
				s0.5-0.3,0.8-0.3h3.3c0.2,0,0.4,0,0.5,0.1c0.2,0.1,0.3,0.2,0.4,0.4s0.2,0.3,0.2,0.4v28.3c0,0.5-0.1,0.8-0.3,1.1
				c-0.2,0.3-0.5,0.4-0.8,0.4h-4.5c-0.3,0-0.6-0.1-0.9-0.3c-0.3-0.2-0.5-0.5-0.6-0.8l-7.1-19.4l0.4,19.3c0,0.3-0.1,0.6-0.3,0.8
				s-0.5,0.3-0.8,0.3h-3.2c-0.2,0-0.4-0.1-0.6-0.2s-0.3-0.2-0.5-0.4S355.4,206.3,355.4,206.1z"/>
			<path class="st1" d="M378.7,206v-28.3c0-0.3,0.1-0.6,0.3-0.8c0.2-0.2,0.5-0.3,0.9-0.3h12.9c0.3,0,0.6,0.1,0.8,0.3
				s0.3,0.5,0.3,0.8v3c0,0.2-0.1,0.4-0.2,0.6c-0.1,0.2-0.2,0.3-0.4,0.4c-0.2,0.1-0.4,0.2-0.6,0.2H384v6.7h6.7c0.3,0,0.6,0.1,0.8,0.3
				c0.2,0.2,0.3,0.5,0.3,0.8v3.1c0,0.3-0.1,0.6-0.3,0.8s-0.5,0.3-0.8,0.3H384v8h8.8c0.3,0,0.6,0.1,0.8,0.3c0.2,0.2,0.3,0.5,0.3,0.8
				v3c0,0.2-0.1,0.4-0.2,0.6s-0.2,0.3-0.4,0.4c-0.2,0.1-0.4,0.2-0.6,0.2h-12.9c-0.3,0-0.6-0.1-0.8-0.3
				C378.8,206.6,378.7,206.3,378.7,206z"/>
			<path class="st1" d="M397.7,206.3V178c0-0.2,0.1-0.4,0.2-0.6s0.3-0.3,0.4-0.5c0.2-0.1,0.4-0.2,0.6-0.2h8.6c1.3,0,2.5,0.3,3.5,0.8
				c1,0.5,1.8,1.3,2.4,2.2c0.6,0.9,0.8,2,0.8,3.1v5.3c0,0.7-0.1,1.4-0.4,2c-0.3,0.7-0.7,1.3-1.1,1.8c-0.5,0.5-1.1,1-1.7,1.3l0,0.1
				l4.4,12.9c0,0,0,0.1,0,0.3c0,0.2-0.1,0.3-0.2,0.5s-0.4,0.2-0.6,0.2h-3.8c-0.2,0-0.4,0-0.6-0.1c-0.2-0.1-0.4-0.2-0.5-0.4
				s-0.3-0.3-0.3-0.5l-3.5-10.9c-0.4-0.2-0.7-0.3-1.1-0.3c-0.5,0-0.9,0.2-1.2,0.5v10.7c0,0.3-0.1,0.5-0.3,0.7
				c-0.2,0.2-0.5,0.3-0.8,0.3H399c-0.4,0-0.6-0.1-0.9-0.3C397.9,206.8,397.7,206.6,397.7,206.3z M406.2,189.8c0.4,0,0.9-0.1,1.2-0.3
				c0.4-0.2,0.7-0.5,0.9-0.8c0.2-0.4,0.3-0.7,0.3-1.2v-4c0-0.4-0.1-0.8-0.3-1.2s-0.5-0.7-0.9-0.9c-0.4-0.2-0.8-0.3-1.2-0.3h-2.4
				c-0.2,0-0.3,0.1-0.4,0.2c-0.1,0.1-0.2,0.3-0.2,0.4v7.4c0,0.2,0.1,0.4,0.2,0.5c0.1,0.1,0.3,0.2,0.5,0.2H406.2z"/>
			<path class="st1" d="M428.8,206.1v-24.5h-3.5c-0.4,0-0.7-0.1-0.9-0.3c-0.2-0.2-0.4-0.4-0.4-0.8v-2.9c0-0.3,0.1-0.6,0.4-0.8
				c0.2-0.2,0.5-0.3,0.9-0.3H438c0.2,0,0.4,0,0.6,0.1s0.4,0.2,0.5,0.4s0.2,0.3,0.2,0.5v2.9c0,0.2-0.1,0.4-0.2,0.5s-0.3,0.3-0.5,0.4
				c-0.2,0.1-0.4,0.1-0.6,0.1h-3.7v24.5c0,0.3-0.1,0.6-0.3,0.8c-0.2,0.2-0.5,0.3-0.8,0.3h-3.2c-0.2,0-0.4-0.1-0.5-0.2
				c-0.2-0.1-0.3-0.3-0.4-0.4C428.8,206.5,428.8,206.3,428.8,206.1z"/>
			<path class="st1" d="M442.8,203.3c-0.8-1.3-1.1-2.8-1.1-4.3v-14.4c0-1,0.2-2,0.5-2.9c0.3-0.9,0.8-1.8,1.5-2.5
				c0.6-0.7,1.4-1.4,2.2-1.9c1.2-0.7,2.6-1.1,4.2-1.1h1.4c1,0,2,0.2,2.9,0.5c0.9,0.3,1.8,0.8,2.5,1.4c0.8,0.6,1.4,1.3,1.9,2.2
				c0.7,1.2,1.1,2.7,1.1,4.2l0,14.4c0,1-0.2,2-0.5,2.9c-0.3,0.9-0.8,1.8-1.5,2.6s-1.4,1.4-2.2,1.9c-1.3,0.8-2.7,1.2-4.2,1.2h-1.4
				c-1,0-2-0.2-2.9-0.5c-0.9-0.3-1.8-0.8-2.5-1.5C443.9,204.9,443.3,204.2,442.8,203.3z M450.8,202.4c0.6,0,1.2-0.2,1.7-0.5
				c0.5-0.3,0.9-0.8,1.2-1.3c0.3-0.6,0.5-1.1,0.5-1.8v-14.3c0-0.6-0.2-1.2-0.5-1.7c-0.3-0.5-0.7-0.9-1.3-1.2s-1.1-0.4-1.7-0.4h-0.1
				c-0.6,0-1.2,0.1-1.8,0.4c-0.5,0.3-1,0.7-1.3,1.2s-0.5,1.1-0.5,1.7v14.3c0,0.6,0.2,1.2,0.5,1.8s0.7,1,1.3,1.3
				c0.5,0.3,1.1,0.5,1.8,0.5H450.8z"/>
			<path class="st1" d="M468.5,206.4c0-0.1,0-0.2,0-0.2l5.8-28.4c0.1-0.3,0.3-0.6,0.6-0.8c0.3-0.2,0.6-0.3,1-0.3h5.5
				c0.2,0,0.5,0,0.7,0.1s0.4,0.2,0.6,0.4c0.2,0.2,0.3,0.4,0.3,0.6l5.7,28.4c0,0,0,0.1,0,0.2c0,0.3-0.1,0.5-0.3,0.7s-0.5,0.3-0.8,0.3
				h-3.7c-0.7,0-1-0.3-1.1-1l-1.3-7.1h-5.6l-1.3,7.1c-0.1,0.3-0.2,0.6-0.3,0.7c-0.2,0.1-0.4,0.2-0.8,0.2h-3.7
				c-0.3,0-0.6-0.1-0.8-0.3S468.5,206.7,468.5,206.4z M480.7,194.1l-1.9-11c0-0.1-0.1-0.1-0.1-0.2c0,0-0.1-0.1-0.1-0.1
				c-0.1,0-0.1,0-0.1,0.1c0,0-0.1,0.1-0.1,0.2l-1.8,11H480.7z"/>
			<path class="st1" d="M491.4,206.1v-28.3c0-0.4,0.1-0.7,0.3-0.9c0.2-0.2,0.6-0.3,1-0.3h8.7c1,0,1.9,0.1,2.6,0.3
				c0.7,0.2,1.3,0.5,1.8,0.9s0.9,0.8,1.2,1.4c0.4,0.6,0.6,1.3,0.9,2.1c0.2,0.8,0.3,1.8,0.3,2.8v3.9c0,0.7-0.1,1.4-0.4,2.1
				c-0.3,0.7-0.7,1.3-1.2,1.8c-0.5,0.5-1.1,1-1.8,1.3c-1,0.6-2.2,0.8-3.4,0.8h-3.1c-0.4,0-0.6,0-0.8,0v12c0,0.3-0.1,0.6-0.4,0.8
				c-0.3,0.2-0.6,0.3-0.9,0.3h-3.4c-0.4,0-0.7-0.1-1-0.3C491.5,206.7,491.4,206.5,491.4,206.1z M500.5,189.4c0.5,0,0.9-0.1,1.3-0.3
				c0.4-0.2,0.7-0.5,0.9-0.9c0.2-0.4,0.3-0.8,0.3-1.3v-3.5c0-0.5-0.1-0.9-0.3-1.3s-0.5-0.7-0.9-0.9c-0.4-0.2-0.8-0.3-1.3-0.3h-2.7
				c-0.2,0-0.3,0.1-0.5,0.2c-0.1,0.1-0.2,0.3-0.2,0.4v7.1c0,0.1,0,0.3,0.1,0.4c0.1,0.1,0.2,0.2,0.3,0.3c0.1,0.1,0.2,0.1,0.4,0.1
				H500.5z"/>
			<path class="st1" d="M511.7,206.1v-28.3c0-0.4,0.1-0.7,0.3-0.9c0.2-0.2,0.6-0.3,1-0.3h8.7c1,0,1.9,0.1,2.6,0.3
				c0.7,0.2,1.3,0.5,1.8,0.9s0.9,0.8,1.2,1.4c0.4,0.6,0.6,1.3,0.9,2.1c0.2,0.8,0.3,1.8,0.3,2.8v3.9c0,0.7-0.1,1.4-0.4,2.1
				c-0.3,0.7-0.7,1.3-1.2,1.8c-0.5,0.5-1.1,1-1.8,1.3c-1,0.6-2.2,0.8-3.4,0.8h-3.1c-0.4,0-0.6,0-0.8,0v12c0,0.3-0.1,0.6-0.4,0.8
				c-0.3,0.2-0.6,0.3-0.9,0.3H513c-0.4,0-0.7-0.1-1-0.3C511.8,206.7,511.7,206.5,511.7,206.1z M520.8,189.4c0.5,0,0.9-0.1,1.3-0.3
				c0.4-0.2,0.7-0.5,0.9-0.9c0.2-0.4,0.3-0.8,0.3-1.3v-3.5c0-0.5-0.1-0.9-0.3-1.3s-0.5-0.7-0.9-0.9c-0.4-0.2-0.8-0.3-1.3-0.3h-2.7
				c-0.2,0-0.3,0.1-0.5,0.2c-0.1,0.1-0.2,0.3-0.2,0.4v7.1c0,0.1,0,0.3,0.1,0.4c0.1,0.1,0.2,0.2,0.3,0.3c0.1,0.1,0.2,0.1,0.4,0.1
				H520.8z"/>
			<path class="st1" d="M531.8,206.2v-28.6c0-0.2,0.1-0.4,0.2-0.6c0.1-0.2,0.2-0.3,0.4-0.4s0.3-0.1,0.5-0.1h3.2c0.2,0,0.4,0,0.5,0.1
				c0.2,0.1,0.3,0.2,0.4,0.4c0.1,0.2,0.2,0.4,0.2,0.6v24.3h6.6c0.3,0,0.6,0.1,0.8,0.3c0.2,0.2,0.3,0.4,0.3,0.8v3.3
				c0,0.3-0.1,0.5-0.3,0.7s-0.4,0.3-0.8,0.3h-10.9c-0.2,0-0.4,0-0.5-0.1s-0.3-0.2-0.4-0.4C531.8,206.6,531.8,206.4,531.8,206.2z"/>
			<path class="st1" d="M551.7,206.3v-12.5c-0.1-0.7-0.3-1.4-0.6-2.1l-5.1-13.3c-0.1-0.2-0.1-0.4-0.1-0.6c0-0.2,0.1-0.5,0.2-0.7
				c0.1-0.2,0.3-0.4,0.5-0.5s0.5-0.2,0.7-0.2h2.7c0.6,0,1.1,0.3,1.5,0.9l2.9,8.7c0.1,0.1,0.1,0.1,0.2,0.1c0,0,0.1,0,0.1-0.1l3-8.7
				c0.1-0.3,0.3-0.5,0.5-0.7c0.3-0.2,0.5-0.3,0.8-0.3h2.8c0.3,0,0.5,0.1,0.8,0.2s0.4,0.3,0.5,0.5c0.1,0.2,0.2,0.4,0.2,0.7
				c0,0.1,0,0.2,0,0.3c0,0.1,0,0.2-0.1,0.2l-5.2,13.3c-0.3,0.7-0.4,1.4-0.5,2.1v12.5c0,0.2-0.1,0.4-0.2,0.6
				c-0.1,0.2-0.3,0.3-0.5,0.4s-0.4,0.2-0.7,0.2h-3.2c-0.2,0-0.5-0.1-0.7-0.2s-0.4-0.2-0.5-0.4C551.8,206.7,551.7,206.5,551.7,206.3z
				"/>
			<path class="st1" d="M575.8,206.1v-24.5h-3.5c-0.4,0-0.7-0.1-0.9-0.3s-0.3-0.4-0.3-0.8v-2.9c0-0.3,0.1-0.6,0.3-0.8
				s0.5-0.3,0.9-0.3H585c0.2,0,0.4,0,0.6,0.1s0.4,0.2,0.5,0.4c0.1,0.2,0.2,0.3,0.2,0.5v2.9c0,0.2-0.1,0.4-0.2,0.5
				c-0.1,0.2-0.3,0.3-0.5,0.4c-0.2,0.1-0.4,0.1-0.6,0.1h-3.7v24.5c0,0.3-0.1,0.6-0.3,0.8c-0.2,0.2-0.5,0.3-0.8,0.3h-3.2
				c-0.2,0-0.4-0.1-0.5-0.2c-0.2-0.1-0.3-0.3-0.4-0.4C575.9,206.5,575.8,206.3,575.8,206.1z"/>
			<path class="st1" d="M589.8,203.3c-0.8-1.3-1.1-2.8-1.1-4.3v-14.4c0-1,0.2-2,0.5-2.9c0.3-0.9,0.8-1.8,1.5-2.5
				c0.6-0.7,1.4-1.4,2.2-1.9c1.2-0.7,2.6-1.1,4.2-1.1h1.4c1,0,2,0.2,2.9,0.5c0.9,0.3,1.8,0.8,2.5,1.4c0.8,0.6,1.4,1.3,1.9,2.2
				c0.7,1.2,1.1,2.7,1.1,4.2l0,14.4c0,1-0.2,2-0.5,2.9c-0.3,0.9-0.8,1.8-1.5,2.6s-1.4,1.4-2.2,1.9c-1.3,0.8-2.7,1.2-4.2,1.2h-1.4
				c-1,0-2-0.2-2.9-0.5c-0.9-0.3-1.8-0.8-2.5-1.5C590.9,204.9,590.3,204.2,589.8,203.3z M597.8,202.4c0.6,0,1.2-0.2,1.7-0.5
				c0.5-0.3,0.9-0.8,1.2-1.3c0.3-0.6,0.5-1.1,0.5-1.8v-14.3c0-0.6-0.2-1.2-0.5-1.7c-0.3-0.5-0.7-0.9-1.3-1.2s-1.1-0.4-1.7-0.4h-0.1
				c-0.6,0-1.2,0.1-1.8,0.4c-0.5,0.3-1,0.7-1.3,1.2s-0.5,1.1-0.5,1.7v14.3c0,0.6,0.2,1.2,0.5,1.8s0.7,1,1.3,1.3
				c0.5,0.3,1.1,0.5,1.8,0.5H597.8z"/>
			<path class="st1" d="M610.6,206.1v-28c0-0.2,0.1-0.5,0.2-0.7c0.1-0.2,0.3-0.4,0.5-0.5c0.2-0.1,0.4-0.2,0.6-0.2h8.8
				c1,0,1.9,0.2,2.8,0.5c0.9,0.3,1.7,0.8,2.4,1.4c0.7,0.6,1.3,1.3,1.8,2.1c0.7,1.3,1,2.6,1,4.1l0,14c0,1-0.2,1.9-0.5,2.9
				c-0.3,0.9-0.8,1.8-1.3,2.5s-1.3,1.4-2.1,1.9c-1.2,0.8-2.6,1.2-4,1.2H616c0,0,0,0-0.1,0s-0.1,0-0.1,0h-4.1c-0.2,0-0.4-0.1-0.6-0.2
				c-0.2-0.1-0.3-0.3-0.4-0.5C610.7,206.6,610.6,206.3,610.6,206.1z M619.6,202.1c0.6,0,1.2-0.2,1.8-0.5c0.6-0.3,1-0.8,1.4-1.4
				c0.3-0.6,0.5-1.2,0.5-1.8v-13.3c0-0.6-0.1-1.1-0.4-1.6c-0.3-0.5-0.7-0.9-1.2-1.2c-0.5-0.3-1-0.4-1.6-0.4h-3.7
				c-0.2,0-0.3,0.1-0.5,0.2c-0.1,0.1-0.2,0.3-0.2,0.4v19.3c0,0.1,0,0.2,0.1,0.3c0.1,0.1,0.1,0.1,0.3,0.1H619.6z"/>
			<path class="st1" d="M630.9,206.4c0-0.1,0-0.2,0-0.2l5.8-28.4c0.1-0.3,0.3-0.6,0.6-0.8c0.3-0.2,0.6-0.3,1-0.3h5.5
				c0.2,0,0.5,0,0.7,0.1s0.4,0.2,0.6,0.4c0.2,0.2,0.3,0.4,0.3,0.6l5.7,28.4c0,0,0,0.1,0,0.2c0,0.3-0.1,0.5-0.3,0.7s-0.5,0.3-0.8,0.3
				h-3.7c-0.7,0-1-0.3-1.1-1l-1.3-7.1h-5.6l-1.3,7.1c-0.1,0.3-0.2,0.6-0.3,0.7c-0.2,0.1-0.4,0.2-0.8,0.2h-3.7
				c-0.3,0-0.6-0.1-0.8-0.3S630.9,206.7,630.9,206.4z M643.1,194.1l-1.9-11c0-0.1-0.1-0.1-0.1-0.2c0,0-0.1-0.1-0.1-0.1
				c-0.1,0-0.1,0-0.1,0.1c0,0-0.1,0.1-0.1,0.2l-1.8,11H643.1z"/>
			<path class="st1" d="M658.2,206.3v-12.5c-0.1-0.7-0.3-1.4-0.6-2.1l-5.1-13.3c-0.1-0.2-0.1-0.4-0.1-0.6c0-0.2,0.1-0.5,0.2-0.7
				c0.1-0.2,0.3-0.4,0.5-0.5s0.5-0.2,0.7-0.2h2.7c0.6,0,1.1,0.3,1.5,0.9l2.9,8.7c0.1,0.1,0.1,0.1,0.2,0.1c0,0,0.1,0,0.1-0.1l3-8.7
				c0.1-0.3,0.3-0.5,0.5-0.7c0.3-0.2,0.5-0.3,0.8-0.3h2.8c0.3,0,0.5,0.1,0.8,0.2s0.4,0.3,0.5,0.5c0.1,0.2,0.2,0.4,0.2,0.7
				c0,0.1,0,0.2,0,0.3c0,0.1,0,0.2-0.1,0.2l-5.2,13.3c-0.3,0.7-0.4,1.4-0.5,2.1v12.5c0,0.2-0.1,0.4-0.2,0.6
				c-0.1,0.2-0.3,0.3-0.5,0.4s-0.4,0.2-0.7,0.2h-3.2c-0.2,0-0.5-0.1-0.7-0.2s-0.4-0.2-0.5-0.4C658.2,206.7,658.2,206.5,658.2,206.3z
				"/>
			<path class="st1" d="M673.4,198.1l-0.3-20.2c0-0.5,0.1-0.9,0.3-1.1s0.6-0.3,1.2-0.3h3.8c0.4,0,0.7,0,0.9,0.1
				c0.2,0.1,0.4,0.2,0.5,0.4c0.1,0.2,0.2,0.5,0.2,0.8l-0.4,20.4c0,0.3-0.1,0.5-0.3,0.7c-0.2,0.2-0.5,0.3-0.8,0.3h-3.8
				c-0.3,0-0.6-0.1-0.8-0.3C673.5,198.6,673.4,198.4,673.4,198.1z M673.2,205.7v-3.3c0-0.3,0.1-0.6,0.2-0.8c0.1-0.2,0.3-0.4,0.6-0.6
				s0.5-0.2,0.8-0.2h3.3c0.3,0,0.6,0.1,0.8,0.2s0.4,0.3,0.6,0.6c0.1,0.2,0.2,0.5,0.2,0.8v3.3c0,0.3-0.1,0.6-0.2,0.8
				c-0.1,0.2-0.3,0.4-0.6,0.6c-0.2,0.1-0.5,0.2-0.8,0.2h-3.3c-0.3,0-0.5-0.1-0.8-0.2c-0.2-0.1-0.4-0.3-0.6-0.6
				C673.3,206.2,673.2,206,673.2,205.7z"/>
		</g>
	</g>
</g>
</svg>
