<svg width="1656" height="937" viewBox="0 0 1656 937" fill="none" xmlns="http://www.w3.org/2000/svg">
<path fill-rule="evenodd" clip-rule="evenodd" d="M480.064 184.028L343.965 557.958L251.417 524.273L410.654 86.7759L480.064 184.028Z" fill="#0085FF"/>
<path fill-rule="evenodd" clip-rule="evenodd" d="M549.475 281.281L480.064 184.028L344.305 557.023L436.853 590.708L549.475 281.281Z" fill="url(#paint0_linear)"/>
<circle cx="296.331" cy="647.222" r="172.794" transform="rotate(20 296.331 647.222)" fill="url(#paint1_linear)" stroke="#0085FF" stroke-width="49.7409"/>
<path d="M698.697 636.518C686.385 636.518 680.229 633.296 680.229 626.852V430.44C680.229 427.103 681.725 424.629 684.717 423.018C687.708 421.292 692.368 420.429 698.697 420.429H709.398C715.726 420.429 720.386 421.292 723.378 423.018C726.37 424.629 727.865 427.103 727.865 430.44V512.595L729.074 512.94L782.405 426.297C784.707 422.385 790.805 420.429 800.7 420.429H815.198C820.836 420.429 825.094 420.889 827.97 421.81C830.962 422.615 832.458 423.708 832.458 425.089C832.458 426.93 831.595 429.116 829.869 431.648L770.669 522.433L837.981 625.472C839.592 628.003 840.397 630.132 840.397 631.858C840.397 634.964 834.702 636.518 823.31 636.518H805.36C800.413 636.518 796.386 636.115 793.279 635.31C790.172 634.504 787.986 632.951 786.72 630.65L729.074 537.448L727.865 537.621V626.852C727.865 633.296 721.709 636.518 709.398 636.518H698.697ZM928.766 638.589C901.841 638.589 881.762 631.397 868.53 617.015C855.298 602.517 848.682 582.438 848.682 556.779C848.682 527.898 855.298 506.726 868.53 493.264C881.762 479.802 900 473.07 923.243 473.07C938.661 473.07 951.261 476.58 961.041 483.599C970.936 490.618 978.128 500.053 982.615 511.904C987.218 523.756 989.519 537.161 989.519 552.119C989.519 553.845 988.484 556.146 986.412 559.023C984.456 561.899 982.213 564.488 979.681 566.789C977.15 569.091 975.194 570.241 973.813 570.241H895.628C896.663 581.978 900.115 590.32 905.983 595.268C911.967 600.1 920.251 602.517 930.837 602.517C936.59 602.517 941.768 601.884 946.37 600.618C951.088 599.237 956.093 597.454 961.386 595.268C964.608 593.772 966.794 593.024 967.945 593.024C970.016 593.024 972.26 594.52 974.676 597.511C977.207 600.388 979.336 603.725 981.062 607.522C982.903 611.319 983.824 614.253 983.824 616.324C983.824 621.042 980.602 625.069 974.158 628.406C967.83 631.743 960.293 634.274 951.548 636C942.919 637.726 935.324 638.589 928.766 638.589ZM945.335 540.037C945.335 530.602 943.494 523.065 939.812 517.427C936.13 511.674 930.607 508.798 923.243 508.798C908.054 508.798 898.849 519.211 895.628 540.037H945.335ZM1054.24 699.342C1041.93 699.342 1035.77 697.156 1035.77 692.784C1035.77 691.058 1036.18 689.217 1036.98 687.261L1056.49 636L1005.74 487.223C1005.63 486.533 1005.4 485.612 1005.05 484.462C1004.71 483.196 1004.53 482.275 1004.53 481.7C1004.53 479.399 1006.03 477.73 1009.02 476.695C1012.01 475.544 1016.73 474.969 1023.18 474.969H1033.19C1038.02 474.969 1041.87 475.487 1044.75 476.522C1047.74 477.443 1049.58 479.054 1050.27 481.355L1068.22 537.966C1069.37 541.533 1070.81 547.286 1072.54 555.226C1074.26 563.05 1075.3 567.71 1075.64 569.206L1076.85 575.074H1078.23C1078.35 574.269 1078.64 573.06 1079.1 571.45C1082.89 553.039 1085.48 541.878 1086.86 537.966L1104.81 481.355C1105.62 478.939 1107.46 477.27 1110.34 476.35C1113.33 475.429 1117.24 474.969 1122.07 474.969H1129.49C1135.82 474.969 1140.42 475.544 1143.3 476.695C1146.29 477.73 1147.79 479.399 1147.79 481.7C1147.79 482.851 1147.5 484.692 1146.93 487.223L1076.51 692.784C1075.01 697.156 1069.32 699.342 1059.42 699.342H1054.24Z" fill="url(#paint2_linear)"/>
<path d="M1188.87 636.518C1176.55 636.518 1170.4 633.296 1170.4 626.852V433.374C1170.4 429.116 1171.38 426.067 1173.33 424.226C1175.29 422.27 1178.4 421.292 1182.65 421.292H1285.17C1288.4 421.292 1290.7 422.5 1292.08 424.916C1293.57 427.333 1294.32 431.245 1294.32 436.653V445.973C1294.32 451.381 1293.57 455.293 1292.08 457.709C1290.7 460.126 1288.4 461.334 1285.17 461.334H1217.69V506.209H1282.93C1286.15 506.209 1288.51 507.417 1290.01 509.833C1291.5 512.249 1292.25 516.104 1292.25 521.397V530.89C1292.25 536.298 1291.5 540.267 1290.01 542.799C1288.51 545.215 1286.15 546.423 1282.93 546.423H1217.69V626.852C1217.69 633.296 1211.53 636.518 1199.22 636.518H1188.87ZM1343.17 636.518C1330.85 636.518 1324.7 633.296 1324.7 626.852V430.44C1324.7 427.103 1326.19 424.629 1329.19 423.018C1332.18 421.292 1336.84 420.429 1343.17 420.429H1359.39C1369.17 420.429 1375.56 423.248 1378.55 428.886L1430.15 520.534L1432.74 525.021L1435.33 519.671L1487.28 428.886C1490.39 423.248 1496.83 420.429 1506.61 420.429H1522.66C1534.98 420.429 1541.13 423.766 1541.13 430.44V626.852C1541.13 633.296 1534.98 636.518 1522.66 636.518H1513.69C1501.38 636.518 1495.22 633.296 1495.22 626.852V499.65L1494.01 499.305L1449.48 578.871C1446.84 582.783 1442.75 584.739 1437.23 584.739H1428.43C1425.55 584.739 1423.14 584.279 1421.18 583.359C1419.22 582.323 1417.55 580.827 1416.17 578.871L1371.47 499.305L1370.26 499.65V626.852C1370.26 633.296 1364.17 636.518 1351.97 636.518H1343.17Z" fill="#0085FF"/>
<defs>
<linearGradient id="paint0_linear" x1="526.338" y1="200.871" x2="332.934" y2="204.365" gradientUnits="userSpaceOnUse">
<stop stop-color="#003769"/>
<stop offset="1" stop-color="#2562FF"/>
</linearGradient>
<linearGradient id="paint1_linear" x1="444.255" y1="499.298" x2="148.407" y2="795.145" gradientUnits="userSpaceOnUse">
<stop stop-color="#003769"/>
<stop offset="1" stop-color="#0085FF"/>
</linearGradient>
<linearGradient id="paint2_linear" x1="1110.65" y1="364" x2="1110.65" y2="694.487" gradientUnits="userSpaceOnUse">
<stop stop-color="#2562FF"/>
<stop offset="1" stop-color="#003769"/>
</linearGradient>
</defs>
</svg>
