<svg width="1656" height="937" viewBox="0 0 1656 937" fill="none" xmlns="http://www.w3.org/2000/svg">
<g clip-path="url(#clip0)">
<path fill-rule="evenodd" clip-rule="evenodd" d="M480.064 184.028L343.965 557.958L251.418 524.273L410.654 86.7759L480.064 184.028Z" fill="#0085FF"/>
<path fill-rule="evenodd" clip-rule="evenodd" d="M549.475 281.281L480.064 184.028L344.305 557.023L436.853 590.708L549.475 281.281Z" fill="url(#paint0_linear)"/>
<circle cx="304.837" cy="665.463" r="187.026" transform="rotate(20 304.837 665.463)" fill="url(#paint1_linear)" stroke="#0085FF" stroke-width="49.7409"/>
<path d="M695.401 586.274C683.089 586.274 676.933 583.052 676.933 576.609V380.196C676.933 376.859 678.429 374.385 681.421 372.774C684.412 371.048 689.072 370.185 695.401 370.185H706.102C712.43 370.185 717.09 371.048 720.082 372.774C723.074 374.385 724.569 376.859 724.569 380.196V462.351L725.778 462.696L779.109 376.054C781.411 372.142 787.509 370.185 797.404 370.185H811.902C817.541 370.185 821.798 370.646 824.674 371.566C827.666 372.372 829.162 373.465 829.162 374.846C829.162 376.687 828.299 378.873 826.573 381.404L767.373 472.189L834.685 575.228C836.296 577.76 837.101 579.888 837.101 581.614C837.101 584.721 831.406 586.274 820.014 586.274H802.065C797.117 586.274 793.09 585.872 789.983 585.066C786.876 584.261 784.69 582.707 783.424 580.406L725.778 487.205L724.569 487.377V576.609C724.569 583.052 718.414 586.274 706.102 586.274H695.401ZM925.47 588.345C898.545 588.345 878.467 581.154 865.234 566.771C852.002 552.273 845.386 532.195 845.386 506.535C845.386 477.655 852.002 456.483 865.234 443.021C878.467 429.558 896.704 422.827 919.947 422.827C935.365 422.827 947.965 426.336 957.745 433.355C967.641 440.374 974.832 449.809 979.319 461.661C983.922 473.512 986.223 486.917 986.223 501.875C986.223 503.601 985.188 505.903 983.117 508.779C981.161 511.656 978.917 514.245 976.385 516.546C973.854 518.847 971.898 519.998 970.517 519.998H892.332C893.367 531.734 896.819 540.076 902.687 545.024C908.671 549.857 916.955 552.273 927.541 552.273C933.294 552.273 938.472 551.64 943.075 550.375C947.792 548.994 952.797 547.21 958.09 545.024C961.312 543.528 963.498 542.78 964.649 542.78C966.72 542.78 968.964 544.276 971.38 547.268C973.912 550.144 976.04 553.481 977.766 557.278C979.607 561.075 980.528 564.01 980.528 566.081C980.528 570.798 977.306 574.825 970.862 578.162C964.534 581.499 956.997 584.031 948.252 585.756C939.623 587.482 932.028 588.345 925.47 588.345ZM942.039 489.794C942.039 480.359 940.198 472.822 936.516 467.184C932.834 461.431 927.311 458.554 919.947 458.554C904.759 458.554 895.553 468.967 892.332 489.794H942.039ZM1050.95 649.099C1038.63 649.099 1032.48 646.913 1032.48 642.54C1032.48 640.814 1032.88 638.973 1033.69 637.017L1053.19 585.756L1002.45 436.98C1002.33 436.289 1002.1 435.369 1001.76 434.218C1001.41 432.952 1001.24 432.032 1001.24 431.457C1001.24 429.155 1002.73 427.487 1005.73 426.451C1008.72 425.301 1013.44 424.725 1019.88 424.725H1029.89C1034.72 424.725 1038.58 425.243 1041.45 426.279C1044.45 427.199 1046.29 428.81 1046.98 431.111L1064.93 487.723C1066.08 491.29 1067.52 497.043 1069.24 504.982C1070.97 512.806 1072 517.466 1072.35 518.962L1073.56 524.83H1074.94C1075.05 524.025 1075.34 522.817 1075.8 521.206C1079.6 502.796 1082.19 491.635 1083.57 487.723L1101.52 431.111C1102.32 428.695 1104.16 427.027 1107.04 426.106C1110.03 425.186 1113.94 424.725 1118.78 424.725H1126.2C1132.53 424.725 1137.13 425.301 1140.01 426.451C1143 427.487 1144.49 429.155 1144.49 431.457C1144.49 432.607 1144.21 434.448 1143.63 436.98L1073.21 642.54C1071.72 646.913 1066.02 649.099 1056.12 649.099H1050.95Z" fill="url(#paint2_linear)"/>
<path d="M1185.57 586.274C1173.26 586.274 1167.1 583.052 1167.1 576.609V383.13C1167.1 378.873 1168.08 375.824 1170.04 373.983C1171.99 372.026 1175.1 371.048 1179.36 371.048H1281.88C1285.1 371.048 1287.4 372.257 1288.78 374.673C1290.28 377.089 1291.03 381.001 1291.03 386.409V395.73C1291.03 401.137 1290.28 405.05 1288.78 407.466C1287.4 409.882 1285.1 411.09 1281.88 411.09H1214.39V455.965H1279.63C1282.86 455.965 1285.22 457.173 1286.71 459.59C1288.21 462.006 1288.95 465.861 1288.95 471.153V480.646C1288.95 486.054 1288.21 490.024 1286.71 492.555C1285.22 494.972 1282.86 496.18 1279.63 496.18H1214.39V576.609C1214.39 583.052 1208.24 586.274 1195.93 586.274H1185.57ZM1339.87 586.274C1327.56 586.274 1321.4 583.052 1321.4 576.609V380.196C1321.4 376.859 1322.9 374.385 1325.89 372.774C1328.88 371.048 1333.54 370.185 1339.87 370.185H1356.09C1365.87 370.185 1372.26 373.005 1375.25 378.643L1426.86 470.29L1429.45 474.778L1432.04 469.428L1483.99 378.643C1487.09 373.005 1493.54 370.185 1503.32 370.185H1519.37C1531.68 370.185 1537.84 373.522 1537.84 380.196V576.609C1537.84 583.052 1531.68 586.274 1519.37 586.274H1510.39C1498.08 586.274 1491.93 583.052 1491.93 576.609V449.407L1490.72 449.061L1446.19 528.628C1443.54 532.54 1439.46 534.496 1433.93 534.496H1425.13C1422.26 534.496 1419.84 534.036 1417.88 533.115C1415.93 532.079 1414.26 530.584 1412.88 528.628L1368.18 449.061L1366.97 449.407V576.609C1366.97 583.052 1360.87 586.274 1348.67 586.274H1339.87Z" fill="#0085FF"/>
</g>
<defs>
<linearGradient id="paint0_linear" x1="526.338" y1="200.871" x2="332.934" y2="204.365" gradientUnits="userSpaceOnUse">
<stop stop-color="#003769"/>
<stop offset="1" stop-color="#2562FF"/>
</linearGradient>
<linearGradient id="paint1_linear" x1="466.992" y1="503.307" x2="142.681" y2="827.618" gradientUnits="userSpaceOnUse">
<stop stop-color="#003769"/>
<stop offset="1" stop-color="#0085FF"/>
</linearGradient>
<linearGradient id="paint2_linear" x1="1107.35" y1="313.756" x2="1107.35" y2="644.244" gradientUnits="userSpaceOnUse">
<stop stop-color="#2562FF"/>
<stop offset="1" stop-color="#003769"/>
</linearGradient>
<clipPath id="clip0">
<rect width="1656" height="937" fill="white"/>
</clipPath>
</defs>
</svg>
