<svg width="1000" height="331" viewBox="0 0 1000 331" fill="none" xmlns="http://www.w3.org/2000/svg">
<g clip-path="url(#clip0)">
<rect width="1000" height="330.508" fill="url(#paint0_linear)"/>
<path d="M30.2055 108.8V76.1C30.2055 75.86 30.2621 75.64 30.3755 75.44C30.4955 75.24 30.6521 75.0833 30.8455 74.97C31.0388 74.8567 31.2421 74.8 31.4555 74.8H35.1555C35.3688 74.8 35.5721 74.8567 35.7655 74.97C35.9588 75.0833 36.1121 75.24 36.2255 75.44C36.3455 75.64 36.4055 75.86 36.4055 76.1V103.85H43.9055C44.2788 103.85 44.5721 103.957 44.7855 104.17C44.9988 104.383 45.1055 104.677 45.1055 105.05V108.8C45.1055 109.14 44.9955 109.427 44.7755 109.66C44.5621 109.887 44.2721 110 43.9055 110H31.4055C31.1921 110 30.9921 109.947 30.8055 109.84C30.6255 109.727 30.4788 109.58 30.3655 109.4C30.2588 109.213 30.2055 109.013 30.2055 108.8ZM47.9492 105.45C47.0825 103.923 46.6492 102.29 46.6492 100.55V84.1C46.6492 82.9333 46.8425 81.82 47.2292 80.76C47.6159 79.6933 48.1692 78.7333 48.8892 77.88C49.6159 77.0267 50.4692 76.3167 51.4492 75.75C52.8692 74.9167 54.4692 74.5 56.2492 74.5H57.8992C59.0392 74.5 60.1359 74.69 61.1892 75.07C62.2492 75.45 63.2092 75.9933 64.0692 76.7C64.9292 77.4067 65.6392 78.24 66.1992 79.2C67.0325 80.62 67.4492 82.2367 67.4492 84.05L67.4992 100.55C67.4992 101.69 67.3025 102.793 66.9092 103.86C66.5225 104.927 65.9692 105.9 65.2492 106.78C64.5292 107.66 63.6792 108.4 62.6992 109C61.2459 109.9 59.6625 110.35 57.9492 110.35H56.2992C55.1592 110.35 54.0592 110.153 52.9992 109.76C51.9459 109.36 50.9859 108.793 50.1192 108.06C49.2525 107.32 48.5292 106.45 47.9492 105.45ZM57.0992 104.45C57.7992 104.45 58.4492 104.263 59.0492 103.89C59.6492 103.51 60.1225 103.007 60.4692 102.38C60.8225 101.747 60.9992 101.07 60.9992 100.35V84C60.9992 83.28 60.8225 82.6267 60.4692 82.04C60.1225 81.4533 59.6459 80.9933 59.0392 80.66C58.4392 80.32 57.7759 80.15 57.0492 80.15H56.8992C56.1725 80.15 55.5025 80.32 54.8892 80.66C54.2825 80.9933 53.7992 81.4533 53.4392 82.04C53.0792 82.6267 52.8992 83.28 52.8992 84V100.35C52.8992 101.07 53.0792 101.747 53.4392 102.38C53.7992 103.007 54.2859 103.51 54.8992 103.89C55.5125 104.263 56.1792 104.45 56.8992 104.45H57.0992ZM71.993 105.45C71.1263 103.923 70.693 102.29 70.693 100.55V84.1C70.693 82.9333 70.8863 81.82 71.273 80.76C71.6596 79.6933 72.213 78.7333 72.933 77.88C73.6596 77.0267 74.513 76.3167 75.493 75.75C76.913 74.9167 78.513 74.5 80.293 74.5H81.943C83.083 74.5 84.1796 74.69 85.233 75.07C86.293 75.45 87.253 75.9933 88.113 76.7C88.973 77.4067 89.683 78.24 90.243 79.2C91.0763 80.62 91.493 82.2367 91.493 84.05L91.543 100.55C91.543 101.69 91.3463 102.793 90.953 103.86C90.5663 104.927 90.013 105.9 89.293 106.78C88.573 107.66 87.723 108.4 86.743 109C85.2896 109.9 83.7063 110.35 81.993 110.35H80.343C79.203 110.35 78.103 110.153 77.043 109.76C75.9896 109.36 75.0296 108.793 74.163 108.06C73.2963 107.32 72.573 106.45 71.993 105.45ZM81.143 104.45C81.843 104.45 82.493 104.263 83.093 103.89C83.693 103.51 84.1663 103.007 84.513 102.38C84.8663 101.747 85.043 101.07 85.043 100.35V84C85.043 83.28 84.8663 82.6267 84.513 82.04C84.1663 81.4533 83.6896 80.9933 83.083 80.66C82.483 80.32 81.8196 80.15 81.093 80.15H80.943C80.2163 80.15 79.5463 80.32 78.933 80.66C78.3263 80.9933 77.843 81.4533 77.483 82.04C77.123 82.6267 76.943 83.28 76.943 84V100.35C76.943 101.07 77.123 101.747 77.483 102.38C77.843 103.007 78.3296 103.51 78.943 103.89C79.5563 104.263 80.223 104.45 80.943 104.45H81.143ZM95.0367 108.9V76.4C95.0367 76.18 95.0934 75.97 95.2067 75.77C95.32 75.57 95.4767 75.41 95.6767 75.29C95.8767 75.1633 96.0967 75.1 96.3367 75.1H99.9867C100.2 75.1 100.397 75.1633 100.577 75.29C100.763 75.4167 100.91 75.58 101.017 75.78C101.13 75.98 101.187 76.1867 101.187 76.4V85.6L107.387 76.05C107.593 75.79 107.84 75.5633 108.127 75.37C108.413 75.17 108.683 75.08 108.937 75.1L112.637 75.05C112.943 75.0633 113.223 75.1467 113.477 75.3C113.73 75.4533 113.927 75.6467 114.067 75.88C114.213 76.1133 114.287 76.3533 114.287 76.6C114.287 76.9333 114.22 77.1667 114.087 77.3L105.337 90.7L116.437 107.65C116.603 108.037 116.687 108.337 116.687 108.55C116.687 108.837 116.623 109.103 116.497 109.35C116.37 109.59 116.187 109.78 115.947 109.92C115.713 110.053 115.443 110.113 115.137 110.1H110.937C110.657 110.1 110.397 110.023 110.157 109.87C109.917 109.71 109.71 109.47 109.537 109.15L101.187 96.05V108.9C101.187 109.1 101.13 109.293 101.017 109.48C100.91 109.66 100.763 109.81 100.577 109.93C100.397 110.043 100.2 110.1 99.9867 110.1H96.3367C96.0967 110.1 95.8767 110.043 95.6767 109.93C95.4767 109.817 95.32 109.667 95.2067 109.48C95.0934 109.293 95.0367 109.1 95.0367 108.9ZM119.635 108.75V76.4C119.635 76.02 119.758 75.7 120.005 75.44C120.252 75.18 120.562 75.05 120.935 75.05H124.635C124.848 75.05 125.052 75.11 125.245 75.23C125.438 75.35 125.592 75.5133 125.705 75.72C125.825 75.9267 125.885 76.1533 125.885 76.4V108.75C125.885 108.997 125.825 109.223 125.705 109.43C125.592 109.637 125.438 109.8 125.245 109.92C125.052 110.04 124.848 110.1 124.635 110.1H120.935C120.562 110.1 120.252 109.97 120.005 109.71C119.758 109.45 119.635 109.13 119.635 108.75ZM130.82 108.6V76.25C130.82 76.0033 130.883 75.7767 131.01 75.57C131.136 75.3633 131.306 75.2 131.52 75.08C131.74 74.96 131.973 74.9 132.22 74.9H138.17C138.43 74.9 138.69 74.96 138.95 75.08C139.21 75.1933 139.436 75.3467 139.63 75.54C139.823 75.7333 139.953 75.9367 140.02 76.15L147.27 97.85L146.77 76.25C146.77 75.87 146.893 75.55 147.14 75.29C147.386 75.03 147.696 74.9 148.07 74.9H151.87C152.076 74.9 152.28 74.9567 152.48 75.07C152.68 75.1767 152.843 75.31 152.97 75.47C153.103 75.6233 153.17 75.7667 153.17 75.9V108.25C153.17 108.77 153.046 109.183 152.8 109.49C152.56 109.797 152.25 109.95 151.87 109.95H146.72C146.353 109.95 145.993 109.827 145.64 109.58C145.286 109.327 145.046 109.033 144.92 108.7L136.82 86.55L137.27 108.6C137.27 108.98 137.143 109.3 136.89 109.56C136.636 109.82 136.313 109.95 135.92 109.95H132.22C131.973 109.95 131.74 109.89 131.52 109.77C131.306 109.65 131.136 109.487 131.01 109.28C130.883 109.073 130.82 108.847 130.82 108.6ZM157.721 105.55C156.854 104.023 156.421 102.373 156.421 100.6V84C156.421 82.8267 156.611 81.7133 156.991 80.66C157.371 79.6067 157.918 78.66 158.631 77.82C159.344 76.9733 160.191 76.2667 161.171 75.7C162.591 74.8667 164.191 74.45 165.971 74.45H167.571C168.631 74.43 169.664 74.5667 170.671 74.86C171.678 75.1533 172.611 75.5967 173.471 76.19C174.331 76.7767 175.064 77.4967 175.671 78.35C176.591 79.6767 177.074 81.26 177.121 83.1C177.121 83.3333 177.038 83.5333 176.871 83.7C176.704 83.8667 176.488 83.95 176.221 83.95H171.971C171.658 83.95 171.394 83.8767 171.181 83.73C170.968 83.5767 170.848 83.3667 170.821 83.1C170.708 82.2867 170.468 81.6567 170.101 81.21C169.741 80.7633 169.284 80.46 168.731 80.3C168.178 80.1333 167.508 80.05 166.721 80.05H166.521C165.794 80.05 165.124 80.22 164.511 80.56C163.904 80.8933 163.421 81.3533 163.061 81.94C162.701 82.5267 162.521 83.18 162.521 83.9V100.35C162.521 101.07 162.704 101.747 163.071 102.38C163.444 103.007 163.941 103.51 164.561 103.89C165.181 104.263 165.851 104.45 166.571 104.45H166.721C167.421 104.45 168.064 104.263 168.651 103.89C169.244 103.51 169.711 103.007 170.051 102.38C170.398 101.753 170.571 101.077 170.571 100.35V98H167.971C167.698 98 167.454 97.8933 167.241 97.68C167.028 97.4667 166.921 97.2233 166.921 96.95V93.25C166.921 93.0367 166.978 92.8333 167.091 92.64C167.211 92.4467 167.368 92.2933 167.561 92.18C167.754 92.06 167.958 92 168.171 92H175.971C176.184 92 176.381 92.06 176.561 92.18C176.748 92.2933 176.894 92.4467 177.001 92.64C177.114 92.8333 177.171 93.0367 177.171 93.25V100.55C177.171 101.737 176.978 102.873 176.591 103.96C176.204 105.047 175.654 106.033 174.941 106.92C174.228 107.807 173.388 108.55 172.421 109.15C170.974 110.05 169.374 110.5 167.621 110.5H166.021C164.881 110.5 163.788 110.3 162.741 109.9C161.694 109.5 160.741 108.93 159.881 108.19C159.021 107.443 158.301 106.563 157.721 105.55ZM187.521 108.6V76.35C187.521 76.0167 187.648 75.7333 187.901 75.5C188.154 75.2667 188.478 75.15 188.871 75.15H203.321C203.581 75.15 203.818 75.2067 204.031 75.32C204.244 75.4267 204.411 75.5733 204.531 75.76C204.658 75.94 204.721 76.1367 204.721 76.35V79.9C204.721 80.12 204.658 80.33 204.531 80.53C204.411 80.73 204.244 80.8933 204.031 81.02C203.818 81.14 203.581 81.2 203.321 81.2H193.421V88.85H200.971C201.344 88.85 201.644 88.9667 201.871 89.2C202.104 89.4267 202.221 89.7267 202.221 90.1V93.6C202.221 93.9267 202.104 94.2 201.871 94.42C201.638 94.64 201.338 94.75 200.971 94.75H193.421V108.6C193.421 108.813 193.361 109.017 193.241 109.21C193.121 109.403 192.958 109.56 192.751 109.68C192.544 109.793 192.318 109.85 192.071 109.85H188.871C188.471 109.85 188.144 109.737 187.891 109.51C187.644 109.277 187.521 108.973 187.521 108.6ZM208.815 105.45C207.948 103.923 207.515 102.29 207.515 100.55V84.1C207.515 82.9333 207.708 81.82 208.095 80.76C208.482 79.6933 209.035 78.7333 209.755 77.88C210.482 77.0267 211.335 76.3167 212.315 75.75C213.735 74.9167 215.335 74.5 217.115 74.5H218.765C219.905 74.5 221.002 74.69 222.055 75.07C223.115 75.45 224.075 75.9933 224.935 76.7C225.795 77.4067 226.505 78.24 227.065 79.2C227.898 80.62 228.315 82.2367 228.315 84.05L228.365 100.55C228.365 101.69 228.168 102.793 227.775 103.86C227.388 104.927 226.835 105.9 226.115 106.78C225.395 107.66 224.545 108.4 223.565 109C222.112 109.9 220.528 110.35 218.815 110.35H217.165C216.025 110.35 214.925 110.153 213.865 109.76C212.812 109.36 211.852 108.793 210.985 108.06C210.118 107.32 209.395 106.45 208.815 105.45ZM217.965 104.45C218.665 104.45 219.315 104.263 219.915 103.89C220.515 103.51 220.988 103.007 221.335 102.38C221.688 101.747 221.865 101.07 221.865 100.35V84C221.865 83.28 221.688 82.6267 221.335 82.04C220.988 81.4533 220.512 80.9933 219.905 80.66C219.305 80.32 218.642 80.15 217.915 80.15H217.765C217.038 80.15 216.368 80.32 215.755 80.66C215.148 80.9933 214.665 81.4533 214.305 82.04C213.945 82.6267 213.765 83.28 213.765 84V100.35C213.765 101.07 213.945 101.747 214.305 102.38C214.665 103.007 215.152 103.51 215.765 103.89C216.378 104.263 217.045 104.45 217.765 104.45H217.965ZM231.959 108.85V76.5C231.959 76.2533 232.019 76.0233 232.139 75.81C232.265 75.59 232.435 75.4167 232.649 75.29C232.862 75.1633 233.099 75.1 233.359 75.1H243.159C244.672 75.1133 246.012 75.4233 247.179 76.03C248.345 76.63 249.249 77.4567 249.889 78.51C250.535 79.5633 250.859 80.76 250.859 82.1V88.2C250.859 89 250.702 89.7767 250.389 90.53C250.082 91.2833 249.649 91.9667 249.089 92.58C248.535 93.1933 247.892 93.7 247.159 94.1L247.209 94.2L252.209 108.9C252.242 108.933 252.259 109.05 252.259 109.25C252.259 109.457 252.169 109.633 251.989 109.78C251.809 109.927 251.582 110 251.309 110H246.959C246.745 110 246.529 109.947 246.309 109.84C246.089 109.733 245.892 109.597 245.719 109.43C245.545 109.257 245.425 109.08 245.359 108.9L241.309 96.4C240.889 96.1667 240.472 96.05 240.059 96.05C239.505 96.05 239.055 96.25 238.709 96.65V108.85C238.709 109.177 238.575 109.45 238.309 109.67C238.049 109.89 237.732 110 237.359 110H233.359C232.959 110 232.625 109.89 232.359 109.67C232.092 109.45 231.959 109.177 231.959 108.85ZM241.659 90C242.165 90 242.632 89.88 243.059 89.64C243.492 89.4 243.832 89.0767 244.079 88.67C244.332 88.2633 244.459 87.8233 244.459 87.35V82.8C244.459 82.2933 244.332 81.83 244.079 81.41C243.832 80.99 243.492 80.66 243.059 80.42C242.632 80.1733 242.165 80.05 241.659 80.05H238.909C238.735 80.05 238.582 80.1233 238.449 80.27C238.322 80.41 238.259 80.57 238.259 80.75V89.15C238.259 89.3767 238.342 89.5767 238.509 89.75C238.682 89.9167 238.882 90 239.109 90H241.659ZM260.32 108.98C260.32 108.88 260.326 108.803 260.34 108.75L266.94 76.35C267.013 75.9767 267.223 75.6667 267.57 75.42C267.923 75.1733 268.313 75.05 268.74 75.05H275.04C275.32 75.05 275.593 75.1067 275.86 75.22C276.126 75.3333 276.353 75.49 276.54 75.69C276.726 75.8833 276.843 76.1033 276.89 76.35L283.44 108.75C283.453 108.803 283.46 108.883 283.46 108.99C283.46 109.303 283.343 109.56 283.11 109.76C282.876 109.953 282.57 110.05 282.19 110.05H277.94C277.173 110.05 276.74 109.683 276.64 108.95L275.14 100.8H268.69L267.19 108.95C267.11 109.343 266.976 109.627 266.79 109.8C266.603 109.967 266.303 110.05 265.89 110.05H261.64C261.26 110.05 260.943 109.95 260.69 109.75C260.443 109.55 260.32 109.293 260.32 108.98ZM274.29 94.95L272.14 82.4C272.113 82.3133 272.08 82.25 272.04 82.21C272.006 82.17 271.956 82.15 271.89 82.15C271.823 82.15 271.77 82.17 271.73 82.21C271.696 82.25 271.666 82.3133 271.64 82.4L269.54 94.95H274.29ZM285.709 108.6V76.25C285.709 76.0033 285.772 75.7767 285.899 75.57C286.025 75.3633 286.195 75.2 286.409 75.08C286.629 74.96 286.862 74.9 287.109 74.9H293.059C293.319 74.9 293.579 74.96 293.839 75.08C294.099 75.1933 294.325 75.3467 294.519 75.54C294.712 75.7333 294.842 75.9367 294.909 76.15L302.159 97.85L301.659 76.25C301.659 75.87 301.782 75.55 302.029 75.29C302.275 75.03 302.585 74.9 302.959 74.9H306.759C306.965 74.9 307.169 74.9567 307.369 75.07C307.569 75.1767 307.732 75.31 307.859 75.47C307.992 75.6233 308.059 75.7667 308.059 75.9V108.25C308.059 108.77 307.935 109.183 307.689 109.49C307.449 109.797 307.139 109.95 306.759 109.95H301.609C301.242 109.95 300.882 109.827 300.529 109.58C300.175 109.327 299.935 109.033 299.809 108.7L291.709 86.55L292.159 108.6C292.159 108.98 292.032 109.3 291.779 109.56C291.525 109.82 291.202 109.95 290.809 109.95H287.109C286.862 109.95 286.629 109.89 286.409 109.77C286.195 109.65 286.025 109.487 285.899 109.28C285.772 109.073 285.709 108.847 285.709 108.6ZM316.24 108.98C316.24 108.88 316.247 108.803 316.26 108.75L322.86 76.35C322.933 75.9767 323.143 75.6667 323.49 75.42C323.843 75.1733 324.233 75.05 324.66 75.05H330.96C331.24 75.05 331.513 75.1067 331.78 75.22C332.047 75.3333 332.273 75.49 332.46 75.69C332.647 75.8833 332.763 76.1033 332.81 76.35L339.36 108.75C339.373 108.803 339.38 108.883 339.38 108.99C339.38 109.303 339.263 109.56 339.03 109.76C338.797 109.953 338.49 110.05 338.11 110.05H333.86C333.093 110.05 332.66 109.683 332.56 108.95L331.06 100.8H324.61L323.11 108.95C323.03 109.343 322.897 109.627 322.71 109.8C322.523 109.967 322.223 110.05 321.81 110.05H317.56C317.18 110.05 316.863 109.95 316.61 109.75C316.363 109.55 316.24 109.293 316.24 108.98ZM330.21 94.95L328.06 82.4C328.033 82.3133 328 82.25 327.96 82.21C327.927 82.17 327.877 82.15 327.81 82.15C327.743 82.15 327.69 82.17 327.65 82.21C327.617 82.25 327.587 82.3133 327.56 82.4L325.46 94.95H330.21ZM346.029 108.75L340.129 76.25C340.116 76.2033 340.109 76.1333 340.109 76.04C340.109 75.7533 340.219 75.51 340.439 75.31C340.666 75.1033 340.946 75 341.279 75H344.879C345.246 75 345.576 75.1267 345.869 75.38C346.162 75.6267 346.349 75.9167 346.429 76.25L349.729 96.3C349.756 96.38 349.786 96.4333 349.819 96.46C349.852 96.4867 349.906 96.5 349.979 96.5C350.052 96.5 350.106 96.4867 350.139 96.46C350.172 96.4333 350.202 96.38 350.229 96.3L352.929 76.35C352.976 76.11 353.079 75.8867 353.239 75.68C353.406 75.4667 353.599 75.3 353.819 75.18C354.046 75.06 354.266 75 354.479 75H358.429C358.642 75 358.859 75.06 359.079 75.18C359.299 75.2933 359.492 75.4467 359.659 75.64C359.826 75.8333 359.932 76.0367 359.979 76.25L363.329 96.7C363.349 96.8133 363.412 96.87 363.519 96.87C363.566 96.87 363.609 96.8567 363.649 96.83C363.689 96.7967 363.716 96.7533 363.729 96.7L366.479 76.35C366.552 75.97 366.736 75.65 367.029 75.39C367.322 75.13 367.656 75 368.029 75H371.629C371.836 75 372.036 75.0567 372.229 75.17C372.422 75.2767 372.572 75.41 372.679 75.57C372.792 75.7233 372.842 75.8667 372.829 76L367.679 108.35C367.606 108.85 367.419 109.25 367.119 109.55C366.826 109.85 366.479 110 366.079 110H361.079C360.712 110 360.382 109.877 360.089 109.63C359.796 109.377 359.609 109.083 359.529 108.75L356.629 92.7L354.179 108.35C354.079 108.85 353.879 109.25 353.579 109.55C353.279 109.85 352.929 110 352.529 110H347.579C347.332 110 347.092 109.943 346.859 109.83C346.626 109.71 346.432 109.553 346.279 109.36C346.126 109.167 346.042 108.963 346.029 108.75ZM375.566 108.55V76.25C375.566 75.87 375.69 75.56 375.936 75.32C376.19 75.0733 376.516 74.95 376.916 74.95H391.666C392.046 74.95 392.366 75.0733 392.626 75.32C392.886 75.5667 393.016 75.8767 393.016 76.25V79.7C393.016 79.9467 392.956 80.1733 392.836 80.38C392.716 80.5867 392.553 80.75 392.346 80.87C392.14 80.99 391.913 81.05 391.666 81.05H381.566V88.7H389.216C389.59 88.7 389.89 88.8167 390.116 89.05C390.35 89.2767 390.466 89.5767 390.466 89.95V93.45C390.466 93.8233 390.35 94.1267 390.116 94.36C389.89 94.5867 389.59 94.7 389.216 94.7H381.566V103.8H391.666C392.046 103.8 392.366 103.923 392.626 104.17C392.886 104.417 393.016 104.727 393.016 105.1V108.55C393.016 108.797 392.956 109.023 392.836 109.23C392.716 109.437 392.553 109.6 392.346 109.72C392.14 109.84 391.913 109.9 391.666 109.9H376.916C376.523 109.9 376.2 109.77 375.946 109.51C375.693 109.25 375.566 108.93 375.566 108.55ZM397.585 107.7C396.752 106.787 396.102 105.74 395.635 104.56C395.168 103.38 394.935 102.16 394.935 100.9V100.85C394.935 100.543 395.008 100.26 395.155 100C395.302 99.74 395.498 99.5333 395.745 99.38C395.992 99.2267 396.255 99.15 396.535 99.15H400.085C400.105 99.17 400.132 99.1833 400.165 99.19C400.198 99.1967 400.238 99.2 400.285 99.2H400.385C400.685 99.3267 400.935 99.5267 401.135 99.8C401.335 100.067 401.435 100.35 401.435 100.65V101.15C401.435 101.663 401.538 102.147 401.745 102.6C401.952 103.053 402.238 103.443 402.605 103.77C402.978 104.09 403.405 104.317 403.885 104.45C404.232 104.55 404.582 104.6 404.935 104.6H405.085C405.198 104.6 405.295 104.597 405.375 104.59C405.462 104.583 405.515 104.57 405.535 104.55H405.585C406.192 104.503 406.742 104.323 407.235 104.01C407.735 103.697 408.125 103.29 408.405 102.79C408.692 102.29 408.835 101.743 408.835 101.15L408.935 98.65C408.908 97.7767 408.722 97.05 408.375 96.47C408.028 95.8833 407.515 95.4267 406.835 95.1C406.035 94.6533 404.802 94.4033 403.135 94.35L402.185 94.25C400.258 94.11 398.795 93.5567 397.795 92.59C396.795 91.6167 396.142 90.4867 395.835 89.2C395.535 87.9133 395.385 86.4967 395.385 84.95L395.435 83.2L395.485 82.5C395.658 81.3933 395.815 80.5467 395.955 79.96C396.102 79.3733 396.308 78.8433 396.575 78.37C396.842 77.8967 397.228 77.4233 397.735 76.95C398.528 76.1567 399.475 75.56 400.575 75.16C401.675 74.76 402.878 74.5733 404.185 74.6H405.735C406.902 74.6 408.018 74.8267 409.085 75.28C410.152 75.7267 411.102 76.3667 411.935 77.2C412.755 78.02 413.385 78.9933 413.825 80.12C414.265 81.24 414.485 82.4167 414.485 83.65V83.7C414.485 83.98 414.418 84.2333 414.285 84.46C414.158 84.6867 413.985 84.8667 413.765 85C413.545 85.1333 413.302 85.2 413.035 85.2H409.585C409.212 85.1733 408.902 85.0267 408.655 84.76C408.408 84.4933 408.285 84.1733 408.285 83.8V83.45C408.285 82.97 408.182 82.52 407.975 82.1C407.768 81.6733 407.478 81.3033 407.105 80.99C406.738 80.6767 406.315 80.4467 405.835 80.3C405.535 80.2 405.202 80.15 404.835 80.15H404.435C404.402 80.1833 404.318 80.2 404.185 80.2C403.572 80.2667 403.032 80.4467 402.565 80.74C402.098 81.0333 401.735 81.4133 401.475 81.88C401.215 82.3467 401.085 82.87 401.085 83.45V86.35C401.152 87.01 401.372 87.5267 401.745 87.9C402.118 88.2733 402.658 88.5467 403.365 88.72C404.072 88.8867 405.012 88.9967 406.185 89.05C409.152 89.2567 411.358 90.1733 412.805 91.8C414.258 93.42 414.985 95.77 414.985 98.85C414.985 99.7233 414.942 100.563 414.855 101.37C414.775 102.17 414.595 103.013 414.315 103.9C414.035 104.78 413.625 105.613 413.085 106.4C412.205 107.687 411.105 108.693 409.785 109.42C408.472 110.14 407.072 110.5 405.585 110.5H404.035C402.815 110.5 401.655 110.26 400.555 109.78C399.455 109.3 398.465 108.607 397.585 107.7ZM419.448 105.45C418.581 103.923 418.148 102.29 418.148 100.55V84.1C418.148 82.9333 418.341 81.82 418.728 80.76C419.114 79.6933 419.668 78.7333 420.388 77.88C421.114 77.0267 421.968 76.3167 422.948 75.75C424.368 74.9167 425.968 74.5 427.748 74.5H429.398C430.538 74.5 431.634 74.69 432.688 75.07C433.748 75.45 434.708 75.9933 435.568 76.7C436.428 77.4067 437.138 78.24 437.698 79.2C438.531 80.62 438.948 82.2367 438.948 84.05L438.998 100.55C438.998 101.69 438.801 102.793 438.408 103.86C438.021 104.927 437.468 105.9 436.748 106.78C436.028 107.66 435.178 108.4 434.198 109C432.744 109.9 431.161 110.35 429.448 110.35H427.798C426.658 110.35 425.558 110.153 424.498 109.76C423.444 109.36 422.484 108.793 421.618 108.06C420.751 107.32 420.028 106.45 419.448 105.45ZM428.598 104.45C429.298 104.45 429.948 104.263 430.548 103.89C431.148 103.51 431.621 103.007 431.968 102.38C432.321 101.747 432.498 101.07 432.498 100.35V84C432.498 83.28 432.321 82.6267 431.968 82.04C431.621 81.4533 431.144 80.9933 430.538 80.66C429.938 80.32 429.274 80.15 428.548 80.15H428.398C427.671 80.15 427.001 80.32 426.388 80.66C425.781 80.9933 425.298 81.4533 424.938 82.04C424.578 82.6267 424.398 83.28 424.398 84V100.35C424.398 101.07 424.578 101.747 424.938 102.38C425.298 103.007 425.784 103.51 426.398 103.89C427.011 104.263 427.678 104.45 428.398 104.45H428.598ZM442.391 108.65V76.25C442.391 76.01 442.451 75.79 442.571 75.59C442.698 75.39 442.861 75.2333 443.061 75.12C443.261 75.0067 443.471 74.95 443.691 74.95H449.391C449.638 74.95 449.878 74.9967 450.111 75.09C450.345 75.1767 450.538 75.2967 450.691 75.45C450.845 75.6033 450.928 75.77 450.941 75.95L455.491 90.65L460.041 75.95C460.115 75.67 460.305 75.4333 460.611 75.24C460.925 75.0467 461.268 74.95 461.641 74.95H467.341C467.715 74.95 468.025 75.0733 468.271 75.32C468.518 75.5667 468.641 75.8767 468.641 76.25V108.65C468.641 109.023 468.518 109.333 468.271 109.58C468.025 109.827 467.715 109.95 467.341 109.95H463.741C463.368 109.95 463.065 109.83 462.831 109.59C462.605 109.343 462.491 109.03 462.491 108.65V87.9L458.691 100.1C458.665 100.193 458.608 100.29 458.521 100.39C458.435 100.49 458.308 100.61 458.141 100.75L457.891 100.9C457.578 101.033 457.311 101.1 457.091 101.1H453.891C453.671 101.1 453.405 101.033 453.091 100.9L452.841 100.75C452.608 100.563 452.441 100.347 452.341 100.1L448.541 87.9V108.65C448.541 108.863 448.481 109.07 448.361 109.27C448.248 109.47 448.095 109.633 447.901 109.76C447.708 109.887 447.505 109.95 447.291 109.95H443.691C443.478 109.95 443.271 109.887 443.071 109.76C442.871 109.633 442.708 109.47 442.581 109.27C442.455 109.07 442.391 108.863 442.391 108.65ZM472.249 108.55V76.25C472.249 75.87 472.373 75.56 472.619 75.32C472.873 75.0733 473.199 74.95 473.599 74.95H488.349C488.729 74.95 489.049 75.0733 489.309 75.32C489.569 75.5667 489.699 75.8767 489.699 76.25V79.7C489.699 79.9467 489.639 80.1733 489.519 80.38C489.399 80.5867 489.236 80.75 489.029 80.87C488.823 80.99 488.596 81.05 488.349 81.05H478.249V88.7H485.899C486.273 88.7 486.573 88.8167 486.799 89.05C487.033 89.2767 487.149 89.5767 487.149 89.95V93.45C487.149 93.8233 487.033 94.1267 486.799 94.36C486.573 94.5867 486.273 94.7 485.899 94.7H478.249V103.8H488.349C488.729 103.8 489.049 103.923 489.309 104.17C489.569 104.417 489.699 104.727 489.699 105.1V108.55C489.699 108.797 489.639 109.023 489.519 109.23C489.399 109.437 489.236 109.6 489.029 109.72C488.823 109.84 488.596 109.9 488.349 109.9H473.599C473.206 109.9 472.883 109.77 472.629 109.51C472.376 109.25 472.249 108.93 472.249 108.55ZM503.318 108.65V80.7H499.268C498.835 80.7 498.485 80.5933 498.218 80.38C497.951 80.16 497.818 79.8667 497.818 79.5V76.15C497.818 75.7833 497.951 75.4933 498.218 75.28C498.485 75.06 498.835 74.95 499.268 74.95H513.868C514.128 74.95 514.368 75.0067 514.588 75.12C514.815 75.2267 514.991 75.3733 515.118 75.56C515.251 75.74 515.318 75.9367 515.318 76.15V79.5C515.318 79.7133 515.251 79.9133 515.118 80.1C514.991 80.28 514.815 80.4267 514.588 80.54C514.368 80.6467 514.128 80.7 513.868 80.7H509.618V108.65C509.618 109.03 509.495 109.35 509.248 109.61C509.001 109.87 508.691 110 508.318 110H504.618C504.405 110 504.195 109.94 503.988 109.82C503.788 109.693 503.625 109.527 503.498 109.32C503.378 109.113 503.318 108.89 503.318 108.65ZM517.584 108.55V76.25C517.584 75.87 517.707 75.56 517.954 75.32C518.207 75.0733 518.534 74.95 518.934 74.95H533.684C534.064 74.95 534.384 75.0733 534.644 75.32C534.904 75.5667 535.034 75.8767 535.034 76.25V79.7C535.034 79.9467 534.974 80.1733 534.854 80.38C534.734 80.5867 534.57 80.75 534.364 80.87C534.157 80.99 533.93 81.05 533.684 81.05H523.584V88.7H531.234C531.607 88.7 531.907 88.8167 532.134 89.05C532.367 89.2767 532.484 89.5767 532.484 89.95V93.45C532.484 93.8233 532.367 94.1267 532.134 94.36C531.907 94.5867 531.607 94.7 531.234 94.7H523.584V103.8H533.684C534.064 103.8 534.384 103.923 534.644 104.17C534.904 104.417 535.034 104.727 535.034 105.1V108.55C535.034 108.797 534.974 109.023 534.854 109.23C534.734 109.437 534.57 109.6 534.364 109.72C534.157 109.84 533.93 109.9 533.684 109.9H518.934C518.54 109.9 518.217 109.77 517.964 109.51C517.71 109.25 517.584 108.93 517.584 108.55ZM536.482 108.98C536.482 108.88 536.489 108.803 536.502 108.75L543.102 76.35C543.176 75.9767 543.386 75.6667 543.732 75.42C544.086 75.1733 544.476 75.05 544.902 75.05H551.202C551.482 75.05 551.756 75.1067 552.022 75.22C552.289 75.3333 552.516 75.49 552.702 75.69C552.889 75.8833 553.006 76.1033 553.052 76.35L559.602 108.75C559.616 108.803 559.622 108.883 559.622 108.99C559.622 109.303 559.506 109.56 559.272 109.76C559.039 109.953 558.732 110.05 558.352 110.05H554.102C553.336 110.05 552.902 109.683 552.802 108.95L551.302 100.8H544.852L543.352 108.95C543.272 109.343 543.139 109.627 542.952 109.8C542.766 109.967 542.466 110.05 542.052 110.05H537.802C537.422 110.05 537.106 109.95 536.852 109.75C536.606 109.55 536.482 109.293 536.482 108.98ZM550.452 94.95L548.302 82.4C548.276 82.3133 548.242 82.25 548.202 82.21C548.169 82.17 548.119 82.15 548.052 82.15C547.986 82.15 547.932 82.17 547.892 82.21C547.859 82.25 547.829 82.3133 547.802 82.4L545.702 94.95H550.452ZM561.771 108.65V76.25C561.771 76.01 561.831 75.79 561.951 75.59C562.078 75.39 562.241 75.2333 562.441 75.12C562.641 75.0067 562.851 74.95 563.071 74.95H568.771C569.018 74.95 569.258 74.9967 569.491 75.09C569.724 75.1767 569.918 75.2967 570.071 75.45C570.224 75.6033 570.308 75.77 570.321 75.95L574.871 90.65L579.421 75.95C579.494 75.67 579.684 75.4333 579.991 75.24C580.304 75.0467 580.648 74.95 581.021 74.95H586.721C587.094 74.95 587.404 75.0733 587.651 75.32C587.898 75.5667 588.021 75.8767 588.021 76.25V108.65C588.021 109.023 587.898 109.333 587.651 109.58C587.404 109.827 587.094 109.95 586.721 109.95H583.121C582.748 109.95 582.444 109.83 582.211 109.59C581.984 109.343 581.871 109.03 581.871 108.65V87.9L578.071 100.1C578.044 100.193 577.988 100.29 577.901 100.39C577.814 100.49 577.688 100.61 577.521 100.75L577.271 100.9C576.958 101.033 576.691 101.1 576.471 101.1H573.271C573.051 101.1 572.784 101.033 572.471 100.9L572.221 100.75C571.988 100.563 571.821 100.347 571.721 100.1L567.921 87.9V108.65C567.921 108.863 567.861 109.07 567.741 109.27C567.628 109.47 567.474 109.633 567.281 109.76C567.088 109.887 566.884 109.95 566.671 109.95H563.071C562.858 109.95 562.651 109.887 562.451 109.76C562.251 109.633 562.088 109.47 561.961 109.27C561.834 109.07 561.771 108.863 561.771 108.65ZM595.129 99.1C595.122 98.9533 595.116 98.8 595.109 98.64C595.102 98.48 595.092 98.3167 595.079 98.15C595.046 97.53 595.029 97.1133 595.029 96.9C595.029 95.7533 595.202 94.7733 595.549 93.96C595.902 93.1467 596.522 92.41 597.409 91.75C598.302 91.09 599.559 90.4733 601.179 89.9C601.919 89.4533 602.419 88.97 602.679 88.45C602.946 87.93 603.096 87.38 603.129 86.8V83.5C603.129 82.92 602.999 82.3867 602.739 81.9C602.486 81.4133 602.122 81.0167 601.649 80.71C601.176 80.4033 600.619 80.2167 599.979 80.15C599.846 80.15 599.762 80.1333 599.729 80.1H599.379C599.012 80.1 598.679 80.15 598.379 80.25C597.906 80.3967 597.486 80.6333 597.119 80.96C596.759 81.2867 596.479 81.6733 596.279 82.12C596.079 82.56 595.979 83.02 595.979 83.5V83.85C595.979 84.2233 595.849 84.5433 595.589 84.81C595.329 85.0767 595.009 85.2233 594.629 85.25H591.229C590.962 85.25 590.719 85.1833 590.499 85.05C590.279 84.9167 590.102 84.7367 589.969 84.51C589.842 84.2833 589.779 84.03 589.779 83.75V83.7C589.779 82.4733 589.996 81.2933 590.429 80.16C590.862 79.0267 591.479 78.0233 592.279 77.15C593.066 76.2633 593.996 75.5933 595.069 75.14C596.142 74.68 597.279 74.45 598.479 74.45H599.979C601.332 74.4233 602.549 74.6133 603.629 75.02C604.709 75.4267 605.659 76.0533 606.479 76.9C607.846 78.1667 608.579 79.8 608.679 81.8C608.812 82.8667 608.879 84.0667 608.879 85.4C608.879 87.6067 608.626 89.3667 608.119 90.68C607.612 91.9867 606.966 92.8933 606.179 93.4C605.392 93.9067 604.542 94.2733 603.629 94.5C603.209 94.6 602.892 94.69 602.679 94.77C602.466 94.85 602.286 94.97 602.139 95.13C601.999 95.29 601.896 95.5133 601.829 95.8C601.756 96.1467 601.689 96.83 601.629 97.85C601.629 98.41 601.606 98.9 601.559 99.32C601.512 99.7333 601.399 100.093 601.219 100.4C601.046 100.7 600.782 100.85 600.429 100.85L596.879 100.9C596.566 100.9 596.279 100.82 596.019 100.66C595.759 100.5 595.549 100.283 595.389 100.01C595.229 99.73 595.142 99.4267 595.129 99.1ZM595.279 108.25V104.5C595.279 104.16 595.356 103.853 595.509 103.58C595.669 103.3 595.882 103.083 596.149 102.93C596.422 102.777 596.716 102.7 597.029 102.7H600.779C601.106 102.7 601.402 102.777 601.669 102.93C601.936 103.083 602.146 103.297 602.299 103.57C602.452 103.843 602.529 104.153 602.529 104.5V108.25C602.529 108.59 602.449 108.903 602.289 109.19C602.129 109.47 601.916 109.693 601.649 109.86C601.382 110.02 601.092 110.1 600.779 110.1H597.029C596.716 110.1 596.426 110.02 596.159 109.86C595.892 109.693 595.679 109.47 595.519 109.19C595.359 108.903 595.279 108.59 595.279 108.25Z" fill="white" fill-opacity="0.71"/>
<path d="M60.9044 180.906L55.7419 152.469C55.7302 152.428 55.7244 152.367 55.7244 152.285C55.7244 152.034 55.8206 151.821 56.0131 151.646C56.2115 151.465 56.4565 151.375 56.7481 151.375H59.8981C60.219 151.375 60.5077 151.486 60.7644 151.707C61.021 151.923 61.1844 152.177 61.2544 152.469L64.1419 170.012C64.1652 170.082 64.1915 170.129 64.2206 170.152C64.2498 170.176 64.2965 170.187 64.3606 170.187C64.4248 170.187 64.4715 170.176 64.5006 170.152C64.5298 170.129 64.556 170.082 64.5794 170.012L66.9419 152.556C66.9827 152.346 67.0731 152.151 67.2131 151.97C67.359 151.783 67.5281 151.637 67.7206 151.532C67.919 151.427 68.1115 151.375 68.2981 151.375H71.7544C71.941 151.375 72.1306 151.427 72.3231 151.532C72.5156 151.632 72.6848 151.766 72.8306 151.935C72.9765 152.104 73.0698 152.282 73.1106 152.469L76.0419 170.362C76.0594 170.462 76.1148 170.511 76.2081 170.511C76.249 170.511 76.2869 170.5 76.3219 170.476C76.3569 170.447 76.3802 170.409 76.3919 170.362L78.7981 152.556C78.8623 152.224 79.0227 151.944 79.2794 151.716C79.5361 151.489 79.8277 151.375 80.1544 151.375H83.3044C83.4852 151.375 83.6602 151.425 83.8294 151.524C83.9986 151.617 84.1298 151.734 84.2231 151.874C84.3223 152.008 84.3661 152.133 84.3544 152.25L79.8481 180.556C79.784 180.994 79.6206 181.344 79.3581 181.606C79.1015 181.869 78.7981 182 78.4481 182H74.0731C73.7523 182 73.4636 181.892 73.2069 181.676C72.9502 181.455 72.7869 181.198 72.7169 180.906L70.1794 166.862L68.0356 180.556C67.9481 180.994 67.7731 181.344 67.5106 181.606C67.2481 181.869 66.9419 182 66.5919 182H62.2606C62.0448 182 61.8348 181.95 61.6306 181.851C61.4265 181.746 61.2573 181.609 61.1231 181.44C60.989 181.271 60.916 181.093 60.9044 180.906ZM86.7497 180.731V152.469C86.7497 152.136 86.8576 151.865 87.0734 151.655C87.2951 151.439 87.5809 151.331 87.9309 151.331H100.837C101.17 151.331 101.45 151.439 101.677 151.655C101.905 151.871 102.018 152.142 102.018 152.469V155.487C102.018 155.703 101.966 155.902 101.861 156.082C101.756 156.263 101.613 156.406 101.432 156.511C101.251 156.616 101.053 156.669 100.837 156.669H91.9997V163.362H98.6934C99.0201 163.362 99.2826 163.465 99.4809 163.669C99.6851 163.867 99.7872 164.13 99.7872 164.456V167.519C99.7872 167.845 99.6851 168.111 99.4809 168.315C99.2826 168.513 99.0201 168.612 98.6934 168.612H91.9997V176.575H100.837C101.17 176.575 101.45 176.683 101.677 176.899C101.905 177.115 102.018 177.386 102.018 177.712V180.731C102.018 180.947 101.966 181.145 101.861 181.326C101.756 181.507 101.613 181.65 101.432 181.755C101.251 181.86 101.053 181.912 100.837 181.912H87.9309C87.5868 181.912 87.3039 181.799 87.0822 181.571C86.8605 181.344 86.7497 181.064 86.7497 180.731ZM110.872 180.819V152.556C110.872 152.37 110.928 152.189 111.039 152.014C111.149 151.839 111.292 151.696 111.467 151.585C111.642 151.474 111.823 151.419 112.01 151.419H115.247C115.58 151.419 115.86 151.527 116.087 151.742C116.315 151.958 116.429 152.23 116.429 152.556V163.362L124.697 163.319V152.556C124.697 152.37 124.753 152.189 124.864 152.014C124.98 151.839 125.132 151.696 125.319 151.585C125.511 151.474 125.712 151.419 125.922 151.419H129.072C129.282 151.419 129.481 151.474 129.667 151.585C129.86 151.696 130.012 151.839 130.122 152.014C130.239 152.189 130.297 152.37 130.297 152.556V180.819C130.297 181.035 130.242 181.233 130.131 181.414C130.02 181.595 129.869 181.737 129.676 181.842C129.489 181.947 129.288 182 129.072 182H125.922C125.707 182 125.502 181.947 125.31 181.842C125.123 181.737 124.974 181.595 124.864 181.414C124.753 181.233 124.697 181.035 124.697 180.819V168.656L116.429 168.7V180.819C116.429 181.035 116.376 181.233 116.271 181.414C116.166 181.595 116.023 181.737 115.842 181.842C115.662 181.947 115.463 182 115.247 182H112.01C111.823 182 111.639 181.947 111.459 181.842C111.284 181.732 111.141 181.586 111.03 181.405C110.925 181.224 110.872 181.029 110.872 180.819ZM131.588 181.107C131.588 181.02 131.594 180.953 131.606 180.906L137.381 152.556C137.445 152.23 137.629 151.958 137.932 151.742C138.241 151.527 138.582 151.419 138.956 151.419H144.468C144.713 151.419 144.952 151.468 145.186 151.567C145.419 151.667 145.617 151.804 145.781 151.979C145.944 152.148 146.046 152.34 146.087 152.556L151.818 180.906C151.83 180.953 151.836 181.023 151.836 181.116C151.836 181.39 151.734 181.615 151.529 181.79C151.325 181.959 151.057 182.044 150.724 182.044H147.006C146.335 182.044 145.956 181.723 145.868 181.081L144.556 173.95H138.912L137.599 181.081C137.529 181.425 137.413 181.673 137.249 181.825C137.086 181.971 136.824 182.044 136.462 182.044H132.743C132.411 182.044 132.134 181.956 131.912 181.781C131.696 181.606 131.588 181.382 131.588 181.107ZM143.812 168.831L141.931 157.85C141.907 157.774 141.878 157.719 141.843 157.684C141.814 157.649 141.77 157.631 141.712 157.631C141.654 157.631 141.607 157.649 141.572 157.684C141.543 157.719 141.517 157.774 141.493 157.85L139.656 168.831H143.812ZM157.785 180.862L152.053 152.512C152.042 152.466 152.036 152.396 152.036 152.302C152.036 152.028 152.138 151.807 152.342 151.637C152.546 151.462 152.815 151.375 153.147 151.375H156.866C157.158 151.375 157.397 151.5 157.583 151.751C157.77 151.996 157.895 152.367 157.96 152.862L161.766 174.694C161.789 174.781 161.848 174.863 161.941 174.939C162.04 175.009 162.142 175.044 162.247 175.044C162.405 175.044 162.507 174.927 162.553 174.694L166.272 152.337C166.342 151.993 166.459 151.748 166.622 151.602C166.785 151.451 167.048 151.375 167.41 151.375H171.128C171.461 151.375 171.735 151.462 171.951 151.637C172.173 151.812 172.283 152.037 172.283 152.311C172.283 152.399 172.278 152.466 172.266 152.512L166.491 180.862C166.427 181.189 166.24 181.46 165.931 181.676C165.628 181.892 165.289 182 164.916 182H159.403C159.158 182 158.919 181.95 158.686 181.851C158.453 181.752 158.254 181.618 158.091 181.449C157.928 181.274 157.825 181.078 157.785 180.862ZM174.236 180.731V152.469C174.236 152.136 174.344 151.865 174.56 151.655C174.781 151.439 175.067 151.331 175.417 151.331H188.324C188.656 151.331 188.936 151.439 189.164 151.655C189.391 151.871 189.505 152.142 189.505 152.469V155.487C189.505 155.703 189.452 155.902 189.347 156.082C189.242 156.263 189.099 156.406 188.919 156.511C188.738 156.616 188.539 156.669 188.324 156.669H179.486V163.362H186.18C186.506 163.362 186.769 163.465 186.967 163.669C187.171 163.867 187.274 164.13 187.274 164.456V167.519C187.274 167.845 187.171 168.111 186.967 168.315C186.769 168.513 186.506 168.612 186.18 168.612H179.486V176.575H188.324C188.656 176.575 188.936 176.683 189.164 176.899C189.391 177.115 189.505 177.386 189.505 177.712V180.731C189.505 180.947 189.452 181.145 189.347 181.326C189.242 181.507 189.099 181.65 188.919 181.755C188.738 181.86 188.539 181.912 188.324 181.912H175.417C175.073 181.912 174.79 181.799 174.569 181.571C174.347 181.344 174.236 181.064 174.236 180.731ZM203.74 174.519L206.365 159.644C206.388 159.469 206.476 159.323 206.627 159.206C206.779 159.09 206.954 159.031 207.152 159.031H208.815C208.978 159.031 209.107 159.081 209.2 159.18C209.299 159.273 209.349 159.399 209.349 159.556L209.34 159.644L208.334 165.287H212.665L213.715 159.644C213.738 159.469 213.82 159.323 213.96 159.206C214.1 159.09 214.266 159.031 214.459 159.031H216.121C216.296 159.031 216.442 159.09 216.559 159.206C216.675 159.323 216.734 159.469 216.734 159.644L214.021 174.519C213.998 174.688 213.913 174.834 213.767 174.956C213.627 175.073 213.479 175.131 213.321 175.131H211.615C211.475 175.131 211.358 175.082 211.265 174.982C211.172 174.883 211.125 174.758 211.125 174.606L211.134 174.519L212.184 168.087H207.852L206.671 174.519C206.648 174.688 206.563 174.834 206.417 174.956C206.277 175.073 206.129 175.131 205.971 175.131H204.265C204.107 175.131 203.973 175.073 203.862 174.956C203.757 174.834 203.717 174.688 203.74 174.519ZM193.782 180.084C193.782 180.031 193.791 179.985 193.809 179.944L194.027 178.062C194.097 177.882 194.211 177.727 194.369 177.599C194.532 177.47 194.71 177.406 194.902 177.406H224.827C225.037 177.406 225.201 177.462 225.317 177.572C225.434 177.677 225.492 177.812 225.492 177.975L225.484 178.062L225.221 179.944C225.198 180.101 225.102 180.25 224.932 180.39C224.763 180.53 224.582 180.6 224.39 180.6H194.421C194.258 180.6 194.109 180.547 193.975 180.442C193.847 180.337 193.782 180.218 193.782 180.084ZM197.125 174.624C197.125 174.577 197.128 174.542 197.134 174.519L199.409 161.525H197.527C197.329 161.525 197.163 161.475 197.029 161.376C196.9 161.277 196.848 161.152 196.871 161L197.221 159.512C197.221 159.442 197.259 159.367 197.335 159.285C197.411 159.197 197.507 159.127 197.624 159.075C197.74 159.017 197.854 158.987 197.965 158.987H204.702C204.877 158.987 205.023 159.037 205.14 159.136C205.257 159.235 205.315 159.361 205.315 159.512L205.009 161C204.985 161.152 204.901 161.277 204.755 161.376C204.609 161.475 204.446 161.525 204.265 161.525H202.384L200.065 174.519C200.042 174.694 199.96 174.84 199.82 174.956C199.686 175.073 199.52 175.131 199.321 175.131H197.615C197.463 175.131 197.344 175.085 197.256 174.991C197.169 174.898 197.125 174.775 197.125 174.624ZM215.815 174.475L216.077 172.9L217.084 167.519L217.39 165.944L218.177 161.175L218.484 159.6C218.507 159.442 218.592 159.302 218.737 159.18C218.889 159.052 219.052 158.987 219.227 158.987H225.877C226.029 158.987 226.16 159.052 226.271 159.18C226.382 159.308 226.426 159.448 226.402 159.6L226.14 161.175C226.117 161.327 226.032 161.461 225.886 161.577C225.746 161.688 225.597 161.744 225.44 161.744H220.846L220.234 165.287H223.69C223.83 165.287 223.944 165.328 224.031 165.41C224.119 165.486 224.162 165.591 224.162 165.725C224.162 165.801 224.151 165.874 224.127 165.944L223.909 167.519C223.885 167.688 223.801 167.834 223.655 167.956C223.515 168.073 223.366 168.131 223.209 168.131H219.752L219.009 172.287H223.515C223.672 172.287 223.804 172.334 223.909 172.427C224.02 172.515 224.075 172.62 224.075 172.742C224.075 172.801 224.063 172.853 224.04 172.9L223.777 174.475C223.707 174.656 223.608 174.805 223.48 174.921C223.352 175.032 223.203 175.087 223.034 175.087H216.34C216.182 175.087 216.048 175.029 215.937 174.912C215.832 174.79 215.792 174.644 215.815 174.475ZM196.565 155.794L196.871 153.912C196.895 153.732 196.994 153.577 197.169 153.449C197.344 153.32 197.551 153.256 197.79 153.256H227.715C227.907 153.256 228.062 153.303 228.179 153.396C228.301 153.484 228.362 153.597 228.362 153.737C228.362 153.802 228.351 153.86 228.327 153.912L228.109 155.794C228.085 155.986 227.983 156.158 227.802 156.31C227.622 156.462 227.432 156.537 227.234 156.537H197.265C197.032 156.537 196.851 156.465 196.722 156.319C196.594 156.173 196.542 155.998 196.565 155.794ZM232.47 180.6V153.256C232.47 152.912 232.558 152.597 232.733 152.311C232.908 152.02 233.144 151.792 233.441 151.629C233.745 151.46 234.077 151.375 234.439 151.375H243.364C244.46 151.439 245.376 151.684 246.111 152.11C246.846 152.53 247.476 153.175 248.001 154.044C248.497 154.948 248.745 155.969 248.745 157.106L248.789 160.431C248.789 161.125 248.695 161.855 248.509 162.619C248.322 163.377 247.987 164.08 247.503 164.727C247.024 165.369 246.374 165.804 245.551 166.031C246.864 166.27 247.867 166.93 248.561 168.009C249.261 169.082 249.643 170.508 249.708 172.287L249.751 175.262C249.763 176.406 249.597 177.4 249.253 178.246C248.914 179.092 248.468 179.775 247.914 180.294C247.365 180.813 246.768 181.192 246.12 181.431C245.204 181.781 244.475 181.956 243.933 181.956H233.87C233.625 181.956 233.395 181.895 233.179 181.772C232.963 181.65 232.791 181.487 232.663 181.282C232.534 181.072 232.47 180.845 232.47 180.6ZM241.658 177.931C242.556 177.78 243.224 177.415 243.661 176.837C244.099 176.26 244.306 175.458 244.283 174.431L244.326 172.2C244.338 171.307 244.215 170.599 243.959 170.074C243.702 169.543 243.329 169.167 242.839 168.945C242.349 168.723 241.736 168.612 241.001 168.612H238.376C238.155 168.612 237.988 168.694 237.878 168.857C237.773 169.021 237.72 169.216 237.72 169.444L237.764 177.362C237.764 177.561 237.819 177.707 237.93 177.8C238.047 177.887 238.225 177.931 238.464 177.931H241.658ZM241.045 163.887C241.471 163.887 241.862 163.753 242.218 163.485C242.579 163.217 242.862 162.837 243.066 162.347C243.276 161.852 243.375 161.286 243.364 160.65L243.32 158.55C243.32 157.5 243.093 156.712 242.638 156.187C242.183 155.662 241.506 155.4 240.608 155.4H238.201C238.026 155.4 237.872 155.482 237.738 155.645C237.609 155.808 237.545 155.989 237.545 156.187L237.633 163.537C237.633 163.8 237.808 163.931 238.158 163.931L241.045 163.887ZM252.8 180.731V152.469C252.8 152.136 252.908 151.865 253.124 151.655C253.346 151.439 253.631 151.331 253.981 151.331H266.888C267.22 151.331 267.5 151.439 267.728 151.655C267.955 151.871 268.069 152.142 268.069 152.469V155.487C268.069 155.703 268.016 155.902 267.911 156.082C267.806 156.263 267.663 156.406 267.483 156.511C267.302 156.616 267.103 156.669 266.888 156.669H258.05V163.362H264.744C265.071 163.362 265.333 163.465 265.531 163.669C265.736 163.867 265.838 164.13 265.838 164.456V167.519C265.838 167.845 265.736 168.111 265.531 168.315C265.333 168.513 265.071 168.612 264.744 168.612H258.05V176.575H266.888C267.22 176.575 267.5 176.683 267.728 176.899C267.955 177.115 268.069 177.386 268.069 177.712V180.731C268.069 180.947 268.016 181.145 267.911 181.326C267.806 181.507 267.663 181.65 267.483 181.755C267.302 181.86 267.103 181.912 266.888 181.912H253.981C253.637 181.912 253.354 181.799 253.133 181.571C252.911 181.344 252.8 181.064 252.8 180.731ZM272.066 179.987C271.337 179.188 270.769 178.272 270.36 177.24C269.952 176.207 269.748 175.14 269.748 174.037V173.994C269.748 173.725 269.812 173.477 269.94 173.25C270.069 173.022 270.241 172.842 270.456 172.707C270.672 172.573 270.903 172.506 271.148 172.506H274.254C274.271 172.524 274.295 172.535 274.324 172.541C274.353 172.547 274.388 172.55 274.429 172.55H274.516C274.779 172.661 274.998 172.836 275.173 173.075C275.348 173.308 275.435 173.556 275.435 173.819V174.256C275.435 174.705 275.526 175.128 275.706 175.525C275.887 175.922 276.138 176.263 276.459 176.549C276.786 176.829 277.159 177.027 277.579 177.144C277.882 177.231 278.189 177.275 278.498 177.275H278.629C278.728 177.275 278.813 177.272 278.883 177.266C278.959 177.26 279.005 177.249 279.023 177.231H279.066C279.597 177.19 280.079 177.033 280.51 176.759C280.948 176.485 281.289 176.129 281.534 175.691C281.785 175.254 281.91 174.775 281.91 174.256L281.998 172.069C281.974 171.305 281.811 170.669 281.508 170.161C281.204 169.648 280.755 169.248 280.16 168.962C279.46 168.572 278.381 168.353 276.923 168.306L276.091 168.219C274.406 168.096 273.125 167.612 272.25 166.766C271.375 165.915 270.804 164.926 270.535 163.8C270.273 162.674 270.141 161.435 270.141 160.081L270.185 158.55L270.229 157.937C270.381 156.969 270.518 156.228 270.64 155.715C270.769 155.202 270.949 154.738 271.183 154.324C271.416 153.91 271.754 153.495 272.198 153.081C272.892 152.387 273.72 151.865 274.683 151.515C275.645 151.165 276.698 151.002 277.841 151.025H279.198C280.219 151.025 281.196 151.223 282.129 151.62C283.062 152.011 283.894 152.571 284.623 153.3C285.34 154.017 285.891 154.869 286.276 155.855C286.661 156.835 286.854 157.865 286.854 158.944V158.987C286.854 159.232 286.796 159.454 286.679 159.652C286.568 159.851 286.416 160.008 286.224 160.125C286.031 160.242 285.819 160.3 285.585 160.3H282.566C282.24 160.277 281.969 160.148 281.753 159.915C281.537 159.682 281.429 159.402 281.429 159.075V158.769C281.429 158.349 281.339 157.955 281.158 157.587C280.977 157.214 280.723 156.89 280.396 156.616C280.076 156.342 279.705 156.141 279.285 156.012C279.023 155.925 278.731 155.881 278.41 155.881H278.06C278.031 155.91 277.958 155.925 277.841 155.925C277.305 155.983 276.832 156.141 276.424 156.397C276.016 156.654 275.698 156.987 275.47 157.395C275.243 157.803 275.129 158.261 275.129 158.769V161.306C275.187 161.884 275.38 162.336 275.706 162.662C276.033 162.989 276.506 163.228 277.124 163.38C277.742 163.526 278.565 163.622 279.591 163.669C282.187 163.85 284.118 164.652 285.384 166.075C286.656 167.492 287.291 169.549 287.291 172.244C287.291 173.008 287.254 173.743 287.178 174.449C287.108 175.149 286.95 175.887 286.705 176.662C286.46 177.432 286.101 178.162 285.629 178.85C284.859 179.976 283.896 180.857 282.741 181.492C281.592 182.122 280.367 182.438 279.066 182.438H277.71C276.643 182.438 275.628 182.227 274.665 181.807C273.703 181.387 272.836 180.781 272.066 179.987ZM293.384 180.819V156.362H289.84C289.461 156.362 289.155 156.269 288.921 156.082C288.688 155.89 288.571 155.633 288.571 155.312V152.381C288.571 152.06 288.688 151.807 288.921 151.62C289.155 151.427 289.461 151.331 289.84 151.331H302.615C302.842 151.331 303.052 151.381 303.245 151.48C303.443 151.573 303.598 151.702 303.709 151.865C303.825 152.022 303.884 152.195 303.884 152.381V155.312C303.884 155.499 303.825 155.674 303.709 155.837C303.598 155.995 303.443 156.123 303.245 156.222C303.052 156.316 302.842 156.362 302.615 156.362H298.896V180.819C298.896 181.151 298.788 181.431 298.572 181.659C298.357 181.886 298.085 182 297.759 182H294.521C294.335 182 294.151 181.947 293.97 181.842C293.795 181.732 293.652 181.586 293.541 181.405C293.436 181.224 293.384 181.029 293.384 180.819ZM312.56 178.019C311.802 176.683 311.422 175.254 311.422 173.731V159.337C311.422 158.317 311.592 157.342 311.93 156.415C312.268 155.482 312.752 154.642 313.382 153.895C314.018 153.148 314.765 152.527 315.622 152.031C316.865 151.302 318.265 150.937 319.822 150.937H321.266C322.264 150.937 323.223 151.104 324.145 151.436C325.072 151.769 325.912 152.244 326.665 152.862C327.417 153.481 328.039 154.21 328.529 155.05C329.258 156.292 329.622 157.707 329.622 159.294L329.666 173.731C329.666 174.729 329.494 175.694 329.15 176.627C328.812 177.561 328.327 178.412 327.697 179.182C327.067 179.952 326.324 180.6 325.466 181.125C324.194 181.912 322.809 182.306 321.31 182.306H319.866C318.869 182.306 317.906 182.134 316.979 181.79C316.057 181.44 315.217 180.944 314.459 180.302C313.7 179.655 313.067 178.894 312.56 178.019ZM320.566 177.144C321.179 177.144 321.747 176.98 322.272 176.654C322.797 176.321 323.212 175.881 323.515 175.332C323.824 174.778 323.979 174.186 323.979 173.556V159.25C323.979 158.62 323.824 158.048 323.515 157.535C323.212 157.022 322.794 156.619 322.264 156.327C321.739 156.03 321.158 155.881 320.522 155.881H320.391C319.755 155.881 319.169 156.03 318.632 156.327C318.102 156.619 317.679 157.022 317.364 157.535C317.049 158.048 316.891 158.62 316.891 159.25V173.556C316.891 174.186 317.049 174.778 317.364 175.332C317.679 175.881 318.104 176.321 318.641 176.654C319.178 176.98 319.761 177.144 320.391 177.144H320.566ZM332.723 180.862V152.556C332.723 152.195 332.84 151.9 333.073 151.672C333.306 151.445 333.627 151.331 334.036 151.331H342.698C343.736 151.331 344.617 151.448 345.341 151.681C346.07 151.909 346.665 152.215 347.126 152.6C347.592 152.979 347.998 153.431 348.342 153.956C348.698 154.522 348.984 155.222 349.199 156.056C349.415 156.89 349.523 157.824 349.523 158.856V162.75C349.523 163.485 349.383 164.194 349.103 164.876C348.829 165.553 348.435 166.162 347.922 166.705C347.409 167.247 346.805 167.694 346.111 168.044C345.09 168.598 343.952 168.875 342.698 168.875H339.548C339.169 168.875 338.906 168.86 338.761 168.831V180.862C338.761 181.183 338.632 181.446 338.376 181.65C338.119 181.854 337.81 181.956 337.448 181.956H334.036C333.627 181.956 333.306 181.857 333.073 181.659C332.84 181.46 332.723 181.195 332.723 180.862ZM341.867 164.15C342.328 164.15 342.748 164.036 343.127 163.809C343.506 163.581 343.806 163.275 344.028 162.89C344.25 162.499 344.361 162.073 344.361 161.612V158.112C344.361 157.64 344.253 157.214 344.037 156.835C343.821 156.456 343.524 156.158 343.144 155.942C342.765 155.727 342.339 155.619 341.867 155.619H339.198C339.017 155.619 338.854 155.68 338.708 155.802C338.568 155.919 338.498 156.062 338.498 156.231V163.319C338.498 163.447 338.536 163.575 338.612 163.704C338.688 163.832 338.787 163.94 338.909 164.027C339.032 164.109 339.157 164.15 339.286 164.15H341.867ZM355.388 180.819V156.362H351.845C351.465 156.362 351.159 156.269 350.926 156.082C350.693 155.89 350.576 155.633 350.576 155.312V152.381C350.576 152.06 350.693 151.807 350.926 151.62C351.159 151.427 351.465 151.331 351.845 151.331H364.62C364.847 151.331 365.057 151.381 365.25 151.48C365.448 151.573 365.603 151.702 365.713 151.865C365.83 152.022 365.888 152.195 365.888 152.381V155.312C365.888 155.499 365.83 155.674 365.713 155.837C365.603 155.995 365.448 156.123 365.25 156.222C365.057 156.316 364.847 156.362 364.62 156.362H360.901V180.819C360.901 181.151 360.793 181.431 360.577 181.659C360.361 181.886 360.09 182 359.763 182H356.526C356.339 182 356.155 181.947 355.975 181.842C355.8 181.732 355.657 181.586 355.546 181.405C355.441 181.224 355.388 181.029 355.388 180.819ZM368.483 180.906V152.6C368.483 152.267 368.591 151.987 368.807 151.76C369.023 151.532 369.294 151.419 369.621 151.419H372.858C373.045 151.419 373.223 151.471 373.392 151.576C373.561 151.681 373.695 151.824 373.795 152.005C373.9 152.186 373.952 152.384 373.952 152.6V180.906C373.952 181.122 373.9 181.32 373.795 181.501C373.695 181.682 373.561 181.825 373.392 181.93C373.223 182.035 373.045 182.088 372.858 182.088H369.621C369.294 182.088 369.023 181.974 368.807 181.746C368.591 181.519 368.483 181.239 368.483 180.906ZM379.145 178.019C378.386 176.683 378.007 175.254 378.007 173.731V159.337C378.007 158.317 378.176 157.342 378.515 156.415C378.853 155.482 379.337 154.642 379.967 153.895C380.603 153.148 381.35 152.527 382.207 152.031C383.45 151.302 384.85 150.937 386.407 150.937H387.851C388.848 150.937 389.808 151.104 390.73 151.436C391.657 151.769 392.497 152.244 393.25 152.862C394.002 153.481 394.623 154.21 395.113 155.05C395.843 156.292 396.207 157.707 396.207 159.294L396.251 173.731C396.251 174.729 396.079 175.694 395.735 176.627C395.396 177.561 394.912 178.412 394.282 179.182C393.652 179.952 392.908 180.6 392.051 181.125C390.779 181.912 389.394 182.306 387.895 182.306H386.451C385.453 182.306 384.491 182.134 383.563 181.79C382.642 181.44 381.802 180.944 381.043 180.302C380.285 179.655 379.652 178.894 379.145 178.019ZM387.151 177.144C387.763 177.144 388.332 176.98 388.857 176.654C389.382 176.321 389.796 175.881 390.1 175.332C390.409 174.778 390.563 174.186 390.563 173.556V159.25C390.563 158.62 390.409 158.048 390.1 157.535C389.796 157.022 389.379 156.619 388.848 156.327C388.323 156.03 387.743 155.881 387.107 155.881H386.976C386.34 155.881 385.754 156.03 385.217 156.327C384.686 156.619 384.263 157.022 383.948 157.535C383.633 158.048 383.476 158.62 383.476 159.25V173.556C383.476 174.186 383.633 174.778 383.948 175.332C384.263 175.881 384.689 176.321 385.226 176.654C385.763 176.98 386.346 177.144 386.976 177.144H387.151ZM399.308 180.775V152.469C399.308 152.253 399.363 152.055 399.474 151.874C399.585 151.693 399.734 151.55 399.92 151.445C400.113 151.34 400.317 151.287 400.533 151.287H405.739C405.967 151.287 406.194 151.34 406.422 151.445C406.649 151.544 406.847 151.678 407.017 151.847C407.186 152.017 407.3 152.195 407.358 152.381L413.702 171.369L413.264 152.469C413.264 152.136 413.372 151.856 413.588 151.629C413.804 151.401 414.075 151.287 414.402 151.287H417.727C417.907 151.287 418.085 151.337 418.26 151.436C418.435 151.53 418.578 151.646 418.689 151.786C418.806 151.92 418.864 152.046 418.864 152.162V180.469C418.864 180.924 418.756 181.285 418.54 181.554C418.33 181.822 418.059 181.956 417.727 181.956H413.22C412.9 181.956 412.585 181.848 412.275 181.632C411.966 181.411 411.756 181.154 411.645 180.862L404.558 161.481L404.952 180.775C404.952 181.107 404.841 181.387 404.619 181.615C404.397 181.842 404.115 181.956 403.77 181.956H400.533C400.317 181.956 400.113 181.904 399.92 181.799C399.734 181.694 399.585 181.551 399.474 181.37C399.363 181.189 399.308 180.991 399.308 180.775ZM422.891 179.987C422.161 179.188 421.593 178.272 421.184 177.24C420.776 176.207 420.572 175.14 420.572 174.037V173.994C420.572 173.725 420.636 173.477 420.764 173.25C420.893 173.022 421.065 172.842 421.281 172.707C421.496 172.573 421.727 172.506 421.972 172.506H425.078C425.096 172.524 425.119 172.535 425.148 172.541C425.177 172.547 425.212 172.55 425.253 172.55H425.341C425.603 172.661 425.822 172.836 425.997 173.075C426.172 173.308 426.259 173.556 426.259 173.819V174.256C426.259 174.705 426.35 175.128 426.531 175.525C426.711 175.922 426.962 176.263 427.283 176.549C427.61 176.829 427.983 177.027 428.403 177.144C428.706 177.231 429.013 177.275 429.322 177.275H429.453C429.552 177.275 429.637 177.272 429.707 177.266C429.783 177.26 429.829 177.249 429.847 177.231H429.891C430.421 177.19 430.903 177.033 431.334 176.759C431.772 176.485 432.113 176.129 432.358 175.691C432.609 175.254 432.734 174.775 432.734 174.256L432.822 172.069C432.798 171.305 432.635 170.669 432.332 170.161C432.028 169.648 431.579 169.248 430.984 168.962C430.284 168.572 429.205 168.353 427.747 168.306L426.916 168.219C425.23 168.096 423.949 167.612 423.074 166.766C422.199 165.915 421.628 164.926 421.359 163.8C421.097 162.674 420.966 161.435 420.966 160.081L421.009 158.55L421.053 157.937C421.205 156.969 421.342 156.228 421.464 155.715C421.593 155.202 421.773 154.738 422.007 154.324C422.24 153.91 422.578 153.495 423.022 153.081C423.716 152.387 424.544 151.865 425.507 151.515C426.469 151.165 427.522 151.002 428.666 151.025H430.022C431.043 151.025 432.02 151.223 432.953 151.62C433.886 152.011 434.718 152.571 435.447 153.3C436.164 154.017 436.716 154.869 437.101 155.855C437.486 156.835 437.678 157.865 437.678 158.944V158.987C437.678 159.232 437.62 159.454 437.503 159.652C437.392 159.851 437.241 160.008 437.048 160.125C436.856 160.242 436.643 160.3 436.409 160.3H433.391C433.064 160.277 432.793 160.148 432.577 159.915C432.361 159.682 432.253 159.402 432.253 159.075V158.769C432.253 158.349 432.163 157.955 431.982 157.587C431.801 157.214 431.547 156.89 431.221 156.616C430.9 156.342 430.529 156.141 430.109 156.012C429.847 155.925 429.555 155.881 429.234 155.881H428.884C428.855 155.91 428.782 155.925 428.666 155.925C428.129 155.983 427.656 156.141 427.248 156.397C426.84 156.654 426.522 156.987 426.294 157.395C426.067 157.803 425.953 158.261 425.953 158.769V161.306C426.011 161.884 426.204 162.336 426.531 162.662C426.857 162.989 427.33 163.228 427.948 163.38C428.566 163.526 429.389 163.622 430.416 163.669C433.011 163.85 434.942 164.652 436.208 166.075C437.48 167.492 438.116 169.549 438.116 172.244C438.116 173.008 438.078 173.743 438.002 174.449C437.932 175.149 437.774 175.887 437.529 176.662C437.284 177.432 436.926 178.162 436.453 178.85C435.683 179.976 434.721 180.857 433.566 181.492C432.416 182.122 431.191 182.438 429.891 182.438H428.534C427.467 182.438 426.452 182.227 425.489 181.807C424.527 181.387 423.661 180.781 422.891 179.987ZM447.008 180.775V152.556C447.008 152.265 447.119 152.017 447.34 151.812C447.562 151.608 447.845 151.506 448.189 151.506H460.833C461.06 151.506 461.267 151.556 461.454 151.655C461.641 151.748 461.786 151.877 461.891 152.04C462.002 152.197 462.058 152.37 462.058 152.556V155.662C462.058 155.855 462.002 156.039 461.891 156.214C461.786 156.389 461.641 156.532 461.454 156.642C461.267 156.747 461.06 156.8 460.833 156.8H452.17V163.494H458.776C459.103 163.494 459.366 163.596 459.564 163.8C459.768 163.998 459.87 164.261 459.87 164.587V167.65C459.87 167.936 459.768 168.175 459.564 168.367C459.36 168.56 459.097 168.656 458.776 168.656H452.17V180.775C452.17 180.962 452.118 181.14 452.013 181.309C451.908 181.478 451.765 181.615 451.584 181.72C451.403 181.819 451.205 181.869 450.989 181.869H448.189C447.839 181.869 447.553 181.77 447.331 181.571C447.116 181.367 447.008 181.102 447.008 180.775ZM465.64 178.019C464.881 176.683 464.502 175.254 464.502 173.731V159.337C464.502 158.317 464.671 157.342 465.01 156.415C465.348 155.482 465.832 154.642 466.462 153.895C467.098 153.148 467.845 152.527 468.702 152.031C469.945 151.302 471.345 150.937 472.902 150.937H474.346C475.344 150.937 476.303 151.104 477.225 151.436C478.152 151.769 478.992 152.244 479.745 152.862C480.497 153.481 481.119 154.21 481.609 155.05C482.338 156.292 482.702 157.707 482.702 159.294L482.746 173.731C482.746 174.729 482.574 175.694 482.23 176.627C481.891 177.561 481.407 178.412 480.777 179.182C480.147 179.952 479.404 180.6 478.546 181.125C477.274 181.912 475.889 182.306 474.39 182.306H472.946C471.949 182.306 470.986 182.134 470.059 181.79C469.137 181.44 468.297 180.944 467.539 180.302C466.78 179.655 466.147 178.894 465.64 178.019ZM473.646 177.144C474.259 177.144 474.827 176.98 475.352 176.654C475.877 176.321 476.291 175.881 476.595 175.332C476.904 174.778 477.059 174.186 477.059 173.556V159.25C477.059 158.62 476.904 158.048 476.595 157.535C476.291 157.022 475.874 156.619 475.344 156.327C474.819 156.03 474.238 155.881 473.602 155.881H473.471C472.835 155.881 472.249 156.03 471.712 156.327C471.181 156.619 470.759 157.022 470.444 157.535C470.129 158.048 469.971 158.62 469.971 159.25V173.556C469.971 174.186 470.129 174.778 470.444 175.332C470.759 175.881 471.184 176.321 471.721 176.654C472.258 176.98 472.841 177.144 473.471 177.144H473.646ZM485.89 180.994V152.687C485.89 152.472 485.943 152.27 486.048 152.084C486.159 151.891 486.308 151.74 486.494 151.629C486.681 151.518 486.888 151.462 487.115 151.462H495.69C497.015 151.474 498.187 151.745 499.208 152.276C500.229 152.801 501.019 153.525 501.579 154.446C502.145 155.368 502.428 156.415 502.428 157.587V162.925C502.428 163.625 502.291 164.305 502.017 164.964C501.748 165.623 501.369 166.221 500.879 166.757C500.395 167.294 499.832 167.737 499.19 168.087L499.234 168.175L503.609 181.037C503.638 181.067 503.653 181.169 503.653 181.344C503.653 181.525 503.574 181.679 503.417 181.807C503.259 181.936 503.061 182 502.822 182H499.015C498.829 182 498.639 181.953 498.447 181.86C498.254 181.767 498.082 181.647 497.93 181.501C497.779 181.35 497.674 181.195 497.615 181.037L494.072 170.1C493.704 169.896 493.34 169.794 492.978 169.794C492.494 169.794 492.1 169.969 491.797 170.319V180.994C491.797 181.28 491.68 181.519 491.447 181.711C491.219 181.904 490.942 182 490.615 182H487.115C486.765 182 486.474 181.904 486.24 181.711C486.007 181.519 485.89 181.28 485.89 180.994ZM494.378 164.5C494.821 164.5 495.23 164.395 495.603 164.185C495.982 163.975 496.28 163.692 496.495 163.336C496.717 162.98 496.828 162.595 496.828 162.181V158.2C496.828 157.757 496.717 157.351 496.495 156.984C496.28 156.616 495.982 156.327 495.603 156.117C495.23 155.902 494.821 155.794 494.378 155.794H491.972C491.82 155.794 491.686 155.858 491.569 155.986C491.458 156.109 491.403 156.249 491.403 156.406V163.756C491.403 163.955 491.476 164.13 491.622 164.281C491.773 164.427 491.948 164.5 492.147 164.5H494.378ZM516.805 180.994V168.525C516.724 167.872 516.52 167.172 516.193 166.425L511.118 153.169C511.03 152.994 510.987 152.804 510.987 152.6C510.987 152.367 511.051 152.151 511.179 151.952C511.313 151.748 511.494 151.588 511.722 151.471C511.955 151.349 512.206 151.287 512.474 151.287H515.187C515.828 151.287 516.324 151.594 516.674 152.206L519.605 160.912C519.664 160.971 519.737 161 519.824 161C519.853 161 519.897 160.971 519.955 160.912L522.974 152.206C523.062 151.944 523.231 151.725 523.482 151.55C523.732 151.375 524.001 151.287 524.287 151.287H527.043C527.323 151.287 527.577 151.352 527.804 151.48C528.032 151.602 528.21 151.769 528.338 151.979C528.466 152.189 528.53 152.41 528.53 152.644C528.53 152.714 528.519 152.807 528.495 152.924C528.472 153.04 528.455 153.122 528.443 153.169L523.28 166.425C523.018 167.125 522.843 167.825 522.755 168.525V180.994C522.755 181.21 522.691 181.408 522.563 181.589C522.435 181.77 522.262 181.912 522.047 182.018C521.831 182.123 521.6 182.175 521.355 182.175H518.162C517.928 182.175 517.707 182.123 517.497 182.018C517.292 181.912 517.126 181.77 516.998 181.589C516.87 181.402 516.805 181.204 516.805 180.994ZM531.404 178.019C530.646 176.683 530.267 175.254 530.267 173.731V159.337C530.267 158.317 530.436 157.342 530.774 156.415C531.113 155.482 531.597 154.642 532.227 153.895C532.863 153.148 533.609 152.527 534.467 152.031C535.709 151.302 537.109 150.937 538.667 150.937H540.11C541.108 150.937 542.068 151.104 542.989 151.436C543.917 151.769 544.757 152.244 545.509 152.862C546.262 153.481 546.883 154.21 547.373 155.05C548.102 156.292 548.467 157.707 548.467 159.294L548.51 173.731C548.51 174.729 548.338 175.694 547.994 176.627C547.656 177.561 547.172 178.412 546.542 179.182C545.912 179.952 545.168 180.6 544.31 181.125C543.039 181.912 541.653 182.306 540.154 182.306H538.71C537.713 182.306 536.75 182.134 535.823 181.79C534.901 181.44 534.061 180.944 533.303 180.302C532.545 179.655 531.912 178.894 531.404 178.019ZM539.41 177.144C540.023 177.144 540.592 176.98 541.117 176.654C541.642 176.321 542.056 175.881 542.359 175.332C542.668 174.778 542.823 174.186 542.823 173.556V159.25C542.823 158.62 542.668 158.048 542.359 157.535C542.056 157.022 541.639 156.619 541.108 156.327C540.583 156.03 540.003 155.881 539.367 155.881H539.235C538.6 155.881 538.013 156.03 537.477 156.327C536.946 156.619 536.523 157.022 536.208 157.535C535.893 158.048 535.735 158.62 535.735 159.25V173.556C535.735 174.186 535.893 174.778 536.208 175.332C536.523 175.881 536.949 176.321 537.485 176.654C538.022 176.98 538.605 177.144 539.235 177.144H539.41ZM552.793 177.8C552.005 176.487 551.611 175.058 551.611 173.512L551.568 153.344C551.568 152.83 551.64 152.431 551.786 152.145C551.938 151.859 552.154 151.661 552.434 151.55C552.72 151.433 553.087 151.375 553.536 151.375H555.111C555.555 151.375 555.852 151.381 556.004 151.392C556.161 151.398 556.281 151.422 556.363 151.462C556.45 151.497 556.558 151.57 556.686 151.681C556.838 151.792 556.949 151.979 557.019 152.241C557.089 152.504 557.124 152.857 557.124 153.3L557.168 173.25C557.168 173.892 557.322 174.49 557.631 175.044C557.946 175.592 558.369 176.03 558.9 176.356C559.431 176.677 560.005 176.837 560.624 176.837H561.324C561.954 176.837 562.531 176.677 563.056 176.356C563.587 176.03 564.007 175.592 564.316 175.044C564.625 174.495 564.78 173.897 564.78 173.25L564.824 153.3C564.824 152.792 564.897 152.399 565.043 152.119C565.188 151.839 565.398 151.646 565.673 151.541C565.953 151.43 566.311 151.375 566.749 151.375H568.455C568.963 151.375 569.356 151.43 569.636 151.541C569.922 151.646 570.132 151.839 570.266 152.119C570.4 152.399 570.468 152.807 570.468 153.344L570.424 173.512C570.424 174.533 570.246 175.513 569.89 176.452C569.534 177.386 569.03 178.235 568.376 178.999C567.729 179.757 566.968 180.393 566.093 180.906C564.78 181.694 563.351 182.088 561.805 182.088H560.23C559.192 182.088 558.2 181.915 557.255 181.571C556.316 181.221 555.464 180.725 554.7 180.084C553.936 179.436 553.3 178.675 552.793 177.8ZM574.043 172.856L573.693 152.687C573.669 152.168 573.777 151.792 574.016 151.559C574.261 151.325 574.649 151.22 575.18 151.244H578.986C579.371 151.244 579.666 151.27 579.87 151.322C580.08 151.375 580.241 151.492 580.351 151.672C580.462 151.853 580.518 152.133 580.518 152.512L580.08 172.9C580.08 173.168 579.978 173.39 579.774 173.565C579.576 173.734 579.313 173.819 578.986 173.819H575.18C574.842 173.819 574.568 173.725 574.358 173.539C574.148 173.352 574.043 173.125 574.043 172.856ZM573.824 180.381V177.056C573.824 176.759 573.894 176.49 574.034 176.251C574.174 176.006 574.364 175.817 574.603 175.682C574.842 175.548 575.107 175.481 575.399 175.481H578.724C579.027 175.481 579.301 175.548 579.546 175.682C579.797 175.817 579.993 176.003 580.133 176.242C580.273 176.482 580.343 176.753 580.343 177.056V180.381C580.343 180.685 580.27 180.959 580.124 181.204C579.984 181.449 579.791 181.644 579.546 181.79C579.301 181.93 579.027 182 578.724 182H575.399C575.113 182 574.848 181.93 574.603 181.79C574.364 181.644 574.174 181.449 574.034 181.204C573.894 180.959 573.824 180.685 573.824 180.381Z" fill="white" fill-opacity="0.71"/>
<path d="M646.008 149.725C646.008 149.6 646.016 149.504 646.033 149.438L654.283 108.937C654.375 108.471 654.637 108.083 655.071 107.775C655.512 107.467 656 107.312 656.533 107.312H664.408C664.975 107.312 665.479 107.467 665.921 107.775C666.362 108.083 666.629 108.471 666.721 108.937L674.908 149.438C674.925 149.504 674.933 149.604 674.933 149.737C674.933 150.129 674.787 150.45 674.496 150.7C674.204 150.942 673.821 151.063 673.346 151.063H668.033C667.075 151.063 666.533 150.604 666.408 149.687L664.533 139.5H656.471L654.596 149.687C654.496 150.179 654.329 150.533 654.096 150.75C653.862 150.958 653.487 151.063 652.971 151.063H647.658C647.183 151.063 646.787 150.938 646.471 150.687C646.162 150.437 646.008 150.117 646.008 149.725ZM663.471 132.187L660.783 116.5C660.75 116.392 660.708 116.312 660.658 116.262C660.616 116.212 660.554 116.187 660.471 116.187C660.387 116.187 660.321 116.212 660.271 116.262C660.229 116.312 660.191 116.392 660.158 116.5L657.533 132.187H663.471ZM677.731 149.375V108.937C677.731 108.421 677.898 108 678.231 107.675C678.565 107.35 679.023 107.187 679.606 107.187H691.981C693.465 107.187 694.723 107.354 695.756 107.687C696.798 108.012 697.648 108.45 698.306 109C698.973 109.542 699.552 110.187 700.044 110.937C700.552 111.746 700.961 112.746 701.269 113.937C701.577 115.129 701.731 116.462 701.731 117.937V123.5C701.731 124.55 701.531 125.562 701.131 126.537C700.74 127.504 700.177 128.375 699.444 129.15C698.711 129.925 697.848 130.562 696.856 131.062C695.398 131.854 693.773 132.25 691.981 132.25H687.481C686.94 132.25 686.565 132.229 686.356 132.187V149.375C686.356 149.833 686.173 150.208 685.806 150.5C685.44 150.792 684.998 150.937 684.481 150.937H679.606C679.023 150.937 678.565 150.796 678.231 150.512C677.898 150.229 677.731 149.85 677.731 149.375ZM690.794 125.5C691.452 125.5 692.052 125.337 692.594 125.013C693.136 124.687 693.565 124.25 693.881 123.7C694.198 123.142 694.356 122.533 694.356 121.875V116.875C694.356 116.2 694.202 115.592 693.894 115.05C693.586 114.508 693.161 114.083 692.619 113.775C692.077 113.467 691.469 113.312 690.794 113.312H686.981C686.723 113.312 686.49 113.4 686.281 113.575C686.081 113.742 685.981 113.946 685.981 114.187V124.313C685.981 124.496 686.036 124.679 686.144 124.862C686.252 125.046 686.394 125.2 686.569 125.325C686.744 125.442 686.923 125.5 687.106 125.5H690.794ZM705.735 149.375V108.937C705.735 108.421 705.902 108 706.235 107.675C706.569 107.35 707.027 107.187 707.61 107.187H719.985C721.469 107.187 722.727 107.354 723.76 107.687C724.802 108.012 725.652 108.45 726.31 109C726.977 109.542 727.556 110.187 728.048 110.937C728.556 111.746 728.965 112.746 729.273 113.937C729.581 115.129 729.735 116.462 729.735 117.937V123.5C729.735 124.55 729.535 125.562 729.135 126.537C728.744 127.504 728.181 128.375 727.448 129.15C726.715 129.925 725.852 130.562 724.86 131.062C723.402 131.854 721.777 132.25 719.985 132.25H715.485C714.944 132.25 714.569 132.229 714.36 132.187V149.375C714.36 149.833 714.177 150.208 713.81 150.5C713.444 150.792 713.002 150.937 712.485 150.937H707.61C707.027 150.937 706.569 150.796 706.235 150.512C705.902 150.229 705.735 149.85 705.735 149.375ZM718.798 125.5C719.456 125.5 720.056 125.337 720.598 125.013C721.14 124.687 721.569 124.25 721.885 123.7C722.202 123.142 722.36 122.533 722.36 121.875V116.875C722.36 116.2 722.206 115.592 721.898 115.05C721.59 114.508 721.165 114.083 720.623 113.775C720.081 113.467 719.473 113.312 718.798 113.312H714.985C714.727 113.312 714.494 113.4 714.285 113.575C714.085 113.742 713.985 113.946 713.985 114.187V124.313C713.985 124.496 714.04 124.679 714.148 124.862C714.256 125.046 714.398 125.2 714.573 125.325C714.748 125.442 714.927 125.5 715.11 125.5H718.798ZM733.489 149.5V108.625C733.489 108.325 733.56 108.05 733.702 107.8C733.852 107.55 734.048 107.354 734.289 107.212C734.531 107.071 734.785 107 735.052 107H739.677C739.943 107 740.198 107.071 740.439 107.212C740.681 107.354 740.873 107.55 741.014 107.8C741.164 108.05 741.239 108.325 741.239 108.625V143.312H750.614C751.081 143.312 751.448 143.446 751.714 143.712C751.981 143.979 752.114 144.346 752.114 144.812V149.5C752.114 149.925 751.977 150.283 751.702 150.575C751.435 150.858 751.073 151 750.614 151H734.989C734.723 151 734.473 150.933 734.239 150.8C734.014 150.658 733.831 150.475 733.689 150.25C733.556 150.017 733.489 149.767 733.489 149.5ZM761.011 149.562V131.75C760.894 130.817 760.602 129.817 760.136 128.75L752.886 109.812C752.761 109.562 752.698 109.292 752.698 109C752.698 108.667 752.79 108.358 752.973 108.075C753.165 107.783 753.423 107.554 753.748 107.387C754.082 107.212 754.44 107.125 754.823 107.125H758.698C759.615 107.125 760.323 107.562 760.823 108.437L765.011 120.875C765.094 120.958 765.198 121 765.323 121C765.365 121 765.427 120.958 765.511 120.875L769.823 108.437C769.948 108.062 770.19 107.75 770.548 107.5C770.907 107.25 771.29 107.125 771.698 107.125H775.636C776.036 107.125 776.398 107.217 776.723 107.4C777.048 107.575 777.302 107.812 777.486 108.112C777.669 108.412 777.761 108.729 777.761 109.062C777.761 109.162 777.744 109.296 777.711 109.462C777.677 109.629 777.652 109.746 777.636 109.812L770.261 128.75C769.886 129.75 769.636 130.75 769.511 131.75V149.562C769.511 149.871 769.419 150.154 769.236 150.412C769.052 150.671 768.807 150.875 768.498 151.025C768.19 151.175 767.861 151.25 767.511 151.25H762.948C762.615 151.25 762.298 151.175 761.998 151.025C761.707 150.875 761.469 150.671 761.286 150.412C761.102 150.146 761.011 149.862 761.011 149.562ZM788.991 149V109.937C788.991 109.446 789.116 108.996 789.366 108.587C789.616 108.171 789.954 107.846 790.379 107.612C790.812 107.371 791.287 107.25 791.804 107.25H804.554C805.895 107.25 807.15 107.579 808.316 108.237C809.491 108.896 810.445 109.837 811.179 111.062C811.887 112.354 812.241 113.812 812.241 115.437L812.304 120.187C812.304 121.179 812.17 122.221 811.904 123.312C811.637 124.396 811.158 125.4 810.466 126.325C809.783 127.242 808.854 127.862 807.679 128.187C809.554 128.529 810.987 129.471 811.979 131.012C812.979 132.546 813.525 134.583 813.616 137.125L813.679 141.375C813.695 143.008 813.458 144.429 812.966 145.637C812.483 146.846 811.845 147.821 811.054 148.562C810.27 149.304 809.416 149.846 808.491 150.187C807.183 150.687 806.141 150.937 805.366 150.937H790.991C790.641 150.937 790.312 150.85 790.004 150.675C789.695 150.5 789.45 150.267 789.266 149.975C789.083 149.675 788.991 149.35 788.991 149ZM802.116 145.187C803.4 144.971 804.354 144.45 804.979 143.625C805.604 142.8 805.9 141.654 805.866 140.187L805.929 137C805.945 135.725 805.77 134.712 805.404 133.962C805.037 133.204 804.504 132.667 803.804 132.35C803.104 132.033 802.229 131.875 801.179 131.875H797.429C797.112 131.875 796.875 131.992 796.716 132.225C796.566 132.458 796.491 132.737 796.491 133.062L796.554 144.375C796.554 144.658 796.633 144.867 796.791 145C796.958 145.125 797.212 145.187 797.554 145.187H802.116ZM801.241 125.125C801.85 125.125 802.408 124.933 802.916 124.55C803.433 124.167 803.837 123.625 804.129 122.925C804.429 122.217 804.57 121.408 804.554 120.5L804.491 117.5C804.491 116 804.166 114.875 803.516 114.125C802.866 113.375 801.9 113 800.616 113H797.179C796.929 113 796.708 113.117 796.516 113.35C796.333 113.583 796.241 113.842 796.241 114.125L796.366 124.625C796.366 125 796.616 125.187 797.116 125.187L801.241 125.125ZM818.034 149.187V108.812C818.034 108.337 818.188 107.95 818.497 107.65C818.813 107.342 819.222 107.187 819.722 107.187H838.159C838.634 107.187 839.034 107.342 839.359 107.65C839.684 107.958 839.847 108.346 839.847 108.812V113.125C839.847 113.433 839.772 113.717 839.622 113.975C839.472 114.233 839.268 114.437 839.009 114.587C838.751 114.737 838.468 114.812 838.159 114.812H825.534V124.375H835.097C835.563 124.375 835.938 124.521 836.222 124.812C836.513 125.096 836.659 125.471 836.659 125.937V130.312C836.659 130.779 836.513 131.158 836.222 131.45C835.938 131.733 835.563 131.875 835.097 131.875H825.534V143.25H838.159C838.634 143.25 839.034 143.404 839.359 143.712C839.684 144.021 839.847 144.408 839.847 144.875V149.187C839.847 149.496 839.772 149.779 839.622 150.037C839.472 150.296 839.268 150.5 839.009 150.65C838.751 150.8 838.468 150.875 838.159 150.875H819.722C819.23 150.875 818.826 150.712 818.509 150.387C818.193 150.062 818.034 149.662 818.034 149.187ZM843.87 149.5V108.625C843.87 108.325 843.941 108.05 844.083 107.8C844.233 107.55 844.428 107.354 844.67 107.212C844.912 107.071 845.166 107 845.433 107H850.058C850.324 107 850.578 107.071 850.82 107.212C851.062 107.354 851.253 107.55 851.395 107.8C851.545 108.05 851.62 108.325 851.62 108.625V143.312H860.995C861.462 143.312 861.828 143.446 862.095 143.712C862.362 143.979 862.495 144.346 862.495 144.812V149.5C862.495 149.925 862.358 150.283 862.083 150.575C861.816 150.858 861.453 151 860.995 151H845.37C845.103 151 844.853 150.933 844.62 150.8C844.395 150.658 844.212 150.475 844.07 150.25C843.937 150.017 843.87 149.767 843.87 149.5ZM866.392 145.312C865.308 143.404 864.767 141.362 864.767 139.187V118.625C864.767 117.167 865.008 115.775 865.492 114.45C865.975 113.117 866.667 111.917 867.567 110.85C868.475 109.783 869.542 108.896 870.767 108.187C872.542 107.146 874.542 106.625 876.767 106.625H878.829C880.254 106.625 881.625 106.862 882.942 107.337C884.267 107.812 885.467 108.492 886.542 109.375C887.617 110.258 888.504 111.3 889.204 112.5C890.246 114.275 890.767 116.296 890.767 118.562L890.829 139.187C890.829 140.612 890.583 141.992 890.092 143.325C889.608 144.658 888.917 145.875 888.017 146.975C887.117 148.075 886.054 149 884.829 149.75C883.012 150.875 881.033 151.438 878.892 151.438H876.829C875.404 151.438 874.029 151.192 872.704 150.7C871.387 150.2 870.187 149.492 869.104 148.575C868.021 147.65 867.117 146.562 866.392 145.312ZM877.829 144.062C878.704 144.062 879.517 143.829 880.267 143.362C881.017 142.887 881.608 142.258 882.042 141.475C882.483 140.683 882.704 139.837 882.704 138.937V118.5C882.704 117.6 882.483 116.783 882.042 116.05C881.608 115.317 881.012 114.742 880.254 114.325C879.504 113.9 878.675 113.687 877.767 113.687H877.579C876.671 113.687 875.833 113.9 875.067 114.325C874.308 114.742 873.704 115.317 873.254 116.05C872.804 116.783 872.579 117.6 872.579 118.5V138.937C872.579 139.837 872.804 140.683 873.254 141.475C873.704 142.258 874.312 142.887 875.079 143.362C875.846 143.829 876.679 144.062 877.579 144.062H877.829ZM900.696 149.438L893.321 108.812C893.305 108.754 893.296 108.667 893.296 108.55C893.296 108.192 893.434 107.887 893.709 107.637C893.992 107.379 894.342 107.25 894.759 107.25H899.259C899.717 107.25 900.13 107.408 900.496 107.725C900.863 108.033 901.096 108.396 901.196 108.812L905.321 133.875C905.355 133.975 905.392 134.042 905.434 134.075C905.475 134.108 905.542 134.125 905.634 134.125C905.725 134.125 905.792 134.108 905.834 134.075C905.875 134.042 905.913 133.975 905.946 133.875L909.321 108.937C909.38 108.637 909.509 108.358 909.709 108.1C909.917 107.833 910.159 107.625 910.434 107.475C910.717 107.325 910.992 107.25 911.259 107.25H916.196C916.463 107.25 916.734 107.325 917.009 107.475C917.284 107.617 917.525 107.808 917.734 108.05C917.942 108.292 918.075 108.546 918.134 108.812L922.321 134.375C922.346 134.517 922.425 134.587 922.559 134.587C922.617 134.587 922.671 134.571 922.721 134.537C922.771 134.496 922.805 134.442 922.821 134.375L926.259 108.937C926.35 108.462 926.58 108.062 926.946 107.737C927.313 107.412 927.73 107.25 928.196 107.25H932.696C932.955 107.25 933.205 107.321 933.446 107.462C933.688 107.596 933.875 107.762 934.009 107.962C934.15 108.154 934.213 108.333 934.196 108.5L927.759 148.937C927.667 149.562 927.434 150.062 927.059 150.437C926.692 150.812 926.259 151 925.759 151H919.509C919.05 151 918.638 150.846 918.271 150.537C917.905 150.221 917.671 149.854 917.571 149.438L913.946 129.375L910.884 148.937C910.759 149.562 910.509 150.062 910.134 150.437C909.759 150.812 909.321 151 908.821 151H902.634C902.325 151 902.025 150.929 901.734 150.787C901.442 150.637 901.2 150.442 901.009 150.2C900.817 149.958 900.713 149.704 900.696 149.438ZM938.681 137.937L938.181 109.125C938.147 108.383 938.301 107.846 938.643 107.512C938.993 107.179 939.547 107.029 940.306 107.062H945.743C946.293 107.062 946.714 107.1 947.006 107.175C947.306 107.25 947.535 107.417 947.693 107.675C947.851 107.933 947.931 108.333 947.931 108.875L947.306 138C947.306 138.383 947.16 138.7 946.868 138.95C946.585 139.192 946.21 139.312 945.743 139.312H940.306C939.822 139.312 939.431 139.179 939.131 138.912C938.831 138.646 938.681 138.321 938.681 137.937ZM938.368 148.687V143.938C938.368 143.512 938.468 143.129 938.668 142.787C938.868 142.437 939.139 142.167 939.481 141.975C939.822 141.783 940.201 141.687 940.618 141.687H945.368C945.801 141.687 946.193 141.783 946.543 141.975C946.901 142.167 947.181 142.433 947.381 142.775C947.581 143.117 947.681 143.504 947.681 143.938V148.687C947.681 149.121 947.576 149.512 947.368 149.862C947.168 150.212 946.893 150.492 946.543 150.7C946.193 150.9 945.801 151 945.368 151H940.618C940.21 151 939.831 150.9 939.481 150.7C939.139 150.492 938.868 150.212 938.668 149.862C938.468 149.512 938.368 149.121 938.368 148.687Z" fill="white"/>
</g>
<defs>
<linearGradient id="paint0_linear" x1="20" y1="269" x2="901.501" y2="68.5035" gradientUnits="userSpaceOnUse">
<stop offset="0.066821" stop-color="#07468F"/>
<stop offset="1" stop-color="#0690AE"/>
</linearGradient>
<clipPath id="clip0">
<rect width="1000" height="330.508" fill="white"/>
</clipPath>
</defs>
</svg>
