<svg width="1000" height="331" viewBox="0 0 1000 331" fill="none" xmlns="http://www.w3.org/2000/svg">
<rect width="1000" height="330.508" fill="url(#paint0_linear)"/>
<path d="M69.9326 135.625V95C69.9326 94.725 70.0035 94.4625 70.1451 94.2125C70.2868 93.9625 70.4826 93.7625 70.7326 93.6125C70.9826 93.4542 71.2576 93.375 71.5576 93.375H76.1201C76.3868 93.375 76.6326 93.4542 76.8576 93.6125C77.091 93.7708 77.2743 93.975 77.4076 94.225C77.5493 94.475 77.6201 94.7333 77.6201 95V106.5L85.3701 94.5625C85.6285 94.2375 85.9368 93.9542 86.2951 93.7125C86.6535 93.4625 86.991 93.35 87.3076 93.375L91.9326 93.3125C92.316 93.3292 92.666 93.4333 92.9826 93.625C93.2993 93.8167 93.5451 94.0583 93.7201 94.35C93.9035 94.6417 93.9951 94.9417 93.9951 95.25C93.9951 95.6667 93.9118 95.9583 93.7451 96.125L82.8076 112.875L96.6826 134.062C96.891 134.546 96.9951 134.921 96.9951 135.187C96.9951 135.546 96.916 135.879 96.7576 136.187C96.5993 136.487 96.3701 136.725 96.0701 136.9C95.7785 137.067 95.441 137.142 95.0576 137.125H89.8076C89.4576 137.125 89.1326 137.029 88.8326 136.837C88.5326 136.637 88.2743 136.337 88.0576 135.937L77.6201 119.562V135.625C77.6201 135.875 77.5493 136.117 77.4076 136.35C77.2743 136.575 77.091 136.762 76.8576 136.912C76.6326 137.054 76.3868 137.125 76.1201 137.125H71.5576C71.2576 137.125 70.9826 137.054 70.7326 136.912C70.4826 136.771 70.2868 136.583 70.1451 136.35C70.0035 136.117 69.9326 135.875 69.9326 135.625ZM99.8057 135.187V94.8125C99.8057 94.3375 99.9598 93.95 100.268 93.65C100.585 93.3417 100.993 93.1875 101.493 93.1875H119.931C120.406 93.1875 120.806 93.3417 121.131 93.65C121.456 93.9583 121.618 94.3458 121.618 94.8125V99.125C121.618 99.4333 121.543 99.7167 121.393 99.975C121.243 100.233 121.039 100.437 120.781 100.587C120.522 100.737 120.239 100.812 119.931 100.812H107.306V110.375H116.868C117.335 110.375 117.71 110.521 117.993 110.812C118.285 111.096 118.431 111.471 118.431 111.937V116.312C118.431 116.779 118.285 117.158 117.993 117.45C117.71 117.733 117.335 117.875 116.868 117.875H107.306V129.25H119.931C120.406 129.25 120.806 129.404 121.131 129.712C121.456 130.021 121.618 130.408 121.618 130.875V135.187C121.618 135.496 121.543 135.779 121.393 136.037C121.243 136.296 121.039 136.5 120.781 136.65C120.522 136.8 120.239 136.875 119.931 136.875H101.493C101.001 136.875 100.597 136.712 100.281 136.387C99.964 136.062 99.8057 135.662 99.8057 135.187ZM125.954 135.187V94.8125C125.954 94.3375 126.108 93.95 126.417 93.65C126.733 93.3417 127.142 93.1875 127.642 93.1875H146.079C146.554 93.1875 146.954 93.3417 147.279 93.65C147.604 93.9583 147.767 94.3458 147.767 94.8125V99.125C147.767 99.4333 147.692 99.7167 147.542 99.975C147.392 100.233 147.187 100.437 146.929 100.587C146.671 100.737 146.387 100.812 146.079 100.812H133.454V110.375H143.017C143.483 110.375 143.858 110.521 144.142 110.812C144.433 111.096 144.579 111.471 144.579 111.937V116.312C144.579 116.779 144.433 117.158 144.142 117.45C143.858 117.733 143.483 117.875 143.017 117.875H133.454V129.25H146.079C146.554 129.25 146.954 129.404 147.279 129.712C147.604 130.021 147.767 130.408 147.767 130.875V135.187C147.767 135.496 147.692 135.779 147.542 136.037C147.392 136.296 147.187 136.5 146.929 136.65C146.671 136.8 146.387 136.875 146.079 136.875H127.642C127.15 136.875 126.746 136.712 126.429 136.387C126.112 136.062 125.954 135.662 125.954 135.187ZM152.04 135.375V94.9375C152.04 94.4208 152.207 94 152.54 93.675C152.873 93.35 153.332 93.1875 153.915 93.1875H166.29C167.773 93.1875 169.032 93.3542 170.065 93.6875C171.107 94.0125 171.957 94.45 172.615 95C173.282 95.5417 173.861 96.1875 174.353 96.9375C174.861 97.7458 175.269 98.7458 175.578 99.9375C175.886 101.129 176.04 102.462 176.04 103.937V109.5C176.04 110.55 175.84 111.562 175.44 112.537C175.048 113.504 174.486 114.375 173.753 115.15C173.019 115.925 172.157 116.562 171.165 117.062C169.707 117.854 168.082 118.25 166.29 118.25H161.79C161.248 118.25 160.873 118.229 160.665 118.187V135.375C160.665 135.833 160.482 136.208 160.115 136.5C159.748 136.792 159.307 136.937 158.79 136.937H153.915C153.332 136.937 152.873 136.796 152.54 136.512C152.207 136.229 152.04 135.85 152.04 135.375ZM165.103 111.5C165.761 111.5 166.361 111.337 166.903 111.013C167.444 110.687 167.873 110.25 168.19 109.7C168.507 109.142 168.665 108.533 168.665 107.875V102.875C168.665 102.2 168.511 101.592 168.203 101.05C167.894 100.508 167.469 100.083 166.928 99.775C166.386 99.4667 165.778 99.3125 165.103 99.3125H161.29C161.032 99.3125 160.798 99.4 160.59 99.575C160.39 99.7417 160.29 99.9458 160.29 100.187V110.313C160.29 110.496 160.344 110.679 160.453 110.862C160.561 111.046 160.703 111.2 160.878 111.325C161.053 111.442 161.232 111.5 161.415 111.5H165.103ZM190.169 131C189.044 129.125 188.481 127.083 188.481 124.875L188.419 96.0625C188.419 95.3292 188.523 94.7583 188.731 94.35C188.948 93.9417 189.256 93.6583 189.656 93.5C190.065 93.3333 190.59 93.25 191.231 93.25H193.481C194.115 93.25 194.54 93.2583 194.756 93.275C194.981 93.2833 195.152 93.3167 195.269 93.375C195.394 93.425 195.548 93.5292 195.731 93.6875C195.948 93.8458 196.106 94.1125 196.206 94.4875C196.306 94.8625 196.356 95.3667 196.356 96L196.419 124.5C196.419 125.417 196.64 126.271 197.081 127.062C197.531 127.846 198.136 128.471 198.894 128.937C199.652 129.396 200.473 129.625 201.356 129.625H202.356C203.256 129.625 204.081 129.396 204.831 128.937C205.59 128.471 206.19 127.846 206.631 127.062C207.073 126.279 207.294 125.425 207.294 124.5L207.356 96C207.356 95.275 207.461 94.7125 207.669 94.3125C207.877 93.9125 208.177 93.6375 208.569 93.4875C208.969 93.3292 209.481 93.25 210.106 93.25H212.544C213.269 93.25 213.831 93.3292 214.231 93.4875C214.64 93.6375 214.94 93.9125 215.131 94.3125C215.323 94.7125 215.419 95.2958 215.419 96.0625L215.356 124.875C215.356 126.333 215.102 127.733 214.594 129.075C214.086 130.408 213.365 131.621 212.431 132.712C211.506 133.796 210.419 134.704 209.169 135.438C207.294 136.563 205.252 137.125 203.044 137.125H200.794C199.311 137.125 197.894 136.879 196.544 136.387C195.202 135.887 193.986 135.179 192.894 134.262C191.802 133.337 190.894 132.25 190.169 131ZM219.401 135.375V94.9375C219.401 94.4208 219.568 94 219.901 93.675C220.235 93.35 220.693 93.1875 221.276 93.1875H233.651C235.135 93.1875 236.393 93.3542 237.426 93.6875C238.468 94.0125 239.318 94.45 239.976 95C240.643 95.5417 241.222 96.1875 241.714 96.9375C242.222 97.7458 242.631 98.7458 242.939 99.9375C243.247 101.129 243.401 102.462 243.401 103.937V109.5C243.401 110.55 243.201 111.562 242.801 112.537C242.41 113.504 241.847 114.375 241.114 115.15C240.381 115.925 239.518 116.562 238.526 117.062C237.068 117.854 235.443 118.25 233.651 118.25H229.151C228.61 118.25 228.235 118.229 228.026 118.187V135.375C228.026 135.833 227.843 136.208 227.476 136.5C227.11 136.792 226.668 136.937 226.151 136.937H221.276C220.693 136.937 220.235 136.796 219.901 136.512C219.568 136.229 219.401 135.85 219.401 135.375ZM232.464 111.5C233.122 111.5 233.722 111.337 234.264 111.013C234.806 110.687 235.235 110.25 235.551 109.7C235.868 109.142 236.026 108.533 236.026 107.875V102.875C236.026 102.2 235.872 101.592 235.564 101.05C235.256 100.508 234.831 100.083 234.289 99.775C233.747 99.4667 233.139 99.3125 232.464 99.3125H228.651C228.393 99.3125 228.16 99.4 227.951 99.575C227.751 99.7417 227.651 99.9458 227.651 100.187V110.313C227.651 110.496 227.706 110.679 227.814 110.862C227.922 111.046 228.064 111.2 228.239 111.325C228.414 111.442 228.593 111.5 228.776 111.5H232.464ZM260.155 135.312V100.375H255.093C254.551 100.375 254.114 100.242 253.78 99.975C253.447 99.7 253.28 99.3333 253.28 98.875V94.6875C253.28 94.2292 253.447 93.8667 253.78 93.6C254.114 93.325 254.551 93.1875 255.093 93.1875H273.343C273.668 93.1875 273.968 93.2583 274.243 93.4C274.526 93.5333 274.747 93.7167 274.905 93.95C275.072 94.175 275.155 94.4208 275.155 94.6875V98.875C275.155 99.1417 275.072 99.3917 274.905 99.625C274.747 99.85 274.526 100.033 274.243 100.175C273.968 100.308 273.668 100.375 273.343 100.375H268.03V135.312C268.03 135.787 267.876 136.187 267.568 136.512C267.259 136.837 266.872 137 266.405 137H261.78C261.514 137 261.251 136.925 260.993 136.775C260.743 136.617 260.539 136.408 260.38 136.15C260.23 135.892 260.155 135.612 260.155 135.312ZM279.175 131.312C278.091 129.404 277.55 127.362 277.55 125.187V104.625C277.55 103.167 277.791 101.775 278.275 100.45C278.758 99.1167 279.45 97.9167 280.35 96.85C281.258 95.7833 282.325 94.8958 283.55 94.1875C285.325 93.1458 287.325 92.625 289.55 92.625H291.612C293.037 92.625 294.408 92.8625 295.725 93.3375C297.05 93.8125 298.25 94.4917 299.325 95.375C300.4 96.2583 301.287 97.3 301.987 98.5C303.029 100.275 303.55 102.296 303.55 104.562L303.612 125.187C303.612 126.612 303.366 127.992 302.875 129.325C302.391 130.658 301.7 131.875 300.8 132.975C299.9 134.075 298.837 135 297.612 135.75C295.796 136.875 293.816 137.438 291.675 137.438H289.612C288.187 137.438 286.812 137.192 285.487 136.7C284.171 136.2 282.971 135.492 281.887 134.575C280.804 133.65 279.9 132.562 279.175 131.312ZM290.612 130.062C291.487 130.062 292.3 129.829 293.05 129.362C293.8 128.887 294.391 128.258 294.825 127.475C295.266 126.683 295.487 125.837 295.487 124.937V104.5C295.487 103.6 295.266 102.783 294.825 102.05C294.391 101.317 293.796 100.742 293.037 100.325C292.287 99.9 291.458 99.6875 290.55 99.6875H290.362C289.454 99.6875 288.616 99.9 287.85 100.325C287.091 100.742 286.487 101.317 286.037 102.05C285.587 102.783 285.362 103.6 285.362 104.5V124.937C285.362 125.837 285.587 126.683 286.037 127.475C286.487 128.258 287.096 128.887 287.862 129.362C288.629 129.829 289.462 130.062 290.362 130.062H290.612ZM316.292 135.312V95.375C316.292 95.025 316.379 94.6958 316.554 94.3875C316.729 94.0792 316.959 93.8333 317.242 93.65C317.534 93.4667 317.842 93.375 318.167 93.375H330.729C332.129 93.375 333.467 93.6042 334.742 94.0625C336.025 94.5208 337.184 95.1792 338.217 96.0375C339.25 96.8875 340.109 97.8958 340.792 99.0625C341.792 100.871 342.292 102.829 342.292 104.937L342.354 124.937C342.354 126.346 342.129 127.712 341.679 129.037C341.229 130.362 340.588 131.575 339.754 132.675C338.921 133.775 337.934 134.696 336.792 135.438C335.042 136.563 333.125 137.125 331.042 137.125H324.042C324.017 137.15 323.984 137.167 323.942 137.175C323.9 137.183 323.85 137.188 323.792 137.188H317.979C317.671 137.188 317.388 137.104 317.129 136.937C316.871 136.771 316.667 136.546 316.517 136.262C316.367 135.979 316.292 135.662 316.292 135.312ZM329.167 129.625C330.084 129.625 330.946 129.383 331.754 128.9C332.563 128.417 333.209 127.771 333.692 126.962C334.175 126.154 334.417 125.292 334.417 124.375V105.312C334.417 104.471 334.204 103.692 333.779 102.975C333.354 102.258 332.784 101.687 332.067 101.262C331.35 100.837 330.571 100.625 329.729 100.625H324.479C324.229 100.625 324.009 100.717 323.817 100.9C323.634 101.075 323.542 101.275 323.542 101.5V129.125C323.542 129.283 323.584 129.408 323.667 129.5C323.759 129.583 323.884 129.625 324.042 129.625H329.167ZM344.288 135.725C344.288 135.6 344.297 135.504 344.313 135.438L352.563 94.9375C352.655 94.4708 352.918 94.0833 353.351 93.775C353.793 93.4667 354.28 93.3125 354.813 93.3125H362.688C363.038 93.3125 363.38 93.3833 363.713 93.525C364.047 93.6667 364.33 93.8625 364.563 94.1125C364.797 94.3542 364.943 94.6292 365.001 94.9375L373.188 135.438C373.205 135.504 373.213 135.604 373.213 135.737C373.213 136.129 373.068 136.45 372.776 136.7C372.484 136.942 372.101 137.063 371.626 137.063H366.313C365.355 137.063 364.813 136.604 364.688 135.687L362.813 125.5H354.751L352.876 135.687C352.776 136.179 352.609 136.533 352.376 136.75C352.143 136.958 351.768 137.063 351.251 137.063H345.938C345.463 137.063 345.068 136.938 344.751 136.687C344.443 136.437 344.288 136.117 344.288 135.725ZM361.751 118.187L359.063 102.5C359.03 102.392 358.988 102.312 358.938 102.262C358.897 102.212 358.834 102.187 358.751 102.187C358.668 102.187 358.601 102.212 358.551 102.262C358.509 102.312 358.472 102.392 358.438 102.5L355.813 118.187H361.751ZM380.399 135.312V100.375H375.337C374.795 100.375 374.358 100.242 374.024 99.975C373.691 99.7 373.524 99.3333 373.524 98.875V94.6875C373.524 94.2292 373.691 93.8667 374.024 93.6C374.358 93.325 374.795 93.1875 375.337 93.1875H393.587C393.912 93.1875 394.212 93.2583 394.487 93.4C394.77 93.5333 394.991 93.7167 395.149 93.95C395.316 94.175 395.399 94.4208 395.399 94.6875V98.875C395.399 99.1417 395.316 99.3917 395.149 99.625C394.991 99.85 394.77 100.033 394.487 100.175C394.212 100.308 393.912 100.375 393.587 100.375H388.274V135.312C388.274 135.787 388.12 136.187 387.812 136.512C387.504 136.837 387.116 137 386.649 137H382.024C381.758 137 381.495 136.925 381.237 136.775C380.987 136.617 380.783 136.408 380.624 136.15C380.474 135.892 380.399 135.612 380.399 135.312ZM398.231 135.187V94.8125C398.231 94.3375 398.386 93.95 398.694 93.65C399.011 93.3417 399.419 93.1875 399.919 93.1875H418.356C418.831 93.1875 419.231 93.3417 419.556 93.65C419.881 93.9583 420.044 94.3458 420.044 94.8125V99.125C420.044 99.4333 419.969 99.7167 419.819 99.975C419.669 100.233 419.465 100.437 419.206 100.587C418.948 100.737 418.665 100.812 418.356 100.812H405.731V110.375H415.294C415.761 110.375 416.136 110.521 416.419 110.812C416.711 111.096 416.856 111.471 416.856 111.937V116.312C416.856 116.779 416.711 117.158 416.419 117.45C416.136 117.733 415.761 117.875 415.294 117.875H405.731V129.25H418.356C418.831 129.25 419.231 129.404 419.556 129.712C419.881 130.021 420.044 130.408 420.044 130.875V135.187C420.044 135.496 419.969 135.779 419.819 136.037C419.669 136.296 419.465 136.5 419.206 136.65C418.948 136.8 418.665 136.875 418.356 136.875H399.919C399.427 136.875 399.023 136.712 398.706 136.387C398.39 136.062 398.231 135.662 398.231 135.187ZM92.6328 204.438L85.2578 163.812C85.2411 163.754 85.2328 163.667 85.2328 163.55C85.2328 163.192 85.3703 162.887 85.6453 162.637C85.9286 162.379 86.2786 162.25 86.6953 162.25H91.1953C91.6536 162.25 92.0661 162.408 92.4328 162.725C92.7995 163.033 93.0328 163.396 93.1328 163.812L97.2578 188.875C97.2911 188.975 97.3286 189.042 97.3703 189.075C97.412 189.108 97.4786 189.125 97.5703 189.125C97.662 189.125 97.7286 189.108 97.7703 189.075C97.812 189.042 97.8495 188.975 97.8828 188.875L101.258 163.937C101.316 163.637 101.445 163.358 101.645 163.1C101.854 162.833 102.095 162.625 102.37 162.475C102.654 162.325 102.929 162.25 103.195 162.25H108.133C108.399 162.25 108.67 162.325 108.945 162.475C109.22 162.617 109.462 162.808 109.67 163.05C109.879 163.292 110.012 163.546 110.07 163.812L114.258 189.375C114.283 189.517 114.362 189.587 114.495 189.587C114.554 189.587 114.608 189.571 114.658 189.537C114.708 189.496 114.741 189.442 114.758 189.375L118.195 163.937C118.287 163.462 118.516 163.062 118.883 162.737C119.249 162.412 119.666 162.25 120.133 162.25H124.633C124.891 162.25 125.141 162.321 125.383 162.462C125.624 162.596 125.812 162.762 125.945 162.962C126.087 163.154 126.149 163.333 126.133 163.5L119.695 203.937C119.604 204.562 119.37 205.062 118.995 205.437C118.629 205.812 118.195 206 117.695 206H111.445C110.987 206 110.574 205.846 110.208 205.537C109.841 205.221 109.608 204.854 109.508 204.438L105.883 184.375L102.82 203.937C102.695 204.562 102.445 205.062 102.07 205.437C101.695 205.812 101.258 206 100.758 206H94.5703C94.262 206 93.962 205.929 93.6703 205.787C93.3786 205.637 93.137 205.442 92.9453 205.2C92.7536 204.958 92.6495 204.704 92.6328 204.438ZM130.43 204.438V164C130.43 163.525 130.584 163.125 130.892 162.8C131.201 162.475 131.588 162.312 132.055 162.312H136.68C136.946 162.312 137.201 162.387 137.442 162.537C137.684 162.687 137.876 162.892 138.017 163.15C138.167 163.408 138.242 163.692 138.242 164V204.438C138.242 204.746 138.167 205.029 138.017 205.287C137.876 205.546 137.684 205.75 137.442 205.9C137.201 206.05 136.946 206.125 136.68 206.125H132.055C131.588 206.125 131.201 205.963 130.892 205.637C130.584 205.312 130.43 204.912 130.43 204.438ZM148.785 204.312V169.375H143.723C143.181 169.375 142.743 169.242 142.41 168.975C142.077 168.7 141.91 168.333 141.91 167.875V163.687C141.91 163.229 142.077 162.867 142.41 162.6C142.743 162.325 143.181 162.187 143.723 162.187H161.973C162.298 162.187 162.598 162.258 162.873 162.4C163.156 162.533 163.377 162.717 163.535 162.95C163.702 163.175 163.785 163.421 163.785 163.687V167.875C163.785 168.142 163.702 168.392 163.535 168.625C163.377 168.85 163.156 169.033 162.873 169.175C162.598 169.308 162.298 169.375 161.973 169.375H156.66V204.312C156.66 204.787 156.506 205.187 156.198 205.512C155.889 205.837 155.502 206 155.035 206H150.41C150.143 206 149.881 205.925 149.623 205.775C149.373 205.617 149.168 205.408 149.01 205.15C148.86 204.892 148.785 204.612 148.785 204.312ZM166.555 204.312V163.937C166.555 163.671 166.634 163.412 166.792 163.162C166.951 162.912 167.155 162.708 167.405 162.55C167.655 162.392 167.913 162.312 168.18 162.312H172.805C173.28 162.312 173.68 162.467 174.005 162.775C174.33 163.083 174.492 163.471 174.492 163.937V179.375L186.305 179.313V163.937C186.305 163.671 186.384 163.412 186.542 163.162C186.709 162.912 186.926 162.708 187.192 162.55C187.467 162.392 187.755 162.312 188.055 162.312H192.555C192.855 162.312 193.138 162.392 193.405 162.55C193.68 162.708 193.896 162.912 194.055 163.162C194.221 163.412 194.305 163.671 194.305 163.937V204.312C194.305 204.621 194.226 204.904 194.067 205.162C193.909 205.421 193.692 205.625 193.417 205.775C193.151 205.925 192.863 206 192.555 206H188.055C187.746 206 187.455 205.925 187.18 205.775C186.913 205.625 186.701 205.421 186.542 205.162C186.384 204.904 186.305 204.621 186.305 204.312V186.937L174.492 187V204.312C174.492 204.621 174.417 204.904 174.267 205.162C174.117 205.421 173.913 205.625 173.655 205.775C173.396 205.925 173.113 206 172.805 206H168.18C167.913 206 167.651 205.925 167.392 205.775C167.142 205.617 166.938 205.408 166.78 205.15C166.63 204.892 166.555 204.612 166.555 204.312ZM208.736 200C207.611 198.125 207.049 196.083 207.049 193.875L206.986 165.062C206.986 164.329 207.09 163.758 207.299 163.35C207.515 162.942 207.824 162.658 208.224 162.5C208.632 162.333 209.157 162.25 209.799 162.25H212.049C212.682 162.25 213.107 162.258 213.324 162.275C213.549 162.283 213.72 162.317 213.836 162.375C213.961 162.425 214.115 162.529 214.299 162.687C214.515 162.846 214.674 163.112 214.774 163.487C214.874 163.862 214.924 164.367 214.924 165L214.986 193.5C214.986 194.417 215.207 195.271 215.649 196.062C216.099 196.846 216.703 197.471 217.461 197.937C218.22 198.396 219.04 198.625 219.924 198.625H220.924C221.824 198.625 222.649 198.396 223.399 197.937C224.157 197.471 224.757 196.846 225.199 196.062C225.64 195.279 225.861 194.425 225.861 193.5L225.924 165C225.924 164.275 226.028 163.712 226.236 163.312C226.445 162.912 226.745 162.637 227.136 162.487C227.536 162.329 228.049 162.25 228.674 162.25H231.111C231.836 162.25 232.399 162.329 232.799 162.487C233.207 162.637 233.507 162.912 233.699 163.312C233.89 163.712 233.986 164.296 233.986 165.062L233.924 193.875C233.924 195.333 233.67 196.733 233.161 198.075C232.653 199.408 231.932 200.621 230.999 201.712C230.074 202.796 228.986 203.704 227.736 204.438C225.861 205.563 223.82 206.125 221.611 206.125H219.361C217.878 206.125 216.461 205.879 215.111 205.387C213.77 204.887 212.553 204.179 211.461 203.262C210.37 202.337 209.461 201.25 208.736 200ZM239.406 203.125C238.365 201.983 237.552 200.675 236.969 199.2C236.385 197.725 236.094 196.2 236.094 194.625V194.562C236.094 194.179 236.185 193.825 236.369 193.5C236.552 193.175 236.798 192.917 237.106 192.725C237.415 192.533 237.744 192.437 238.094 192.437H242.531C242.556 192.462 242.59 192.479 242.631 192.487C242.673 192.496 242.723 192.5 242.781 192.5H242.906C243.281 192.658 243.594 192.908 243.844 193.25C244.094 193.583 244.219 193.937 244.219 194.312V194.937C244.219 195.579 244.348 196.183 244.606 196.75C244.865 197.317 245.223 197.804 245.681 198.212C246.148 198.612 246.681 198.896 247.281 199.062C247.715 199.187 248.152 199.25 248.594 199.25H248.781C248.923 199.25 249.044 199.246 249.144 199.237C249.252 199.229 249.319 199.212 249.344 199.187H249.406C250.165 199.129 250.852 198.904 251.469 198.512C252.094 198.121 252.581 197.612 252.931 196.987C253.29 196.362 253.469 195.679 253.469 194.937L253.594 191.812C253.56 190.721 253.327 189.812 252.894 189.087C252.46 188.354 251.819 187.783 250.969 187.375C249.969 186.817 248.427 186.504 246.344 186.437L245.156 186.312C242.748 186.137 240.919 185.446 239.669 184.237C238.419 183.021 237.602 181.608 237.219 180C236.844 178.392 236.656 176.621 236.656 174.687L236.719 172.5L236.781 171.625C236.998 170.242 237.194 169.183 237.369 168.45C237.552 167.717 237.81 167.054 238.144 166.462C238.477 165.871 238.96 165.279 239.594 164.687C240.585 163.696 241.769 162.95 243.144 162.45C244.519 161.95 246.023 161.717 247.656 161.75H249.594C251.052 161.75 252.448 162.033 253.781 162.6C255.115 163.158 256.302 163.958 257.344 165C258.369 166.025 259.156 167.242 259.706 168.65C260.256 170.05 260.531 171.521 260.531 173.062V173.125C260.531 173.475 260.448 173.792 260.281 174.075C260.123 174.358 259.906 174.583 259.631 174.75C259.356 174.917 259.052 175 258.719 175H254.406C253.94 174.967 253.552 174.783 253.244 174.45C252.935 174.117 252.781 173.717 252.781 173.25V172.812C252.781 172.212 252.652 171.65 252.394 171.125C252.135 170.592 251.773 170.129 251.306 169.737C250.848 169.346 250.319 169.058 249.719 168.875C249.344 168.75 248.927 168.687 248.469 168.687H247.969C247.927 168.729 247.823 168.75 247.656 168.75C246.89 168.833 246.215 169.058 245.631 169.425C245.048 169.792 244.594 170.267 244.269 170.85C243.944 171.433 243.781 172.087 243.781 172.812V176.437C243.865 177.262 244.14 177.908 244.606 178.375C245.073 178.842 245.748 179.183 246.631 179.4C247.515 179.608 248.69 179.746 250.156 179.812C253.865 180.071 256.623 181.217 258.431 183.25C260.248 185.275 261.156 188.212 261.156 192.062C261.156 193.154 261.102 194.204 260.994 195.212C260.894 196.212 260.669 197.267 260.319 198.375C259.969 199.475 259.456 200.517 258.781 201.5C257.681 203.108 256.306 204.367 254.656 205.275C253.015 206.175 251.265 206.625 249.406 206.625H247.469C245.944 206.625 244.494 206.325 243.119 205.725C241.744 205.125 240.506 204.258 239.406 203.125ZM264.234 209.688C264.234 209.479 264.318 209.292 264.484 209.125L265.859 206.688C265.884 206.663 265.901 206.629 265.909 206.588C265.918 206.546 265.922 206.496 265.922 206.438C265.922 206.313 265.893 206.204 265.834 206.113C265.776 206.029 265.701 205.971 265.609 205.937C265.201 205.779 264.868 205.508 264.609 205.125C264.359 204.742 264.234 204.304 264.234 203.812V199.125C264.234 198.7 264.33 198.317 264.522 197.975C264.722 197.625 264.989 197.354 265.322 197.162C265.664 196.971 266.03 196.875 266.422 196.875H271.234C271.643 196.875 272.018 196.975 272.359 197.175C272.709 197.375 272.984 197.65 273.184 198C273.384 198.342 273.484 198.717 273.484 199.125V203.812C273.484 204.421 273.276 204.962 272.859 205.437L269.422 210.188C269.33 210.279 269.205 210.342 269.047 210.375C268.889 210.417 268.68 210.438 268.422 210.438H264.984C264.768 210.438 264.589 210.367 264.447 210.225C264.305 210.083 264.234 209.904 264.234 209.688ZM285.59 204.312V164.375C285.59 164.025 285.677 163.696 285.852 163.387C286.027 163.079 286.257 162.833 286.54 162.65C286.832 162.467 287.14 162.375 287.465 162.375H300.027C301.427 162.375 302.765 162.604 304.04 163.062C305.323 163.521 306.482 164.179 307.515 165.037C308.548 165.887 309.407 166.896 310.09 168.062C311.09 169.871 311.59 171.829 311.59 173.937L311.652 193.937C311.652 195.346 311.427 196.712 310.977 198.037C310.527 199.362 309.886 200.575 309.052 201.675C308.219 202.775 307.232 203.696 306.09 204.438C304.34 205.563 302.423 206.125 300.34 206.125H293.34C293.315 206.15 293.282 206.167 293.24 206.175C293.198 206.183 293.148 206.188 293.09 206.188H287.277C286.969 206.188 286.686 206.104 286.427 205.937C286.169 205.771 285.965 205.546 285.815 205.262C285.665 204.979 285.59 204.662 285.59 204.312ZM298.465 198.625C299.382 198.625 300.244 198.383 301.052 197.9C301.861 197.417 302.507 196.771 302.99 195.962C303.473 195.154 303.715 194.292 303.715 193.375V174.312C303.715 173.471 303.502 172.692 303.077 171.975C302.652 171.258 302.082 170.687 301.365 170.262C300.648 169.837 299.869 169.625 299.027 169.625H293.777C293.527 169.625 293.307 169.717 293.115 169.9C292.932 170.075 292.84 170.275 292.84 170.5V198.125C292.84 198.283 292.882 198.408 292.965 198.5C293.057 198.583 293.182 198.625 293.34 198.625H298.465ZM313.586 204.725C313.586 204.6 313.595 204.504 313.611 204.438L321.861 163.937C321.953 163.471 322.215 163.083 322.649 162.775C323.09 162.467 323.578 162.312 324.111 162.312H331.986C332.336 162.312 332.678 162.383 333.011 162.525C333.345 162.667 333.628 162.862 333.861 163.112C334.095 163.354 334.24 163.629 334.299 163.937L342.486 204.438C342.503 204.504 342.511 204.604 342.511 204.737C342.511 205.129 342.365 205.45 342.074 205.7C341.782 205.942 341.399 206.063 340.924 206.063H335.611C334.653 206.063 334.111 205.604 333.986 204.687L332.111 194.5H324.049L322.174 204.687C322.074 205.179 321.907 205.533 321.674 205.75C321.44 205.958 321.065 206.063 320.549 206.063H315.236C314.761 206.063 314.365 205.938 314.049 205.687C313.74 205.437 313.586 205.117 313.586 204.725ZM331.049 187.187L328.361 171.5C328.328 171.392 328.286 171.312 328.236 171.262C328.195 171.212 328.132 171.187 328.049 171.187C327.965 171.187 327.899 171.212 327.849 171.262C327.807 171.312 327.77 171.392 327.736 171.5L325.111 187.187H331.049ZM346.26 204.438V164C346.26 163.525 346.414 163.125 346.722 162.8C347.031 162.475 347.418 162.312 347.885 162.312H352.51C352.776 162.312 353.031 162.387 353.272 162.537C353.514 162.687 353.706 162.892 353.847 163.15C353.997 163.408 354.072 163.692 354.072 164V204.438C354.072 204.746 353.997 205.029 353.847 205.287C353.706 205.546 353.514 205.75 353.272 205.9C353.031 206.05 352.776 206.125 352.51 206.125H347.885C347.418 206.125 347.031 205.963 346.722 205.637C346.414 205.312 346.26 204.912 346.26 204.438ZM359.99 204.5V163.625C359.99 163.325 360.061 163.05 360.203 162.8C360.353 162.55 360.549 162.354 360.79 162.212C361.032 162.071 361.286 162 361.553 162H366.178C366.444 162 366.699 162.071 366.94 162.212C367.182 162.354 367.374 162.55 367.515 162.8C367.665 163.05 367.74 163.325 367.74 163.625V198.312H377.115C377.582 198.312 377.949 198.446 378.215 198.712C378.482 198.979 378.615 199.346 378.615 199.812V204.5C378.615 204.925 378.478 205.283 378.203 205.575C377.936 205.858 377.574 206 377.115 206H361.49C361.224 206 360.974 205.933 360.74 205.8C360.515 205.658 360.332 205.475 360.19 205.25C360.057 205.017 359.99 204.767 359.99 204.5ZM387.512 204.562V186.75C387.395 185.817 387.103 184.817 386.637 183.75L379.387 164.812C379.262 164.562 379.199 164.292 379.199 164C379.199 163.667 379.291 163.358 379.474 163.075C379.666 162.783 379.924 162.554 380.249 162.387C380.583 162.212 380.941 162.125 381.324 162.125H385.199C386.116 162.125 386.824 162.562 387.324 163.437L391.512 175.875C391.595 175.958 391.699 176 391.824 176C391.866 176 391.928 175.958 392.012 175.875L396.324 163.437C396.449 163.062 396.691 162.75 397.049 162.5C397.408 162.25 397.791 162.125 398.199 162.125H402.137C402.537 162.125 402.899 162.217 403.224 162.4C403.549 162.575 403.803 162.812 403.987 163.112C404.17 163.412 404.262 163.729 404.262 164.062C404.262 164.162 404.245 164.296 404.212 164.462C404.178 164.629 404.153 164.746 404.137 164.812L396.762 183.75C396.387 184.75 396.137 185.75 396.012 186.75V204.562C396.012 204.871 395.92 205.154 395.737 205.412C395.553 205.671 395.308 205.875 394.999 206.025C394.691 206.175 394.362 206.25 394.012 206.25H389.449C389.116 206.25 388.799 206.175 388.499 206.025C388.208 205.875 387.97 205.671 387.787 205.412C387.603 205.146 387.512 204.862 387.512 204.562Z" fill="white"/>
<g filter="url(#filter0_d)">
<path d="M608.56 122.86C629.777 122.86 641.387 105.265 641.387 90.0326C641.387 89.5376 641.387 89.0426 641.365 88.5476C643.615 86.9276 645.572 84.8801 647.125 82.5626C645.055 83.4851 642.827 84.0926 640.487 84.3851C642.872 82.9676 644.695 80.6951 645.572 77.9951C643.345 79.3226 640.87 80.2676 638.237 80.7851C636.122 78.5351 633.13 77.1401 629.822 77.1401C623.455 77.1401 618.28 82.3151 618.28 88.6826C618.28 89.5826 618.392 90.4601 618.572 91.3151C608.987 90.8426 600.482 86.2301 594.79 79.2551C593.8 80.9651 593.237 82.9451 593.237 85.0601C593.237 89.0651 595.285 92.5976 598.367 94.6676C596.477 94.6001 594.7 94.0826 593.147 93.2276C593.147 93.2726 593.147 93.3176 593.147 93.3851C593.147 98.9651 597.13 103.645 602.395 104.703C601.427 104.973 600.415 105.108 599.357 105.108C598.615 105.108 597.895 105.04 597.197 104.905C598.66 109.495 602.935 112.825 607.975 112.915C604.015 116.02 599.042 117.865 593.642 117.865C592.72 117.865 591.797 117.82 590.897 117.708C595.982 120.948 602.057 122.86 608.56 122.86Z" fill="white" fill-opacity="0.81"/>
</g>
<g filter="url(#filter1_d)">
<path d="M631.994 168H606.005C597.18 168 590 175.18 590 184.006V209.994C590 218.82 597.18 226 606.005 226H631.994C640.82 226 648 218.819 648 209.994V184.006C648 175.18 640.82 168 631.994 168ZM642.854 209.994C642.854 215.982 637.982 220.854 631.994 220.854H606.005C600.018 220.854 595.146 215.982 595.146 209.994V184.006C595.146 178.018 600.018 173.146 606.005 173.146H631.994C637.982 173.146 642.854 178.018 642.854 184.006V209.994H642.854Z" fill="white" fill-opacity="0.81"/>
<path d="M619 182.056C610.759 182.056 604.055 188.76 604.055 197.001C604.055 205.241 610.759 211.945 619 211.945C627.241 211.945 633.945 205.241 633.945 197.001C633.945 188.76 627.241 182.056 619 182.056ZM619 206.799C613.597 206.799 609.201 202.403 609.201 197C609.201 191.597 613.596 187.201 619 187.201C624.403 187.201 628.799 191.597 628.799 197C628.799 202.403 624.403 206.799 619 206.799Z" fill="white" fill-opacity="0.81"/>
<path d="M634.572 177.692C633.58 177.692 632.606 178.093 631.906 178.797C631.202 179.496 630.798 180.471 630.798 181.466C630.798 182.457 631.203 183.431 631.906 184.135C632.606 184.835 633.58 185.239 634.572 185.239C635.566 185.239 636.537 184.835 637.241 184.135C637.944 183.431 638.345 182.457 638.345 181.466C638.345 180.471 637.944 179.496 637.241 178.797C636.541 178.093 635.566 177.692 634.572 177.692Z" fill="white" fill-opacity="0.81"/>
</g>
<path d="M691.945 86.3364C694.538 86.3364 696.816 86.8638 698.779 87.9185C700.742 88.9731 702.258 90.46 703.327 92.3789C704.411 94.2979 704.953 96.5171 704.953 99.0366C704.953 101.351 704.55 103.482 703.745 105.431C702.939 107.364 701.84 108.895 700.449 110.023C699.072 111.151 697.548 111.715 695.879 111.715C694.707 111.715 693.733 111.48 692.956 111.012C692.194 110.528 691.682 109.928 691.418 109.21C690.979 109.957 690.363 110.565 689.572 111.034C688.796 111.488 687.939 111.715 687.002 111.715C685.39 111.715 684.108 111.107 683.156 109.891C682.204 108.661 681.728 106.917 681.728 104.662C681.728 102.596 682.028 100.772 682.629 99.1904C683.244 97.5938 684.094 96.356 685.178 95.4771C686.276 94.5981 687.529 94.1587 688.935 94.1587C689.77 94.1587 690.532 94.3418 691.22 94.708C691.909 95.0596 692.48 95.4551 692.934 95.8945C693.037 95.499 693.154 95.1987 693.286 94.9937C693.418 94.7739 693.608 94.6128 693.857 94.5103C694.121 94.4077 694.494 94.3564 694.978 94.3564H695.439C696.084 94.3564 696.545 94.4443 696.823 94.6201C697.116 94.7812 697.263 95.0303 697.263 95.3672L696.933 98.5312C696.728 100.318 696.53 102.135 696.34 103.98C696.15 105.826 696.054 106.859 696.054 107.079C696.054 108.016 696.508 108.485 697.417 108.485C698.31 108.485 699.145 108.053 699.921 107.188C700.698 106.324 701.313 105.174 701.767 103.739C702.236 102.289 702.47 100.721 702.47 99.0366C702.47 96.9419 702.031 95.0962 701.152 93.4995C700.273 91.8882 699.035 90.6504 697.439 89.7861C695.857 88.9072 694.025 88.4678 691.945 88.4678C689.177 88.4678 686.635 89.1855 684.321 90.6211C682.021 92.042 680.205 93.9902 678.872 96.4658C677.539 98.9268 676.872 101.644 676.872 104.618C676.872 106.991 677.297 109.093 678.147 110.924C679.011 112.755 680.219 114.176 681.772 115.187C683.325 116.197 685.105 116.703 687.111 116.703C688.225 116.703 689.14 116.622 689.858 116.461C690.59 116.3 691.301 116.095 691.989 115.846C692.063 115.816 692.224 115.758 692.473 115.67C692.736 115.597 692.956 115.56 693.132 115.56C693.483 115.56 693.659 115.992 693.659 116.856C693.659 117.325 693.278 117.706 692.517 117.999C691.755 118.292 690.861 118.497 689.836 118.614C688.825 118.746 687.917 118.812 687.111 118.812C684.607 118.812 682.387 118.211 680.454 117.01C678.535 115.824 677.041 114.161 675.971 112.022C674.917 109.869 674.389 107.401 674.389 104.618C674.389 101.249 675.166 98.1724 676.718 95.3892C678.271 92.5913 680.388 90.3867 683.068 88.7754C685.749 87.1494 688.708 86.3364 691.945 86.3364ZM691.374 105.914C691.477 104.347 691.579 103.043 691.682 102.003C691.799 100.963 691.967 99.9229 692.187 98.8828C691.528 98.2822 690.832 97.9819 690.1 97.9819C688.986 97.9819 688.122 98.5239 687.507 99.6079C686.906 100.692 686.606 102.267 686.606 104.332C686.606 106.632 687.346 107.782 688.825 107.782C689.309 107.782 689.755 107.613 690.166 107.276C690.576 106.939 690.979 106.485 691.374 105.914ZM710.125 113.175V88.8C710.125 88.635 710.168 88.4775 710.253 88.3275C710.338 88.1775 710.455 88.0575 710.605 87.9675C710.755 87.8725 710.92 87.825 711.1 87.825H713.838C713.998 87.825 714.145 87.8725 714.28 87.9675C714.42 88.0625 714.53 88.185 714.61 88.335C714.695 88.485 714.738 88.64 714.738 88.8V95.7L719.388 88.5375C719.543 88.3425 719.728 88.1725 719.943 88.0275C720.158 87.8775 720.36 87.81 720.55 87.825L723.325 87.7875C723.555 87.7975 723.765 87.86 723.955 87.975C724.145 88.09 724.293 88.235 724.398 88.41C724.508 88.585 724.563 88.765 724.563 88.95C724.563 89.2 724.513 89.375 724.413 89.475L717.85 99.525L726.175 112.237C726.3 112.527 726.363 112.752 726.363 112.912C726.363 113.127 726.315 113.327 726.22 113.512C726.125 113.692 725.988 113.835 725.808 113.94C725.633 114.04 725.43 114.085 725.2 114.075H722.05C721.84 114.075 721.645 114.018 721.465 113.902C721.285 113.782 721.13 113.602 721 113.362L714.738 103.537V113.175C714.738 113.325 714.695 113.47 714.61 113.61C714.53 113.745 714.42 113.857 714.28 113.947C714.145 114.033 713.998 114.075 713.838 114.075H711.1C710.92 114.075 710.755 114.033 710.605 113.947C710.455 113.862 710.338 113.75 710.253 113.61C710.168 113.47 710.125 113.325 710.125 113.175ZM728.049 112.912V88.6875C728.049 88.4025 728.141 88.17 728.326 87.99C728.516 87.805 728.761 87.7125 729.061 87.7125H740.124C740.409 87.7125 740.649 87.805 740.844 87.99C741.039 88.175 741.136 88.4075 741.136 88.6875V91.275C741.136 91.46 741.091 91.63 741.001 91.785C740.911 91.94 740.789 92.0625 740.634 92.1525C740.479 92.2425 740.309 92.2875 740.124 92.2875H732.549V98.025H738.286C738.566 98.025 738.791 98.1125 738.961 98.2875C739.136 98.4575 739.224 98.6825 739.224 98.9625V101.587C739.224 101.867 739.136 102.095 738.961 102.27C738.791 102.44 738.566 102.525 738.286 102.525H732.549V109.35H740.124C740.409 109.35 740.649 109.442 740.844 109.627C741.039 109.812 741.136 110.045 741.136 110.325V112.912C741.136 113.097 741.091 113.267 741.001 113.422C740.911 113.577 740.789 113.7 740.634 113.79C740.479 113.88 740.309 113.925 740.124 113.925H729.061C728.766 113.925 728.524 113.827 728.334 113.632C728.144 113.437 728.049 113.197 728.049 112.912ZM747.45 113.137V102.45C747.38 101.89 747.205 101.29 746.925 100.65L742.575 89.2875C742.5 89.1375 742.463 88.975 742.463 88.8C742.463 88.6 742.518 88.415 742.628 88.245C742.743 88.07 742.898 87.9325 743.093 87.8325C743.293 87.7275 743.508 87.675 743.738 87.675H746.063C746.613 87.675 747.038 87.9375 747.338 88.4625L749.85 95.925C749.9 95.975 749.963 96 750.038 96C750.063 96 750.1 95.975 750.15 95.925L752.738 88.4625C752.813 88.2375 752.958 88.05 753.173 87.9C753.388 87.75 753.618 87.675 753.863 87.675H756.225C756.465 87.675 756.683 87.73 756.878 87.84C757.073 87.945 757.225 88.0875 757.335 88.2675C757.445 88.4475 757.5 88.6375 757.5 88.8375C757.5 88.8975 757.49 88.9775 757.47 89.0775C757.45 89.1775 757.435 89.2475 757.425 89.2875L753 100.65C752.775 101.25 752.625 101.85 752.55 102.45V113.137C752.55 113.322 752.495 113.492 752.385 113.647C752.275 113.802 752.128 113.925 751.943 114.015C751.758 114.105 751.56 114.15 751.35 114.15H748.613C748.413 114.15 748.223 114.105 748.043 114.015C747.868 113.925 747.725 113.802 747.615 113.647C747.505 113.487 747.45 113.317 747.45 113.137ZM759.214 112.95V88.7625C759.214 88.6025 759.259 88.455 759.349 88.32C759.444 88.18 759.571 88.07 759.731 87.99C759.891 87.905 760.069 87.8625 760.264 87.8625H771.364C771.569 87.8625 771.754 87.905 771.919 87.99C772.089 88.07 772.219 88.18 772.309 88.32C772.404 88.455 772.451 88.6025 772.451 88.7625V91.425C772.451 91.585 772.401 91.7425 772.301 91.8975C772.206 92.0475 772.074 92.17 771.904 92.265C771.739 92.355 771.559 92.4 771.364 92.4H763.751V98.1375H769.564C769.864 98.1375 770.101 98.2225 770.276 98.3925C770.451 98.5625 770.539 98.79 770.539 99.075V101.7C770.539 101.95 770.449 102.157 770.269 102.322C770.094 102.482 769.859 102.562 769.564 102.562H763.751V112.95C763.751 113.11 763.706 113.262 763.616 113.407C763.526 113.552 763.404 113.67 763.249 113.76C763.094 113.845 762.924 113.887 762.739 113.887H760.264C759.959 113.887 759.706 113.802 759.506 113.632C759.311 113.457 759.214 113.23 759.214 112.95ZM774.212 112.987V88.6875C774.212 88.5075 774.257 88.3425 774.347 88.1925C774.442 88.0425 774.565 87.925 774.715 87.84C774.865 87.755 775.022 87.7125 775.187 87.7125H779.462C779.647 87.7125 779.827 87.7475 780.002 87.8175C780.177 87.8825 780.322 87.9725 780.437 88.0875C780.552 88.2025 780.615 88.3275 780.625 88.4625L784.037 99.4875L787.45 88.4625C787.505 88.2525 787.647 88.075 787.877 87.93C788.112 87.785 788.37 87.7125 788.65 87.7125H792.925C793.205 87.7125 793.437 87.805 793.622 87.99C793.807 88.175 793.9 88.4075 793.9 88.6875V112.987C793.9 113.267 793.807 113.5 793.622 113.685C793.437 113.87 793.205 113.962 792.925 113.962H790.225C789.945 113.962 789.717 113.872 789.542 113.692C789.372 113.507 789.287 113.272 789.287 112.987V97.425L786.437 106.575C786.417 106.645 786.375 106.717 786.31 106.792C786.245 106.867 786.15 106.957 786.025 107.062L785.837 107.175C785.602 107.275 785.402 107.325 785.237 107.325H782.837C782.672 107.325 782.472 107.275 782.237 107.175L782.05 107.062C781.875 106.922 781.75 106.76 781.675 106.575L778.825 97.425V112.987C778.825 113.147 778.78 113.302 778.69 113.452C778.605 113.602 778.49 113.725 778.345 113.82C778.2 113.915 778.047 113.962 777.887 113.962H775.187C775.027 113.962 774.872 113.915 774.722 113.82C774.572 113.725 774.45 113.602 774.355 113.452C774.26 113.302 774.212 113.147 774.212 112.987ZM796.643 113.137V88.875C796.643 88.69 796.688 88.5175 796.778 88.3575C796.873 88.1925 797.001 88.0625 797.161 87.9675C797.321 87.8725 797.498 87.825 797.693 87.825H805.043C806.178 87.835 807.183 88.0675 808.058 88.5225C808.933 88.9725 809.611 89.5925 810.091 90.3825C810.576 91.1725 810.818 92.07 810.818 93.075V97.65C810.818 98.25 810.701 98.8325 810.466 99.3975C810.236 99.9625 809.911 100.475 809.491 100.935C809.076 101.395 808.593 101.775 808.043 102.075L808.081 102.15L811.831 113.175C811.856 113.2 811.868 113.287 811.868 113.437C811.868 113.592 811.801 113.725 811.666 113.835C811.531 113.945 811.361 114 811.156 114H807.893C807.733 114 807.571 113.96 807.406 113.88C807.241 113.8 807.093 113.697 806.963 113.572C806.833 113.442 806.743 113.31 806.693 113.175L803.656 103.8C803.341 103.625 803.028 103.537 802.718 103.537C802.303 103.537 801.966 103.687 801.706 103.987V113.137C801.706 113.382 801.606 113.588 801.406 113.753C801.211 113.918 800.973 114 800.693 114H797.693C797.393 114 797.143 113.918 796.943 113.753C796.743 113.588 796.643 113.382 796.643 113.137ZM803.918 99C804.298 99 804.648 98.91 804.968 98.73C805.293 98.55 805.548 98.3075 805.733 98.0025C805.923 97.6975 806.018 97.3675 806.018 97.0125V93.6C806.018 93.22 805.923 92.8725 805.733 92.5575C805.548 92.2425 805.293 91.995 804.968 91.815C804.648 91.63 804.298 91.5375 803.918 91.5375H801.856C801.726 91.5375 801.611 91.5925 801.511 91.7025C801.416 91.8075 801.368 91.9275 801.368 92.0625V98.3625C801.368 98.5325 801.431 98.6825 801.556 98.8125C801.686 98.9375 801.836 99 802.006 99H803.918ZM812.897 113.235C812.897 113.16 812.902 113.102 812.912 113.062L817.862 88.7625C817.917 88.4825 818.074 88.25 818.334 88.065C818.599 87.88 818.892 87.7875 819.212 87.7875H823.937C824.277 87.7875 824.579 87.88 824.844 88.065C825.109 88.25 825.269 88.4825 825.324 88.7625L830.237 113.062C830.247 113.102 830.252 113.162 830.252 113.242C830.252 113.477 830.164 113.67 829.989 113.82C829.814 113.965 829.584 114.038 829.299 114.038H826.112C825.537 114.038 825.212 113.762 825.137 113.212L824.012 107.1H819.174L818.049 113.212C817.989 113.507 817.889 113.72 817.749 113.85C817.609 113.975 817.384 114.038 817.074 114.038H813.887C813.602 114.038 813.364 113.963 813.174 113.812C812.989 113.662 812.897 113.47 812.897 113.235ZM823.374 102.712L821.762 93.3C821.742 93.235 821.717 93.1875 821.687 93.1575C821.662 93.1275 821.624 93.1125 821.574 93.1125C821.524 93.1125 821.484 93.1275 821.454 93.1575C821.429 93.1875 821.407 93.235 821.387 93.3L819.812 102.712H823.374ZM831.931 112.987V89.025C831.931 88.815 831.983 88.6175 832.088 88.4325C832.193 88.2475 832.331 88.1 832.501 87.99C832.676 87.88 832.861 87.825 833.056 87.825H840.593C841.433 87.825 842.236 87.9625 843.001 88.2375C843.771 88.5125 844.466 88.9075 845.086 89.4225C845.706 89.9325 846.221 90.5375 846.631 91.2375C847.231 92.3225 847.531 93.4975 847.531 94.7625L847.568 106.762C847.568 107.607 847.433 108.427 847.163 109.222C846.893 110.017 846.508 110.745 846.008 111.405C845.508 112.065 844.916 112.617 844.231 113.062C843.181 113.738 842.031 114.075 840.781 114.075H836.581C836.566 114.09 836.546 114.1 836.521 114.105C836.496 114.11 836.466 114.113 836.431 114.113H832.943C832.758 114.113 832.588 114.063 832.433 113.962C832.278 113.862 832.156 113.727 832.066 113.557C831.976 113.387 831.931 113.197 831.931 112.987ZM839.656 109.575C840.206 109.575 840.723 109.43 841.208 109.14C841.693 108.85 842.081 108.462 842.371 107.977C842.661 107.492 842.806 106.975 842.806 106.425V94.9875C842.806 94.4825 842.678 94.015 842.423 93.585C842.168 93.155 841.826 92.8125 841.396 92.5575C840.966 92.3025 840.498 92.175 839.993 92.175H836.843C836.693 92.175 836.561 92.23 836.446 92.34C836.336 92.445 836.281 92.565 836.281 92.7V109.275C836.281 109.37 836.306 109.445 836.356 109.5C836.411 109.55 836.486 109.575 836.581 109.575H839.656ZM850.761 113.062V88.8C850.761 88.515 850.853 88.275 851.038 88.08C851.223 87.885 851.456 87.7875 851.736 87.7875H854.511C854.671 87.7875 854.823 87.8325 854.968 87.9225C855.113 88.0125 855.228 88.135 855.313 88.29C855.403 88.445 855.448 88.615 855.448 88.8V113.062C855.448 113.247 855.403 113.417 855.313 113.572C855.228 113.727 855.113 113.85 854.968 113.94C854.823 114.03 854.671 114.075 854.511 114.075H851.736C851.456 114.075 851.223 113.978 851.038 113.782C850.853 113.587 850.761 113.347 850.761 113.062ZM859.899 110.587C859.249 109.442 858.924 108.217 858.924 106.912V94.575C858.924 93.7 859.069 92.865 859.359 92.07C859.649 91.27 860.064 90.55 860.604 89.91C861.149 89.27 861.789 88.7375 862.524 88.3125C863.589 87.6875 864.789 87.375 866.124 87.375H867.361C868.216 87.375 869.039 87.5175 869.829 87.8025C870.624 88.0875 871.344 88.495 871.989 89.025C872.634 89.555 873.166 90.18 873.586 90.9C874.211 91.965 874.524 93.1775 874.524 94.5375L874.561 106.912C874.561 107.767 874.414 108.595 874.119 109.395C873.829 110.195 873.414 110.925 872.874 111.585C872.334 112.245 871.696 112.8 870.961 113.25C869.871 113.925 868.684 114.263 867.399 114.263H866.161C865.306 114.263 864.481 114.115 863.686 113.82C862.896 113.52 862.176 113.095 861.526 112.545C860.876 111.99 860.334 111.337 859.899 110.587ZM866.761 109.837C867.286 109.837 867.774 109.697 868.224 109.417C868.674 109.132 869.029 108.755 869.289 108.285C869.554 107.81 869.686 107.302 869.686 106.762V94.5C869.686 93.96 869.554 93.47 869.289 93.03C869.029 92.59 868.671 92.245 868.216 91.995C867.766 91.74 867.269 91.6125 866.724 91.6125H866.611C866.066 91.6125 865.564 91.74 865.104 91.995C864.649 92.245 864.286 92.59 864.016 93.03C863.746 93.47 863.611 93.96 863.611 94.5V106.762C863.611 107.302 863.746 107.81 864.016 108.285C864.286 108.755 864.651 109.132 865.111 109.417C865.571 109.697 866.071 109.837 866.611 109.837H866.761Z" fill="white" fill-opacity="0.81"/>
<path d="M691.945 184.336C694.538 184.336 696.816 184.864 698.779 185.918C700.742 186.973 702.258 188.46 703.327 190.379C704.411 192.298 704.953 194.517 704.953 197.037C704.953 199.351 704.55 201.482 703.745 203.431C702.939 205.364 701.84 206.895 700.449 208.023C699.072 209.151 697.548 209.715 695.879 209.715C694.707 209.715 693.733 209.48 692.956 209.012C692.194 208.528 691.682 207.928 691.418 207.21C690.979 207.957 690.363 208.565 689.572 209.034C688.796 209.488 687.939 209.715 687.002 209.715C685.39 209.715 684.108 209.107 683.156 207.891C682.204 206.661 681.728 204.917 681.728 202.662C681.728 200.596 682.028 198.772 682.629 197.19C683.244 195.594 684.094 194.356 685.178 193.477C686.276 192.598 687.529 192.159 688.935 192.159C689.77 192.159 690.532 192.342 691.22 192.708C691.909 193.06 692.48 193.455 692.934 193.895C693.037 193.499 693.154 193.199 693.286 192.994C693.418 192.774 693.608 192.613 693.857 192.51C694.121 192.408 694.494 192.356 694.978 192.356H695.439C696.084 192.356 696.545 192.444 696.823 192.62C697.116 192.781 697.263 193.03 697.263 193.367L696.933 196.531C696.728 198.318 696.53 200.135 696.34 201.98C696.15 203.826 696.054 204.859 696.054 205.079C696.054 206.016 696.508 206.485 697.417 206.485C698.31 206.485 699.145 206.053 699.921 205.188C700.698 204.324 701.313 203.174 701.767 201.739C702.236 200.289 702.47 198.721 702.47 197.037C702.47 194.942 702.031 193.096 701.152 191.5C700.273 189.888 699.035 188.65 697.439 187.786C695.857 186.907 694.025 186.468 691.945 186.468C689.177 186.468 686.635 187.186 684.321 188.621C682.021 190.042 680.205 191.99 678.872 194.466C677.539 196.927 676.872 199.644 676.872 202.618C676.872 204.991 677.297 207.093 678.147 208.924C679.011 210.755 680.219 212.176 681.772 213.187C683.325 214.197 685.105 214.703 687.111 214.703C688.225 214.703 689.14 214.622 689.858 214.461C690.59 214.3 691.301 214.095 691.989 213.846C692.063 213.816 692.224 213.758 692.473 213.67C692.736 213.597 692.956 213.56 693.132 213.56C693.483 213.56 693.659 213.992 693.659 214.856C693.659 215.325 693.278 215.706 692.517 215.999C691.755 216.292 690.861 216.497 689.836 216.614C688.825 216.746 687.917 216.812 687.111 216.812C684.607 216.812 682.387 216.211 680.454 215.01C678.535 213.824 677.041 212.161 675.971 210.022C674.917 207.869 674.389 205.401 674.389 202.618C674.389 199.249 675.166 196.172 676.718 193.389C678.271 190.591 680.388 188.387 683.068 186.775C685.749 185.149 688.708 184.336 691.945 184.336ZM691.374 203.914C691.477 202.347 691.579 201.043 691.682 200.003C691.799 198.963 691.967 197.923 692.187 196.883C691.528 196.282 690.832 195.982 690.1 195.982C688.986 195.982 688.122 196.524 687.507 197.608C686.906 198.692 686.606 200.267 686.606 202.332C686.606 204.632 687.346 205.782 688.825 205.782C689.309 205.782 689.755 205.613 690.166 205.276C690.576 204.939 690.979 204.485 691.374 203.914ZM710.125 211.175V186.8C710.125 186.635 710.168 186.477 710.253 186.327C710.338 186.177 710.455 186.057 710.605 185.967C710.755 185.872 710.92 185.825 711.1 185.825H713.838C713.998 185.825 714.145 185.872 714.28 185.967C714.42 186.062 714.53 186.185 714.61 186.335C714.695 186.485 714.738 186.64 714.738 186.8V193.7L719.388 186.537C719.543 186.342 719.728 186.172 719.943 186.027C720.158 185.877 720.36 185.81 720.55 185.825L723.325 185.787C723.555 185.797 723.765 185.86 723.955 185.975C724.145 186.09 724.293 186.235 724.398 186.41C724.508 186.585 724.563 186.765 724.563 186.95C724.563 187.2 724.513 187.375 724.413 187.475L717.85 197.525L726.175 210.237C726.3 210.527 726.363 210.752 726.363 210.912C726.363 211.127 726.315 211.327 726.22 211.512C726.125 211.692 725.988 211.835 725.808 211.94C725.633 212.04 725.43 212.085 725.2 212.075H722.05C721.84 212.075 721.645 212.018 721.465 211.902C721.285 211.782 721.13 211.602 721 211.362L714.738 201.537V211.175C714.738 211.325 714.695 211.47 714.61 211.61C714.53 211.745 714.42 211.857 714.28 211.947C714.145 212.033 713.998 212.075 713.838 212.075H711.1C710.92 212.075 710.755 212.033 710.605 211.947C710.455 211.862 710.338 211.75 710.253 211.61C710.168 211.47 710.125 211.325 710.125 211.175ZM728.049 210.912V186.687C728.049 186.402 728.141 186.17 728.326 185.99C728.516 185.805 728.761 185.712 729.061 185.712H740.124C740.409 185.712 740.649 185.805 740.844 185.99C741.039 186.175 741.136 186.407 741.136 186.687V189.275C741.136 189.46 741.091 189.63 741.001 189.785C740.911 189.94 740.789 190.062 740.634 190.152C740.479 190.242 740.309 190.287 740.124 190.287H732.549V196.025H738.286C738.566 196.025 738.791 196.112 738.961 196.287C739.136 196.457 739.224 196.682 739.224 196.962V199.587C739.224 199.867 739.136 200.095 738.961 200.27C738.791 200.44 738.566 200.525 738.286 200.525H732.549V207.35H740.124C740.409 207.35 740.649 207.442 740.844 207.627C741.039 207.812 741.136 208.045 741.136 208.325V210.912C741.136 211.097 741.091 211.267 741.001 211.422C740.911 211.577 740.789 211.7 740.634 211.79C740.479 211.88 740.309 211.925 740.124 211.925H729.061C728.766 211.925 728.524 211.827 728.334 211.632C728.144 211.437 728.049 211.197 728.049 210.912ZM747.45 211.137V200.45C747.38 199.89 747.205 199.29 746.925 198.65L742.575 187.287C742.5 187.137 742.463 186.975 742.463 186.8C742.463 186.6 742.518 186.415 742.628 186.245C742.743 186.07 742.898 185.932 743.093 185.832C743.293 185.727 743.508 185.675 743.738 185.675H746.063C746.613 185.675 747.038 185.937 747.338 186.462L749.85 193.925C749.9 193.975 749.963 194 750.038 194C750.063 194 750.1 193.975 750.15 193.925L752.738 186.462C752.813 186.237 752.958 186.05 753.173 185.9C753.388 185.75 753.618 185.675 753.863 185.675H756.225C756.465 185.675 756.683 185.73 756.878 185.84C757.073 185.945 757.225 186.087 757.335 186.267C757.445 186.447 757.5 186.637 757.5 186.837C757.5 186.897 757.49 186.977 757.47 187.077C757.45 187.177 757.435 187.247 757.425 187.287L753 198.65C752.775 199.25 752.625 199.85 752.55 200.45V211.137C752.55 211.322 752.495 211.492 752.385 211.647C752.275 211.802 752.128 211.925 751.943 212.015C751.758 212.105 751.56 212.15 751.35 212.15H748.613C748.413 212.15 748.223 212.105 748.043 212.015C747.868 211.925 747.725 211.802 747.615 211.647C747.505 211.487 747.45 211.317 747.45 211.137ZM759.214 210.95V186.762C759.214 186.602 759.259 186.455 759.349 186.32C759.444 186.18 759.571 186.07 759.731 185.99C759.891 185.905 760.069 185.862 760.264 185.862H771.364C771.569 185.862 771.754 185.905 771.919 185.99C772.089 186.07 772.219 186.18 772.309 186.32C772.404 186.455 772.451 186.602 772.451 186.762V189.425C772.451 189.585 772.401 189.742 772.301 189.897C772.206 190.047 772.074 190.17 771.904 190.265C771.739 190.355 771.559 190.4 771.364 190.4H763.751V196.137H769.564C769.864 196.137 770.101 196.222 770.276 196.392C770.451 196.562 770.539 196.79 770.539 197.075V199.7C770.539 199.95 770.449 200.157 770.269 200.322C770.094 200.482 769.859 200.562 769.564 200.562H763.751V210.95C763.751 211.11 763.706 211.262 763.616 211.407C763.526 211.552 763.404 211.67 763.249 211.76C763.094 211.845 762.924 211.887 762.739 211.887H760.264C759.959 211.887 759.706 211.802 759.506 211.632C759.311 211.457 759.214 211.23 759.214 210.95ZM774.212 210.987V186.687C774.212 186.507 774.257 186.342 774.347 186.192C774.442 186.042 774.565 185.925 774.715 185.84C774.865 185.755 775.022 185.712 775.187 185.712H779.462C779.647 185.712 779.827 185.747 780.002 185.817C780.177 185.882 780.322 185.972 780.437 186.087C780.552 186.202 780.615 186.327 780.625 186.462L784.037 197.487L787.45 186.462C787.505 186.252 787.647 186.075 787.877 185.93C788.112 185.785 788.37 185.712 788.65 185.712H792.925C793.205 185.712 793.437 185.805 793.622 185.99C793.807 186.175 793.9 186.407 793.9 186.687V210.987C793.9 211.267 793.807 211.5 793.622 211.685C793.437 211.87 793.205 211.962 792.925 211.962H790.225C789.945 211.962 789.717 211.872 789.542 211.692C789.372 211.507 789.287 211.272 789.287 210.987V195.425L786.437 204.575C786.417 204.645 786.375 204.717 786.31 204.792C786.245 204.867 786.15 204.957 786.025 205.062L785.837 205.175C785.602 205.275 785.402 205.325 785.237 205.325H782.837C782.672 205.325 782.472 205.275 782.237 205.175L782.05 205.062C781.875 204.922 781.75 204.76 781.675 204.575L778.825 195.425V210.987C778.825 211.147 778.78 211.302 778.69 211.452C778.605 211.602 778.49 211.725 778.345 211.82C778.2 211.915 778.047 211.962 777.887 211.962H775.187C775.027 211.962 774.872 211.915 774.722 211.82C774.572 211.725 774.45 211.602 774.355 211.452C774.26 211.302 774.212 211.147 774.212 210.987ZM796.643 211.137V186.875C796.643 186.69 796.688 186.517 796.778 186.357C796.873 186.192 797.001 186.062 797.161 185.967C797.321 185.872 797.498 185.825 797.693 185.825H805.043C806.178 185.835 807.183 186.067 808.058 186.522C808.933 186.972 809.611 187.592 810.091 188.382C810.576 189.172 810.818 190.07 810.818 191.075V195.65C810.818 196.25 810.701 196.832 810.466 197.397C810.236 197.962 809.911 198.475 809.491 198.935C809.076 199.395 808.593 199.775 808.043 200.075L808.081 200.15L811.831 211.175C811.856 211.2 811.868 211.287 811.868 211.437C811.868 211.592 811.801 211.725 811.666 211.835C811.531 211.945 811.361 212 811.156 212H807.893C807.733 212 807.571 211.96 807.406 211.88C807.241 211.8 807.093 211.697 806.963 211.572C806.833 211.442 806.743 211.31 806.693 211.175L803.656 201.8C803.341 201.625 803.028 201.537 802.718 201.537C802.303 201.537 801.966 201.687 801.706 201.987V211.137C801.706 211.382 801.606 211.588 801.406 211.753C801.211 211.918 800.973 212 800.693 212H797.693C797.393 212 797.143 211.918 796.943 211.753C796.743 211.588 796.643 211.382 796.643 211.137ZM803.918 197C804.298 197 804.648 196.91 804.968 196.73C805.293 196.55 805.548 196.307 805.733 196.002C805.923 195.697 806.018 195.367 806.018 195.012V191.6C806.018 191.22 805.923 190.872 805.733 190.557C805.548 190.242 805.293 189.995 804.968 189.815C804.648 189.63 804.298 189.537 803.918 189.537H801.856C801.726 189.537 801.611 189.592 801.511 189.702C801.416 189.807 801.368 189.927 801.368 190.062V196.362C801.368 196.532 801.431 196.682 801.556 196.812C801.686 196.937 801.836 197 802.006 197H803.918ZM812.897 211.235C812.897 211.16 812.902 211.102 812.912 211.062L817.862 186.762C817.917 186.482 818.074 186.25 818.334 186.065C818.599 185.88 818.892 185.787 819.212 185.787H823.937C824.277 185.787 824.579 185.88 824.844 186.065C825.109 186.25 825.269 186.482 825.324 186.762L830.237 211.062C830.247 211.102 830.252 211.162 830.252 211.242C830.252 211.477 830.164 211.67 829.989 211.82C829.814 211.965 829.584 212.038 829.299 212.038H826.112C825.537 212.038 825.212 211.762 825.137 211.212L824.012 205.1H819.174L818.049 211.212C817.989 211.507 817.889 211.72 817.749 211.85C817.609 211.975 817.384 212.038 817.074 212.038H813.887C813.602 212.038 813.364 211.963 813.174 211.812C812.989 211.662 812.897 211.47 812.897 211.235ZM823.374 200.712L821.762 191.3C821.742 191.235 821.717 191.187 821.687 191.157C821.662 191.127 821.624 191.112 821.574 191.112C821.524 191.112 821.484 191.127 821.454 191.157C821.429 191.187 821.407 191.235 821.387 191.3L819.812 200.712H823.374ZM831.931 210.987V187.025C831.931 186.815 831.983 186.617 832.088 186.432C832.193 186.247 832.331 186.1 832.501 185.99C832.676 185.88 832.861 185.825 833.056 185.825H840.593C841.433 185.825 842.236 185.962 843.001 186.237C843.771 186.512 844.466 186.907 845.086 187.422C845.706 187.932 846.221 188.537 846.631 189.237C847.231 190.322 847.531 191.497 847.531 192.762L847.568 204.762C847.568 205.607 847.433 206.427 847.163 207.222C846.893 208.017 846.508 208.745 846.008 209.405C845.508 210.065 844.916 210.617 844.231 211.062C843.181 211.738 842.031 212.075 840.781 212.075H836.581C836.566 212.09 836.546 212.1 836.521 212.105C836.496 212.11 836.466 212.113 836.431 212.113H832.943C832.758 212.113 832.588 212.063 832.433 211.962C832.278 211.862 832.156 211.727 832.066 211.557C831.976 211.387 831.931 211.197 831.931 210.987ZM839.656 207.575C840.206 207.575 840.723 207.43 841.208 207.14C841.693 206.85 842.081 206.462 842.371 205.977C842.661 205.492 842.806 204.975 842.806 204.425V192.987C842.806 192.482 842.678 192.015 842.423 191.585C842.168 191.155 841.826 190.812 841.396 190.557C840.966 190.302 840.498 190.175 839.993 190.175H836.843C836.693 190.175 836.561 190.23 836.446 190.34C836.336 190.445 836.281 190.565 836.281 190.7V207.275C836.281 207.37 836.306 207.445 836.356 207.5C836.411 207.55 836.486 207.575 836.581 207.575H839.656ZM850.761 211.062V186.8C850.761 186.515 850.853 186.275 851.038 186.08C851.223 185.885 851.456 185.787 851.736 185.787H854.511C854.671 185.787 854.823 185.832 854.968 185.922C855.113 186.012 855.228 186.135 855.313 186.29C855.403 186.445 855.448 186.615 855.448 186.8V211.062C855.448 211.247 855.403 211.417 855.313 211.572C855.228 211.727 855.113 211.85 854.968 211.94C854.823 212.03 854.671 212.075 854.511 212.075H851.736C851.456 212.075 851.223 211.978 851.038 211.782C850.853 211.587 850.761 211.347 850.761 211.062ZM859.899 208.587C859.249 207.442 858.924 206.217 858.924 204.912V192.575C858.924 191.7 859.069 190.865 859.359 190.07C859.649 189.27 860.064 188.55 860.604 187.91C861.149 187.27 861.789 186.737 862.524 186.312C863.589 185.687 864.789 185.375 866.124 185.375H867.361C868.216 185.375 869.039 185.517 869.829 185.802C870.624 186.087 871.344 186.495 871.989 187.025C872.634 187.555 873.166 188.18 873.586 188.9C874.211 189.965 874.524 191.177 874.524 192.537L874.561 204.912C874.561 205.767 874.414 206.595 874.119 207.395C873.829 208.195 873.414 208.925 872.874 209.585C872.334 210.245 871.696 210.8 870.961 211.25C869.871 211.925 868.684 212.263 867.399 212.263H866.161C865.306 212.263 864.481 212.115 863.686 211.82C862.896 211.52 862.176 211.095 861.526 210.545C860.876 209.99 860.334 209.337 859.899 208.587ZM866.761 207.837C867.286 207.837 867.774 207.697 868.224 207.417C868.674 207.132 869.029 206.755 869.289 206.285C869.554 205.81 869.686 205.302 869.686 204.762V192.5C869.686 191.96 869.554 191.47 869.289 191.03C869.029 190.59 868.671 190.245 868.216 189.995C867.766 189.74 867.269 189.612 866.724 189.612H866.611C866.066 189.612 865.564 189.74 865.104 189.995C864.649 190.245 864.286 190.59 864.016 191.03C863.746 191.47 863.611 191.96 863.611 192.5V204.762C863.611 205.302 863.746 205.81 864.016 206.285C864.286 206.755 864.651 207.132 865.111 207.417C865.571 207.697 866.071 207.837 866.611 207.837H866.761Z" fill="white" fill-opacity="0.81"/>
<defs>
<filter id="filter0_d" x="570" y="55" width="98" height="98" filterUnits="userSpaceOnUse" color-interpolation-filters="sRGB">
<feFlood flood-opacity="0" result="BackgroundImageFix"/>
<feColorMatrix in="SourceAlpha" type="matrix" values="0 0 0 0 0 0 0 0 0 0 0 0 0 0 0 0 0 0 127 0"/>
<feOffset dy="4"/>
<feGaussianBlur stdDeviation="2"/>
<feColorMatrix type="matrix" values="0 0 0 0 0 0 0 0 0 0 0 0 0 0 0 0 0 0 0.25 0"/>
<feBlend mode="normal" in2="BackgroundImageFix" result="effect1_dropShadow"/>
<feBlend mode="normal" in="SourceGraphic" in2="effect1_dropShadow" result="shape"/>
</filter>
<filter id="filter1_d" x="586" y="168" width="66" height="66" filterUnits="userSpaceOnUse" color-interpolation-filters="sRGB">
<feFlood flood-opacity="0" result="BackgroundImageFix"/>
<feColorMatrix in="SourceAlpha" type="matrix" values="0 0 0 0 0 0 0 0 0 0 0 0 0 0 0 0 0 0 127 0"/>
<feOffset dy="4"/>
<feGaussianBlur stdDeviation="2"/>
<feColorMatrix type="matrix" values="0 0 0 0 0 0 0 0 0 0 0 0 0 0 0 0 0 0 0.25 0"/>
<feBlend mode="normal" in2="BackgroundImageFix" result="effect1_dropShadow"/>
<feBlend mode="normal" in="SourceGraphic" in2="effect1_dropShadow" result="shape"/>
</filter>
<linearGradient id="paint0_linear" x1="20" y1="269" x2="901.501" y2="68.5035" gradientUnits="userSpaceOnUse">
<stop offset="0.066821" stop-color="#84078F"/>
<stop offset="1" stop-color="#0384A0"/>
</linearGradient>
</defs>
</svg>
