<svg width="794" height="380" viewBox="0 0 794 380" fill="none" xmlns="http://www.w3.org/2000/svg">
<rect width="794" height="380" fill="url(#paint0_linear)"/>
<path d="M203.192 138.969L193.605 86.1562C193.583 86.0804 193.572 85.9667 193.572 85.815C193.572 85.3492 193.751 84.9537 194.108 84.6287C194.477 84.2929 194.932 84.125 195.473 84.125H201.323C201.919 84.125 202.455 84.3308 202.932 84.7425C203.409 85.1433 203.712 85.6146 203.842 86.1562L209.205 118.737C209.248 118.867 209.297 118.954 209.351 118.997C209.405 119.041 209.492 119.062 209.611 119.062C209.73 119.062 209.817 119.041 209.871 118.997C209.925 118.954 209.974 118.867 210.017 118.737L214.405 86.3187C214.48 85.9287 214.648 85.5658 214.908 85.23C215.179 84.8833 215.493 84.6125 215.851 84.4175C216.219 84.2225 216.577 84.125 216.923 84.125H223.342C223.689 84.125 224.041 84.2225 224.398 84.4175C224.756 84.6017 225.07 84.8508 225.341 85.165C225.612 85.4792 225.785 85.8096 225.861 86.1562L231.305 119.387C231.337 119.572 231.44 119.664 231.613 119.664C231.689 119.664 231.76 119.642 231.825 119.599C231.89 119.545 231.933 119.474 231.955 119.387L236.423 86.3187C236.543 85.7012 236.84 85.1812 237.317 84.7587C237.794 84.3362 238.335 84.125 238.942 84.125H244.792C245.128 84.125 245.453 84.2171 245.767 84.4012C246.081 84.5746 246.325 84.7912 246.498 85.0512C246.683 85.3004 246.764 85.5333 246.742 85.75L238.373 138.319C238.254 139.131 237.951 139.781 237.463 140.269C236.987 140.756 236.423 141 235.773 141H227.648C227.053 141 226.516 140.8 226.04 140.399C225.563 139.987 225.26 139.51 225.13 138.969L220.417 112.887L216.436 138.319C216.273 139.131 215.948 139.781 215.461 140.269C214.973 140.756 214.405 141 213.755 141H205.711C205.31 141 204.92 140.908 204.541 140.724C204.162 140.529 203.848 140.274 203.598 139.96C203.349 139.646 203.214 139.315 203.192 138.969ZM251.191 138.644V86.1562C251.191 85.5387 251.391 85.035 251.792 84.645C252.203 84.2442 252.734 84.0437 253.384 84.0437H277.353C277.971 84.0437 278.491 84.2442 278.913 84.645C279.336 85.0458 279.547 85.5496 279.547 86.1562V91.7625C279.547 92.1633 279.449 92.5317 279.254 92.8675C279.059 93.2033 278.794 93.4687 278.458 93.6637C278.122 93.8587 277.754 93.9562 277.353 93.9562H260.941V106.387H273.372C273.978 106.387 274.466 106.577 274.834 106.956C275.213 107.325 275.403 107.812 275.403 108.419V114.106C275.403 114.713 275.213 115.206 274.834 115.585C274.466 115.953 273.978 116.137 273.372 116.137H260.941V130.925H277.353C277.971 130.925 278.491 131.125 278.913 131.526C279.336 131.927 279.547 132.431 279.547 133.037V138.644C279.547 139.045 279.449 139.413 279.254 139.749C279.059 140.085 278.794 140.35 278.458 140.545C278.122 140.74 277.754 140.837 277.353 140.837H253.384C252.745 140.837 252.22 140.626 251.808 140.204C251.396 139.781 251.191 139.261 251.191 138.644ZM303.14 138.969L293.552 86.1562C293.531 86.0804 293.52 85.9667 293.52 85.815C293.52 85.3492 293.698 84.9537 294.056 84.6287C294.424 84.2929 294.879 84.125 295.421 84.125H301.271C301.867 84.125 302.403 84.3308 302.88 84.7425C303.356 85.1433 303.66 85.6146 303.79 86.1562L309.152 118.737C309.196 118.867 309.244 118.954 309.298 118.997C309.353 119.041 309.439 119.062 309.558 119.062C309.678 119.062 309.764 119.041 309.818 118.997C309.873 118.954 309.921 118.867 309.965 118.737L314.352 86.3187C314.428 85.9287 314.596 85.5658 314.856 85.23C315.127 84.8833 315.441 84.6125 315.798 84.4175C316.167 84.2225 316.524 84.125 316.871 84.125H323.29C323.636 84.125 323.988 84.2225 324.346 84.4175C324.703 84.6017 325.018 84.8508 325.288 85.165C325.559 85.4792 325.733 85.8096 325.808 86.1562L331.252 119.387C331.285 119.572 331.388 119.664 331.561 119.664C331.637 119.664 331.707 119.642 331.772 119.599C331.837 119.545 331.881 119.474 331.902 119.387L336.371 86.3187C336.49 85.7012 336.788 85.1812 337.265 84.7587C337.741 84.3362 338.283 84.125 338.89 84.125H344.74C345.076 84.125 345.401 84.2171 345.715 84.4012C346.029 84.5746 346.273 84.7912 346.446 85.0512C346.63 85.3004 346.711 85.5333 346.69 85.75L338.321 138.319C338.202 139.131 337.898 139.781 337.411 140.269C336.934 140.756 336.371 141 335.721 141H327.596C327 141 326.464 140.8 325.987 140.399C325.511 139.987 325.207 139.51 325.077 138.969L320.365 112.887L316.383 138.319C316.221 139.131 315.896 139.781 315.408 140.269C314.921 140.756 314.352 141 313.702 141H305.658C305.258 141 304.868 140.908 304.488 140.724C304.109 140.529 303.795 140.274 303.546 139.96C303.297 139.646 303.161 139.315 303.14 138.969ZM347.856 139.342C347.856 139.18 347.867 139.055 347.888 138.969L358.613 86.3187C358.732 85.7121 359.074 85.2083 359.637 84.8075C360.211 84.4067 360.845 84.2062 361.538 84.2062H371.776C372.231 84.2062 372.675 84.2983 373.108 84.4825C373.542 84.6667 373.91 84.9212 374.213 85.2462C374.517 85.5604 374.706 85.9179 374.782 86.3187L385.426 138.969C385.447 139.055 385.458 139.185 385.458 139.359C385.458 139.868 385.269 140.285 384.889 140.61C384.51 140.924 384.012 141.081 383.394 141.081H376.488C375.242 141.081 374.538 140.485 374.376 139.294L371.938 126.05H361.457L359.019 139.294C358.889 139.933 358.673 140.393 358.369 140.675C358.066 140.946 357.579 141.081 356.907 141.081H350.001C349.383 141.081 348.869 140.919 348.457 140.594C348.056 140.269 347.856 139.852 347.856 139.342ZM370.557 116.544L367.063 96.15C367.02 96.0092 366.966 95.9062 366.901 95.8412C366.847 95.7762 366.765 95.7437 366.657 95.7437C366.549 95.7437 366.462 95.7762 366.397 95.8412C366.343 95.9062 366.294 96.0092 366.251 96.15L362.838 116.544H370.557ZM389.112 138.725V86.1562C389.112 85.7554 389.215 85.3871 389.421 85.0512C389.627 84.7154 389.903 84.45 390.25 84.255C390.607 84.06 390.987 83.9625 391.387 83.9625H401.056C401.479 83.9625 401.901 84.06 402.324 84.255C402.746 84.4392 403.114 84.6883 403.429 85.0025C403.743 85.3167 403.954 85.6471 404.062 85.9937L415.844 121.256L415.031 86.1562C415.031 85.5387 415.232 85.0187 415.632 84.5962C416.033 84.1737 416.537 83.9625 417.144 83.9625H423.319C423.654 83.9625 423.985 84.0546 424.31 84.2387C424.635 84.4121 424.9 84.6287 425.106 84.8887C425.323 85.1379 425.431 85.3708 425.431 85.5875V138.156C425.431 139.001 425.231 139.673 424.83 140.171C424.44 140.67 423.936 140.919 423.319 140.919H414.95C414.354 140.919 413.769 140.718 413.195 140.317C412.621 139.906 412.231 139.429 412.025 138.887L398.862 102.894L399.594 138.725C399.594 139.342 399.388 139.862 398.976 140.285C398.564 140.707 398.039 140.919 397.4 140.919H391.387C390.987 140.919 390.607 140.821 390.25 140.626C389.903 140.431 389.627 140.166 389.421 139.83C389.215 139.494 389.112 139.126 389.112 138.725ZM436.727 138.806V93.3875H430.146C429.442 93.3875 428.873 93.2142 428.44 92.8675C428.007 92.51 427.79 92.0333 427.79 91.4375V85.9937C427.79 85.3979 428.007 84.9267 428.44 84.58C428.873 84.2225 429.442 84.0437 430.146 84.0437H453.871C454.294 84.0437 454.684 84.1358 455.041 84.32C455.41 84.4933 455.697 84.7317 455.902 85.035C456.119 85.3275 456.227 85.6471 456.227 85.9937V91.4375C456.227 91.7842 456.119 92.1092 455.902 92.4125C455.697 92.705 455.41 92.9433 455.041 93.1275C454.684 93.3008 454.294 93.3875 453.871 93.3875H446.965V138.806C446.965 139.424 446.765 139.944 446.364 140.366C445.963 140.789 445.459 141 444.852 141H438.84C438.493 141 438.152 140.902 437.816 140.707C437.491 140.502 437.226 140.231 437.02 139.895C436.825 139.559 436.727 139.196 436.727 138.806ZM478.84 139.131V115.975C478.689 114.762 478.309 113.462 477.703 112.075L468.278 87.4562C468.115 87.1312 468.034 86.7792 468.034 86.4C468.034 85.9667 468.153 85.5658 468.392 85.1975C468.641 84.8183 468.977 84.5204 469.399 84.3037C469.832 84.0762 470.298 83.9625 470.797 83.9625H475.834C477.026 83.9625 477.947 84.5312 478.597 85.6687L484.04 101.837C484.149 101.946 484.284 102 484.447 102C484.501 102 484.582 101.946 484.69 101.837L490.297 85.6687C490.459 85.1812 490.773 84.775 491.239 84.45C491.705 84.125 492.203 83.9625 492.734 83.9625H497.853C498.373 83.9625 498.844 84.0817 499.267 84.32C499.689 84.5475 500.019 84.8562 500.258 85.2462C500.496 85.6362 500.615 86.0479 500.615 86.4812C500.615 86.6112 500.594 86.7846 500.55 87.0012C500.507 87.2179 500.474 87.3696 500.453 87.4562L490.865 112.075C490.378 113.375 490.053 114.675 489.89 115.975V139.131C489.89 139.532 489.771 139.9 489.533 140.236C489.294 140.572 488.975 140.837 488.574 141.033C488.173 141.228 487.745 141.325 487.29 141.325H481.359C480.926 141.325 480.514 141.228 480.124 141.033C479.745 140.837 479.436 140.572 479.198 140.236C478.959 139.89 478.84 139.521 478.84 139.131ZM505.952 133.606C504.544 131.125 503.84 128.471 503.84 125.644V98.9125C503.84 97.0167 504.154 95.2075 504.782 93.485C505.411 91.7517 506.31 90.1917 507.48 88.805C508.661 87.4183 510.047 86.2646 511.64 85.3437C513.947 83.9896 516.547 83.3125 519.44 83.3125H522.121C523.974 83.3125 525.756 83.6212 527.467 84.2387C529.19 84.8562 530.75 85.7392 532.147 86.8875C533.545 88.0358 534.699 89.39 535.609 90.95C536.963 93.2575 537.64 95.8846 537.64 98.8312L537.721 125.644C537.721 127.496 537.402 129.289 536.762 131.022C536.134 132.756 535.235 134.337 534.065 135.767C532.895 137.197 531.514 138.4 529.921 139.375C527.56 140.837 524.987 141.569 522.202 141.569H519.521C517.669 141.569 515.881 141.249 514.159 140.61C512.447 139.96 510.887 139.039 509.479 137.847C508.07 136.645 506.895 135.231 505.952 133.606ZM520.821 131.981C521.959 131.981 523.015 131.678 523.99 131.071C524.965 130.454 525.734 129.636 526.297 128.617C526.872 127.588 527.159 126.489 527.159 125.319V98.75C527.159 97.58 526.872 96.5183 526.297 95.565C525.734 94.6117 524.96 93.8642 523.974 93.3225C522.999 92.77 521.921 92.4937 520.74 92.4937H520.496C519.315 92.4937 518.227 92.77 517.23 93.3225C516.244 93.8642 515.459 94.6117 514.874 95.565C514.289 96.5183 513.996 97.58 513.996 98.75V125.319C513.996 126.489 514.289 127.588 514.874 128.617C515.459 129.636 516.25 130.454 517.246 131.071C518.243 131.678 519.326 131.981 520.496 131.981H520.821ZM545.674 133.2C544.211 130.762 543.48 128.108 543.48 125.237L543.399 87.7812C543.399 86.8279 543.534 86.0858 543.805 85.555C544.086 85.0242 544.487 84.6558 545.007 84.45C545.538 84.2333 546.221 84.125 547.055 84.125H549.98C550.803 84.125 551.356 84.1358 551.637 84.1575C551.93 84.1683 552.152 84.2117 552.304 84.2875C552.466 84.3525 552.666 84.4879 552.905 84.6937C553.186 84.8996 553.392 85.2462 553.522 85.7337C553.652 86.2212 553.717 86.8767 553.717 87.7L553.799 124.75C553.799 125.942 554.086 127.052 554.66 128.081C555.245 129.1 556.03 129.912 557.016 130.519C558.002 131.115 559.069 131.412 560.217 131.412H561.517C562.687 131.412 563.76 131.115 564.735 130.519C565.721 129.912 566.501 129.1 567.075 128.081C567.649 127.063 567.936 125.952 567.936 124.75L568.017 87.7C568.017 86.7575 568.153 86.0262 568.424 85.5062C568.694 84.9862 569.084 84.6287 569.594 84.4337C570.114 84.2279 570.78 84.125 571.592 84.125H574.761C575.704 84.125 576.435 84.2279 576.955 84.4337C577.486 84.6287 577.876 84.9862 578.125 85.5062C578.374 86.0262 578.499 86.7846 578.499 87.7812L578.417 125.237C578.417 127.133 578.087 128.953 577.426 130.697C576.765 132.431 575.828 134.007 574.615 135.426C573.412 136.835 571.999 138.015 570.374 138.969C567.936 140.431 565.282 141.163 562.411 141.163H559.486C557.558 141.163 555.716 140.843 553.961 140.204C552.217 139.554 550.635 138.633 549.216 137.441C547.797 136.239 546.616 134.825 545.674 133.2ZM585.138 124.019L584.488 86.5625C584.445 85.5983 584.645 84.8996 585.089 84.4662C585.544 84.0329 586.265 83.8379 587.251 83.8812H594.319C595.034 83.8812 595.582 83.93 595.961 84.0275C596.351 84.125 596.649 84.3417 596.854 84.6775C597.06 85.0133 597.163 85.5333 597.163 86.2375L596.351 124.1C596.351 124.598 596.161 125.01 595.782 125.335C595.414 125.649 594.926 125.806 594.319 125.806H587.251C586.622 125.806 586.113 125.633 585.723 125.286C585.333 124.94 585.138 124.517 585.138 124.019ZM584.732 137.994V131.819C584.732 131.266 584.862 130.768 585.122 130.324C585.382 129.869 585.734 129.517 586.178 129.267C586.622 129.018 587.115 128.894 587.657 128.894H593.832C594.395 128.894 594.904 129.018 595.359 129.267C595.825 129.517 596.188 129.863 596.448 130.307C596.708 130.752 596.838 131.255 596.838 131.819V137.994C596.838 138.557 596.703 139.066 596.432 139.521C596.172 139.976 595.814 140.339 595.359 140.61C594.904 140.87 594.395 141 593.832 141H587.657C587.126 141 586.633 140.87 586.178 140.61C585.734 140.339 585.382 139.976 585.122 139.521C584.862 139.066 584.732 138.557 584.732 137.994Z" fill="white"/>
<defs>
<linearGradient id="paint0_linear" x1="15.88" y1="309.281" x2="734.276" y2="196.44" gradientUnits="userSpaceOnUse">
<stop offset="0.066821" stop-color="#07468F"/>
<stop offset="1" stop-color="#0690AE"/>
</linearGradient>
</defs>
</svg>
