<?xml version="1.0" encoding="utf-8"?>
<!-- Generator: Adobe Illustrator 24.0.1, SVG Export Plug-In . SVG Version: 6.00 Build 0)  -->
<svg version="1.1" id="Layer_1" xmlns="http://www.w3.org/2000/svg" xmlns:xlink="http://www.w3.org/1999/xlink" x="0px" y="0px"
	 viewBox="0 0 1000 331" style="enable-background:new 0 0 1000 331;" xml:space="preserve">
<style type="text/css">
	.st0{fill:url(#SVGID_1_);}
	.st1{fill:#FFFFFF;}
	.st2{fill-rule:evenodd;clip-rule:evenodd;fill:#FFFFFF;}
</style>
<linearGradient id="SVGID_1_" gradientUnits="userSpaceOnUse" x1="49.4114" y1="50.3241" x2="914.4124" y2="273.8207" gradientTransform="matrix(1 0 0 -1 0 332)">
	<stop  offset="0" style="stop-color:#5F20AE"/>
	<stop  offset="0.5132" style="stop-color:#8C42EB"/>
	<stop  offset="1" style="stop-color:#863D88"/>
</linearGradient>
<rect class="st0" width="1000" height="330.5"/>
<g>
	<path class="st1" d="M75.8,163.1l-10.3-56.9c0-0.1,0-0.2,0-0.4c0-0.5,0.2-0.9,0.6-1.3c0.4-0.4,0.9-0.5,1.5-0.5h6.3
		c0.6,0,1.2,0.2,1.7,0.7c0.5,0.4,0.8,0.9,1,1.5l5.8,35.1c0,0.1,0.1,0.2,0.2,0.3c0.1,0,0.2,0.1,0.3,0.1s0.2,0,0.3-0.1
		c0.1,0,0.1-0.1,0.2-0.3l4.7-34.9c0.1-0.4,0.3-0.8,0.6-1.2c0.3-0.4,0.6-0.7,1-0.9c0.4-0.2,0.8-0.3,1.1-0.3h6.9
		c0.4,0,0.8,0.1,1.1,0.3c0.4,0.2,0.7,0.5,1,0.8c0.3,0.3,0.5,0.7,0.6,1.1l5.9,35.8c0,0.2,0.1,0.3,0.3,0.3c0.1,0,0.2,0,0.2-0.1
		c0.1-0.1,0.1-0.1,0.1-0.2l4.8-35.6c0.1-0.7,0.4-1.2,1-1.7c0.5-0.5,1.1-0.7,1.8-0.7h6.3c0.4,0,0.7,0.1,1,0.3
		c0.3,0.2,0.6,0.4,0.8,0.7c0.2,0.3,0.3,0.5,0.3,0.8l-9,56.6c-0.1,0.9-0.5,1.6-1,2.1s-1.1,0.8-1.8,0.8h-8.8c-0.6,0-1.2-0.2-1.7-0.7
		c-0.5-0.4-0.8-0.9-1-1.5L94.4,135l-4.3,27.4c-0.2,0.9-0.5,1.6-1,2.1s-1.1,0.8-1.8,0.8h-8.7c-0.4,0-0.9-0.1-1.3-0.3s-0.7-0.5-1-0.8
		C76,163.8,75.9,163.4,75.8,163.1z"/>
	<path class="st1" d="M125.4,163.5c0-0.2,0-0.3,0-0.4l11.6-56.7c0.1-0.7,0.5-1.2,1.1-1.6c0.6-0.4,1.3-0.6,2-0.6h11
		c0.5,0,1,0.1,1.4,0.3c0.5,0.2,0.9,0.5,1.2,0.8c0.3,0.3,0.5,0.7,0.6,1.2l11.5,56.7c0,0.1,0,0.2,0,0.4c0,0.5-0.2,1-0.6,1.3
		c-0.4,0.3-0.9,0.5-1.6,0.5h-7.4c-1.3,0-2.1-0.6-2.3-1.9l-2.6-14.3h-11.3l-2.6,14.3c-0.1,0.7-0.4,1.2-0.7,1.5
		c-0.3,0.3-0.9,0.4-1.6,0.4h-7.4c-0.7,0-1.2-0.2-1.7-0.5S125.4,164,125.4,163.5z M149.9,138.9l-3.8-22c0-0.2-0.1-0.3-0.2-0.3
		c-0.1-0.1-0.2-0.1-0.3-0.1s-0.2,0-0.3,0.1c-0.1,0.1-0.1,0.2-0.2,0.3l-3.7,22H149.9z"/>
	<path class="st1" d="M171.2,162.8v-56.6c0-0.4,0.1-0.8,0.3-1.2c0.2-0.4,0.5-0.6,0.9-0.9s0.8-0.3,1.2-0.3h10.4
		c0.5,0,0.9,0.1,1.4,0.3s0.9,0.5,1.2,0.8c0.3,0.3,0.6,0.7,0.7,1.1l12.7,38l-0.9-37.8c0-0.7,0.2-1.2,0.6-1.7c0.4-0.5,1-0.7,1.6-0.7
		h6.7c0.4,0,0.7,0.1,1.1,0.3c0.3,0.2,0.6,0.4,0.9,0.7c0.2,0.3,0.3,0.5,0.3,0.8v56.6c0,0.9-0.2,1.6-0.6,2.2s-1,0.8-1.6,0.8h-9
		c-0.6,0-1.3-0.2-1.9-0.7c-0.6-0.4-1-0.9-1.3-1.5l-14.2-38.8l0.8,38.6c0,0.7-0.2,1.2-0.7,1.7s-1,0.7-1.7,0.7h-6.5
		c-0.4,0-0.8-0.1-1.2-0.3s-0.7-0.5-0.9-0.9C171.3,163.6,171.2,163.2,171.2,162.8z"/>
	<path class="st1" d="M217.8,162.8v-56.6c0-0.4,0.1-0.8,0.3-1.2c0.2-0.4,0.5-0.6,0.9-0.9s0.8-0.3,1.2-0.3h10.4
		c0.5,0,0.9,0.1,1.4,0.3s0.9,0.5,1.2,0.8c0.3,0.3,0.6,0.7,0.7,1.1l12.7,38l-0.9-37.8c0-0.7,0.2-1.2,0.6-1.7c0.4-0.5,1-0.7,1.6-0.7
		h6.7c0.4,0,0.7,0.1,1.1,0.3c0.3,0.2,0.6,0.4,0.9,0.7c0.2,0.3,0.3,0.5,0.3,0.8v56.6c0,0.9-0.2,1.6-0.6,2.2s-1,0.8-1.6,0.8h-9
		c-0.6,0-1.3-0.2-1.9-0.7c-0.6-0.4-1-0.9-1.3-1.5l-14.2-38.8l0.8,38.6c0,0.7-0.2,1.2-0.7,1.7s-1,0.7-1.7,0.7h-6.5
		c-0.4,0-0.8-0.1-1.2-0.3s-0.7-0.5-0.9-0.9C217.9,163.6,217.8,163.2,217.8,162.8z"/>
	<path class="st1" d="M260.9,163.5c0-0.2,0-0.3,0-0.4l11.5-56.7c0.1-0.7,0.5-1.2,1.1-1.6c0.6-0.4,1.3-0.6,2-0.6h11
		c0.5,0,1,0.1,1.4,0.3c0.5,0.2,0.9,0.5,1.2,0.8c0.3,0.3,0.5,0.7,0.6,1.2l11.5,56.7c0,0.1,0,0.2,0,0.4c0,0.5-0.2,1-0.6,1.3
		s-0.9,0.5-1.6,0.5h-7.4c-1.3,0-2.1-0.6-2.3-1.9l-2.6-14.3h-11.3l-2.6,14.3c-0.1,0.7-0.4,1.2-0.7,1.5c-0.3,0.3-0.9,0.4-1.6,0.4h-7.4
		c-0.7,0-1.2-0.2-1.7-0.5S260.9,164,260.9,163.5z M285.3,138.9l-3.8-22c0-0.2-0.1-0.3-0.2-0.3c-0.1-0.1-0.2-0.1-0.3-0.1
		s-0.2,0-0.3,0.1c-0.1,0.1-0.1,0.2-0.2,0.3l-3.7,22H285.3z"/>
	<path class="st1" d="M322,157.3c-1.5-2.6-2.2-5.4-2.2-8.6v-29c0-2,0.3-3.9,1-5.7c0.6-1.8,1.6-3.5,2.8-5c1.2-1.5,2.6-2.7,4.3-3.7
		c2.4-1.5,5.1-2.2,8-2.2h2.8c2,0,3.8,0.3,5.6,1s3.4,1.6,4.9,2.8c1.4,1.2,2.6,2.7,3.6,4.4c1.4,2.5,2.1,5.3,2.1,8.4v0.1
		c0,0.5-0.1,0.9-0.3,1.3s-0.5,0.8-0.9,1c-0.4,0.3-0.8,0.4-1.2,0.4h-6c-0.5,0-0.9-0.1-1.3-0.4c-0.4-0.3-0.7-0.6-1-1s-0.4-0.9-0.4-1.3
		v-0.3c0-1.3-0.3-2.5-0.9-3.5c-0.6-1-1.4-1.8-2.4-2.4c-1-0.6-2.2-0.9-3.4-0.9h-0.3c-1.2,0-2.3,0.3-3.4,0.9c-1,0.6-1.9,1.4-2.5,2.5
		c-0.6,1-0.9,2.2-0.9,3.4v28.6c0,1.2,0.3,2.4,0.9,3.5c0.6,1.1,1.5,2,2.5,2.7s2.1,1,3.3,1h0.3c1.2,0,2.3-0.3,3.4-1
		c1-0.6,1.8-1.5,2.4-2.6c0.6-1.1,0.9-2.3,0.9-3.6c0-0.5,0.1-0.9,0.4-1.3c0.2-0.4,0.6-0.7,1-1s0.8-0.4,1.3-0.4h6
		c0.5,0,0.9,0.1,1.3,0.4s0.7,0.5,0.9,0.9c0.2,0.4,0.3,0.8,0.3,1.3v0.4c0,2.1-0.3,4-1,5.9c-0.6,1.9-1.6,3.6-2.8,5.1s-2.6,2.8-4.2,3.8
		c-2.5,1.6-5.3,2.4-8.2,2.4H336c-2,0-3.8-0.3-5.6-1s-3.4-1.7-4.8-3C324.1,160.6,322.9,159,322,157.3z"/>
	<path class="st1" d="M362.1,162.9v-56.5c0-0.4,0.1-0.7,0.3-1.1c0.2-0.3,0.5-0.6,0.9-0.9c0.3-0.2,0.7-0.3,1.1-0.3h6.5
		c0.7,0,1.2,0.2,1.7,0.6c0.5,0.4,0.7,1,0.7,1.6V128l16.5-0.1v-21.5c0-0.4,0.1-0.7,0.3-1.1c0.2-0.3,0.5-0.6,0.9-0.9
		c0.4-0.2,0.8-0.3,1.2-0.3h6.3c0.4,0,0.8,0.1,1.2,0.3c0.4,0.2,0.7,0.5,0.9,0.9c0.2,0.4,0.3,0.7,0.3,1.1v56.5c0,0.4-0.1,0.8-0.3,1.2
		s-0.5,0.6-0.9,0.9s-0.8,0.3-1.2,0.3h-6.3c-0.4,0-0.8-0.1-1.2-0.3s-0.7-0.5-0.9-0.9s-0.3-0.8-0.3-1.2v-24.3l-16.5,0.1v24.2
		c0,0.4-0.1,0.8-0.3,1.2s-0.5,0.6-0.9,0.9c-0.4,0.2-0.8,0.3-1.2,0.3h-6.5c-0.4,0-0.7-0.1-1.1-0.3c-0.4-0.2-0.6-0.5-0.9-0.9
		C362.3,163.7,362.1,163.3,362.1,162.9z"/>
	<path class="st1" d="M405,163.5c0-0.2,0-0.3,0-0.4l11.5-56.7c0.1-0.7,0.5-1.2,1.1-1.6c0.6-0.4,1.3-0.6,2-0.6h11
		c0.5,0,1,0.1,1.4,0.3c0.5,0.2,0.9,0.5,1.2,0.8c0.3,0.3,0.5,0.7,0.6,1.2l11.5,56.7c0,0.1,0,0.2,0,0.4c0,0.5-0.2,1-0.6,1.3
		s-0.9,0.5-1.6,0.5h-7.4c-1.3,0-2.1-0.6-2.3-1.9l-2.6-14.3h-11.3l-2.6,14.3c-0.1,0.7-0.4,1.2-0.7,1.5c-0.3,0.3-0.9,0.4-1.6,0.4h-7.4
		c-0.7,0-1.2-0.2-1.7-0.5S405,164,405,163.5z M429.4,138.9l-3.8-22c0-0.2-0.1-0.3-0.2-0.3c-0.1-0.1-0.2-0.1-0.3-0.1s-0.2,0-0.3,0.1
		c-0.1,0.1-0.1,0.2-0.2,0.3l-3.7,22H429.4z"/>
	<path class="st1" d="M456.9,162.9V114h-7.1c-0.8,0-1.4-0.2-1.8-0.6c-0.5-0.4-0.7-0.9-0.7-1.5V106c0-0.6,0.2-1.2,0.7-1.5
		c0.5-0.4,1.1-0.6,1.8-0.6h25.6c0.5,0,0.9,0.1,1.3,0.3c0.4,0.2,0.7,0.4,0.9,0.8c0.2,0.3,0.3,0.7,0.3,1v5.9c0,0.4-0.1,0.7-0.3,1
		c-0.2,0.3-0.5,0.6-0.9,0.8c-0.4,0.2-0.8,0.3-1.3,0.3h-7.4v48.9c0,0.7-0.2,1.2-0.6,1.7c-0.4,0.5-1,0.7-1.6,0.7h-6.5
		c-0.4,0-0.7-0.1-1.1-0.3c-0.4-0.2-0.6-0.5-0.9-0.9C457,163.7,456.9,163.3,456.9,162.9z"/>
	<path class="st1" d="M504,163.1l-10.3-56.9c0-0.1,0-0.2,0-0.4c0-0.5,0.2-0.9,0.6-1.3c0.4-0.4,0.9-0.5,1.5-0.5h6.3
		c0.6,0,1.2,0.2,1.7,0.7s0.8,0.9,1,1.5l5.8,35.1c0,0.1,0.1,0.2,0.2,0.3c0.1,0,0.2,0.1,0.3,0.1c0.1,0,0.2,0,0.3-0.1
		c0.1,0,0.1-0.1,0.2-0.3l4.7-34.9c0.1-0.4,0.3-0.8,0.6-1.2c0.3-0.4,0.6-0.7,1-0.9c0.4-0.2,0.8-0.3,1.1-0.3h6.9
		c0.4,0,0.8,0.1,1.1,0.3c0.4,0.2,0.7,0.5,1,0.8c0.3,0.3,0.5,0.7,0.6,1.1l5.9,35.8c0,0.2,0.1,0.3,0.3,0.3c0.1,0,0.2,0,0.2-0.1
		c0.1-0.1,0.1-0.1,0.1-0.2l4.8-35.6c0.1-0.7,0.4-1.2,1-1.7s1.1-0.7,1.8-0.7h6.3c0.4,0,0.7,0.1,1,0.3c0.3,0.2,0.6,0.4,0.8,0.7
		c0.2,0.3,0.3,0.5,0.3,0.8l-9,56.6c-0.1,0.9-0.5,1.6-1,2.1s-1.1,0.8-1.8,0.8h-8.8c-0.6,0-1.2-0.2-1.7-0.7s-0.8-0.9-1-1.5l-5.1-28.1
		l-4.3,27.4c-0.2,0.9-0.5,1.6-1.1,2.1s-1.1,0.8-1.8,0.8h-8.7c-0.4,0-0.9-0.1-1.3-0.3s-0.7-0.5-1-0.8
		C504.2,163.8,504,163.4,504,163.1z"/>
	<path class="st1" d="M558.3,163.1v-56.6c0-0.7,0.2-1.2,0.6-1.7s1-0.7,1.6-0.7h6.5c0.4,0,0.7,0.1,1.1,0.3s0.6,0.5,0.8,0.9
		c0.2,0.4,0.3,0.8,0.3,1.2v56.6c0,0.4-0.1,0.8-0.3,1.2c-0.2,0.4-0.5,0.6-0.8,0.9s-0.7,0.3-1.1,0.3h-6.5c-0.7,0-1.2-0.2-1.6-0.7
		C558.5,164.3,558.3,163.7,558.3,163.1z"/>
	<path class="st1" d="M585.4,162.9V114h-7.1c-0.8,0-1.4-0.2-1.8-0.6c-0.5-0.4-0.7-0.9-0.7-1.5V106c0-0.6,0.2-1.2,0.7-1.5
		c0.5-0.4,1.1-0.6,1.8-0.6h25.6c0.5,0,0.9,0.1,1.3,0.3c0.4,0.2,0.7,0.4,0.9,0.8c0.2,0.3,0.3,0.7,0.3,1v5.9c0,0.4-0.1,0.7-0.3,1
		c-0.2,0.3-0.5,0.6-0.9,0.8c-0.4,0.2-0.8,0.3-1.3,0.3h-7.4v48.9c0,0.7-0.2,1.2-0.6,1.7c-0.4,0.5-1,0.7-1.6,0.7h-6.5
		c-0.4,0-0.7-0.1-1.1-0.3s-0.6-0.5-0.9-0.9C585.6,163.7,585.4,163.3,585.4,162.9z"/>
	<path class="st1" d="M611.7,162.9v-56.5c0-0.4,0.1-0.7,0.3-1.1c0.2-0.3,0.5-0.6,0.9-0.9c0.3-0.2,0.7-0.3,1.1-0.3h6.5
		c0.7,0,1.2,0.2,1.7,0.6c0.5,0.4,0.7,1,0.7,1.6V128l16.5-0.1v-21.5c0-0.4,0.1-0.7,0.3-1.1c0.2-0.3,0.5-0.6,0.9-0.9
		c0.4-0.2,0.8-0.3,1.2-0.3h6.3c0.4,0,0.8,0.1,1.2,0.3c0.4,0.2,0.7,0.5,0.9,0.9c0.2,0.4,0.3,0.7,0.3,1.1v56.5c0,0.4-0.1,0.8-0.3,1.2
		c-0.2,0.4-0.5,0.6-0.9,0.9s-0.8,0.3-1.2,0.3h-6.3c-0.4,0-0.8-0.1-1.2-0.3s-0.7-0.5-0.9-0.9c-0.2-0.4-0.3-0.8-0.3-1.2v-24.3
		l-16.5,0.1v24.2c0,0.4-0.1,0.8-0.3,1.2c-0.2,0.4-0.5,0.6-0.9,0.9c-0.4,0.2-0.8,0.3-1.2,0.3H614c-0.4,0-0.7-0.1-1.1-0.3
		s-0.6-0.5-0.9-0.9C611.8,163.7,611.7,163.3,611.7,162.9z"/>
	<path class="st1" d="M673.7,161.4c0-0.1,0-0.2,0.1-0.3l0.4-3.8c0.1-0.4,0.4-0.7,0.7-0.9c0.3-0.3,0.7-0.4,1.1-0.4h59.8
		c0.4,0,0.7,0.1,1,0.3c0.2,0.2,0.3,0.5,0.3,0.8l0,0.2l-0.5,3.8c0,0.3-0.2,0.6-0.6,0.9c-0.3,0.3-0.7,0.4-1.1,0.4H675
		c-0.3,0-0.6-0.1-0.9-0.3C673.8,161.9,673.7,161.7,673.7,161.4z M679.2,112.8l0.6-3.8c0-0.4,0.2-0.7,0.6-0.9
		c0.4-0.3,0.8-0.4,1.2-0.4h59.8c0.4,0,0.7,0.1,0.9,0.3c0.2,0.2,0.4,0.4,0.4,0.7c0,0.1,0,0.2-0.1,0.4l-0.4,3.8c0,0.4-0.3,0.7-0.6,1
		s-0.7,0.5-1.1,0.5h-59.9c-0.5,0-0.8-0.1-1.1-0.4C679.3,113.6,679.2,113.3,679.2,112.8z M680.4,150.5c0-0.1,0-0.2,0-0.2l4.5-26h-3.8
		c-0.4,0-0.7-0.1-1-0.3c-0.3-0.2-0.4-0.4-0.3-0.8l0.7-3c0-0.1,0.1-0.3,0.2-0.5c0.2-0.2,0.3-0.3,0.6-0.4c0.2-0.1,0.5-0.2,0.7-0.2
		h13.5c0.3,0,0.6,0.1,0.9,0.3c0.2,0.2,0.3,0.4,0.3,0.8l-0.6,3c0,0.3-0.2,0.6-0.5,0.8c-0.3,0.2-0.6,0.3-1,0.3h-3.8l-4.6,26
		c0,0.4-0.2,0.6-0.5,0.9c-0.3,0.2-0.6,0.4-1,0.4h-3.4c-0.3,0-0.5-0.1-0.7-0.3C680.4,151,680.4,150.8,680.4,150.5z M693.6,150.3
		l5.3-29.8c0-0.4,0.2-0.6,0.5-0.9s0.7-0.4,1.1-0.4h3.3c0.3,0,0.6,0.1,0.8,0.3c0.2,0.2,0.3,0.4,0.3,0.8l0,0.2l-2,11.3h8.7l2.1-11.3
		c0-0.4,0.2-0.6,0.5-0.9c0.3-0.2,0.6-0.4,1-0.4h3.3c0.3,0,0.6,0.1,0.9,0.4c0.2,0.2,0.3,0.5,0.3,0.9l-5.4,29.8c0,0.3-0.2,0.6-0.5,0.9
		s-0.6,0.4-0.9,0.4h-3.4c-0.3,0-0.5-0.1-0.7-0.3c-0.2-0.2-0.3-0.4-0.3-0.8l0-0.2l2.1-12.9h-8.7l-2.4,12.9c0,0.3-0.2,0.6-0.5,0.9
		c-0.3,0.2-0.6,0.4-0.9,0.4h-3.4c-0.3,0-0.6-0.1-0.8-0.4C693.6,150.9,693.5,150.6,693.6,150.3z M717.7,150.2l0.5-3.2l2-10.8l0.6-3.1
		l1.6-9.5l0.6-3.1c0-0.3,0.2-0.6,0.5-0.8c0.3-0.3,0.6-0.4,1-0.4h13.3c0.3,0,0.6,0.1,0.8,0.4c0.2,0.3,0.3,0.5,0.3,0.8l-0.5,3.1
		c0,0.3-0.2,0.6-0.5,0.8c-0.3,0.2-0.6,0.3-0.9,0.3h-9.2l-1.2,7.1h6.9c0.3,0,0.5,0.1,0.7,0.2c0.2,0.2,0.3,0.4,0.3,0.6
		c0,0.2,0,0.3-0.1,0.4l-0.4,3.1c0,0.3-0.2,0.6-0.5,0.9c-0.3,0.2-0.6,0.4-0.9,0.4h-6.9l-1.5,8.3h9c0.3,0,0.6,0.1,0.8,0.3
		c0.2,0.2,0.3,0.4,0.3,0.6c0,0.1,0,0.2-0.1,0.3l-0.5,3.2c-0.1,0.4-0.3,0.7-0.6,0.9c-0.3,0.2-0.6,0.3-0.9,0.3h-13.4
		c-0.3,0-0.6-0.1-0.8-0.4S717.7,150.5,717.7,150.2z"/>
	<path class="st1" d="M765.5,162.9V107c0-0.5,0.1-1,0.4-1.4c0.2-0.4,0.6-0.8,1-1c0.4-0.3,0.8-0.4,1.3-0.4h17.6c2,0,3.8,0.3,5.6,1
		s3.4,1.6,4.9,2.8c1.4,1.2,2.6,2.6,3.6,4.2c1.4,2.5,2.1,5.3,2.1,8.2l0.1,28c0,2-0.3,3.9-0.9,5.7c-0.6,1.9-1.5,3.6-2.7,5.1
		c-1.2,1.5-2.5,2.8-4.1,3.9c-2.4,1.6-5.1,2.4-8,2.4h-9.8c0,0-0.1,0.1-0.1,0.1c-0.1,0-0.1,0-0.2,0h-8.1c-0.4,0-0.8-0.1-1.2-0.4
		c-0.4-0.2-0.6-0.5-0.9-0.9C765.6,163.8,765.5,163.4,765.5,162.9z M783.5,154.9c1.3,0,2.5-0.3,3.6-1c1.1-0.7,2-1.6,2.7-2.7
		c0.7-1.1,1-2.3,1-3.6v-26.7c0-1.2-0.3-2.3-0.9-3.3s-1.4-1.8-2.4-2.4c-1-0.6-2.1-0.9-3.3-0.9H777c-0.3,0-0.7,0.1-0.9,0.4
		c-0.3,0.3-0.4,0.5-0.4,0.8v38.7c0,0.2,0.1,0.4,0.2,0.5s0.3,0.2,0.5,0.2H783.5z"/>
	<path class="st1" d="M817.7,165.4c-0.8-0.3-1.4-0.6-1.9-0.9c-0.5-0.3-1.1-0.6-1.6-1c-0.6-0.4-1.4-1.1-2.7-2
		c-2.7-2.6-4.1-5.8-4.1-9.5v-0.2c0-0.4,0.1-0.7,0.4-1.1c0.2-0.4,0.6-0.7,1-0.9c0.4-0.2,0.8-0.4,1.3-0.4h5.6c0.7,0,1.3,0.2,1.7,0.7
		c0.4,0.5,0.7,1,0.7,1.7v0.4c0,0.7,0.1,1.3,0.4,1.9c0.3,0.6,0.7,1.2,1.3,1.7c0.6,0.4,1.2,0.7,1.9,0.9c0.7,0.2,1.4,0.3,2.1,0.3h0.3
		c1.1,0,2.1-0.1,2.9-0.4s1.5-0.7,2-1.2c0.5-0.5,0.7-1.1,0.7-1.8l-0.1-12.7v-35c0-0.4,0.1-0.7,0.3-1c0.2-0.3,0.5-0.6,0.9-0.8
		s0.8-0.3,1.2-0.3h5.4c0.4,0,0.7,0.1,1.1,0.3c0.3,0.2,0.6,0.4,0.9,0.8c0.2,0.3,0.3,0.7,0.3,1V152c0,4.7-1.1,8.1-3.2,10.1
		c-1.4,1.3-3.1,2.3-5,3.1c-1.9,0.8-3.8,1.2-5.6,1.2c-2.2,0-3.8-0.1-4.9-0.2C819.8,166.1,818.7,165.8,817.7,165.4z"/>
	<path class="st1" d="M845.9,120.4c0-0.3,0.1-0.5,0.3-0.7l1.8-3.1c0,0,0.1-0.1,0.1-0.1c0-0.1,0-0.1,0-0.2c0-0.2,0-0.3-0.1-0.4
		c-0.1-0.1-0.2-0.2-0.3-0.2c-0.5-0.2-1-0.6-1.3-1c-0.3-0.5-0.5-1-0.5-1.7v-6c0-0.5,0.1-1,0.4-1.5c0.3-0.4,0.6-0.8,1-1
		c0.4-0.3,0.9-0.4,1.4-0.4h6.2c0.5,0,1,0.1,1.5,0.4c0.4,0.3,0.8,0.6,1.1,1.1s0.4,0.9,0.4,1.5v6c0,0.8-0.3,1.5-0.8,2.1l-4.4,6.1
		c-0.1,0.1-0.3,0.2-0.5,0.3c-0.2,0.1-0.5,0.1-0.8,0.1h-4.4c-0.3,0-0.5-0.1-0.7-0.3C846,120.9,845.9,120.7,845.9,120.4z"/>
	<path class="st1" d="M866,161.2c-1.5-1.6-2.6-3.4-3.4-5.5s-1.2-4.2-1.2-6.4v-0.1c0-0.5,0.1-1,0.4-1.5c0.3-0.5,0.6-0.8,1-1.1
		c0.4-0.3,0.9-0.4,1.4-0.4h6.2c0,0,0.1,0.1,0.1,0.1s0.1,0,0.2,0h0.2c0.5,0.2,1,0.6,1.3,1c0.3,0.5,0.5,1,0.5,1.5v0.9
		c0,0.9,0.2,1.7,0.5,2.5c0.4,0.8,0.9,1.5,1.5,2c0.6,0.6,1.4,1,2.2,1.2c0.6,0.2,1.2,0.3,1.8,0.3h0.3c0.2,0,0.4,0,0.5,0
		c0.1,0,0.2,0,0.3-0.1h0.1c1.1-0.1,2-0.4,2.9-0.9s1.6-1.3,2-2.1s0.7-1.8,0.7-2.9l0.2-4.4c0-1.5-0.4-2.8-1-3.8s-1.5-1.8-2.7-2.4
		c-1.4-0.8-3.6-1.2-6.5-1.3l-1.7-0.2c-3.4-0.2-5.9-1.2-7.7-2.9c-1.8-1.7-2.9-3.7-3.4-5.9c-0.5-2.3-0.8-4.7-0.8-7.4l0.1-3.1l0.1-1.2
		c0.3-1.9,0.6-3.4,0.8-4.4c0.3-1,0.6-2,1.1-2.8c0.5-0.8,1.1-1.7,2-2.5c1.4-1.4,3-2.4,5-3.1c1.9-0.7,4-1,6.3-1h2.7c2,0,4,0.4,5.9,1.2
		c1.9,0.8,3.5,1.9,5,3.4c1.4,1.4,2.5,3.1,3.3,5.1c0.8,2,1.2,4,1.2,6.2v0.1c0,0.5-0.1,0.9-0.3,1.3c-0.2,0.4-0.5,0.7-0.9,0.9
		c-0.4,0.2-0.8,0.4-1.3,0.4h-6c-0.7,0-1.2-0.3-1.6-0.8s-0.6-1-0.6-1.7v-0.6c0-0.8-0.2-1.6-0.5-2.4c-0.4-0.7-0.9-1.4-1.5-1.9
		c-0.6-0.5-1.4-1-2.2-1.2c-0.5-0.2-1.1-0.3-1.8-0.3H878c-0.1,0.1-0.2,0.1-0.4,0.1c-1.1,0.1-2,0.4-2.8,0.9c-0.8,0.5-1.5,1.2-1.9,2
		c-0.5,0.8-0.7,1.7-0.7,2.7v5.1c0.1,1.2,0.5,2.1,1.2,2.7c0.7,0.7,1.6,1.1,2.8,1.4c1.2,0.3,2.9,0.5,4.9,0.6c5.2,0.4,9.1,2,11.6,4.8
		c2.5,2.8,3.8,7,3.8,12.3c0,1.5-0.1,3-0.2,4.4c-0.1,1.4-0.5,2.9-1,4.4s-1.2,3-2.2,4.4c-1.5,2.3-3.5,4-5.8,5.3
		c-2.3,1.3-4.8,1.9-7.4,1.9h-2.7c-2.1,0-4.2-0.4-6.1-1.3C869.2,164,867.5,162.8,866,161.2z"/>
	<path class="st1" d="M910.1,146.2c0-0.3,0-0.5,0-0.8c0-0.3,0-0.6-0.1-0.9c-0.1-1.1-0.1-1.8-0.1-2.2c0-2,0.3-3.7,0.9-5.1
		c0.6-1.4,1.7-2.7,3.3-3.9c1.6-1.2,3.8-2.2,6.6-3.2c1.3-0.8,2.2-1.6,2.6-2.5c0.5-0.9,0.7-1.9,0.8-2.9v-5.8c0-1-0.2-1.9-0.7-2.8
		s-1.1-1.5-1.9-2.1s-1.8-0.9-2.9-1c-0.2,0-0.4,0-0.4-0.1h-0.6c-0.6,0-1.2,0.1-1.8,0.3c-0.8,0.3-1.6,0.7-2.2,1.2
		c-0.6,0.6-1.1,1.2-1.5,2c-0.3,0.8-0.5,1.6-0.5,2.4v0.6c0,0.7-0.2,1.2-0.7,1.7c-0.5,0.5-1,0.7-1.7,0.8h-5.9c-0.5,0-0.9-0.1-1.3-0.4
		c-0.4-0.2-0.7-0.5-0.9-0.9c-0.2-0.4-0.3-0.8-0.3-1.3v-0.1c0-2.1,0.4-4.2,1.1-6.2c0.8-2,1.8-3.7,3.2-5.3c1.4-1.6,3-2.7,4.9-3.5
		c1.9-0.8,3.9-1.2,6-1.2h2.6c2.4,0,4.5,0.3,6.4,1s3.6,1.8,5,3.3c2.4,2.2,3.7,5.1,3.8,8.6c0.2,1.9,0.3,4,0.3,6.3
		c0,3.9-0.4,6.9-1.3,9.2s-2,3.9-3.4,4.8s-2.9,1.5-4.5,1.9c-0.7,0.2-1.3,0.3-1.7,0.5c-0.4,0.1-0.7,0.3-0.9,0.6
		c-0.3,0.3-0.4,0.7-0.6,1.2c-0.1,0.6-0.2,1.8-0.3,3.6c0,1,0,1.8-0.1,2.6s-0.3,1.4-0.6,1.9s-0.8,0.8-1.4,0.8l-6.2,0.1
		c-0.5,0-1.1-0.1-1.5-0.4c-0.5-0.3-0.8-0.7-1.1-1.1C910.2,147.3,910.1,146.8,910.1,146.2z M910.3,162.2v-6.6c0-0.6,0.1-1.1,0.4-1.6
		c0.3-0.5,0.6-0.9,1.1-1.1c0.5-0.3,1-0.4,1.5-0.4h6.6c0.6,0,1.1,0.1,1.6,0.4c0.5,0.3,0.8,0.6,1.1,1.1c0.3,0.5,0.4,1,0.4,1.6v6.6
		c0,0.6-0.1,1.1-0.4,1.6c-0.3,0.5-0.7,0.9-1.1,1.2c-0.5,0.3-1,0.4-1.5,0.4h-6.6c-0.5,0-1.1-0.1-1.5-0.4c-0.5-0.3-0.8-0.7-1.1-1.2
		C910.5,163.3,910.3,162.8,910.3,162.2z"/>
</g>
<g>
	<path class="st1" d="M67.3,207.9c-0.8-1.4-1.2-3-1.2-4.7v-15.7c0-1.1,0.2-2.1,0.5-3.1c0.4-1,0.9-1.9,1.5-2.7c0.7-0.8,1.4-1.5,2.3-2
		c1.3-0.8,2.8-1.2,4.4-1.2h1.5c1.1,0,2.1,0.2,3.1,0.5c1,0.4,1.9,0.9,2.6,1.5c0.8,0.7,1.4,1.5,2,2.4c0.8,1.4,1.1,2.9,1.1,4.6v0
		c0,0.2,0,0.5-0.2,0.7c-0.1,0.2-0.3,0.4-0.5,0.6c-0.2,0.1-0.4,0.2-0.7,0.2h-3.2c-0.2,0-0.5-0.1-0.7-0.2c-0.2-0.1-0.4-0.3-0.5-0.6
		c-0.1-0.2-0.2-0.5-0.2-0.7v-0.1c0-0.7-0.2-1.3-0.5-1.9c-0.3-0.6-0.7-1-1.3-1.3s-1.2-0.5-1.9-0.5h-0.2c-0.6,0-1.3,0.2-1.8,0.5
		c-0.6,0.3-1,0.8-1.4,1.3c-0.3,0.6-0.5,1.2-0.5,1.9V203c0,0.7,0.2,1.3,0.5,1.9c0.3,0.6,0.8,1.1,1.4,1.4c0.6,0.4,1.2,0.5,1.8,0.5h0.2
		c0.7,0,1.3-0.2,1.8-0.5s1-0.8,1.3-1.4c0.3-0.6,0.5-1.2,0.5-1.9c0-0.3,0.1-0.5,0.2-0.7c0.1-0.2,0.3-0.4,0.5-0.5
		c0.2-0.1,0.5-0.2,0.7-0.2h3.2c0.3,0,0.5,0.1,0.7,0.2c0.2,0.1,0.4,0.3,0.5,0.5c0.1,0.2,0.2,0.5,0.2,0.7v0.2c0,1.1-0.2,2.2-0.5,3.2
		c-0.3,1-0.8,1.9-1.5,2.8c-0.6,0.8-1.4,1.5-2.3,2.1c-1.4,0.9-2.9,1.3-4.5,1.3h-1.5c-1.1,0-2.1-0.2-3-0.6c-1-0.4-1.8-0.9-2.6-1.6
		C68.5,209.7,67.8,208.9,67.3,207.9z"/>
	<path class="st1" d="M89.1,211v-30.7c0-0.2,0.1-0.4,0.2-0.6c0.1-0.2,0.3-0.3,0.5-0.5s0.4-0.2,0.6-0.2h3.5c0.4,0,0.7,0.1,0.9,0.4
		s0.4,0.5,0.4,0.9V192l9,0v-11.7c0-0.2,0.1-0.4,0.2-0.6c0.1-0.2,0.3-0.3,0.5-0.5c0.2-0.1,0.4-0.2,0.7-0.2h3.4c0.2,0,0.4,0.1,0.7,0.2
		c0.2,0.1,0.4,0.3,0.5,0.5c0.1,0.2,0.2,0.4,0.2,0.6V211c0,0.2-0.1,0.4-0.2,0.6c-0.1,0.2-0.3,0.4-0.5,0.5c-0.2,0.1-0.4,0.2-0.7,0.2
		h-3.4c-0.2,0-0.5-0.1-0.7-0.2c-0.2-0.1-0.4-0.3-0.5-0.5s-0.2-0.4-0.2-0.6v-13.2l-9,0V211c0,0.2-0.1,0.4-0.2,0.6
		c-0.1,0.2-0.3,0.4-0.5,0.5s-0.4,0.2-0.6,0.2h-3.5c-0.2,0-0.4-0.1-0.6-0.2s-0.3-0.3-0.5-0.5C89.2,211.4,89.1,211.2,89.1,211z"/>
	<path class="st1" d="M114.3,210.9v-30.7c0-0.4,0.1-0.7,0.4-0.9c0.2-0.2,0.5-0.3,0.9-0.3h14c0.4,0,0.7,0.1,0.9,0.4s0.4,0.5,0.4,0.9
		v3.3c0,0.2-0.1,0.4-0.2,0.6c-0.1,0.2-0.3,0.4-0.5,0.5c-0.2,0.1-0.4,0.2-0.6,0.2H120v7.3h7.3c0.4,0,0.6,0.1,0.9,0.3
		c0.2,0.2,0.3,0.5,0.3,0.9v3.3c0,0.4-0.1,0.6-0.3,0.9c-0.2,0.2-0.5,0.3-0.9,0.3H120v8.6h9.6c0.4,0,0.7,0.1,0.9,0.4s0.4,0.5,0.4,0.9
		v3.3c0,0.2-0.1,0.5-0.2,0.6c-0.1,0.2-0.3,0.4-0.5,0.5c-0.2,0.1-0.4,0.2-0.6,0.2h-14c-0.4,0-0.7-0.1-0.9-0.4
		C114.4,211.5,114.3,211.2,114.3,210.9z"/>
	<path class="st1" d="M136.1,207.9c-0.8-1.4-1.2-3-1.2-4.7v-15.7c0-1.1,0.2-2.1,0.5-3.1c0.4-1,0.9-1.9,1.5-2.7
		c0.7-0.8,1.4-1.5,2.3-2c1.3-0.8,2.8-1.2,4.4-1.2h1.5c1.1,0,2.1,0.2,3.1,0.5c1,0.4,1.9,0.9,2.6,1.5c0.8,0.7,1.4,1.5,2,2.4
		c0.8,1.4,1.1,2.9,1.1,4.6v0c0,0.2,0,0.5-0.2,0.7c-0.1,0.2-0.3,0.4-0.5,0.6c-0.2,0.1-0.4,0.2-0.7,0.2h-3.2c-0.2,0-0.5-0.1-0.7-0.2
		c-0.2-0.1-0.4-0.3-0.5-0.6c-0.1-0.2-0.2-0.5-0.2-0.7v-0.1c0-0.7-0.2-1.3-0.5-1.9c-0.3-0.6-0.7-1-1.3-1.3s-1.2-0.5-1.9-0.5h-0.2
		c-0.6,0-1.3,0.2-1.8,0.5c-0.6,0.3-1,0.8-1.4,1.3c-0.3,0.6-0.5,1.2-0.5,1.9V203c0,0.7,0.2,1.3,0.5,1.9c0.3,0.6,0.8,1.1,1.4,1.4
		c0.6,0.4,1.2,0.5,1.8,0.5h0.2c0.7,0,1.3-0.2,1.8-0.5s1-0.8,1.3-1.4c0.3-0.6,0.5-1.2,0.5-1.9c0-0.3,0.1-0.5,0.2-0.7
		c0.1-0.2,0.3-0.4,0.5-0.5c0.2-0.1,0.5-0.2,0.7-0.2h3.2c0.3,0,0.5,0.1,0.7,0.2c0.2,0.1,0.4,0.3,0.5,0.5c0.1,0.2,0.2,0.5,0.2,0.7v0.2
		c0,1.1-0.2,2.2-0.5,3.2c-0.3,1-0.8,1.9-1.5,2.8c-0.6,0.8-1.4,1.5-2.3,2.1c-1.4,0.9-2.9,1.3-4.5,1.3h-1.5c-1.1,0-2.1-0.2-3-0.6
		c-1-0.4-1.8-0.9-2.6-1.6C137.2,209.7,136.6,208.9,136.1,207.9z"/>
	<path class="st1" d="M157.9,211.2v-30.9c0-0.2,0.1-0.4,0.2-0.6c0.1-0.2,0.3-0.3,0.4-0.5s0.4-0.2,0.6-0.2h3.5c0.2,0,0.4,0.1,0.6,0.2
		s0.3,0.3,0.4,0.5c0.1,0.2,0.2,0.4,0.2,0.6v8.7l5.9-9.1c0.2-0.2,0.4-0.5,0.7-0.7c0.3-0.2,0.5-0.3,0.8-0.3l3.5,0
		c0.3,0,0.6,0.1,0.8,0.2c0.2,0.1,0.4,0.3,0.6,0.6s0.2,0.4,0.2,0.7c0,0.3-0.1,0.5-0.2,0.7l-8.3,12.7l10.5,16.1
		c0.2,0.4,0.2,0.7,0.2,0.9c0,0.3-0.1,0.5-0.2,0.8c-0.1,0.2-0.3,0.4-0.5,0.5s-0.5,0.2-0.8,0.2h-4c-0.3,0-0.5-0.1-0.7-0.2
		c-0.2-0.1-0.4-0.4-0.6-0.7l-7.9-12.4v12.2c0,0.2-0.1,0.4-0.2,0.5c-0.1,0.2-0.2,0.3-0.4,0.4s-0.4,0.2-0.6,0.2h-3.5
		c-0.2,0-0.4-0.1-0.6-0.2s-0.3-0.3-0.4-0.4C157.9,211.6,157.9,211.4,157.9,211.2z"/>
	<path class="st1" d="M189.4,207.9c-0.8-1.5-1.2-3-1.2-4.7v-15.6c0-1.1,0.2-2.2,0.6-3.2c0.4-1,0.9-1.9,1.6-2.7
		c0.7-0.8,1.5-1.5,2.4-2c1.3-0.8,2.9-1.2,4.6-1.2h1.6c1.1,0,2.1,0.2,3.1,0.5s1.9,0.9,2.7,1.5c0.8,0.7,1.5,1.5,2,2.4
		c0.8,1.3,1.2,2.9,1.2,4.6l0,15.7c0,1.1-0.2,2.1-0.6,3.1s-0.9,1.9-1.6,2.8c-0.7,0.8-1.5,1.5-2.4,2.1c-1.4,0.9-2.9,1.3-4.5,1.3h-1.6
		c-1.1,0-2.1-0.2-3.1-0.6c-1-0.4-1.9-0.9-2.7-1.6C190.6,209.7,189.9,208.9,189.4,207.9z M198.1,207c0.7,0,1.3-0.2,1.9-0.5
		c0.6-0.4,1-0.8,1.4-1.4c0.3-0.6,0.5-1.2,0.5-1.9v-15.5c0-0.7-0.2-1.3-0.5-1.9c-0.3-0.6-0.8-1-1.4-1.3c-0.6-0.3-1.2-0.5-1.9-0.5
		h-0.1c-0.7,0-1.3,0.2-1.9,0.5c-0.6,0.3-1,0.8-1.4,1.3c-0.3,0.6-0.5,1.2-0.5,1.9v15.5c0,0.7,0.2,1.3,0.5,1.9
		c0.3,0.6,0.8,1.1,1.4,1.4c0.6,0.4,1.2,0.5,1.9,0.5H198.1z"/>
	<path class="st1" d="M213.4,207.7c-0.9-1.4-1.3-3-1.3-4.7l0-21.9c0-0.6,0.1-1,0.2-1.3s0.4-0.5,0.7-0.7c0.3-0.1,0.7-0.2,1.2-0.2h1.7
		c0.5,0,0.8,0,1,0c0.2,0,0.3,0,0.4,0.1c0.1,0,0.2,0.1,0.3,0.2c0.2,0.1,0.3,0.3,0.4,0.6s0.1,0.7,0.1,1.1l0,21.7
		c0,0.7,0.2,1.3,0.5,1.9c0.3,0.6,0.8,1.1,1.4,1.4s1.2,0.5,1.9,0.5h0.8c0.7,0,1.3-0.2,1.9-0.5s1-0.8,1.4-1.4c0.3-0.6,0.5-1.2,0.5-1.9
		l0-21.7c0-0.6,0.1-1,0.2-1.3c0.2-0.3,0.4-0.5,0.7-0.6s0.7-0.2,1.2-0.2h1.9c0.6,0,1,0.1,1.3,0.2s0.5,0.3,0.7,0.6
		c0.1,0.3,0.2,0.7,0.2,1.3l0,21.9c0,1.1-0.2,2.2-0.6,3.2c-0.4,1-0.9,1.9-1.6,2.8c-0.7,0.8-1.5,1.5-2.5,2.1c-1.4,0.9-3,1.3-4.7,1.3
		h-1.7c-1.1,0-2.2-0.2-3.2-0.6c-1-0.4-1.9-0.9-2.8-1.6C214.6,209.5,213.9,208.7,213.4,207.7z"/>
	<path class="st1" d="M239.7,211v-26.6h-3.8c-0.4,0-0.7-0.1-1-0.3s-0.4-0.5-0.4-0.8v-3.2c0-0.3,0.1-0.6,0.4-0.8
		c0.3-0.2,0.6-0.3,1-0.3h13.9c0.2,0,0.5,0.1,0.7,0.2c0.2,0.1,0.4,0.2,0.5,0.4c0.1,0.2,0.2,0.4,0.2,0.6v3.2c0,0.2-0.1,0.4-0.2,0.6
		c-0.1,0.2-0.3,0.3-0.5,0.4c-0.2,0.1-0.4,0.2-0.7,0.2h-4V211c0,0.4-0.1,0.7-0.4,0.9s-0.5,0.4-0.9,0.4h-3.5c-0.2,0-0.4-0.1-0.6-0.2
		c-0.2-0.1-0.3-0.3-0.5-0.5C239.7,211.4,239.7,211.2,239.7,211z"/>
	<path class="st1" d="M262,207.9c-0.8-1.5-1.2-3-1.2-4.7v-15.6c0-1.1,0.2-2.2,0.6-3.2c0.4-1,0.9-1.9,1.6-2.7c0.7-0.8,1.5-1.5,2.4-2
		c1.3-0.8,2.9-1.2,4.6-1.2h1.6c1.1,0,2.1,0.2,3.1,0.5s1.9,0.9,2.7,1.5c0.8,0.7,1.5,1.5,2,2.4c0.8,1.3,1.2,2.9,1.2,4.6l0,15.7
		c0,1.1-0.2,2.1-0.6,3.1s-0.9,1.9-1.6,2.8c-0.7,0.8-1.5,1.5-2.4,2.1c-1.4,0.9-2.9,1.3-4.5,1.3h-1.6c-1.1,0-2.1-0.2-3.1-0.6
		c-1-0.4-1.9-0.9-2.7-1.6C263.2,209.7,262.5,208.9,262,207.9z M270.7,207c0.7,0,1.3-0.2,1.9-0.5c0.6-0.4,1-0.8,1.4-1.4
		c0.3-0.6,0.5-1.2,0.5-1.9v-15.5c0-0.7-0.2-1.3-0.5-1.9c-0.3-0.6-0.8-1-1.4-1.3c-0.6-0.3-1.2-0.5-1.9-0.5h-0.1
		c-0.7,0-1.3,0.2-1.9,0.5c-0.6,0.3-1,0.8-1.4,1.3c-0.3,0.6-0.5,1.2-0.5,1.9v15.5c0,0.7,0.2,1.3,0.5,1.9c0.3,0.6,0.8,1.1,1.4,1.4
		c0.6,0.4,1.2,0.5,1.9,0.5H270.7z"/>
	<path class="st1" d="M286,207.7c-0.9-1.4-1.3-3-1.3-4.7l0-21.9c0-0.6,0.1-1,0.2-1.3s0.4-0.5,0.7-0.7c0.3-0.1,0.7-0.2,1.2-0.2h1.7
		c0.5,0,0.8,0,1,0c0.2,0,0.3,0,0.4,0.1c0.1,0,0.2,0.1,0.3,0.2c0.2,0.1,0.3,0.3,0.4,0.6s0.1,0.7,0.1,1.1l0,21.7
		c0,0.7,0.2,1.3,0.5,1.9c0.3,0.6,0.8,1.1,1.4,1.4s1.2,0.5,1.9,0.5h0.8c0.7,0,1.3-0.2,1.9-0.5s1-0.8,1.4-1.4c0.3-0.6,0.5-1.2,0.5-1.9
		l0-21.7c0-0.6,0.1-1,0.2-1.3c0.2-0.3,0.4-0.5,0.7-0.6s0.7-0.2,1.2-0.2h1.9c0.6,0,1,0.1,1.3,0.2s0.5,0.3,0.7,0.6
		c0.1,0.3,0.2,0.7,0.2,1.3l0,21.9c0,1.1-0.2,2.2-0.6,3.2c-0.4,1-0.9,1.9-1.6,2.8c-0.7,0.8-1.5,1.5-2.5,2.1c-1.4,0.9-3,1.3-4.7,1.3
		h-1.7c-1.1,0-2.2-0.2-3.2-0.6c-1-0.4-1.9-0.9-2.8-1.6C287.2,209.5,286.5,208.7,286,207.7z"/>
	<path class="st1" d="M309.1,211.2v-30.7c0-0.2,0.1-0.5,0.2-0.7s0.3-0.4,0.5-0.5c0.2-0.1,0.4-0.2,0.7-0.2h9.3c1.4,0,2.7,0.3,3.8,0.9
		s2,1.4,2.6,2.4c0.6,1,0.9,2.1,0.9,3.4v5.8c0,0.8-0.1,1.5-0.4,2.2c-0.3,0.7-0.7,1.4-1.2,1.9c-0.5,0.6-1.1,1.1-1.8,1.4l0,0.1l4.8,14
		c0,0,0,0.1,0,0.3c0,0.2-0.1,0.4-0.3,0.5c-0.2,0.1-0.4,0.2-0.6,0.2h-4.1c-0.2,0-0.4-0.1-0.6-0.2c-0.2-0.1-0.4-0.2-0.6-0.4
		c-0.2-0.2-0.3-0.3-0.3-0.5l-3.8-11.9c-0.4-0.2-0.8-0.3-1.2-0.3c-0.5,0-1,0.2-1.3,0.6v11.6c0,0.3-0.1,0.6-0.4,0.8
		c-0.3,0.2-0.6,0.3-0.9,0.3h-3.8c-0.4,0-0.7-0.1-1-0.3C309.2,211.7,309.1,211.5,309.1,211.2z M318.3,193.3c0.5,0,0.9-0.1,1.3-0.3
		c0.4-0.2,0.7-0.5,1-0.9c0.2-0.4,0.4-0.8,0.4-1.3v-4.3c0-0.5-0.1-0.9-0.4-1.3c-0.2-0.4-0.6-0.7-1-0.9c-0.4-0.2-0.9-0.3-1.3-0.3h-2.6
		c-0.2,0-0.3,0.1-0.4,0.2c-0.1,0.1-0.2,0.3-0.2,0.5v8c0,0.2,0.1,0.4,0.2,0.6s0.3,0.2,0.6,0.2H318.3z"/>
	<path class="st1" d="M339.4,211v-30.4c0-0.3,0.1-0.5,0.2-0.8c0.1-0.2,0.3-0.4,0.5-0.6c0.2-0.1,0.5-0.2,0.7-0.2h9.5
		c1.1,0,2.1,0.2,3.1,0.5c1,0.3,1.9,0.8,2.6,1.5c0.8,0.6,1.4,1.4,2,2.3c0.8,1.4,1.1,2.9,1.1,4.5l0,15.2c0,1.1-0.2,2.1-0.5,3.1
		s-0.8,1.9-1.5,2.8c-0.6,0.8-1.4,1.5-2.3,2.1c-1.3,0.9-2.8,1.3-4.4,1.3h-5.3c0,0,0,0-0.1,0c0,0-0.1,0-0.1,0h-4.4
		c-0.2,0-0.5-0.1-0.6-0.2c-0.2-0.1-0.4-0.3-0.5-0.5C339.4,211.5,339.4,211.2,339.4,211z M349.2,206.7c0.7,0,1.4-0.2,2-0.6
		s1.1-0.9,1.5-1.5c0.4-0.6,0.6-1.3,0.6-2v-14.5c0-0.6-0.2-1.2-0.5-1.8c-0.3-0.5-0.8-1-1.3-1.3c-0.5-0.3-1.1-0.5-1.8-0.5h-4
		c-0.2,0-0.4,0.1-0.5,0.2c-0.1,0.1-0.2,0.3-0.2,0.5v21c0,0.1,0,0.2,0.1,0.3s0.2,0.1,0.3,0.1H349.2z"/>
	<path class="st1" d="M364,211.1v-30.7c0-0.4,0.1-0.7,0.4-0.9c0.2-0.2,0.5-0.4,0.9-0.4h3.5c0.2,0,0.4,0.1,0.6,0.2
		c0.2,0.1,0.3,0.3,0.4,0.5c0.1,0.2,0.2,0.4,0.2,0.6v30.7c0,0.2-0.1,0.5-0.2,0.6c-0.1,0.2-0.3,0.4-0.4,0.5s-0.4,0.2-0.6,0.2h-3.5
		c-0.4,0-0.6-0.1-0.9-0.4C364.1,211.7,364,211.4,364,211.1z"/>
	<path class="st1" d="M376.5,210.1c-0.8-0.9-1.4-1.9-1.9-3s-0.7-2.3-0.7-3.5v0c0-0.3,0.1-0.6,0.2-0.8c0.1-0.2,0.3-0.4,0.6-0.6
		s0.5-0.2,0.8-0.2h3.4c0,0,0,0,0.1,0c0,0,0.1,0,0.1,0h0.1c0.3,0.1,0.5,0.3,0.7,0.6c0.2,0.3,0.3,0.5,0.3,0.8v0.5
		c0,0.5,0.1,0.9,0.3,1.4c0.2,0.4,0.5,0.8,0.8,1.1c0.4,0.3,0.8,0.5,1.2,0.7c0.3,0.1,0.7,0.1,1,0.1h0.1c0.1,0,0.2,0,0.3,0
		c0.1,0,0.1,0,0.1,0h0c0.6,0,1.1-0.2,1.6-0.5s0.8-0.7,1.1-1.2c0.3-0.5,0.4-1,0.4-1.6l0.1-2.4c0-0.8-0.2-1.5-0.5-2.1
		c-0.3-0.6-0.8-1-1.5-1.3c-0.8-0.4-1.9-0.7-3.5-0.7l-0.9-0.1c-1.8-0.1-3.2-0.7-4.2-1.6c-1-0.9-1.6-2-1.9-3.2c-0.3-1.2-0.4-2.6-0.4-4
		l0-1.7l0-0.7c0.2-1.1,0.3-1.9,0.5-2.4c0.1-0.6,0.3-1.1,0.6-1.5c0.3-0.4,0.6-0.9,1.1-1.3c0.8-0.8,1.7-1.3,2.7-1.7
		c1-0.4,2.2-0.6,3.4-0.5h1.5c1.1,0,2.2,0.2,3.2,0.6c1,0.4,1.9,1,2.7,1.8c0.8,0.8,1.4,1.7,1.8,2.8s0.6,2.2,0.6,3.4v0
		c0,0.3-0.1,0.5-0.2,0.7c-0.1,0.2-0.3,0.4-0.5,0.5s-0.4,0.2-0.7,0.2h-3.3c-0.4,0-0.6-0.2-0.9-0.4c-0.2-0.3-0.4-0.6-0.4-0.9V187
		c0-0.5-0.1-0.9-0.3-1.3s-0.5-0.8-0.8-1s-0.8-0.5-1.2-0.7c-0.3-0.1-0.6-0.1-0.9-0.1H383c0,0-0.1,0-0.2,0c-0.6,0.1-1.1,0.2-1.5,0.5
		c-0.4,0.3-0.8,0.6-1,1.1s-0.4,0.9-0.4,1.5v2.8c0.1,0.6,0.3,1.1,0.6,1.5c0.4,0.4,0.9,0.6,1.5,0.8c0.7,0.2,1.6,0.3,2.7,0.3
		c2.8,0.2,4.9,1.1,6.3,2.6c1.4,1.5,2.1,3.8,2.1,6.7c0,0.8,0,1.6-0.1,2.4c-0.1,0.8-0.3,1.6-0.5,2.4c-0.3,0.8-0.7,1.6-1.2,2.4
		c-0.8,1.2-1.9,2.2-3.1,2.9c-1.3,0.7-2.6,1-4,1h-1.5c-1.2,0-2.3-0.2-3.3-0.7S377.3,210.9,376.5,210.1z"/>
	<path class="st1" d="M398.2,207.9c-0.8-1.4-1.2-3-1.2-4.7v-15.7c0-1.1,0.2-2.1,0.5-3.1c0.4-1,0.9-1.9,1.5-2.7
		c0.7-0.8,1.4-1.5,2.3-2c1.3-0.8,2.8-1.2,4.4-1.2h1.5c1.1,0,2.1,0.2,3.1,0.5c1,0.4,1.9,0.9,2.6,1.5c0.8,0.7,1.4,1.5,2,2.4
		c0.8,1.4,1.1,2.9,1.1,4.6v0c0,0.2,0,0.5-0.2,0.7c-0.1,0.2-0.3,0.4-0.5,0.6c-0.2,0.1-0.4,0.2-0.7,0.2h-3.2c-0.2,0-0.5-0.1-0.7-0.2
		c-0.2-0.1-0.4-0.3-0.5-0.6c-0.1-0.2-0.2-0.5-0.2-0.7v-0.1c0-0.7-0.2-1.3-0.5-1.9c-0.3-0.6-0.7-1-1.3-1.3s-1.2-0.5-1.9-0.5h-0.2
		c-0.6,0-1.3,0.2-1.8,0.5c-0.6,0.3-1,0.8-1.4,1.3c-0.3,0.6-0.5,1.2-0.5,1.9V203c0,0.7,0.2,1.3,0.5,1.9s0.8,1.1,1.4,1.4
		c0.6,0.4,1.2,0.5,1.8,0.5h0.2c0.7,0,1.3-0.2,1.8-0.5c0.6-0.4,1-0.8,1.3-1.4c0.3-0.6,0.5-1.2,0.5-1.9c0-0.3,0.1-0.5,0.2-0.7
		c0.1-0.2,0.3-0.4,0.5-0.5c0.2-0.1,0.5-0.2,0.7-0.2h3.2c0.3,0,0.5,0.1,0.7,0.2c0.2,0.1,0.4,0.3,0.5,0.5c0.1,0.2,0.2,0.5,0.2,0.7v0.2
		c0,1.1-0.2,2.2-0.5,3.2c-0.3,1-0.8,1.9-1.5,2.8c-0.6,0.8-1.4,1.5-2.3,2.1c-1.4,0.9-2.9,1.3-4.5,1.3h-1.5c-1.1,0-2.1-0.2-3-0.6
		c-1-0.4-1.8-0.9-2.6-1.6C399.4,209.7,398.7,208.9,398.2,207.9z"/>
	<path class="st1" d="M421,207.9c-0.8-1.5-1.2-3-1.2-4.7v-15.6c0-1.1,0.2-2.2,0.6-3.2c0.4-1,0.9-1.9,1.6-2.7c0.7-0.8,1.5-1.5,2.4-2
		c1.3-0.8,2.9-1.2,4.6-1.2h1.6c1.1,0,2.1,0.2,3.1,0.5c1,0.4,1.9,0.9,2.7,1.5c0.8,0.7,1.5,1.5,2,2.4c0.8,1.3,1.2,2.9,1.2,4.6l0,15.7
		c0,1.1-0.2,2.1-0.6,3.1s-0.9,1.9-1.6,2.8c-0.7,0.8-1.5,1.5-2.4,2.1c-1.4,0.9-2.9,1.3-4.5,1.3h-1.6c-1.1,0-2.1-0.2-3.1-0.6
		c-1-0.4-1.9-0.9-2.7-1.6S421.5,208.9,421,207.9z M429.7,207c0.7,0,1.3-0.2,1.9-0.5c0.6-0.4,1-0.8,1.4-1.4c0.3-0.6,0.5-1.2,0.5-1.9
		v-15.5c0-0.7-0.2-1.3-0.5-1.9c-0.3-0.6-0.8-1-1.4-1.3c-0.6-0.3-1.2-0.5-1.9-0.5h-0.1c-0.7,0-1.3,0.2-1.9,0.5
		c-0.6,0.3-1,0.8-1.4,1.3c-0.3,0.6-0.5,1.2-0.5,1.9v15.5c0,0.7,0.2,1.3,0.5,1.9c0.3,0.6,0.8,1.1,1.4,1.4c0.6,0.4,1.2,0.5,1.9,0.5
		H429.7z"/>
	<path class="st1" d="M443.7,211.2v-30.7c0-0.2,0.1-0.5,0.2-0.7s0.3-0.4,0.5-0.5c0.2-0.1,0.4-0.2,0.7-0.2h9.3c1.4,0,2.7,0.3,3.8,0.9
		s2,1.4,2.6,2.4c0.6,1,0.9,2.1,0.9,3.4v5.8c0,0.8-0.1,1.5-0.4,2.2c-0.3,0.7-0.7,1.4-1.2,1.9c-0.5,0.6-1.1,1.1-1.8,1.4l0,0.1l4.8,14
		c0,0,0,0.1,0,0.3c0,0.2-0.1,0.4-0.3,0.5c-0.2,0.1-0.4,0.2-0.6,0.2H458c-0.2,0-0.4-0.1-0.6-0.2c-0.2-0.1-0.4-0.2-0.6-0.4
		c-0.2-0.2-0.3-0.3-0.3-0.5l-3.8-11.9c-0.4-0.2-0.8-0.3-1.2-0.3c-0.5,0-1,0.2-1.3,0.6v11.6c0,0.3-0.1,0.6-0.4,0.8
		c-0.3,0.2-0.6,0.3-0.9,0.3h-3.8c-0.4,0-0.7-0.1-1-0.3C443.8,211.7,443.7,211.5,443.7,211.2z M452.9,193.3c0.5,0,0.9-0.1,1.3-0.3
		c0.4-0.2,0.7-0.5,1-0.9c0.2-0.4,0.4-0.8,0.4-1.3v-4.3c0-0.5-0.1-0.9-0.4-1.3c-0.2-0.4-0.6-0.7-1-0.9c-0.4-0.2-0.9-0.3-1.3-0.3h-2.6
		c-0.2,0-0.3,0.1-0.4,0.2c-0.1,0.1-0.2,0.3-0.2,0.5v8c0,0.2,0.1,0.4,0.2,0.6s0.3,0.2,0.6,0.2H452.9z"/>
	<path class="st1" d="M466.9,211v-30.4c0-0.3,0.1-0.5,0.2-0.8c0.1-0.2,0.3-0.4,0.5-0.6c0.2-0.1,0.5-0.2,0.7-0.2h9.5
		c1.1,0,2.1,0.2,3.1,0.5c1,0.3,1.9,0.8,2.6,1.5c0.8,0.6,1.4,1.4,2,2.3c0.8,1.4,1.1,2.9,1.1,4.5l0,15.2c0,1.1-0.2,2.1-0.5,3.1
		s-0.8,1.9-1.5,2.8c-0.6,0.8-1.4,1.5-2.3,2.1c-1.3,0.9-2.8,1.3-4.4,1.3h-5.3c0,0,0,0-0.1,0c0,0-0.1,0-0.1,0h-4.4
		c-0.2,0-0.5-0.1-0.6-0.2c-0.2-0.1-0.4-0.3-0.5-0.5C467,211.5,466.9,211.2,466.9,211z M476.7,206.7c0.7,0,1.4-0.2,2-0.6
		s1.1-0.9,1.5-1.5c0.4-0.6,0.6-1.3,0.6-2v-14.5c0-0.6-0.2-1.2-0.5-1.8c-0.3-0.5-0.8-1-1.3-1.3c-0.5-0.3-1.1-0.5-1.8-0.5h-4
		c-0.2,0-0.4,0.1-0.5,0.2c-0.1,0.1-0.2,0.3-0.2,0.5v21c0,0.1,0,0.2,0.1,0.3s0.2,0.1,0.3,0.1H476.7z"/>
</g>
<rect x="952" y="283" transform="matrix(0.7071 0.7071 -0.7071 0.7071 526.9456 -610.1591)" class="st1" width="96" height="96"/>
<g>
	<rect x="968.9" y="306.1" transform="matrix(0.7071 -0.7071 0.7071 0.7071 68.7451 781.7266)" width="18.2" height="3.6"/>
	<path d="M979.3,293.7c-0.9,0.9-4.2,4.2-5.2,5.2l2.6,2.6c1-1,4.2-4.2,5.2-5.2c2.1-2.1,5.6-2.1,7.7,0c2.1,2.1,2.1,5.6,0,7.7
		c-1,1-4.2,4.2-5.2,5.2l2.6,2.6c0.9-0.9,4.2-4.2,5.2-5.2c3.6-3.6,3.6-9.3,0-12.9C988.6,290.1,982.8,290.1,979.3,293.7L979.3,293.7z
		 M976.7,322.1c0.9-0.9,4.2-4.2,5.2-5.2l-2.6-2.6c-1,1-4.2,4.2-5.2,5.2c-2.1,2.1-5.6,2.1-7.7,0c-2.1-2.1-2.1-5.6,0-7.7
		c1-1,4.2-4.2,5.2-5.2L969,304c-0.9,0.9-4.2,4.2-5.2,5.2c-3.6,3.6-3.6,9.3,0,12.9C967.4,325.6,973.2,325.6,976.7,322.1L976.7,322.1z
		"/>
</g>
<path class="st2" d="M535.9,174.3c2.8,0,5.1,2.3,5.1,5.1v44.8l-5.4-4.7l-3-2.8l-3.2-3l1.3,4.6h-28.3c-2.8,0-5.1-2.3-5.1-5.1v-33.8
	c0-2.8,2.3-5.1,5.1-5.1C502.4,174.3,535.9,174.3,535.9,174.3z M526.2,206.9c5.5-0.2,7.6-3.8,7.6-3.8c0-8-3.6-14.6-3.6-14.6
	c-3.6-2.7-7-2.6-7-2.6l-0.3,0.4c4.2,1.3,6.2,3.2,6.2,3.2c-2.6-1.4-5.1-2.1-7.5-2.4c-1.8-0.2-3.5-0.1-5,0l-0.4,0
	c-0.9,0.1-3,0.4-5.7,1.6c-0.9,0.4-1.5,0.7-1.5,0.7s2.1-2,6.6-3.3l-0.2-0.3c0,0-3.4-0.1-7,2.6c0,0-3.6,6.5-3.6,14.6
	c0,0,2.1,3.6,7.6,3.8c0,0,0.9-1.1,1.7-2.1c-3.2-0.9-4.4-2.9-4.4-2.9l0.7,0.4l0.1,0.1l0.1,0.1l0,0l0.1,0.1c0.6,0.3,1.2,0.6,1.8,0.8
	c1,0.4,2.2,0.8,3.7,1.1c1.9,0.3,4.1,0.5,6.5,0c1.2-0.2,2.4-0.5,3.6-1.1c0.9-0.3,1.8-0.8,2.9-1.5c0,0-1.2,2-4.5,3
	C525.3,205.8,526.2,206.9,526.2,206.9z M514.6,195.2c-1.4,0-2.5,1.2-2.5,2.8s1.1,2.8,2.5,2.8c1.4,0,2.5-1.2,2.5-2.8
	C517.2,196.5,516,195.2,514.6,195.2z M523.7,195.2c-1.4,0-2.5,1.2-2.5,2.8s1.1,2.8,2.5,2.8c1.4,0,2.5-1.2,2.5-2.8
	C526.3,196.5,525.2,195.2,523.7,195.2z"/>
</svg>
