<svg width="1656" height="937" viewBox="0 0 1656 937" fill="none" xmlns="http://www.w3.org/2000/svg">
<g clip-path="url(#clip0)">
<path fill-rule="evenodd" clip-rule="evenodd" d="M420.329 202.028L284.23 575.958L191.682 542.273L350.918 104.776L420.329 202.028Z" fill="#0085FF"/>
<path fill-rule="evenodd" clip-rule="evenodd" d="M489.74 299.281L420.329 202.028L284.57 575.023L377.118 608.708L489.74 299.281Z" fill="url(#paint0_linear)"/>
<circle cx="236.596" cy="665.222" r="172.794" transform="rotate(20 236.596 665.222)" fill="url(#paint1_linear)" stroke="#0085FF" stroke-width="49.7409"/>
<path d="M745.697 636.518C733.385 636.518 727.229 633.296 727.229 626.852V430.44C727.229 427.103 728.725 424.629 731.717 423.018C734.708 421.292 739.368 420.429 745.697 420.429H756.398C762.726 420.429 767.386 421.292 770.378 423.018C773.37 424.629 774.865 427.103 774.865 430.44V512.595L776.074 512.94L829.405 426.297C831.707 422.385 837.805 420.429 847.7 420.429H862.198C867.836 420.429 872.094 420.889 874.97 421.81C877.962 422.615 879.458 423.708 879.458 425.089C879.458 426.93 878.595 429.116 876.869 431.648L817.669 522.433L884.981 625.472C886.592 628.003 887.397 630.132 887.397 631.858C887.397 634.964 881.702 636.518 870.31 636.518H852.36C847.413 636.518 843.386 636.115 840.279 635.31C837.172 634.504 834.986 632.951 833.72 630.65L776.074 537.448L774.865 537.621V626.852C774.865 633.296 768.709 636.518 756.398 636.518H745.697ZM975.766 638.589C948.841 638.589 928.762 631.397 915.53 617.015C902.298 602.517 895.682 582.438 895.682 556.779C895.682 527.898 902.298 506.726 915.53 493.264C928.762 479.802 947 473.07 970.243 473.07C985.661 473.07 998.261 476.58 1008.04 483.599C1017.94 490.618 1025.13 500.053 1029.62 511.904C1034.22 523.756 1036.52 537.161 1036.52 552.119C1036.52 553.845 1035.48 556.146 1033.41 559.023C1031.46 561.899 1029.21 564.488 1026.68 566.789C1024.15 569.091 1022.19 570.241 1020.81 570.241H942.628C943.663 581.978 947.115 590.32 952.983 595.268C958.967 600.1 967.251 602.517 977.837 602.517C983.59 602.517 988.768 601.884 993.37 600.618C998.088 599.237 1003.09 597.454 1008.39 595.268C1011.61 593.772 1013.79 593.024 1014.94 593.024C1017.02 593.024 1019.26 594.52 1021.68 597.511C1024.21 600.388 1026.34 603.725 1028.06 607.522C1029.9 611.319 1030.82 614.253 1030.82 616.324C1030.82 621.042 1027.6 625.069 1021.16 628.406C1014.83 631.743 1007.29 634.274 998.548 636C989.919 637.726 982.324 638.589 975.766 638.589ZM992.335 540.037C992.335 530.602 990.494 523.065 986.812 517.427C983.13 511.674 977.607 508.798 970.243 508.798C955.054 508.798 945.849 519.211 942.628 540.037H992.335ZM1101.24 699.342C1088.93 699.342 1082.77 697.156 1082.77 692.784C1082.77 691.058 1083.18 689.217 1083.98 687.261L1103.49 636L1052.74 487.223C1052.63 486.533 1052.4 485.612 1052.05 484.462C1051.71 483.196 1051.53 482.275 1051.53 481.7C1051.53 479.399 1053.03 477.73 1056.02 476.695C1059.01 475.544 1063.73 474.969 1070.18 474.969H1080.19C1085.02 474.969 1088.87 475.487 1091.75 476.522C1094.74 477.443 1096.58 479.054 1097.27 481.355L1115.22 537.966C1116.37 541.533 1117.81 547.286 1119.54 555.226C1121.26 563.05 1122.3 567.71 1122.64 569.206L1123.85 575.074H1125.23C1125.35 574.269 1125.64 573.06 1126.1 571.45C1129.89 553.039 1132.48 541.878 1133.86 537.966L1151.81 481.355C1152.62 478.939 1154.46 477.27 1157.34 476.35C1160.33 475.429 1164.24 474.969 1169.07 474.969H1176.49C1182.82 474.969 1187.42 475.544 1190.3 476.695C1193.29 477.73 1194.79 479.399 1194.79 481.7C1194.79 482.851 1194.5 484.692 1193.93 487.223L1123.51 692.784C1122.01 697.156 1116.32 699.342 1106.42 699.342H1101.24Z" fill="url(#paint2_linear)"/>
<path d="M1235.87 636.518C1223.55 636.518 1217.4 633.296 1217.4 626.852V433.374C1217.4 429.116 1218.38 426.067 1220.33 424.226C1222.29 422.27 1225.4 421.292 1229.65 421.292H1332.17C1335.4 421.292 1337.7 422.5 1339.08 424.916C1340.57 427.333 1341.32 431.245 1341.32 436.653V445.973C1341.32 451.381 1340.57 455.293 1339.08 457.709C1337.7 460.126 1335.4 461.334 1332.17 461.334H1264.69V506.209H1329.93C1333.15 506.209 1335.51 507.417 1337.01 509.833C1338.5 512.249 1339.25 516.104 1339.25 521.397V530.89C1339.25 536.298 1338.5 540.267 1337.01 542.799C1335.51 545.215 1333.15 546.423 1329.93 546.423H1264.69V626.852C1264.69 633.296 1258.53 636.518 1246.22 636.518H1235.87ZM1390.17 636.518C1377.85 636.518 1371.7 633.296 1371.7 626.852V430.44C1371.7 427.103 1373.19 424.629 1376.19 423.018C1379.18 421.292 1383.84 420.429 1390.17 420.429H1406.39C1416.17 420.429 1422.56 423.248 1425.55 428.886L1477.15 520.534L1479.74 525.021L1482.33 519.671L1534.28 428.886C1537.39 423.248 1543.83 420.429 1553.61 420.429H1569.66C1581.98 420.429 1588.13 423.766 1588.13 430.44V626.852C1588.13 633.296 1581.98 636.518 1569.66 636.518H1560.69C1548.38 636.518 1542.22 633.296 1542.22 626.852V499.65L1541.01 499.305L1496.48 578.871C1493.84 582.783 1489.75 584.739 1484.23 584.739H1475.43C1472.55 584.739 1470.14 584.279 1468.18 583.359C1466.22 582.323 1464.55 580.827 1463.17 578.871L1418.47 499.305L1417.26 499.65V626.852C1417.26 633.296 1411.17 636.518 1398.97 636.518H1390.17Z" fill="#0085FF"/>
</g>
<defs>
<linearGradient id="paint0_linear" x1="466.603" y1="218.871" x2="273.198" y2="222.365" gradientUnits="userSpaceOnUse">
<stop stop-color="#003769"/>
<stop offset="1" stop-color="#2562FF"/>
</linearGradient>
<linearGradient id="paint1_linear" x1="384.519" y1="517.298" x2="88.672" y2="813.145" gradientUnits="userSpaceOnUse">
<stop stop-color="#003769"/>
<stop offset="1" stop-color="#0085FF"/>
</linearGradient>
<linearGradient id="paint2_linear" x1="1157.65" y1="364" x2="1157.65" y2="694.487" gradientUnits="userSpaceOnUse">
<stop stop-color="#2562FF"/>
<stop offset="1" stop-color="#003769"/>
</linearGradient>
<clipPath id="clip0">
<rect width="1656" height="937" fill="white"/>
</clipPath>
</defs>
</svg>
