<?xml version="1.0" encoding="utf-8"?>
<!-- Generator: Adobe Illustrator 23.0.1, SVG Export Plug-In . SVG Version: 6.00 Build 0)  -->
<svg version="1.1" id="Layer_1" xmlns="http://www.w3.org/2000/svg" xmlns:xlink="http://www.w3.org/1999/xlink" x="0px" y="0px"
	 viewBox="0 0 560 260" style="enable-background:new 0 0 560 260;" xml:space="preserve">
<style type="text/css">
	.st0{fill:url(#SVGID_1_);}
	.st1{fill:#FFFFFF;}
</style>
<linearGradient id="SVGID_1_" gradientUnits="userSpaceOnUse" x1="-3.3446" y1="-14.7061" x2="928.1584" y2="-137.3556">
	<stop  offset="8.711900e-02" style="stop-color:#000833"/>
	<stop  offset="1" style="stop-color:#7800FF"/>
</linearGradient>
<rect x="-2.3" y="-434" class="st0" width="1096" height="694"/>
<rect x="512" y="212" transform="matrix(0.7071 -0.7071 0.7071 0.7071 -19.8242 472.129)" class="st1" width="96" height="96"/>
<g>
	<rect x="528.9" y="235.1" transform="matrix(0.7071 -0.7071 0.7071 0.7071 -9.9319 449.8148)" width="18.2" height="3.6"/>
	<path d="M539.3,222.7c-0.9,0.9-4.2,4.2-5.2,5.2l2.6,2.6c1-1,4.2-4.2,5.2-5.2c2.1-2.1,5.6-2.1,7.7,0c2.1,2.1,2.1,5.6,0,7.7
		c-1,1-4.2,4.2-5.2,5.2l2.6,2.6c0.9-0.9,4.2-4.2,5.2-5.2c3.6-3.6,3.6-9.3,0-12.9C548.6,219.1,542.8,219.1,539.3,222.7L539.3,222.7z
		 M536.7,251.1c0.9-0.9,4.2-4.2,5.2-5.2l-2.6-2.6c-1,1-4.2,4.2-5.2,5.2c-2.1,2.1-5.6,2.1-7.7,0c-2.1-2.1-2.1-5.6,0-7.7
		c1-1,4.2-4.2,5.2-5.2L529,233c-0.9,0.9-4.2,4.2-5.2,5.2c-3.6,3.6-3.6,9.3,0,12.9C527.4,254.6,533.2,254.6,536.7,251.1L536.7,251.1z
		"/>
</g>
<g>
	<g>
		<path class="st1" d="M265.2,68.1v0.5H233v27.3h44.1V78.5c0-2.7-0.4-5.8,0-8.5c0.3-1.6,2.7-1.2,3.9-1.2c0.7,0,1.4,0,1.7,0.7
			c0.7,1.5,0.1,4.3,0.1,5.9v13.8c0,1.6,0,3.2,0,4.8c0,0.6-0.1,1.4,0.5,1.7c0.9,0.5,2.6,0.1,3.6,0.1h8.7H327V68.6h-32.2v-0.5
			c4.2,0,8.6-0.6,12.6-1.8c2.6-0.8,5.2-1.5,7.6-2.9c2-1.1,4.3-2.8,5.4-4.9c2.3-4.3,0.5-9.9-3.8-12c-5.3-2.7-11.5-2.4-17-0.9
			c-4.8,1.3-9.3,3-13.2,6.3c-2.7,2.3-6,6.1-6.1,9.9h-0.7c-0.1-4.3-3.9-8.3-7.1-10.7c-4.9-3.6-11-5.7-17-6.3c-4.3-0.4-8.7-0.2-12.5,2
			c-3.8,2.1-5.5,7.1-3.8,11.1c0.9,2.2,3.2,4.3,5.3,5.4c2.7,1.3,5.3,2.2,8.1,3.2C256.6,67.6,261.1,68.1,265.2,68.1z"/>
		<path class="st1" d="M238.7,101.5v49.2h38.4v-49.2H238.7 M321.3,150.6v-49.2h-28h-7.1c-0.8,0-2.2-0.3-2.8,0.2
			c-0.6,0.5-0.4,1.8-0.4,2.5v6.9v28.7v7.8c0,0.7-0.3,2.2,0.4,2.8c0.6,0.5,2.1,0.2,2.8,0.2h7.1H321.3z"/>
	</g>
	<g>
		<path class="st1" d="M168.8,186.5c0-0.3,0.2-0.5,0.4-0.6c0.2-0.1,0.4-0.2,0.7-0.2c0.3,0,0.5,0.1,0.6,0.4c0.3,0.4,0.6,0.7,1,0.9
			c0.9,0.7,2,1,3.4,1c1.1,0,2.1-0.2,2.9-0.7c0.7-0.4,1.3-0.9,1.6-1.6c0.4-0.7,0.5-1.4,0.5-2.2s-0.2-1.5-0.6-2.2
			c-0.2-0.4-0.5-0.7-0.9-0.9c-0.2-0.1-0.3-0.4-0.4-0.6c-0.1-0.3,0-0.5,0.1-0.7c0.2-0.2,0.4-0.4,0.6-0.4s0.5,0,0.7,0.1
			c0.7,0.4,1.2,1,1.5,1.6l0,0c0.6,1,0.9,2,0.9,3.1c0,1.1-0.3,2.2-0.8,3.1c-0.6,1-1.3,1.8-2.3,2.3c-1.1,0.6-2.4,1-3.9,1
			c-1.7,0-3.3-0.4-4.5-1.3c-0.6-0.4-1-0.9-1.4-1.3C168.9,187,168.8,186.8,168.8,186.5z M170,172.5c0.1-0.4,0.2-0.7,0.4-1.1l0,0.1
			c0.1-0.3,0.4-0.7,0.6-1c0.3-0.3,0.5-0.6,0.9-0.9c0.3-0.3,0.7-0.5,1-0.7c0.4-0.2,0.8-0.3,1.2-0.4c0.5-0.1,0.9-0.2,1.2-0.2h0h0h0
			c0.4,0,0.8,0,1.2,0.1c0.4,0.1,0.7,0.2,1.1,0.4s0.7,0.4,1,0.6c0.3,0.2,0.6,0.5,0.9,0.8c0.3,0.3,0.5,0.6,0.7,0.9
			c0.2,0.4,0.4,0.8,0.4,1.1c0,0.2,0.1,0.3,0.1,0.4c0,0.2,0.1,0.3,0.1,0.4v0.5c0,0.3,0,0.5,0,0.6c0,0.3-0.1,0.5-0.1,0.7
			c-0.1,0.3-0.1,0.5-0.2,0.6c-0.1,0.3-0.3,0.7-0.5,0.9c-0.2,0.3-0.4,0.6-0.7,0.8c-0.2,0.2-0.4,0.4-0.8,0.7c-0.4,0.3-0.8,0.5-1.2,0.7
			c-0.4,0.1-0.8,0.3-1.3,0.3c-0.4,0.1-0.8,0.1-1.2,0.1c-0.3,0-0.5-0.1-0.7-0.3c-0.2-0.2-0.3-0.4-0.3-0.7c0-0.3,0.1-0.5,0.3-0.7
			c0.2-0.2,0.4-0.3,0.7-0.3c0.3,0,0.6,0,1-0.1c0.4-0.1,0.7-0.2,0.9-0.2c0.3-0.1,0.6-0.3,0.8-0.5c0.2-0.1,0.4-0.3,0.5-0.5
			c0.2-0.3,0.4-0.5,0.4-0.6c0.1-0.1,0.2-0.3,0.3-0.6c0-0.1,0.1-0.2,0.1-0.4l0.1-0.4c0-0.1,0-0.2,0-0.4v-0.3v-0.2
			c0-0.1-0.1-0.1-0.1-0.2c-0.1-0.2-0.2-0.5-0.3-0.7c-0.1-0.1-0.2-0.3-0.5-0.6c-0.1-0.2-0.3-0.3-0.6-0.5c-0.2-0.1-0.4-0.3-0.6-0.3
			c-0.2-0.1-0.4-0.1-0.8-0.2c-0.3-0.1-0.5-0.1-0.8-0.1h0h0h0c-0.3,0-0.6,0-0.9,0.1c-0.3,0.1-0.5,0.2-0.8,0.3
			c-0.3,0.1-0.5,0.3-0.7,0.4c-0.2,0.2-0.4,0.3-0.5,0.5c-0.1,0.2-0.3,0.4-0.4,0.6c-0.1,0.2-0.1,0.4-0.2,0.7c0,0.3-0.2,0.5-0.4,0.6
			c-0.2,0.1-0.5,0.2-0.7,0.2c-0.3,0-0.5-0.2-0.6-0.4C170,173,169.9,172.7,170,172.5z"/>
		<path class="st1" d="M184.4,169.2c0-0.6,0.2-1.1,0.6-1.5c0.4-0.4,0.9-0.6,1.5-0.6h0c0.3,0,0.5,0,0.7,0.1l0,0.1
			c0.5,0.1,0.8,0.4,1.1,0.9c0.3,0.3,0.4,0.8,0.4,1.3v0.1c0,0.6-0.1,1.1-0.4,1.7c-0.2,0.4-0.6,0.8-0.9,1.2c-0.5,0.6-1,1-1.6,1.3
			c-0.2,0.1-0.5,0.1-0.7,0.1c-0.3-0.1-0.4-0.2-0.6-0.5s-0.1-0.5-0.1-0.7c0.1-0.3,0.2-0.4,0.5-0.6c0.3-0.1,0.6-0.4,0.9-0.7
			c-0.4-0.1-0.8-0.4-1.1-0.8C184.5,170.1,184.4,169.7,184.4,169.2z"/>
		<path class="st1" d="M190.6,183.2V183c0-0.3,0.1-0.5,0.3-0.7c0.2-0.2,0.4-0.3,0.7-0.2s0.5,0.1,0.7,0.3c0.2,0.2,0.3,0.4,0.3,0.7
			v0.1c0,1.1,0.4,2.1,1.2,2.9c0.6,0.6,1.3,1,2.1,1.3c0.8,0.3,1.6,0.4,2.6,0.4h0c0.8,0,1.6-0.1,2.2-0.3c0.8-0.2,1.4-0.6,1.8-1
			c0.8-0.8,1.2-1.7,1.2-2.7v-0.1c0-0.3,0.1-0.5,0.3-0.7c0.2-0.2,0.4-0.3,0.7-0.3c0.3,0,0.5,0.1,0.7,0.3c0.2,0.2,0.3,0.4,0.3,0.7v0.1
			l-0.1,0c0,1.6-0.6,3-1.8,4.1c-0.7,0.7-1.6,1.1-2.6,1.5c-0.9,0.3-1.8,0.4-2.8,0.4h0c-1.1,0-2.2-0.2-3.2-0.5c-1.1-0.4-2.1-1-2.8-1.8
			C191.2,186.3,190.6,184.9,190.6,183.2z M193.8,169.1c0.6-0.6,1.3-1.1,2.2-1.4c0.7-0.2,1.5-0.4,2.3-0.3h0.1c1.7,0,3.1,0.4,4.3,1.3
			c1.4,1.1,2.2,2.5,2.3,4.3c0,0,0,0.1,0,0.1c0,0.2-0.1,0.4-0.2,0.6c-0.2,0.2-0.4,0.3-0.7,0.3c-0.3,0-0.5-0.1-0.7-0.2
			c-0.2-0.2-0.3-0.4-0.3-0.7c-0.1-1.2-0.6-2.1-1.6-2.8h0.2c-0.9-0.6-1.9-1-3.2-1h-0.1c-0.6,0-1.2,0.1-1.7,0.3
			c-0.6,0.2-1.1,0.5-1.4,0.9c-0.5,0.5-0.8,1.2-0.9,1.9c0,0.3-0.1,0.5-0.3,0.7c-0.2,0.2-0.4,0.3-0.7,0.2c-0.3,0-0.5-0.1-0.7-0.3
			c-0.2-0.2-0.2-0.4-0.2-0.6C192.5,171.1,192.9,170,193.8,169.1z M193.3,174.8c0.1-0.3,0.2-0.4,0.4-0.6c0.2-0.1,0.4-0.2,0.5-0.2
			c0.1,0,0.1,0,0.2,0c0.3,0.1,0.4,0.2,0.6,0.4c0.2,0.3,0.4,0.6,0.7,0.8v0c0.8,0.8,1.8,1.4,3.1,1.8c0.2,0.1,0.6,0.2,1.1,0.4
			c0.5,0.2,0.9,0.3,1.2,0.4c0.3,0.1,0.7,0.3,1.1,0.5s0.8,0.4,1.1,0.7c0.4,0.3,0.7,0.5,0.9,0.8c0.2,0.2,0.2,0.4,0.2,0.6
			c0,0.3-0.1,0.5-0.3,0.7c-0.2,0.2-0.4,0.2-0.6,0.2c0,0,0,0,0,0c-0.3,0-0.5-0.1-0.7-0.3c-0.2-0.2-0.4-0.4-0.6-0.5
			c-0.3-0.2-0.7-0.5-1.1-0.6s-1-0.4-1.6-0.6c-0.7-0.2-1.1-0.4-1.4-0.4c-1.6-0.6-2.9-1.3-3.8-2.3c-0.3-0.4-0.6-0.8-0.9-1.2
			c-0.1-0.2-0.2-0.4-0.2-0.5C193.2,174.9,193.2,174.9,193.3,174.8z"/>
		<path class="st1" d="M215.1,179.1v-0.2v-0.2c0-0.5,0-1.1,0.1-1.6c0.1-0.5,0.2-1.1,0.3-1.6c0.1-0.5,0.3-1,0.5-1.5
			c0.3-0.7,0.7-1.4,1-1.9c0.4-0.6,0.8-1.2,1.3-1.7c0.5-0.5,1.1-1,1.7-1.4c0.6-0.3,1.1-0.6,1.6-0.8c0.5-0.2,1.1-0.4,1.8-0.5
			c0.6-0.1,1.2-0.2,1.8-0.2c0.6,0,1.2,0.1,1.8,0.2c0.6,0.1,1.2,0.3,1.8,0.5c0.5,0.2,1.1,0.5,1.6,0.8c0.2,0.1,0.3,0.4,0.4,0.6
			c0.1,0.3,0,0.5-0.1,0.7c-0.2,0.2-0.4,0.4-0.6,0.4s-0.5,0-0.7-0.1c-0.4-0.2-0.8-0.5-1.3-0.7l0.1-0.1c-0.4-0.2-0.9-0.3-1.4-0.4
			c-0.5-0.1-1-0.2-1.4-0.2c-0.4,0-0.9,0.1-1.4,0.2c-0.6,0.1-1,0.2-1.4,0.4c-0.5,0.2-0.9,0.4-1.3,0.7c-0.4,0.3-0.9,0.7-1.4,1.1
			c-0.4,0.5-0.8,1-1.1,1.4c-0.3,0.6-0.6,1.1-0.8,1.6c-0.1,0.3-0.3,0.8-0.4,1.3c-0.1,0.4-0.2,0.9-0.3,1.3s-0.1,0.9-0.1,1.3v0.2v0.2
			c0,0.5,0.1,1,0.2,1.4c0.1,0.5,0.2,1,0.4,1.4c0.2,0.5,0.4,0.9,0.6,1.3c0.2,0.4,0.5,0.9,0.8,1.3c0.3,0.4,0.7,0.8,1,1.2
			c0.4,0.4,0.8,0.7,1.2,0.9c0.4,0.2,0.8,0.5,1.3,0.7c0.4,0.2,0.9,0.3,1.4,0.4c0.5,0.1,1,0.2,1.4,0.2c0.6,0,1.2-0.1,1.9-0.3
			c0.6-0.1,1.2-0.4,1.7-0.7c1.4-0.8,2.2-1.9,2.5-3.4c0.1-0.3,0.1-0.8,0.1-1.3v-3.3c0-0.3,0.1-0.5,0.3-0.7c0.2-0.2,0.4-0.3,0.7-0.3
			s0.5,0.1,0.7,0.3c0.2,0.2,0.3,0.4,0.3,0.7v3.2c0,0.7,0,1.3-0.1,1.7c-0.4,2-1.6,3.5-3.4,4.6c-0.7,0.4-1.4,0.7-2.2,1
			c-0.7,0.2-1.5,0.3-2.4,0.3c-0.6,0-1.2-0.1-1.8-0.2c-0.5-0.1-1.1-0.3-1.8-0.5c-0.5-0.2-1.1-0.5-1.6-0.8c-0.5-0.3-0.9-0.7-1.4-1.1
			c-0.4-0.4-0.9-0.9-1.3-1.3c-0.4-0.4-0.7-1-1-1.5c-0.2-0.5-0.5-1-0.7-1.6c-0.2-0.6-0.4-1.2-0.5-1.7
			C215.2,180.2,215.1,179.7,215.1,179.1z M222.7,179.5c-0.2-0.2-0.3-0.4-0.3-0.7s0.1-0.5,0.3-0.7c0.2-0.2,0.4-0.3,0.7-0.3l6.1,0
			c0.3,0,0.5,0.1,0.7,0.3c0.2,0.2,0.3,0.4,0.3,0.7s-0.1,0.5-0.3,0.7c-0.2,0.2-0.4,0.3-0.7,0.3l-6,0
			C223.1,179.8,222.9,179.7,222.7,179.5z"/>
		<path class="st1" d="M238,188.8v-20.5c0-0.3,0.1-0.5,0.3-0.7c0.2-0.2,0.4-0.3,0.7-0.3c0.3,0,0.5,0.1,0.7,0.3
			c0.2,0.2,0.3,0.4,0.3,0.7v20.5c0,0.3-0.1,0.5-0.3,0.7c-0.2,0.2-0.4,0.3-0.7,0.3c-0.3,0-0.5-0.1-0.7-0.3
			C238.1,189.3,238,189.1,238,188.8z"/>
		<path class="st1" d="M243.9,168.7c0-0.1-0.1-0.2-0.1-0.3c0-0.1,0-0.3,0.1-0.4c0.1-0.2,0.3-0.4,0.5-0.5c0.1,0,0.2-0.1,0.3-0.1
			c0.1,0,0.3,0,0.4,0.1c0.2,0.1,0.4,0.3,0.5,0.5l7.6,20.5c0.1,0.3,0.1,0.5,0,0.7c-0.1,0.2-0.3,0.4-0.5,0.5c-0.1,0-0.2,0.1-0.3,0.1
			c-0.1,0-0.3,0-0.4-0.1c-0.2-0.1-0.4-0.3-0.5-0.5L243.9,168.7z M253.8,182.4l5.4-14.4c0.1-0.3,0.3-0.4,0.5-0.5
			c0.1-0.1,0.3-0.1,0.4-0.1c0.1,0,0.2,0,0.3,0.1c0.3,0.1,0.4,0.3,0.5,0.5c0.1,0.1,0.1,0.3,0.1,0.4c0,0.1,0,0.2,0,0.3l-5.4,14.4
			c-0.1,0.3-0.3,0.4-0.5,0.5c-0.1,0.1-0.3,0.1-0.4,0.1c-0.1,0-0.2,0-0.3-0.1c-0.3-0.1-0.4-0.3-0.5-0.5c-0.1-0.1-0.1-0.3-0.1-0.4
			C253.7,182.6,253.8,182.5,253.8,182.4z"/>
		<path class="st1" d="M265.2,188.8v-20.5c0-0.3,0.1-0.5,0.3-0.7c0.2-0.2,0.4-0.3,0.7-0.3c0.3,0,0.5,0.1,0.7,0.3
			c0.2,0.2,0.3,0.4,0.3,0.7v20.5c0,0.3-0.1,0.5-0.3,0.7c-0.2,0.2-0.4,0.3-0.7,0.3c-0.3,0-0.5-0.1-0.7-0.3
			C265.3,189.3,265.2,189.1,265.2,188.8z M268.2,189.5c-0.2-0.2-0.3-0.4-0.3-0.7s0.1-0.5,0.3-0.7c0.2-0.2,0.4-0.3,0.7-0.3h10.2
			c0.3,0,0.5,0.1,0.7,0.3c0.2,0.2,0.3,0.4,0.3,0.7s-0.1,0.5-0.3,0.7c-0.2,0.2-0.4,0.3-0.7,0.3h-10.2
			C268.6,189.7,268.3,189.7,268.2,189.5z M268.2,169c-0.2-0.2-0.3-0.4-0.3-0.7c0-0.3,0.1-0.5,0.3-0.7c0.2-0.2,0.4-0.3,0.7-0.3h10.1
			c0.3,0,0.5,0.1,0.7,0.3c0.2,0.2,0.3,0.4,0.3,0.7c0,0.3-0.1,0.5-0.3,0.7c-0.2,0.2-0.4,0.3-0.7,0.3h-10.1
			C268.6,169.3,268.4,169.2,268.2,169z M268.2,178.5c-0.2-0.2-0.3-0.4-0.3-0.7c0-0.3,0.1-0.5,0.3-0.7c0.2-0.2,0.4-0.3,0.7-0.3h8.3
			c0.3,0,0.5,0.1,0.7,0.3c0.2,0.2,0.3,0.4,0.3,0.7c0,0.3-0.1,0.5-0.3,0.7c-0.2,0.2-0.4,0.3-0.7,0.3h-8.3
			C268.6,178.7,268.4,178.7,268.2,178.5z"/>
		<path class="st1" d="M282.7,189.1c0-0.1-0.1-0.2-0.1-0.4c0-0.1,0-0.3,0.1-0.4l7.1-16.6c0.1-0.2,0.3-0.4,0.5-0.5
			c0.3-0.1,0.5-0.1,0.7,0c0.2,0.1,0.4,0.3,0.5,0.5c0.1,0.3,0.1,0.5,0,0.7l-7.1,16.6c-0.1,0.2-0.3,0.4-0.5,0.5
			c-0.1,0-0.2,0.1-0.4,0.1c-0.1,0-0.3,0-0.4-0.1C282.9,189.6,282.8,189.4,282.7,189.1z M289.1,182.3c-0.2-0.2-0.3-0.4-0.3-0.7
			c0-0.3,0.1-0.5,0.3-0.7c0.2-0.2,0.4-0.3,0.7-0.3h5.1c0.3,0,0.5,0.1,0.7,0.3c0.2,0.2,0.3,0.4,0.3,0.7c0,0.3-0.1,0.5-0.3,0.7
			c-0.2,0.2-0.4,0.3-0.7,0.3h-5.1C289.5,182.5,289.2,182.4,289.1,182.3z M291.5,168c0.1-0.3,0.3-0.4,0.5-0.5
			c0.1-0.1,0.3-0.1,0.4-0.1c0.1,0,0.2,0,0.4,0.1c0.3,0.1,0.4,0.3,0.5,0.5l8.8,20.5c0.1,0.1,0.1,0.3,0.1,0.4c0,0.1,0,0.2-0.1,0.4
			c-0.1,0.3-0.3,0.4-0.5,0.5c-0.1,0.1-0.3,0.1-0.4,0.1c-0.1,0-0.2,0-0.4-0.1c-0.3-0.1-0.4-0.3-0.5-0.5l-8.8-20.5
			c-0.1-0.1-0.1-0.3-0.1-0.4C291.4,168.2,291.4,168.1,291.5,168z"/>
		<path class="st1" d="M304.2,168.6c0-0.1-0.1-0.2-0.1-0.3c0-0.1,0-0.3,0.1-0.4c0.1-0.2,0.3-0.4,0.5-0.5c0.1,0,0.2-0.1,0.3-0.1
			c0.1,0,0.3,0,0.4,0.1c0.2,0.1,0.4,0.3,0.5,0.5l7.6,20.5c0.1,0.3,0.1,0.5,0,0.7s-0.3,0.4-0.5,0.5c-0.1,0-0.2,0.1-0.3,0.1
			c-0.1,0-0.3,0-0.4-0.1c-0.2-0.1-0.4-0.3-0.5-0.5L304.2,168.6z M313.7,183.3l5.7-15.3c0.1-0.3,0.3-0.4,0.5-0.5
			c0.1-0.1,0.3-0.1,0.4-0.1c0.1,0,0.2,0,0.3,0.1c0.3,0.1,0.4,0.3,0.5,0.5c0.1,0.2,0.1,0.5,0,0.7l-5.7,15.3c-0.1,0.3-0.3,0.4-0.5,0.5
			c-0.2,0.1-0.5,0.1-0.7,0c-0.3-0.1-0.4-0.3-0.5-0.5c-0.1-0.1-0.1-0.3-0.1-0.4C313.7,183.5,313.7,183.4,313.7,183.3z M318,181
			c0-0.1-0.1-0.2-0.1-0.3c0-0.1,0-0.3,0.1-0.4c0.1-0.2,0.3-0.4,0.5-0.5c0.2-0.1,0.5-0.1,0.7,0s0.4,0.3,0.5,0.5l3.2,8.1
			c0.1,0.2,0.1,0.5,0,0.7c-0.1,0.2-0.3,0.4-0.5,0.5c-0.1,0-0.2,0.1-0.3,0.1l-0.4-0.1c-0.2-0.1-0.4-0.3-0.5-0.5L318,181z
			 M323.3,182.5l5.4-14.5c0.1-0.3,0.3-0.4,0.5-0.5c0.1-0.1,0.3-0.1,0.4-0.1c0.1,0,0.2,0,0.3,0.1c0.3,0.1,0.4,0.3,0.5,0.5
			c0.1,0.1,0.1,0.3,0.1,0.4c0,0.1,0,0.2-0.1,0.3l-5.4,14.5c-0.1,0.3-0.3,0.4-0.5,0.5c-0.1,0.1-0.3,0.1-0.4,0.1c-0.1,0-0.2,0-0.3-0.1
			c-0.3-0.1-0.4-0.3-0.5-0.5c-0.1-0.1-0.1-0.3-0.1-0.4C323.3,182.7,323.3,182.6,323.3,182.5z"/>
		<path class="st1" d="M332.7,189.1c0-0.1-0.1-0.2-0.1-0.4c0-0.1,0-0.3,0.1-0.4l7.1-16.6c0.1-0.2,0.3-0.4,0.5-0.5
			c0.3-0.1,0.5-0.1,0.7,0c0.2,0.1,0.4,0.3,0.5,0.5c0.1,0.3,0.1,0.5,0,0.7l-7.1,16.6c-0.1,0.2-0.3,0.4-0.5,0.5
			c-0.1,0-0.2,0.1-0.4,0.1c-0.1,0-0.3,0-0.4-0.1C333,189.6,332.8,189.4,332.7,189.1z M339.1,182.3c-0.2-0.2-0.3-0.4-0.3-0.7
			c0-0.3,0.1-0.5,0.3-0.7c0.2-0.2,0.4-0.3,0.7-0.3h5.1c0.3,0,0.5,0.1,0.7,0.3c0.2,0.2,0.3,0.4,0.3,0.7c0,0.3-0.1,0.5-0.3,0.7
			c-0.2,0.2-0.4,0.3-0.7,0.3h-5.1C339.5,182.5,339.3,182.4,339.1,182.3z M341.5,168c0.1-0.3,0.3-0.4,0.5-0.5
			c0.1-0.1,0.3-0.1,0.4-0.1c0.1,0,0.2,0,0.4,0.1c0.3,0.1,0.4,0.3,0.5,0.5l8.8,20.5c0.1,0.1,0.1,0.3,0.1,0.4c0,0.1,0,0.2-0.1,0.4
			c-0.1,0.3-0.3,0.4-0.5,0.5c-0.1,0.1-0.3,0.1-0.4,0.1c-0.1,0-0.2,0-0.4-0.1c-0.3-0.1-0.4-0.3-0.5-0.5l-8.8-20.5
			c-0.1-0.1-0.1-0.3-0.1-0.4C341.5,168.2,341.5,168.1,341.5,168z"/>
		<path class="st1" d="M354.1,167.6c0.2-0.2,0.4-0.2,0.6-0.2c0,0,0,0,0,0c0.3,0,0.5,0.1,0.7,0.3l8.7,9.5c0.2,0.2,0.2,0.4,0.2,0.7
			c0,0.3-0.1,0.5-0.3,0.7c-0.2,0.2-0.4,0.3-0.7,0.2c-0.3,0-0.5-0.1-0.6-0.3l-8.7-9.5c-0.2-0.2-0.2-0.4-0.3-0.6
			C353.8,168,353.9,167.8,354.1,167.6z M362.5,188.8v-7.7c0-0.3,0.1-0.5,0.3-0.7c0.2-0.2,0.4-0.3,0.7-0.3c0.3,0,0.5,0.1,0.7,0.3
			c0.2,0.2,0.3,0.4,0.3,0.7v7.7c0,0.3-0.1,0.5-0.3,0.7c-0.2,0.2-0.4,0.3-0.7,0.3c-0.3,0-0.5-0.1-0.7-0.3
			C362.6,189.3,362.5,189.1,362.5,188.8z M365.8,174.3c0-0.3,0.1-0.5,0.2-0.6l5.5-6c0.2-0.2,0.4-0.3,0.7-0.3c0,0,0,0,0,0
			c0.3,0,0.5,0.1,0.6,0.2c0.2,0.2,0.3,0.4,0.3,0.7c0,0,0,0,0,0c0,0.3-0.1,0.5-0.2,0.6l-5.5,6c-0.2,0.2-0.4,0.3-0.7,0.3c0,0,0,0,0,0
			c-0.3,0-0.5-0.1-0.6-0.3C365.9,174.8,365.8,174.6,365.8,174.3z"/>
		<path class="st1" d="M375.7,183.2V183c0-0.3,0.1-0.5,0.3-0.7c0.2-0.2,0.4-0.3,0.7-0.2s0.5,0.1,0.7,0.3c0.2,0.2,0.3,0.4,0.3,0.7
			v0.1c0,1.1,0.4,2.1,1.2,2.9c0.6,0.6,1.3,1,2.1,1.3c0.8,0.3,1.6,0.4,2.6,0.4h0c0.8,0,1.6-0.1,2.2-0.3c0.8-0.2,1.4-0.6,1.8-1
			c0.8-0.8,1.2-1.7,1.2-2.7v-0.1c0-0.3,0.1-0.5,0.3-0.7c0.2-0.2,0.4-0.3,0.7-0.3c0.3,0,0.5,0.1,0.7,0.3c0.2,0.2,0.3,0.4,0.3,0.7v0.1
			l-0.1,0c0,1.6-0.6,3-1.8,4.1c-0.7,0.7-1.6,1.1-2.6,1.5c-0.9,0.3-1.8,0.4-2.8,0.4h0c-1.1,0-2.2-0.2-3.2-0.5c-1.1-0.4-2.1-1-2.8-1.8
			C376.2,186.3,375.7,184.9,375.7,183.2z M378.9,169.1c0.6-0.6,1.3-1.1,2.2-1.4c0.7-0.2,1.5-0.4,2.3-0.3h0.1c1.7,0,3.1,0.4,4.3,1.3
			c1.4,1.1,2.2,2.5,2.3,4.3c0,0,0,0.1,0,0.1c0,0.2-0.1,0.4-0.2,0.6c-0.2,0.2-0.4,0.3-0.7,0.3c-0.3,0-0.5-0.1-0.7-0.2
			c-0.2-0.2-0.3-0.4-0.3-0.7c-0.1-1.2-0.6-2.1-1.6-2.8h0.2c-0.9-0.6-1.9-1-3.2-1h-0.1c-0.6,0-1.2,0.1-1.7,0.3
			c-0.6,0.2-1.1,0.5-1.4,0.9c-0.5,0.5-0.8,1.2-0.9,1.9c0,0.3-0.1,0.5-0.3,0.7c-0.2,0.2-0.4,0.3-0.7,0.2c-0.3,0-0.5-0.1-0.7-0.3
			c-0.2-0.2-0.2-0.4-0.2-0.6C377.5,171.1,377.9,170,378.9,169.1z M378.3,174.8c0.1-0.3,0.2-0.4,0.4-0.6c0.2-0.1,0.4-0.2,0.5-0.2
			c0.1,0,0.1,0,0.2,0c0.3,0.1,0.4,0.2,0.6,0.4c0.2,0.3,0.4,0.6,0.7,0.8v0c0.8,0.8,1.8,1.4,3.1,1.8c0.2,0.1,0.6,0.2,1.1,0.4
			c0.5,0.2,0.9,0.3,1.2,0.4c0.3,0.1,0.7,0.3,1.1,0.5s0.8,0.4,1.1,0.7c0.4,0.3,0.7,0.5,0.9,0.8c0.2,0.2,0.2,0.4,0.2,0.6
			c0,0.3-0.1,0.5-0.3,0.7c-0.2,0.2-0.4,0.2-0.6,0.2c0,0,0,0,0,0c-0.3,0-0.5-0.1-0.7-0.3c-0.2-0.2-0.4-0.4-0.6-0.5
			c-0.3-0.2-0.7-0.5-1.1-0.6s-1-0.4-1.6-0.6c-0.7-0.2-1.1-0.4-1.4-0.4c-1.6-0.6-2.9-1.3-3.8-2.3c-0.3-0.4-0.6-0.8-0.9-1.2
			c-0.1-0.2-0.2-0.4-0.2-0.5C378.3,174.9,378.3,174.9,378.3,174.8z"/>
	</g>
	<g>
		<path class="st1" d="M189.9,198c0-0.1,0-0.1,0-0.2c0-0.1,0-0.2,0.1-0.2c0.1-0.1,0.2-0.3,0.3-0.3c0.1,0,0.1,0,0.2,0
			c0.1,0,0.2,0,0.3,0.1c0.1,0.1,0.3,0.2,0.3,0.3l4.7,12.8c0.1,0.2,0,0.3,0,0.5s-0.2,0.3-0.3,0.3c-0.1,0-0.1,0-0.2,0
			c-0.1,0-0.2,0-0.3-0.1c-0.1-0.1-0.3-0.2-0.3-0.3L189.9,198z M195.8,207.1l3.6-9.6c0.1-0.2,0.2-0.3,0.3-0.3c0.1,0,0.2-0.1,0.3-0.1
			c0.1,0,0.1,0,0.2,0c0.2,0.1,0.3,0.2,0.3,0.3s0.1,0.3,0,0.5l-3.6,9.6c-0.1,0.2-0.2,0.3-0.3,0.3c-0.1,0.1-0.3,0.1-0.5,0
			c-0.2-0.1-0.3-0.2-0.3-0.3c0-0.1-0.1-0.2,0-0.3C195.8,207.3,195.8,207.2,195.8,207.1z M198.5,205.7c0-0.1,0-0.1,0-0.2
			c0-0.1,0-0.2,0.1-0.2c0.1-0.1,0.2-0.3,0.3-0.3c0.1-0.1,0.3,0,0.4,0c0.1,0.1,0.3,0.2,0.3,0.3l2,5.1c0.1,0.1,0,0.3,0,0.4
			s-0.2,0.3-0.3,0.3c-0.1,0-0.1,0-0.2,0l-0.2-0.1c-0.1-0.1-0.3-0.2-0.3-0.3L198.5,205.7z M201.9,206.6l3.4-9.1
			c0.1-0.2,0.2-0.3,0.3-0.3c0.1,0,0.2-0.1,0.3-0.1c0.1,0,0.1,0,0.2,0c0.2,0.1,0.3,0.2,0.3,0.3c0,0.1,0.1,0.2,0.1,0.2
			c0,0.1,0,0.1,0,0.2l-3.4,9.1c-0.1,0.2-0.2,0.3-0.3,0.3c-0.1,0-0.2,0.1-0.3,0.1c-0.1,0-0.1,0-0.2,0c-0.2-0.1-0.3-0.2-0.3-0.3
			c0-0.1-0.1-0.2-0.1-0.3C201.8,206.8,201.8,206.7,201.9,206.6z"/>
		<path class="st1" d="M209,210.6v-12.8c0-0.2,0.1-0.3,0.2-0.4s0.3-0.2,0.4-0.2s0.3,0.1,0.4,0.2s0.2,0.3,0.2,0.4v12.8
			c0,0.2-0.1,0.3-0.2,0.4s-0.3,0.2-0.4,0.2s-0.3-0.1-0.4-0.2S209,210.7,209,210.6z M210.9,211c-0.1-0.1-0.2-0.3-0.2-0.4
			s0.1-0.3,0.2-0.4c0.1-0.1,0.3-0.2,0.4-0.2h6.4c0.2,0,0.3,0.1,0.4,0.2c0.1,0.1,0.2,0.3,0.2,0.4s-0.1,0.3-0.2,0.4
			c-0.1,0.1-0.3,0.2-0.4,0.2h-6.4C211.1,211.2,211,211.1,210.9,211z M210.9,198.2c-0.1-0.1-0.2-0.3-0.2-0.4s0.1-0.3,0.2-0.4
			s0.3-0.2,0.4-0.2h6.3c0.2,0,0.3,0.1,0.4,0.2s0.2,0.3,0.2,0.4s-0.1,0.3-0.2,0.4s-0.3,0.2-0.4,0.2h-6.3
			C211.2,198.4,211,198.3,210.9,198.2z M210.9,204.1c-0.1-0.1-0.2-0.3-0.2-0.4s0.1-0.3,0.2-0.4s0.3-0.2,0.4-0.2h5.2
			c0.2,0,0.3,0.1,0.4,0.2c0.1,0.1,0.2,0.3,0.2,0.4s-0.1,0.3-0.2,0.4c-0.1,0.1-0.3,0.2-0.4,0.2h-5.2
			C211.2,204.3,211,204.2,210.9,204.1z"/>
		<path class="st1" d="M221.2,210.6v-12.8c0-0.2,0.1-0.3,0.2-0.4s0.3-0.2,0.4-0.2s0.3,0.1,0.4,0.2s0.2,0.3,0.2,0.4v12.8
			c0,0.2-0.1,0.3-0.2,0.4s-0.3,0.2-0.4,0.2s-0.3-0.1-0.4-0.2S221.2,210.7,221.2,210.6z M223.1,211c-0.1-0.1-0.2-0.3-0.2-0.4
			s0.1-0.3,0.2-0.4c0.1-0.1,0.3-0.2,0.4-0.2h6.4c0.2,0,0.3,0.1,0.4,0.2c0.1,0.1,0.2,0.3,0.2,0.4s-0.1,0.3-0.2,0.4
			c-0.1,0.1-0.3,0.2-0.4,0.2h-6.4C223.3,211.2,223.2,211.1,223.1,211z M223.1,198.2c-0.1-0.1-0.2-0.3-0.2-0.4s0.1-0.3,0.2-0.4
			s0.3-0.2,0.4-0.2h6.3c0.2,0,0.3,0.1,0.4,0.2s0.2,0.3,0.2,0.4s-0.1,0.3-0.2,0.4s-0.3,0.2-0.4,0.2h-6.3
			C223.4,198.4,223.2,198.3,223.1,198.2z M223.1,204.1c-0.1-0.1-0.2-0.3-0.2-0.4s0.1-0.3,0.2-0.4s0.3-0.2,0.4-0.2h5.2
			c0.2,0,0.3,0.1,0.4,0.2s0.2,0.3,0.2,0.4s-0.1,0.3-0.2,0.4s-0.3,0.2-0.4,0.2h-5.2C223.4,204.3,223.2,204.2,223.1,204.1z"/>
		<path class="st1" d="M233.5,210.6v-12.8c0-0.2,0.1-0.3,0.2-0.4s0.3-0.2,0.4-0.2s0.3,0.1,0.4,0.2s0.2,0.3,0.2,0.4v12.8
			c0,0.2-0.1,0.3-0.2,0.4s-0.3,0.2-0.4,0.2s-0.3-0.1-0.4-0.2S233.5,210.7,233.5,210.6z M235.1,204c-0.1-0.1-0.2-0.3-0.2-0.4
			s0.1-0.3,0.2-0.4l5.8-5.8c0.1-0.1,0.3-0.2,0.4-0.2s0.3,0.1,0.4,0.2s0.2,0.3,0.2,0.4s-0.1,0.3-0.2,0.4L236,204
			c-0.1,0.1-0.3,0.2-0.4,0.2S235.3,204.1,235.1,204z M236.3,204.8c0-0.2,0.1-0.3,0.2-0.4s0.3-0.2,0.4-0.2s0.3,0.1,0.4,0.2l5.7,5.7
			c0.1,0.1,0.2,0.3,0.2,0.4s-0.1,0.3-0.2,0.4s-0.3,0.2-0.4,0.2s-0.3-0.1-0.4-0.2l-5.7-5.7C236.3,205.2,236.3,205,236.3,204.8z"/>
		<path class="st1" d="M245.7,210.6v-12.8c0-0.2,0.1-0.3,0.2-0.4s0.3-0.2,0.4-0.2s0.3,0.1,0.4,0.2s0.2,0.3,0.2,0.4v12.8
			c0,0.2-0.1,0.3-0.2,0.4s-0.3,0.2-0.4,0.2s-0.3-0.1-0.4-0.2S245.7,210.7,245.7,210.6z M247.9,211c-0.1-0.1-0.2-0.3-0.2-0.4
			s0.1-0.3,0.2-0.4c0.1-0.1,0.3-0.2,0.4-0.2h6c0.2,0,0.3,0.1,0.4,0.2c0.1,0.1,0.2,0.3,0.2,0.4s-0.1,0.3-0.2,0.4
			c-0.1,0.1-0.3,0.2-0.4,0.2h-6C248.1,211.2,248,211.1,247.9,211z"/>
		<path class="st1" d="M255.8,197.3c0.1-0.1,0.2-0.1,0.4-0.1c0,0,0,0,0,0c0.2,0,0.3,0.1,0.4,0.2l5.5,6c0.1,0.1,0.2,0.3,0.1,0.4
			s-0.1,0.3-0.2,0.4s-0.3,0.2-0.4,0.2s-0.3-0.1-0.4-0.2l-5.5-6c-0.1-0.1-0.1-0.2-0.2-0.4C255.6,197.6,255.7,197.4,255.8,197.3z
			 M261.1,210.6v-4.8c0-0.2,0.1-0.3,0.2-0.4s0.3-0.2,0.4-0.2s0.3,0.1,0.4,0.2s0.2,0.3,0.2,0.4v4.8c0,0.2-0.1,0.3-0.2,0.4
			s-0.3,0.2-0.4,0.2s-0.3-0.1-0.4-0.2S261.1,210.7,261.1,210.6z M263.1,201.5c0-0.2,0-0.3,0.1-0.4l3.5-3.8c0.1-0.1,0.2-0.2,0.4-0.2
			c0,0,0,0,0,0c0.2,0,0.3,0,0.4,0.1c0.1,0.1,0.2,0.2,0.2,0.4c0,0,0,0,0,0c0,0.2,0,0.3-0.1,0.4l-3.5,3.8c-0.1,0.1-0.2,0.2-0.4,0.2
			c0,0,0,0,0,0c-0.2,0-0.3-0.1-0.4-0.2C263.2,201.9,263.1,201.7,263.1,201.5z"/>
		<path class="st1" d="M272.9,204.5v-0.1v-0.1c0-0.3,0-0.7,0.1-1c0-0.3,0.1-0.7,0.2-1s0.2-0.6,0.3-1c0.2-0.5,0.4-0.9,0.6-1.2
			c0.2-0.4,0.5-0.7,0.8-1.1c0.3-0.3,0.7-0.6,1.1-0.9c0.3-0.2,0.7-0.4,1-0.5s0.7-0.2,1.1-0.3c0.4-0.1,0.8-0.1,1.1-0.1s0.8,0,1.1,0.1
			c0.4,0.1,0.8,0.2,1.1,0.3c0.3,0.1,0.7,0.3,1,0.5c0.1,0.1,0.2,0.2,0.3,0.4c0,0.2,0,0.3-0.1,0.5s-0.2,0.2-0.4,0.3
			c-0.2,0-0.3,0-0.5-0.1c-0.2-0.1-0.5-0.3-0.8-0.4l0-0.1c-0.2-0.1-0.5-0.2-0.9-0.3c-0.3-0.1-0.6-0.1-0.9-0.1s-0.6,0-0.9,0.1
			c-0.3,0.1-0.6,0.1-0.9,0.3c-0.3,0.1-0.6,0.3-0.8,0.4c-0.3,0.2-0.6,0.4-0.9,0.7c-0.3,0.3-0.5,0.6-0.7,0.9c-0.2,0.3-0.4,0.7-0.5,1
			c-0.1,0.2-0.2,0.5-0.3,0.8c-0.1,0.3-0.1,0.6-0.2,0.8c0,0.3-0.1,0.6-0.1,0.8v0.1v0.1c0,0.3,0.1,0.6,0.1,0.9
			c0.1,0.3,0.1,0.6,0.2,0.9c0.1,0.3,0.2,0.6,0.4,0.8c0.1,0.3,0.3,0.5,0.5,0.8c0.2,0.3,0.4,0.5,0.7,0.7c0.2,0.2,0.5,0.4,0.7,0.6
			c0.2,0.1,0.5,0.3,0.8,0.4c0.2,0.1,0.5,0.2,0.9,0.3c0.3,0.1,0.6,0.1,0.9,0.1c0.4,0,0.8-0.1,1.2-0.2c0.4-0.1,0.7-0.2,1.1-0.5
			c0.9-0.5,1.4-1.2,1.6-2.1c0.1-0.2,0.1-0.5,0.1-0.8v-2c0-0.2,0.1-0.3,0.2-0.4c0.1-0.1,0.3-0.2,0.4-0.2c0.2,0,0.3,0.1,0.4,0.2
			c0.1,0.1,0.2,0.3,0.2,0.4v2c0,0.4,0,0.8-0.1,1.1c-0.3,1.2-1,2.2-2.1,2.9c-0.4,0.3-0.9,0.5-1.4,0.6c-0.5,0.1-1,0.2-1.5,0.2
			c-0.4,0-0.8,0-1.1-0.1c-0.3-0.1-0.7-0.2-1.1-0.3c-0.3-0.1-0.7-0.3-1-0.5c-0.3-0.2-0.6-0.4-0.9-0.7c-0.3-0.3-0.5-0.5-0.8-0.8
			c-0.2-0.3-0.4-0.6-0.6-1c-0.1-0.3-0.3-0.6-0.4-1c-0.1-0.4-0.2-0.7-0.3-1.1C273,205.2,273,204.9,272.9,204.5z M277.7,204.8
			c-0.1-0.1-0.2-0.3-0.2-0.4s0.1-0.3,0.2-0.4s0.3-0.2,0.4-0.2l3.8,0c0.2,0,0.3,0.1,0.4,0.2s0.2,0.3,0.2,0.4s-0.1,0.3-0.2,0.4
			s-0.3,0.2-0.4,0.2l-3.8,0C278,205,277.8,204.9,277.7,204.8z"/>
		<path class="st1" d="M287.3,210.6v-12.8c0-0.2,0.1-0.3,0.2-0.4s0.3-0.2,0.4-0.2s0.3,0.1,0.4,0.2s0.2,0.3,0.2,0.4v12.8
			c0,0.2-0.1,0.3-0.2,0.4s-0.3,0.2-0.4,0.2s-0.3-0.1-0.4-0.2S287.3,210.7,287.3,210.6z"/>
		<path class="st1" d="M291,198c0-0.1,0-0.1,0-0.2c0-0.1,0-0.2,0.1-0.2c0.1-0.1,0.2-0.3,0.3-0.3c0.1,0,0.1,0,0.2,0
			c0.1,0,0.2,0,0.3,0.1c0.1,0.1,0.3,0.2,0.3,0.3l4.7,12.8c0.1,0.2,0,0.3,0,0.5s-0.2,0.2-0.3,0.3c-0.1,0-0.1,0-0.2,0
			c-0.1,0-0.2,0-0.3-0.1c-0.1-0.1-0.3-0.2-0.3-0.3L291,198z M297.1,206.6l3.4-9c0.1-0.2,0.2-0.3,0.3-0.3c0.1,0,0.2-0.1,0.2-0.1
			c0.1,0,0.1,0,0.2,0c0.2,0.1,0.3,0.2,0.3,0.3c0,0.1,0.1,0.2,0.1,0.2c0,0.1,0,0.1,0,0.2l-3.4,9c-0.1,0.2-0.2,0.3-0.3,0.3
			c-0.1,0-0.2,0.1-0.3,0.1c-0.1,0-0.1,0-0.2,0c-0.2-0.1-0.3-0.2-0.3-0.3c0-0.1-0.1-0.2-0.1-0.3C297.1,206.7,297.1,206.6,297.1,206.6
			z"/>
		<path class="st1" d="M304.3,210.6v-12.8c0-0.2,0.1-0.3,0.2-0.4s0.3-0.2,0.4-0.2s0.3,0.1,0.4,0.2s0.2,0.3,0.2,0.4v12.8
			c0,0.2-0.1,0.3-0.2,0.4s-0.3,0.2-0.4,0.2s-0.3-0.1-0.4-0.2S304.3,210.7,304.3,210.6z M306.1,211c-0.1-0.1-0.2-0.3-0.2-0.4
			s0.1-0.3,0.2-0.4c0.1-0.1,0.3-0.2,0.4-0.2h6.4c0.2,0,0.3,0.1,0.4,0.2c0.1,0.1,0.2,0.3,0.2,0.4s-0.1,0.3-0.2,0.4
			c-0.1,0.1-0.3,0.2-0.4,0.2h-6.4C306.4,211.2,306.2,211.1,306.1,211z M306.2,198.2c-0.1-0.1-0.2-0.3-0.2-0.4s0.1-0.3,0.2-0.4
			s0.3-0.2,0.4-0.2h6.3c0.2,0,0.3,0.1,0.4,0.2s0.2,0.3,0.2,0.4s-0.1,0.3-0.2,0.4s-0.3,0.2-0.4,0.2h-6.3
			C306.4,198.4,306.3,198.3,306.2,198.2z M306.2,204.1c-0.1-0.1-0.2-0.3-0.2-0.4s0.1-0.3,0.2-0.4s0.3-0.2,0.4-0.2h5.2
			c0.2,0,0.3,0.1,0.4,0.2s0.2,0.3,0.2,0.4s-0.1,0.3-0.2,0.4s-0.3,0.2-0.4,0.2h-5.2C306.4,204.3,306.3,204.2,306.2,204.1z"/>
		<path class="st1" d="M315.6,198c0-0.1,0-0.1,0-0.2c0-0.1,0-0.2,0.1-0.2c0.1-0.1,0.2-0.3,0.3-0.3c0.1,0,0.1,0,0.2,0
			c0.1,0,0.2,0,0.3,0.1c0.1,0.1,0.3,0.2,0.3,0.3l4.7,12.8c0.1,0.2,0,0.3,0,0.5c-0.1,0.1-0.2,0.3-0.3,0.3c-0.1,0-0.1,0-0.2,0
			c-0.1,0-0.2,0-0.3-0.1c-0.2-0.1-0.3-0.2-0.3-0.3L315.6,198z M321.5,207.1l3.6-9.6c0.1-0.2,0.2-0.3,0.3-0.3c0.1,0,0.2-0.1,0.3-0.1
			c0.1,0,0.1,0,0.2,0c0.2,0.1,0.3,0.2,0.3,0.3s0.1,0.3,0,0.5l-3.6,9.6c-0.1,0.2-0.2,0.3-0.3,0.3c-0.1,0.1-0.3,0.1-0.5,0
			c-0.2-0.1-0.3-0.2-0.3-0.3c0-0.1-0.1-0.2,0-0.3C321.5,207.3,321.5,207.2,321.5,207.1z M324.2,205.7c0-0.1,0-0.1,0-0.2
			c0-0.1,0-0.2,0.1-0.2c0.1-0.1,0.2-0.3,0.3-0.3c0.1-0.1,0.3,0,0.4,0s0.3,0.2,0.3,0.3l2,5.1c0.1,0.1,0,0.3,0,0.4s-0.2,0.3-0.3,0.3
			c-0.1,0-0.1,0-0.2,0l-0.2-0.1c-0.1-0.1-0.3-0.2-0.3-0.3L324.2,205.7z M327.5,206.6l3.4-9.1c0.1-0.2,0.2-0.3,0.3-0.3
			c0.1,0,0.2-0.1,0.3-0.1c0.1,0,0.1,0,0.2,0c0.2,0.1,0.3,0.2,0.3,0.3c0,0.1,0.1,0.2,0.1,0.2c0,0.1,0,0.1,0,0.2l-3.4,9.1
			c-0.1,0.2-0.2,0.3-0.3,0.3c-0.1,0-0.2,0.1-0.3,0.1c-0.1,0-0.1,0-0.2,0c-0.2-0.1-0.3-0.2-0.3-0.3c0-0.1-0.1-0.2-0.1-0.3
			C327.5,206.8,327.5,206.7,327.5,206.6z"/>
		<path class="st1" d="M333.4,210.8c0-0.1,0-0.2,0-0.2c0-0.1,0-0.2,0-0.2l4.4-10.4c0.1-0.1,0.2-0.3,0.3-0.3s0.3-0.1,0.5,0
			s0.2,0.2,0.3,0.3s0.1,0.3,0,0.5l-4.4,10.4c-0.1,0.1-0.2,0.3-0.3,0.3c-0.1,0-0.2,0-0.2,0c-0.1,0-0.2,0-0.2-0.1
			C333.5,211.1,333.4,211,333.4,210.8z M337.4,206.5c-0.1-0.1-0.2-0.3-0.2-0.4s0.1-0.3,0.2-0.4s0.3-0.2,0.4-0.2h3.2
			c0.2,0,0.3,0.1,0.4,0.2s0.2,0.3,0.2,0.4s-0.1,0.3-0.2,0.4s-0.3,0.2-0.4,0.2h-3.2C337.6,206.7,337.5,206.6,337.4,206.5z
			 M338.9,197.6c0.1-0.2,0.2-0.3,0.3-0.3c0.1,0,0.2,0,0.2,0c0.1,0,0.1,0,0.2,0c0.2,0.1,0.3,0.2,0.3,0.3l5.5,12.8c0,0.1,0,0.2,0,0.2
			c0,0.1,0,0.1,0,0.2c-0.1,0.2-0.2,0.3-0.3,0.3c-0.1,0-0.2,0.1-0.2,0.1c-0.1,0-0.1,0-0.2,0c-0.2-0.1-0.3-0.2-0.3-0.3l-5.5-12.8
			c0-0.1,0-0.2,0-0.2C338.8,197.7,338.9,197.7,338.9,197.6z"/>
		<path class="st1" d="M346.8,197.3c0.1-0.1,0.2-0.1,0.4-0.1c0,0,0,0,0,0c0.2,0,0.3,0.1,0.4,0.2l5.5,6c0.1,0.1,0.2,0.3,0.1,0.4
			s-0.1,0.3-0.2,0.4s-0.3,0.2-0.4,0.2s-0.3-0.1-0.4-0.2l-5.5-6c-0.1-0.1-0.1-0.2-0.2-0.4C346.6,197.6,346.6,197.4,346.8,197.3z
			 M352,210.6v-4.8c0-0.2,0.1-0.3,0.2-0.4s0.3-0.2,0.4-0.2s0.3,0.1,0.4,0.2s0.2,0.3,0.2,0.4v4.8c0,0.2-0.1,0.3-0.2,0.4
			s-0.3,0.2-0.4,0.2s-0.3-0.1-0.4-0.2S352,210.7,352,210.6z M354,201.5c0-0.2,0-0.3,0.1-0.4l3.5-3.8c0.1-0.1,0.2-0.2,0.4-0.2
			c0,0,0,0,0,0c0.2,0,0.3,0,0.4,0.1c0.1,0.1,0.2,0.2,0.2,0.4c0,0,0,0,0,0c0,0.2,0,0.3-0.1,0.4l-3.5,3.8c-0.1,0.1-0.2,0.2-0.4,0.2
			c0,0,0,0,0,0c-0.2,0-0.3-0.1-0.4-0.2C354.1,201.9,354,201.7,354,201.5z"/>
		<path class="st1" d="M360.2,207.1V207c0-0.2,0.1-0.3,0.2-0.4s0.3-0.2,0.4-0.1s0.3,0.1,0.4,0.2s0.2,0.3,0.2,0.4v0.1
			c0,0.7,0.3,1.3,0.8,1.8c0.4,0.4,0.8,0.6,1.3,0.8c0.5,0.2,1,0.3,1.6,0.3h0c0.5,0,1-0.1,1.4-0.2c0.5-0.1,0.9-0.4,1.2-0.7
			c0.5-0.5,0.7-1,0.7-1.7v0c0-0.2,0.1-0.3,0.2-0.4c0.1-0.1,0.3-0.2,0.4-0.2s0.3,0.1,0.4,0.2s0.2,0.3,0.2,0.4v0.1l-0.1,0
			c0,1-0.4,1.9-1.1,2.6c-0.4,0.4-1,0.7-1.6,0.9c-0.6,0.2-1.1,0.3-1.8,0.3h0c-0.7,0-1.4-0.1-2-0.3c-0.7-0.2-1.3-0.6-1.8-1.1
			C360.6,209,360.2,208.1,360.2,207.1z M362.2,198.3c0.4-0.4,0.8-0.7,1.4-0.9c0.4-0.1,0.9-0.2,1.5-0.2h0c1,0,1.9,0.3,2.7,0.8
			c0.9,0.7,1.4,1.6,1.5,2.7c0,0,0,0,0,0.1c0,0.1,0,0.3-0.1,0.4c-0.1,0.1-0.3,0.2-0.4,0.2c-0.2,0-0.3,0-0.4-0.1
			c-0.1-0.1-0.2-0.3-0.2-0.4c0-0.7-0.4-1.3-1-1.8h0.1c-0.5-0.4-1.2-0.6-2-0.6h0c-0.4,0-0.7,0.1-1.1,0.2c-0.4,0.1-0.7,0.3-0.9,0.5
			c-0.3,0.3-0.5,0.7-0.5,1.2c0,0.2-0.1,0.3-0.2,0.4s-0.3,0.2-0.4,0.2c-0.2,0-0.3-0.1-0.4-0.2c-0.1-0.1-0.2-0.2-0.1-0.4
			C361.4,199.5,361.6,198.9,362.2,198.3z M361.9,201.8c0-0.2,0.1-0.3,0.3-0.4c0.1-0.1,0.2-0.1,0.3-0.1c0,0,0.1,0,0.1,0
			c0.2,0,0.3,0.1,0.4,0.3c0.1,0.2,0.3,0.4,0.4,0.5v0c0.5,0.5,1.1,0.9,1.9,1.1c0.1,0.1,0.4,0.1,0.7,0.2c0.3,0.1,0.6,0.2,0.8,0.3
			c0.2,0.1,0.4,0.2,0.7,0.3s0.5,0.3,0.7,0.4c0.2,0.2,0.4,0.3,0.6,0.5c0.1,0.1,0.1,0.2,0.1,0.4c0,0.2-0.1,0.3-0.2,0.4
			c-0.1,0.1-0.2,0.1-0.4,0.1c0,0,0,0,0,0c-0.2,0-0.3-0.1-0.4-0.2c-0.1-0.1-0.3-0.2-0.4-0.3c-0.2-0.1-0.4-0.3-0.7-0.4s-0.6-0.2-1-0.4
			c-0.4-0.1-0.7-0.2-0.9-0.3c-1-0.4-1.8-0.8-2.4-1.4c-0.2-0.2-0.4-0.5-0.5-0.7c-0.1-0.1-0.1-0.2-0.1-0.3
			C361.8,201.9,361.8,201.9,361.9,201.8z"/>
	</g>
</g>
</svg>
